<?xml version="1.0" encoding="UTF-8" standalone="no"?>
<!-- Created with Inkscape (http://www.inkscape.org/) -->

<svg
   xmlns:dc="http://purl.org/dc/elements/1.1/"
   xmlns:cc="http://creativecommons.org/ns#"
   xmlns:rdf="http://www.w3.org/1999/02/22-rdf-syntax-ns#"
   xmlns:svg="http://www.w3.org/2000/svg"
   xmlns="http://www.w3.org/2000/svg"
   xmlns:inkscape="http://www.inkscape.org/namespaces/inkscape"
   version="1.1"
   width="107.5"
   height="235"
   id="svg2"
   xml:space="preserve"><metadata
     id="metadata8"><rdf:RDF><cc:Work
         rdf:about=""><dc:format>image/svg+xml</dc:format><dc:type
           rdf:resource="http://purl.org/dc/dcmitype/StillImage" /></cc:Work></rdf:RDF></metadata><defs
     id="defs6"><clipPath
       id="clipPath18"><path
         d="M 0,0 86,0 86,188 0,188 0,0 z"
         inkscape:connector-curvature="0"
         id="path20" /></clipPath><clipPath
       id="clipPath28"><path
         d="M 0,0 86,0 86,188 0,188 0,0 z"
         inkscape:connector-curvature="0"
         id="path30" /></clipPath><clipPath
       id="clipPath38"><path
         d="M 0,0 86,0 86,188 0,188 0,0 z"
         inkscape:connector-curvature="0"
         id="path40" /></clipPath><clipPath
       id="clipPath48"><path
         d="M 0,0 612,0 612,792 0,792 0,0 z"
         inkscape:connector-curvature="0"
         id="path50" /></clipPath></defs><g
     transform="matrix(1.25,0,0,-1.25,0,235)"
     id="g10"><g
       id="g12"><g
         id="g14"><g
           clip-path="url(#clipPath18)"
           id="g16"><g
             id="g22"><g
               id="g24"><g
                 clip-path="url(#clipPath28)"
                 id="g26"><g
                   id="g32"><g
                     id="g34"><g
                       clip-path="url(#clipPath38)"
                       id="g36"><g
                         transform="translate(-263,-243)"
                         id="g42"><g
                           id="g44"><g
                             clip-path="url(#clipPath48)"
                             id="g46"><g
                               transform="scale(0.12,0.12)"
                               id="g52"><g
                                 transform="scale(8.33333,8.33333)"
                                 id="g54"><text
                                   transform="matrix(1,0,0,-1,280.56,302.28)"
                                   id="text56"><tspan
                                   x="0 5.160006 10.440012 14.160011 16.440023 19.440012 24.720016 30.000023 38.160011 43.440018 48.720024"
                                   y="0"
                                   id="tspan58"
                                   style="font-size:9px;font-variant:normal;font-weight:normal;writing-mode:lr-tb;fill:#000000;fill-opacity:1;fill-rule:nonzero;stroke:none;font-family:Helvetica;-inkscape-font-specification:Helvetica">environment</tspan></text>
</g><path
                                 d="m 2363,2119 375,0 0,381 -375,0 0,-381 z"
                                 inkscape:connector-curvature="0"
                                 id="path60"
                                 style="fill:#ffffff;fill-opacity:1;fill-rule:evenodd;stroke:none" /><path
                                 d="m 2363,2119 375,0 0,381 -375,0 0,-381 z"
                                 inkscape:connector-curvature="0"
                                 id="path62"
                                 style="fill:none;stroke:#ffffff;stroke-width:1;stroke-linecap:round;stroke-linejoin:round;stroke-miterlimit:10;stroke-opacity:1;stroke-dasharray:none" /><path
                                 d="m 2381,2125 338,0 0,350 -338,0 0,-350 z"
                                 inkscape:connector-curvature="0"
                                 id="path64"
                                 style="fill:#ffffff;fill-opacity:1;fill-rule:evenodd;stroke:none" /><path
                                 d="m 2381,2125 338,0 0,350 -338,0 0,-350 z"
                                 inkscape:connector-curvature="0"
                                 id="path66"
                                 style="fill:none;stroke:#ffffff;stroke-width:1;stroke-linecap:round;stroke-linejoin:round;stroke-miterlimit:10;stroke-opacity:1;stroke-dasharray:none" /><path
                                 d="m 2381,2125 338,0 0,350 -338,0 0,-350 z"
                                 inkscape:connector-curvature="0"
                                 id="path68"
                                 style="fill:#f8fcff;fill-opacity:1;fill-rule:evenodd;stroke:none" /><path
                                 d="m 2381,2125 338,0 0,350 -338,0 0,-350 z"
                                 inkscape:connector-curvature="0"
                                 id="path70"
                                 style="fill:none;stroke:#f8fcff;stroke-width:1;stroke-linecap:round;stroke-linejoin:round;stroke-miterlimit:10;stroke-opacity:1;stroke-dasharray:none" /><path
                                 d="m 2381,2125 338,0 0,350 -338,0 0,-350 z"
                                 inkscape:connector-curvature="0"
                                 id="path72"
                                 style="fill:#f2f9ff;fill-opacity:1;fill-rule:evenodd;stroke:none" /><path
                                 d="m 2381,2125 338,0 0,350 -338,0 0,-350 z"
                                 inkscape:connector-curvature="0"
                                 id="path74"
                                 style="fill:none;stroke:#f2f9ff;stroke-width:1;stroke-linecap:round;stroke-linejoin:round;stroke-miterlimit:10;stroke-opacity:1;stroke-dasharray:none" /><path
                                 d="m 2381,2125 338,0 0,344 -338,0 0,-344 z"
                                 inkscape:connector-curvature="0"
                                 id="path76"
                                 style="fill:#ecf6ff;fill-opacity:1;fill-rule:evenodd;stroke:none" /><path
                                 d="m 2381,2125 338,0 0,344 -338,0 0,-344 z"
                                 inkscape:connector-curvature="0"
                                 id="path78"
                                 style="fill:none;stroke:#ecf6ff;stroke-width:1;stroke-linecap:round;stroke-linejoin:round;stroke-miterlimit:10;stroke-opacity:1;stroke-dasharray:none" /><path
                                 d="m 2381,2131 338,0 0,338 -338,0 0,-338 z"
                                 inkscape:connector-curvature="0"
                                 id="path80"
                                 style="fill:#e7f3ff;fill-opacity:1;fill-rule:evenodd;stroke:none" /><path
                                 d="m 2381,2131 338,0 0,338 -338,0 0,-338 z"
                                 inkscape:connector-curvature="0"
                                 id="path82"
                                 style="fill:none;stroke:#e7f3ff;stroke-width:1;stroke-linecap:round;stroke-linejoin:round;stroke-miterlimit:10;stroke-opacity:1;stroke-dasharray:none" /><path
                                 d="m 2381,2131 338,0 0,331 -338,0 0,-331 z"
                                 inkscape:connector-curvature="0"
                                 id="path84"
                                 style="fill:#e1f0ff;fill-opacity:1;fill-rule:evenodd;stroke:none" /><path
                                 d="m 2381,2131 338,0 0,331 -338,0 0,-331 z"
                                 inkscape:connector-curvature="0"
                                 id="path86"
                                 style="fill:none;stroke:#e1f0ff;stroke-width:1;stroke-linecap:round;stroke-linejoin:round;stroke-miterlimit:10;stroke-opacity:1;stroke-dasharray:none" /><path
                                 d="m 2381,2137 338,0 0,325 -338,0 0,-325 z"
                                 inkscape:connector-curvature="0"
                                 id="path88"
                                 style="fill:#dbedff;fill-opacity:1;fill-rule:evenodd;stroke:none" /><path
                                 d="m 2381,2137 338,0 0,325 -338,0 0,-325 z"
                                 inkscape:connector-curvature="0"
                                 id="path90"
                                 style="fill:none;stroke:#dbedff;stroke-width:1;stroke-linecap:round;stroke-linejoin:round;stroke-miterlimit:10;stroke-opacity:1;stroke-dasharray:none" /><path
                                 d="m 2381,2144 338,0 0,312 -338,0 0,-312 z"
                                 inkscape:connector-curvature="0"
                                 id="path92"
                                 style="fill:#d6eaff;fill-opacity:1;fill-rule:evenodd;stroke:none" /><path
                                 d="m 2381,2144 338,0 0,312 -338,0 0,-312 z"
                                 inkscape:connector-curvature="0"
                                 id="path94"
                                 style="fill:none;stroke:#d6eaff;stroke-width:1;stroke-linecap:round;stroke-linejoin:round;stroke-miterlimit:10;stroke-opacity:1;stroke-dasharray:none" /><path
                                 d="m 2381,2150 338,0 0,300 -338,0 0,-300 z"
                                 inkscape:connector-curvature="0"
                                 id="path96"
                                 style="fill:#d1e8ff;fill-opacity:1;fill-rule:evenodd;stroke:none" /><path
                                 d="m 2381,2150 338,0 0,300 -338,0 0,-300 z"
                                 inkscape:connector-curvature="0"
                                 id="path98"
                                 style="fill:none;stroke:#d1e8ff;stroke-width:1;stroke-linecap:round;stroke-linejoin:round;stroke-miterlimit:10;stroke-opacity:1;stroke-dasharray:none" /><path
                                 d="m 2381,2156 338,0 0,288 -338,0 0,-288 z"
                                 inkscape:connector-curvature="0"
                                 id="path100"
                                 style="fill:#cce5ff;fill-opacity:1;fill-rule:evenodd;stroke:none" /><path
                                 d="m 2381,2156 338,0 0,288 -338,0 0,-288 z"
                                 inkscape:connector-curvature="0"
                                 id="path102"
                                 style="fill:none;stroke:#cce5ff;stroke-width:1;stroke-linecap:round;stroke-linejoin:round;stroke-miterlimit:10;stroke-opacity:1;stroke-dasharray:none" /><path
                                 d="m 2381,2162 338,0 0,269 -338,0 0,-269 z"
                                 inkscape:connector-curvature="0"
                                 id="path104"
                                 style="fill:#c7e3ff;fill-opacity:1;fill-rule:evenodd;stroke:none" /><path
                                 d="m 2381,2162 338,0 0,269 -338,0 0,-269 z"
                                 inkscape:connector-curvature="0"
                                 id="path106"
                                 style="fill:none;stroke:#c7e3ff;stroke-width:1;stroke-linecap:round;stroke-linejoin:round;stroke-miterlimit:10;stroke-opacity:1;stroke-dasharray:none" /><path
                                 d="m 2381,2175 338,0 0,250 -338,0 0,-250 z"
                                 inkscape:connector-curvature="0"
                                 id="path108"
                                 style="fill:#c2e1ff;fill-opacity:1;fill-rule:evenodd;stroke:none" /><path
                                 d="m 2381,2175 338,0 0,250 -338,0 0,-250 z"
                                 inkscape:connector-curvature="0"
                                 id="path110"
                                 style="fill:none;stroke:#c2e1ff;stroke-width:1;stroke-linecap:round;stroke-linejoin:round;stroke-miterlimit:10;stroke-opacity:1;stroke-dasharray:none" /><path
                                 d="m 2381,2181 338,0 0,238 -338,0 0,-238 z"
                                 inkscape:connector-curvature="0"
                                 id="path112"
                                 style="fill:#bedfff;fill-opacity:1;fill-rule:evenodd;stroke:none" /><path
                                 d="m 2381,2181 338,0 0,238 -338,0 0,-238 z"
                                 inkscape:connector-curvature="0"
                                 id="path114"
                                 style="fill:none;stroke:#bedfff;stroke-width:1;stroke-linecap:round;stroke-linejoin:round;stroke-miterlimit:10;stroke-opacity:1;stroke-dasharray:none" /><path
                                 d="m 2381,2194 338,0 0,212 -338,0 0,-212 z"
                                 inkscape:connector-curvature="0"
                                 id="path116"
                                 style="fill:#baddff;fill-opacity:1;fill-rule:evenodd;stroke:none" /><path
                                 d="m 2381,2194 338,0 0,212 -338,0 0,-212 z"
                                 inkscape:connector-curvature="0"
                                 id="path118"
                                 style="fill:none;stroke:#baddff;stroke-width:1;stroke-linecap:round;stroke-linejoin:round;stroke-miterlimit:10;stroke-opacity:1;stroke-dasharray:none" /><path
                                 d="m 2381,2200 338,0 0,200 -338,0 0,-200 z"
                                 inkscape:connector-curvature="0"
                                 id="path120"
                                 style="fill:#b7dbff;fill-opacity:1;fill-rule:evenodd;stroke:none" /><path
                                 d="m 2381,2200 338,0 0,200 -338,0 0,-200 z"
                                 inkscape:connector-curvature="0"
                                 id="path122"
                                 style="fill:none;stroke:#b7dbff;stroke-width:1;stroke-linecap:round;stroke-linejoin:round;stroke-miterlimit:10;stroke-opacity:1;stroke-dasharray:none" /><path
                                 d="m 2381,2212 338,0 0,175 -338,0 0,-175 z"
                                 inkscape:connector-curvature="0"
                                 id="path124"
                                 style="fill:#b4daff;fill-opacity:1;fill-rule:evenodd;stroke:none" /><path
                                 d="m 2381,2212 338,0 0,175 -338,0 0,-175 z"
                                 inkscape:connector-curvature="0"
                                 id="path126"
                                 style="fill:none;stroke:#b4daff;stroke-width:1;stroke-linecap:round;stroke-linejoin:round;stroke-miterlimit:10;stroke-opacity:1;stroke-dasharray:none" /><path
                                 d="m 2381,2225 338,0 0,150 -338,0 0,-150 z"
                                 inkscape:connector-curvature="0"
                                 id="path128"
                                 style="fill:#b1d8ff;fill-opacity:1;fill-rule:evenodd;stroke:none" /><path
                                 d="m 2381,2225 338,0 0,150 -338,0 0,-150 z"
                                 inkscape:connector-curvature="0"
                                 id="path130"
                                 style="fill:none;stroke:#b1d8ff;stroke-width:1;stroke-linecap:round;stroke-linejoin:round;stroke-miterlimit:10;stroke-opacity:1;stroke-dasharray:none" /><path
                                 d="m 2381,2231 338,0 0,131 -338,0 0,-131 z"
                                 inkscape:connector-curvature="0"
                                 id="path132"
                                 style="fill:#afd7ff;fill-opacity:1;fill-rule:evenodd;stroke:none" /><path
                                 d="m 2381,2231 338,0 0,131 -338,0 0,-131 z"
                                 inkscape:connector-curvature="0"
                                 id="path134"
                                 style="fill:none;stroke:#afd7ff;stroke-width:1;stroke-linecap:round;stroke-linejoin:round;stroke-miterlimit:10;stroke-opacity:1;stroke-dasharray:none" /><path
                                 d="m 2381,2250 332,0 0,106 -332,0 0,-106 z"
                                 inkscape:connector-curvature="0"
                                 id="path136"
                                 style="fill:#add6ff;fill-opacity:1;fill-rule:evenodd;stroke:none" /><path
                                 d="m 2381,2250 332,0 0,106 -332,0 0,-106 z"
                                 inkscape:connector-curvature="0"
                                 id="path138"
                                 style="fill:none;stroke:#add6ff;stroke-width:1;stroke-linecap:round;stroke-linejoin:round;stroke-miterlimit:10;stroke-opacity:1;stroke-dasharray:none" /><path
                                 d="m 2381,2256 332,0 0,88 -332,0 0,-88 z"
                                 inkscape:connector-curvature="0"
                                 id="path140"
                                 style="fill:#abd5ff;fill-opacity:1;fill-rule:evenodd;stroke:none" /><path
                                 d="m 2381,2256 332,0 0,88 -332,0 0,-88 z"
                                 inkscape:connector-curvature="0"
                                 id="path142"
                                 style="fill:none;stroke:#abd5ff;stroke-width:1;stroke-linecap:round;stroke-linejoin:round;stroke-miterlimit:10;stroke-opacity:1;stroke-dasharray:none" /><path
                                 d="m 2381,2269 332,0 0,62 -332,0 0,-62 z"
                                 inkscape:connector-curvature="0"
                                 id="path144"
                                 style="fill:#aad5ff;fill-opacity:1;fill-rule:evenodd;stroke:none" /><path
                                 d="m 2381,2269 332,0 0,62 -332,0 0,-62 z"
                                 inkscape:connector-curvature="0"
                                 id="path146"
                                 style="fill:none;stroke:#aad5ff;stroke-width:1;stroke-linecap:round;stroke-linejoin:round;stroke-miterlimit:10;stroke-opacity:1;stroke-dasharray:none" /><path
                                 d="m 2381,2281 332,0 0,38 -332,0 0,-38 z"
                                 inkscape:connector-curvature="0"
                                 id="path148"
                                 style="fill:#aad5ff;fill-opacity:1;fill-rule:evenodd;stroke:none" /><path
                                 d="m 2381,2281 332,0 0,38 -332,0 0,-38 z"
                                 inkscape:connector-curvature="0"
                                 id="path150"
                                 style="fill:none;stroke:#aad5ff;stroke-width:1;stroke-linecap:round;stroke-linejoin:round;stroke-miterlimit:10;stroke-opacity:1;stroke-dasharray:none" /><path
                                 d="m 2381,2294 332,0 0,12 -332,0 0,-12 z"
                                 inkscape:connector-curvature="0"
                                 id="path152"
                                 style="fill:#aad5ff;fill-opacity:1;fill-rule:evenodd;stroke:none" /><path
                                 d="m 2381,2294 332,0 0,12 -332,0 0,-12 z"
                                 inkscape:connector-curvature="0"
                                 id="path154"
                                 style="fill:none;stroke:#aad5ff;stroke-width:1;stroke-linecap:round;stroke-linejoin:round;stroke-miterlimit:10;stroke-opacity:1;stroke-dasharray:none" /><path
                                 d="m 2381,2119 344,0 0,93 -344,0 0,-93 z"
                                 inkscape:connector-curvature="0"
                                 id="path156"
                                 style="fill:#ffffff;fill-opacity:1;fill-rule:evenodd;stroke:none" /><path
                                 d="m 2381,2119 344,0 0,93 -344,0 0,-93 z"
                                 inkscape:connector-curvature="0"
                                 id="path158"
                                 style="fill:none;stroke:#ffffff;stroke-width:1;stroke-linecap:round;stroke-linejoin:round;stroke-miterlimit:10;stroke-opacity:1;stroke-dasharray:none" /><path
                                 d="m 2458,2309 12,-6 1,-1 6,-6 6,-6 7,-7 1,-2 0,-6 -3,0 0,3 6,0 2,-1 6,-6 1,-2 0,-7 -3,0 2,3 6,-7 -2,-2 0,3 7,0 3,-3 0,-6 -3,0 0,3 6,0 3,-3 0,-6 -3,0 0,3 6,0 3,-3 0,-7 -3,0 -2,3 6,6 2,-2 -3,0 0,6 1,2 6,6 7,7 2,-3 -3,0 0,7 1,2 6,6 6,6 2,-2 -3,2 7,12 0,1 7,6 6,6 6,7 6,6 7,6 6,6 6,7 2,1 7,0 0,-4 -3,3 7,6 0,1 25,12 3,-6 -25,-12 -1,3 2,-2 -6,-7 -2,-1 -7,0 0,3 2,-2 -6,-6 -6,-6 -6,-6 -7,-7 -6,-6 -6,-6 -6,-6 -2,2 2,-2 -6,-12 -1,-1 -6,-6 -6,-6 -2,2 3,0 0,-7 -1,-2 -6,-6 -7,-6 -2,2 3,0 0,-6 -1,-2 -6,-7 -5,2 0,7 3,0 0,-3 -6,0 -3,3 0,6 3,0 0,-3 -6,0 -4,3 0,6 4,0 0,-3 -7,0 -2,1 -6,6 -1,2 0,7 3,0 -2,-2 -6,6 2,2 0,-3 -6,0 -4,3 0,6 4,0 -3,-2 -6,6 -6,7 -6,6 2,2 -2,-3 -12,6 3,6"
                                 inkscape:connector-curvature="0"
                                 id="path160"
                                 style="fill:#000000;fill-opacity:1;fill-rule:nonzero;stroke:none" /><path
                                 d="m 2663,2356 0,-6 -7,-6 -6,-7 -12,0 -7,7 -6,6 0,12 6,7 7,6 12,0 6,-6 7,-7 0,-6"
                                 inkscape:connector-curvature="0"
                                 id="path162"
                                 style="fill:#aad5ff;fill-opacity:1;fill-rule:evenodd;stroke:none" /><path
                                 d="m 2663,2356 0,-6 -7,-6 -6,-7 -12,0 -7,7 -6,6 0,12 6,7 7,6 12,0 6,-6 7,-7 0,-6 z"
                                 inkscape:connector-curvature="0"
                                 id="path164"
                                 style="fill:none;stroke:#aad5ff;stroke-width:1;stroke-linecap:round;stroke-linejoin:round;stroke-miterlimit:10;stroke-opacity:1;stroke-dasharray:none" /><path
                                 d="m 2663,2356 0,-6 -7,-6 -6,-7 -12,0 -7,7 -6,6 0,12 6,7 7,6 12,0 6,-6 7,-7 0,-6"
                                 inkscape:connector-curvature="0"
                                 id="path166"
                                 style="fill:#84a2bf;fill-opacity:1;fill-rule:evenodd;stroke:none" /><path
                                 d="m 2663,2356 0,-6 -7,-6 -6,-7 -12,0 -7,7 -6,6 0,12 6,7 7,6 12,0 6,-6 7,-7 0,-6 z"
                                 inkscape:connector-curvature="0"
                                 id="path168"
                                 style="fill:none;stroke:#84a2bf;stroke-width:1;stroke-linecap:round;stroke-linejoin:round;stroke-miterlimit:10;stroke-opacity:1;stroke-dasharray:none" /><path
                                 d="m 2663,2356 0,-6 -7,-6 -6,-7 -12,0 -7,7 -6,6 0,12 6,7 7,6 12,0 6,-6 7,-7 0,-6"
                                 inkscape:connector-curvature="0"
                                 id="path170"
                                 style="fill:#637586;fill-opacity:1;fill-rule:evenodd;stroke:none" /><path
                                 d="m 2663,2356 0,-6 -7,-6 -6,-7 -12,0 -7,7 -6,6 0,12 6,7 7,6 12,0 6,-6 7,-7 0,-6 z"
                                 inkscape:connector-curvature="0"
                                 id="path172"
                                 style="fill:none;stroke:#637586;stroke-width:1;stroke-linecap:round;stroke-linejoin:round;stroke-miterlimit:10;stroke-opacity:1;stroke-dasharray:none" /><path
                                 d="m 2656,2356 0,-6 -6,0 0,-6 -12,0 0,6 -7,0 0,12 7,0 0,7 12,0 0,-7 6,0 0,-6"
                                 inkscape:connector-curvature="0"
                                 id="path174"
                                 style="fill:#485159;fill-opacity:1;fill-rule:evenodd;stroke:none" /><path
                                 d="m 2656,2356 0,-6 -6,0 0,-6 -12,0 0,6 -7,0 0,12 7,0 0,7 12,0 0,-7 6,0 0,-6 z"
                                 inkscape:connector-curvature="0"
                                 id="path176"
                                 style="fill:none;stroke:#485159;stroke-width:1;stroke-linecap:round;stroke-linejoin:round;stroke-miterlimit:10;stroke-opacity:1;stroke-dasharray:none" /><path
                                 d="m 2650,2356 0,-6 -12,0 0,12 12,0 0,-6"
                                 inkscape:connector-curvature="0"
                                 id="path178"
                                 style="fill:#37393c;fill-opacity:1;fill-rule:evenodd;stroke:none" /><path
                                 d="m 2650,2356 0,-6 -12,0 0,12 12,0 0,-6 z"
                                 inkscape:connector-curvature="0"
                                 id="path180"
                                 style="fill:none;stroke:#37393c;stroke-width:1;stroke-linecap:round;stroke-linejoin:round;stroke-miterlimit:10;stroke-opacity:1;stroke-dasharray:none" /><path
                                 d="m 2644,2350 6,0 0,6 -6,0 0,-6 z"
                                 inkscape:connector-curvature="0"
                                 id="path182"
                                 style="fill:#323232;fill-opacity:1;fill-rule:evenodd;stroke:none" /><path
                                 d="m 2644,2350 6,0 0,6 -6,0 0,-6 z"
                                 inkscape:connector-curvature="0"
                                 id="path184"
                                 style="fill:none;stroke:#323232;stroke-width:1;stroke-linecap:round;stroke-linejoin:round;stroke-miterlimit:10;stroke-opacity:1;stroke-dasharray:none" /><path
                                 d="m 2719,2212 12,0 0,263 -12,0 0,-263 z"
                                 inkscape:connector-curvature="0"
                                 id="path186"
                                 style="fill:#ffffff;fill-opacity:1;fill-rule:evenodd;stroke:none" /><path
                                 d="m 2719,2212 12,0 0,263 -12,0 0,-263 z"
                                 inkscape:connector-curvature="0"
                                 id="path188"
                                 style="fill:none;stroke:#ffffff;stroke-width:1;stroke-linecap:round;stroke-linejoin:round;stroke-miterlimit:10;stroke-opacity:1;stroke-dasharray:none" /><path
                                 d="m 2369,2212 12,0 0,263 -12,0 0,-263 z"
                                 inkscape:connector-curvature="0"
                                 id="path190"
                                 style="fill:#ffffff;fill-opacity:1;fill-rule:evenodd;stroke:none" /><path
                                 d="m 2369,2212 12,0 0,263 -12,0 0,-263 z"
                                 inkscape:connector-curvature="0"
                                 id="path192"
                                 style="fill:none;stroke:#ffffff;stroke-width:1;stroke-linecap:round;stroke-linejoin:round;stroke-miterlimit:10;stroke-opacity:1;stroke-dasharray:none" /><path
                                 d="m 2363,2503 25,0 0,-6 -25,0 0,6 z m 37,0 25,0 0,-6 -25,0 0,6 z m 38,0 25,0 0,-6 -25,0 0,6 z m 37,0 25,0 0,-6 -25,0 0,6 z m 38,0 25,0 0,-6 -25,0 0,6 z m 37,0 25,0 0,-6 -25,0 0,6 z m 38,0 25,0 0,-6 -25,0 0,6 z m 37,0 25,0 0,-6 -25,0 0,6 z m 38,0 25,0 0,-6 -25,0 0,6 z m 37,0 25,0 0,-6 -25,0 0,6 z m 41,-3 0,-25 -7,0 0,25 7,0 z m 0,-38 0,-25 -7,0 0,25 7,0 z m 0,-37 0,-25 -7,0 0,25 7,0 z m 0,-38 0,-25 -7,0 0,25 7,0 z m 0,-37 0,-25 -7,0 0,25 7,0 z m 0,-38 0,-25 -7,0 0,25 7,0 z m 0,-37 0,-25 -7,0 0,25 7,0 z m 0,-38 0,-25 -7,0 0,25 7,0 z m 0,-37 0,-25 -7,0 0,25 7,0 z m 0,-38 0,-25 -7,0 0,25 7,0 z m 0,-37 0,-6 -3,-3 -19,0 0,6 19,0 0,-3 -4,0 0,6 7,0 z m -35,-9 -25,0 0,6 25,0 0,-6 z m -37,0 -25,0 0,6 25,0 0,-6 z m -38,0 -25,0 0,6 25,0 0,-6 z m -37,0 -25,0 0,6 25,0 0,-6 z m -38,0 -25,0 0,6 25,0 0,-6 z m -37,0 -25,0 0,6 25,0 0,-6 z m -38,0 -25,0 0,6 25,0 0,-6 z m -37,0 -25,0 0,6 25,0 0,-6 z m -38,0 -25,0 0,6 25,0 0,-6 z m -37,0 -6,0 -4,3 0,18 7,0 0,-18 -3,0 0,3 6,0 0,-6 z m -10,34 0,25 7,0 0,-25 -7,0 z m 0,37 0,25 7,0 0,-25 -7,0 z m 0,38 0,25 7,0 0,-25 -7,0 z m 0,37 0,25 7,0 0,-25 -7,0 z m 0,38 0,25 7,0 0,-25 -7,0 z m 0,37 0,25 7,0 0,-25 -7,0 z m 0,38 0,25 7,0 0,-25 -7,0 z m 0,37 0,25 7,0 0,-25 -7,0 z m 0,38 0,25 7,0 0,-25 -7,0 z m 0,37 0,13 7,0 0,-13 -7,0"
                                 inkscape:connector-curvature="0"
                                 id="path194"
                                 style="fill:#000000;fill-opacity:1;fill-rule:nonzero;stroke:none" /><path
                                 d="m 2381,2209 338,0 0,7 -338,0 0,-7 z"
                                 inkscape:connector-curvature="0"
                                 id="path196"
                                 style="fill:#000000;fill-opacity:1;fill-rule:nonzero;stroke:none" /><path
                                 d="m 2392,2146 68,69 5,-5 -69,-68 -4,4"
                                 inkscape:connector-curvature="0"
                                 id="path198"
                                 style="fill:#000000;fill-opacity:1;fill-rule:nonzero;stroke:none" /><path
                                 d="m 2554,2146 69,69 4,-5 -69,-68 -4,4"
                                 inkscape:connector-curvature="0"
                                 id="path200"
                                 style="fill:#000000;fill-opacity:1;fill-rule:nonzero;stroke:none" /><path
                                 d="m 2635,2146 69,69 4,-5 -68,-68 -5,4"
                                 inkscape:connector-curvature="0"
                                 id="path202"
                                 style="fill:#000000;fill-opacity:1;fill-rule:nonzero;stroke:none" /><path
                                 d="m 2473,2146 69,69 4,-5 -69,-68 -4,4"
                                 inkscape:connector-curvature="0"
                                 id="path204"
                                 style="fill:#000000;fill-opacity:1;fill-rule:nonzero;stroke:none" /><path
                                 d="m 2313,3294 143,0 0,12 -143,0 0,-12 z"
                                 inkscape:connector-curvature="0"
                                 id="path206"
                                 style="fill:#7f7f7f;fill-opacity:1;fill-rule:nonzero;stroke:none" /><path
                                 d="m 2456,3337 57,57 131,0 0,-132 -56,-56 -132,0 0,131"
                                 inkscape:connector-curvature="0"
                                 id="path208"
                                 style="fill:#ffffff;fill-opacity:1;fill-rule:evenodd;stroke:none" /><path
                                 d="m 2454,3340 56,56 3,1 131,0 3,-3 0,-132 -1,-2 -56,-56 -2,-1 -132,0 -3,3 0,131 1,3 z m 5,-3 0,-131 -3,0 0,3 132,0 0,-3 -3,2 57,57 2,-3 -3,0 0,132 3,0 0,-3 -131,0 0,3 2,-2 -57,-57 -2,2 3,0"
                                 inkscape:connector-curvature="0"
                                 id="path210"
                                 style="fill:#7f7f7f;fill-opacity:1;fill-rule:nonzero;stroke:none" /><path
                                 d="m 2454,3208 18,18 4,-4 -18,-18 -4,4 z m 27,27 17,18 5,-5 -18,-17 -4,4 z m 26,26 3,4 5,-5 -4,-3 -4,4"
                                 inkscape:connector-curvature="0"
                                 id="path212"
                                 style="fill:#7f7f7f;fill-opacity:1;fill-rule:nonzero;stroke:none" /><path
                                 d="m 2516,3394 0,-25 -7,0 0,25 7,0 z m 0,-38 0,-25 -7,0 0,25 7,0 z m 0,-37 0,-25 -7,0 0,25 7,0 z m 0,-38 0,-19 -3,0 0,4 6,0 0,-7 -6,0 -4,3 0,19 7,0 z m 15,-15 25,0 0,-7 -25,0 0,7 z m 38,0 25,0 0,-7 -25,0 0,7 z m 37,0 25,0 0,-7 -25,0 0,7"
                                 inkscape:connector-curvature="0"
                                 id="path214"
                                 style="fill:#7f7f7f;fill-opacity:1;fill-rule:nonzero;stroke:none" /><path
                                 d="m 2456,3294 163,0 0,12 -163,0 0,-12 z"
                                 inkscape:connector-curvature="0"
                                 id="path216"
                                 style="fill:#d2d2d2;fill-opacity:1;fill-rule:nonzero;stroke:none" /><path
                                 d="m 2619,3294 169,0 0,12 -169,0 0,-12 z"
                                 inkscape:connector-curvature="0"
                                 id="path218"
                                 style="fill:#7f7f7f;fill-opacity:1;fill-rule:nonzero;stroke:none" /><path
                                 d="m 2456,3341 132,0 3,-4 0,-131 -7,0 0,131 4,0 0,-3 -132,0 0,7"
                                 inkscape:connector-curvature="0"
                                 id="path220"
                                 style="fill:#7f7f7f;fill-opacity:1;fill-rule:nonzero;stroke:none" /><path
                                 d="m 2454,3340 56,56 3,1 131,0 3,-3 0,-132 -1,-2 -56,-56 -2,-1 -132,0 -3,3 0,131 1,3 56,56 5,-4 -57,-57 -2,2 3,0 0,-131 -3,0 0,3 132,0 0,-3 -3,2 57,57 2,-3 -3,0 0,132 3,0 0,-3 -131,0 0,3 2,-2 -57,-57 -4,5"
                                 inkscape:connector-curvature="0"
                                 id="path222"
                                 style="fill:#7f7f7f;fill-opacity:1;fill-rule:nonzero;stroke:none" /><path
                                 d="m 2646,3392 -56,-57 -5,5 57,56 4,-4"
                                 inkscape:connector-curvature="0"
                                 id="path224"
                                 style="fill:#7f7f7f;fill-opacity:1;fill-rule:nonzero;stroke:none" /><g
                                 transform="scale(8.33333,8.33333)"
                                 id="g226"><text
                                   transform="matrix(1,0,0,-1,285,414.36)"
                                   id="text228"><tspan
                                   x="0 5.2800002 10.560006 15.720012 18.720001 24.000006 29.280012 31.560022 36.720028"
                                   y="0"
                                   id="tspan230"
                                   style="font-size:9px;font-variant:normal;font-weight:normal;writing-mode:lr-tb;fill:#000000;fill-opacity:1;fill-rule:nonzero;stroke:none;font-family:Helvetica;-inkscape-font-specification:Helvetica">subregion</tspan></text>
</g><path
                                 d="m 2338,3300 0,-13 -7,0 0,-6 -6,0 0,-6 -25,0 0,6 -6,0 0,6 -6,0 0,25 6,0 0,7 6,0 0,6 25,0 0,-6 6,0 0,-7 7,0 0,-12"
                                 inkscape:connector-curvature="0"
                                 id="path232"
                                 style="fill:#bfbfbf;fill-opacity:1;fill-rule:evenodd;stroke:none" /><path
                                 d="m 2344,3300 0,-13 -6,-6 -7,0 0,6 7,0 0,-6 -7,-6 -6,0 0,6 6,0 0,-6 -6,-6 -25,0 -6,6 0,6 6,0 0,-6 -6,0 -6,6 0,6 6,0 0,-6 -6,0 -7,6 0,25 7,7 6,0 0,-7 -6,0 0,7 6,6 6,0 0,-6 -6,0 0,6 6,6 25,0 6,-6 0,-6 -6,0 0,6 6,0 7,-6 0,-7 -7,0 0,7 7,0 6,-7 0,-12 z m -13,0 0,12 7,0 0,-6 -7,0 -6,6 0,7 6,0 0,-7 -6,0 -6,7 0,6 6,0 0,-6 -25,0 0,6 6,0 0,-6 -6,-7 -6,0 0,7 6,0 0,-7 -6,-6 -6,0 0,6 6,0 0,-25 -6,0 0,7 6,0 6,-7 0,-6 -6,0 0,6 6,0 6,-6 0,-6 -6,0 0,6 25,0 0,-6 -6,0 0,6 6,6 6,0 0,-6 -6,0 0,6 6,7 7,0 0,-7 -7,0 0,13"
                                 inkscape:connector-curvature="0"
                                 id="path234"
                                 style="fill:#7f7f7f;fill-opacity:1;fill-rule:nonzero;stroke:none" /><path
                                 d="m 2813,3300 0,-13 -7,0 0,-6 -6,0 0,-6 -25,0 0,6 -6,0 0,6 -6,0 0,25 6,0 0,7 6,0 0,6 25,0 0,-6 6,0 0,-7 7,0 0,-12"
                                 inkscape:connector-curvature="0"
                                 id="path236"
                                 style="fill:#bfbfbf;fill-opacity:1;fill-rule:evenodd;stroke:none" /><path
                                 d="m 2819,3300 0,-13 -6,-6 -7,0 0,6 7,0 0,-6 -7,-6 -6,0 0,6 6,0 0,-6 -6,-6 -25,0 -6,6 0,6 6,0 0,-6 -6,0 -6,6 0,6 6,0 0,-6 -6,0 -7,6 0,25 7,7 6,0 0,-7 -6,0 0,7 6,6 6,0 0,-6 -6,0 0,6 6,6 25,0 6,-6 0,-6 -6,0 0,6 6,0 7,-6 0,-7 -7,0 0,7 7,0 6,-7 0,-12 z m -13,0 0,12 7,0 0,-6 -7,0 -6,6 0,7 6,0 0,-7 -6,0 -6,7 0,6 6,0 0,-6 -25,0 0,6 6,0 0,-6 -6,-7 -6,0 0,7 6,0 0,-7 -6,-6 -6,0 0,6 6,0 0,-25 -6,0 0,7 6,0 6,-7 0,-6 -6,0 0,6 6,0 6,-6 0,-6 -6,0 0,6 25,0 0,-6 -6,0 0,6 6,6 6,0 0,-6 -6,0 0,6 6,7 7,0 0,-7 -7,0 0,13"
                                 inkscape:connector-curvature="0"
                                 id="path238"
                                 style="fill:#7f7f7f;fill-opacity:1;fill-rule:nonzero;stroke:none" /></g></g></g></g></g></g></g></g></g></g></g></g></g></g></svg>