<?xml version="1.0" encoding="UTF-8" standalone="no"?>
<!-- Created with Inkscape (http://www.inkscape.org/) -->

<svg
   xmlns:dc="http://purl.org/dc/elements/1.1/"
   xmlns:cc="http://creativecommons.org/ns#"
   xmlns:rdf="http://www.w3.org/1999/02/22-rdf-syntax-ns#"
   xmlns:svg="http://www.w3.org/2000/svg"
   xmlns="http://www.w3.org/2000/svg"
   xmlns:inkscape="http://www.inkscape.org/namespaces/inkscape"
   version="1.1"
   width="447.5"
   height="335"
   id="svg2"
   xml:space="preserve"><metadata
     id="metadata8"><rdf:RDF><cc:Work
         rdf:about=""><dc:format>image/svg+xml</dc:format><dc:type
           rdf:resource="http://purl.org/dc/dcmitype/StillImage" /></cc:Work></rdf:RDF></metadata><defs
     id="defs6"><clipPath
       id="clipPath18"><path
         d="M 0,0 358,0 358,268 0,268 0,0 z"
         inkscape:connector-curvature="0"
         id="path20" /></clipPath><clipPath
       id="clipPath28"><path
         d="M 0,0 358,0 358,268 0,268 0,0 z"
         inkscape:connector-curvature="0"
         id="path30" /></clipPath><clipPath
       id="clipPath38"><path
         d="M 0,0 358,0 358,268 0,268 0,0 z"
         inkscape:connector-curvature="0"
         id="path40" /></clipPath><clipPath
       id="clipPath48"><path
         d="M 0,0 358,0 358,268 0,268 0,0 z"
         inkscape:connector-curvature="0"
         id="path50" /></clipPath><clipPath
       id="clipPath58"><path
         d="M 0,0 358,0 358,268 0,268 0,0 z"
         inkscape:connector-curvature="0"
         id="path60" /></clipPath><clipPath
       id="clipPath68"><path
         d="M 0,0 358,0 358,268 0,268 0,0 z"
         inkscape:connector-curvature="0"
         id="path70" /></clipPath><clipPath
       id="clipPath78"><path
         d="M 0,0 358,0 358,268 0,268 0,0 z"
         inkscape:connector-curvature="0"
         id="path80" /></clipPath><clipPath
       id="clipPath88"><path
         d="M 0,0 358,0 358,268 0,268 0,0 z"
         inkscape:connector-curvature="0"
         id="path90" /></clipPath><clipPath
       id="clipPath98"><path
         d="M 0,0 358,0 358,268 0,268 0,0 z"
         inkscape:connector-curvature="0"
         id="path100" /></clipPath><clipPath
       id="clipPath108"><path
         d="M 0,0 358,0 358,268 0,268 0,0 z"
         inkscape:connector-curvature="0"
         id="path110" /></clipPath><clipPath
       id="clipPath118"><path
         d="M 0,0 358,0 358,268 0,268 0,0 z"
         inkscape:connector-curvature="0"
         id="path120" /></clipPath><clipPath
       id="clipPath128"><path
         d="M 0,0 595,0 595,842 0,842 0,0 z"
         inkscape:connector-curvature="0"
         id="path130" /></clipPath></defs><g
     transform="matrix(1.25,0,0,-1.25,0,335)"
     id="g10"><g
       id="g12"><g
         id="g14"><g
           clip-path="url(#clipPath18)"
           id="g16"><g
             id="g22"><g
               id="g24"><g
                 clip-path="url(#clipPath28)"
                 id="g26"><g
                   id="g32"><g
                     id="g34"><g
                       clip-path="url(#clipPath38)"
                       id="g36"><g
                         id="g42"><g
                           id="g44"><g
                             clip-path="url(#clipPath48)"
                             id="g46"><g
                               id="g52"><g
                                 id="g54"><g
                                   clip-path="url(#clipPath58)"
                                   id="g56"><g
                                   id="g62"><g
                                   id="g64"><g
                                   clip-path="url(#clipPath68)"
                                   id="g66"><g
                                   id="g72"><g
                                   id="g74"><g
                                   clip-path="url(#clipPath78)"
                                   id="g76"><g
                                   id="g82"><g
                                   id="g84"><g
                                   clip-path="url(#clipPath88)"
                                   id="g86"><g
                                   id="g92"><g
                                   id="g94"><g
                                   clip-path="url(#clipPath98)"
                                   id="g96"><g
                                   id="g102"><g
                                   id="g104"><g
                                   clip-path="url(#clipPath108)"
                                   id="g106"><g
                                   id="g112"><g
                                   id="g114"><g
                                   clip-path="url(#clipPath118)"
                                   id="g116"><g
                                   transform="translate(-143,-252)"
                                   id="g122"><g
                                   id="g124"><g
                                   clip-path="url(#clipPath128)"
                                   id="g126"><g
                                   transform="matrix(0.75,0,0,-0.75,24,818)"
                                   id="g132"><g
                                   id="g134"><g
                                   id="g136" /></g><g
                                   id="g138"><g
                                   id="g140" /><g
                                   id="g142"><path
                                   d="m 489,465 0,54 -22,0 0,-54 22,0 z"
                                   inkscape:connector-curvature="0"
                                   id="path144"
                                   style="fill:#ffffff;fill-opacity:1;fill-rule:nonzero;stroke:#0000ff;stroke-width:1;stroke-linecap:butt;stroke-linejoin:bevel;stroke-miterlimit:10;stroke-opacity:1;stroke-dasharray:none" /><path
                                   d="m 478,458 0,7"
                                   inkscape:connector-curvature="0"
                                   id="path146"
                                   style="fill:none;stroke:#0000ff;stroke-width:1;stroke-linecap:butt;stroke-linejoin:bevel;stroke-miterlimit:10;stroke-opacity:1;stroke-dasharray:none" /><path
                                   d="m 478,519 0,7"
                                   inkscape:connector-curvature="0"
                                   id="path148"
                                   style="fill:none;stroke:#0000ff;stroke-width:1;stroke-linecap:butt;stroke-linejoin:bevel;stroke-miterlimit:10;stroke-opacity:1;stroke-dasharray:none" /></g><g
                                   transform="matrix(0,1,-1,0,462.799,437.28)"
                                   id="g150"><g
                                   id="g152"><text
                                   transform="translate(40,9)"
                                   id="text154"><tspan
                                   x="0 8 14 22"
                                   y="0"
                                   id="tspan156"
                                   style="font-size:11px;font-variant:normal;writing-mode:lr-tb;fill:#000000;fill-opacity:1;fill-rule:nonzero;stroke:none;font-family:Nimbus Sans L;-inkscape-font-specification:NimbusSanL-Regu">R=R1</tspan></text>
</g></g><g
                                   id="g158" /><g
                                   transform="matrix(0,1,-1,0,511.06,434.24)"
                                   id="g160"><g
                                   id="g162"><text
                                   transform="translate(42.5,12)"
                                   id="text164"><tspan
                                   x="0 5 13 20"
                                   y="0"
                                   id="tspan166"
                                   style="font-size:14px;font-variant:normal;writing-mode:lr-tb;fill:#0000ff;fill-opacity:1;fill-rule:nonzero;stroke:none;font-family:Nimbus Sans L;-inkscape-font-specification:NimbusSanL-Regu">res1</tspan></text>
</g></g><g
                                   id="g168"><path
                                   d="m 489,600 -22,0"
                                   inkscape:connector-curvature="0"
                                   id="path170"
                                   style="fill:none;stroke:#0000ff;stroke-width:2;stroke-linecap:butt;stroke-linejoin:bevel;stroke-miterlimit:10;stroke-opacity:1;stroke-dasharray:none" /><path
                                   d="m 489,610 -22,0"
                                   inkscape:connector-curvature="0"
                                   id="path172"
                                   style="fill:none;stroke:#0000ff;stroke-width:2;stroke-linecap:butt;stroke-linejoin:bevel;stroke-miterlimit:10;stroke-opacity:1;stroke-dasharray:none" /><path
                                   d="m 478,571 0,29"
                                   inkscape:connector-curvature="0"
                                   id="path174"
                                   style="fill:none;stroke:#0000ff;stroke-width:1;stroke-linecap:butt;stroke-linejoin:bevel;stroke-miterlimit:10;stroke-opacity:1;stroke-dasharray:none" /><path
                                   d="m 478,610 0,29"
                                   inkscape:connector-curvature="0"
                                   id="path176"
                                   style="fill:none;stroke:#0000ff;stroke-width:1;stroke-linecap:butt;stroke-linejoin:bevel;stroke-miterlimit:10;stroke-opacity:1;stroke-dasharray:none" /></g><g
                                   transform="matrix(0,1,-1,0,455.2,553.32)"
                                   id="g178"><g
                                   id="g180"><text
                                   transform="translate(40.5,9)"
                                   id="text182"><tspan
                                   x="0 8 14"
                                   y="0"
                                   id="tspan184"
                                   style="font-size:11px;font-variant:normal;writing-mode:lr-tb;fill:#000000;fill-opacity:1;fill-rule:nonzero;stroke:none;font-family:Nimbus Sans L;-inkscape-font-specification:NimbusSanL-Regu">C=C</tspan></text>
</g></g><g
                                   id="g186" /><g
                                   transform="matrix(0,1,-1,0,510.299,548)"
                                   id="g188"><g
                                   id="g190"><text
                                   transform="translate(45.5,12)"
                                   id="text192"><tspan
                                   x="0 7 15"
                                   y="0"
                                   id="tspan194"
                                   style="font-size:14px;font-variant:normal;writing-mode:lr-tb;fill:#0000ff;fill-opacity:1;fill-rule:nonzero;stroke:none;font-family:Nimbus Sans L;-inkscape-font-specification:NimbusSanL-Regu">cap</tspan></text>
</g></g><g
                                   id="g196"><path
                                   d="m 591,594 -1,0 -1,0 -1,-1 -1,0 0,-1 -1,0 0,-1 -1,-1 0,-1 0,-1 0,-1 0,-1 1,-1 0,-1 1,0 0,-1 1,0 1,-1 1,0 1,0 1,0 1,0 1,1 1,0 0,1 1,0 0,1 1,1 0,1 0,1 0,1 0,1 -1,1 0,1 -1,0 0,1 -1,0 -1,1 -1,0 -1,0 -1,0"
                                   inkscape:connector-curvature="0"
                                   id="path198"
                                   style="fill:none;stroke:#0000ff;stroke-width:1;stroke-linecap:butt;stroke-linejoin:bevel;stroke-miterlimit:10;stroke-opacity:1;stroke-dasharray:none" /><path
                                   d="m 591,605 -1,0 -1,0 -1,-1 -1,0 0,-1 -1,0 0,-1 -1,-1 0,-1 0,-1 0,-1 0,-1 1,-1 0,-1 1,0 0,-1 1,0 1,-1 1,0 1,0 1,0 1,0 1,1 1,0 0,1 1,0 0,1 1,1 0,1 0,1 0,1 0,1 -1,1 0,1 -1,0 0,1 -1,0 -1,1 -1,0 -1,0 -1,0"
                                   inkscape:connector-curvature="0"
                                   id="path200"
                                   style="fill:none;stroke:#0000ff;stroke-width:1;stroke-linecap:butt;stroke-linejoin:bevel;stroke-miterlimit:10;stroke-opacity:1;stroke-dasharray:none" /><path
                                   d="m 591,617 -1,0 -1,0 -1,-1 -1,0 0,-1 -1,0 0,-1 -1,-1 0,-1 0,-1 0,-1 0,-1 1,-1 0,-1 1,0 0,-1 1,0 1,-1 1,0 1,0 1,0 1,0 1,1 1,0 0,1 1,0 0,1 1,1 0,1 0,1 0,1 0,1 -1,1 0,1 -1,0 0,1 -1,0 -1,1 -1,0 -1,0 -1,0"
                                   inkscape:connector-curvature="0"
                                   id="path202"
                                   style="fill:none;stroke:#0000ff;stroke-width:1;stroke-linecap:butt;stroke-linejoin:bevel;stroke-miterlimit:10;stroke-opacity:1;stroke-dasharray:none" /><path
                                   d="m 591,628 -1,0 -1,0 -1,-1 -1,0 0,-1 -1,0 0,-1 -1,-1 0,-1 0,-1 0,-1 0,-1 1,-1 0,-1 1,0 0,-1 1,0 1,-1 1,0 1,0 1,0 1,0 1,1 1,0 0,1 1,0 0,1 1,1 0,1 0,1 0,1 0,1 -1,1 0,1 -1,0 0,1 -1,0 -1,1 -1,0 -1,0 -1,0"
                                   inkscape:connector-curvature="0"
                                   id="path204"
                                   style="fill:none;stroke:#0000ff;stroke-width:1;stroke-linecap:butt;stroke-linejoin:bevel;stroke-miterlimit:10;stroke-opacity:1;stroke-dasharray:none" /><path
                                   d="m 580,582 0,46 11,0 0,-46 -11,0 z"
                                   inkscape:connector-curvature="0"
                                   id="path206"
                                   style="fill:#ffffff;fill-opacity:1;fill-rule:nonzero;stroke:#ffffff;stroke-width:1;stroke-linecap:butt;stroke-linejoin:bevel;stroke-miterlimit:10;stroke-opacity:1;stroke-dasharray:none" /><path
                                   d="m 591,628 0,11"
                                   inkscape:connector-curvature="0"
                                   id="path208"
                                   style="fill:none;stroke:#0000ff;stroke-width:1;stroke-linecap:butt;stroke-linejoin:bevel;stroke-miterlimit:10;stroke-opacity:1;stroke-dasharray:none" /><path
                                   d="m 591,571 0,11"
                                   inkscape:connector-curvature="0"
                                   id="path210"
                                   style="fill:none;stroke:#0000ff;stroke-width:1;stroke-linecap:butt;stroke-linejoin:bevel;stroke-miterlimit:10;stroke-opacity:1;stroke-dasharray:none" /></g><g
                                   transform="matrix(0,1,-1,0,568.2,552.56)"
                                   id="g212"><g
                                   id="g214"><text
                                   transform="translate(44.5,9)"
                                   id="text216"><tspan
                                   x="0 6 12"
                                   y="0"
                                   id="tspan218"
                                   style="font-size:11px;font-variant:normal;writing-mode:lr-tb;fill:#000000;fill-opacity:1;fill-rule:nonzero;stroke:none;font-family:Nimbus Sans L;-inkscape-font-specification:NimbusSanL-Regu">L=L</tspan></text>
</g></g><g
                                   id="g220" /><g
                                   transform="matrix(0,1,-1,0,621.019,547.24)"
                                   id="g222"><g
                                   id="g224"><text
                                   transform="translate(47,12)"
                                   id="text226"><tspan
                                   x="0 3 11"
                                   y="0"
                                   id="tspan228"
                                   style="font-size:14px;font-variant:normal;writing-mode:lr-tb;fill:#0000ff;fill-opacity:1;fill-rule:nonzero;stroke:none;font-family:Nimbus Sans L;-inkscape-font-specification:NimbusSanL-Regu">ind</tspan></text>
</g></g><g
                                   id="g230"><path
                                   d="m 455,699 46,0"
                                   inkscape:connector-curvature="0"
                                   id="path232"
                                   style="fill:none;stroke:#0000ff;stroke-width:1;stroke-linecap:butt;stroke-linejoin:bevel;stroke-miterlimit:10;stroke-opacity:1;stroke-dasharray:none" /><path
                                   d="m 463,707 30,0"
                                   inkscape:connector-curvature="0"
                                   id="path234"
                                   style="fill:none;stroke:#0000ff;stroke-width:1;stroke-linecap:butt;stroke-linejoin:bevel;stroke-miterlimit:10;stroke-opacity:1;stroke-dasharray:none" /><path
                                   d="m 470,714 16,0"
                                   inkscape:connector-curvature="0"
                                   id="path236"
                                   style="fill:none;stroke:#0000ff;stroke-width:1;stroke-linecap:butt;stroke-linejoin:bevel;stroke-miterlimit:10;stroke-opacity:1;stroke-dasharray:none" /><path
                                   d="m 478,684 0,15"
                                   inkscape:connector-curvature="0"
                                   id="path238"
                                   style="fill:none;stroke:#0000ff;stroke-width:1;stroke-linecap:butt;stroke-linejoin:bevel;stroke-miterlimit:10;stroke-opacity:1;stroke-dasharray:none" /></g><g
                                   transform="translate(423.279,725.22)"
                                   id="g240"><g
                                   id="g242"><text
                                   transform="translate(37.5,12)"
                                   id="text244"><tspan
                                   x="0 7 11 18 25 32"
                                   y="0"
                                   id="tspan246"
                                   style="font-size:13px;font-variant:normal;writing-mode:lr-tb;fill:#0000ff;fill-opacity:1;fill-rule:nonzero;stroke:none;font-family:Nimbus Sans L;-inkscape-font-specification:NimbusSanL-Regu">ground</tspan></text>
</g></g><g
                                   id="g248"><path
                                   d="m 602,465 0,54 -22,0 0,-54 22,0 z"
                                   inkscape:connector-curvature="0"
                                   id="path250"
                                   style="fill:#ffffff;fill-opacity:1;fill-rule:nonzero;stroke:#0000ff;stroke-width:1;stroke-linecap:butt;stroke-linejoin:bevel;stroke-miterlimit:10;stroke-opacity:1;stroke-dasharray:none" /><path
                                   d="m 591,458 0,7"
                                   inkscape:connector-curvature="0"
                                   id="path252"
                                   style="fill:none;stroke:#0000ff;stroke-width:1;stroke-linecap:butt;stroke-linejoin:bevel;stroke-miterlimit:10;stroke-opacity:1;stroke-dasharray:none" /><path
                                   d="m 591,519 0,7"
                                   inkscape:connector-curvature="0"
                                   id="path254"
                                   style="fill:none;stroke:#0000ff;stroke-width:1;stroke-linecap:butt;stroke-linejoin:bevel;stroke-miterlimit:10;stroke-opacity:1;stroke-dasharray:none" /></g><g
                                   transform="matrix(0,1,-1,0,575.799,437.28)"
                                   id="g256"><g
                                   id="g258"><text
                                   transform="translate(40,9)"
                                   id="text260"><tspan
                                   x="0 8 14 22"
                                   y="0"
                                   id="tspan262"
                                   style="font-size:11px;font-variant:normal;writing-mode:lr-tb;fill:#000000;fill-opacity:1;fill-rule:nonzero;stroke:none;font-family:Nimbus Sans L;-inkscape-font-specification:NimbusSanL-Regu">R=R2</tspan></text>
</g></g><g
                                   id="g264" /><g
                                   transform="matrix(0,1,-1,0,624.059,434.24)"
                                   id="g266"><g
                                   id="g268"><text
                                   transform="translate(42.5,12)"
                                   id="text270"><tspan
                                   x="0 5 13 20"
                                   y="0"
                                   id="tspan272"
                                   style="font-size:14px;font-variant:normal;writing-mode:lr-tb;fill:#0000ff;fill-opacity:1;fill-rule:nonzero;stroke:none;font-family:Nimbus Sans L;-inkscape-font-specification:NimbusSanL-Regu">res2</tspan></text>
</g></g><g
                                   id="g274"><path
                                   d="m 289,624 1,0 1,0 2,0 1,-1 1,0 1,0 1,-1 2,-1 1,0 1,-1 1,-1 0,-1 1,0 1,-1 1,-1 0,-1 1,-2 1,-1 0,-1 0,-1 1,-1 0,-2 0,-1 0,-1 0,-1 0,-1 0,-2 -1,-1 0,-1 0,-1 -1,-1 -1,-1 0,-2 -1,-1 -1,-1 -1,0 0,-1 -1,-1 -1,-1 -1,0 -2,-1 -1,-1 -1,0 -1,0 -1,-1 -2,0 -1,0 -1,0 -1,0 -1,0 -2,0 -1,1 -1,0 -1,0 -1,1 -1,1 -2,0 -1,1 -1,1 0,1 -1,0 -1,1 -1,1 0,2 -1,1 -1,1 0,1 0,1 -1,1 0,2 0,1 0,1 0,1 0,1 0,2 1,1 0,1 0,1 1,1 1,2 0,1 1,1 1,1 1,0 0,1 1,1 1,1 2,0 1,1 1,1 1,0 1,0 1,1 2,0 1,0 1,0 z"
                                   inkscape:connector-curvature="0"
                                   id="path276"
                                   style="fill:#ffffff;fill-opacity:1;fill-rule:evenodd;stroke:#000000;stroke-width:1;stroke-linecap:butt;stroke-linejoin:bevel;stroke-miterlimit:10;stroke-opacity:1;stroke-dasharray:none" /><path
                                   d="m 289,571 0,15"
                                   inkscape:connector-curvature="0"
                                   id="path278"
                                   style="fill:none;stroke:#000000;stroke-width:1;stroke-linecap:butt;stroke-linejoin:bevel;stroke-miterlimit:10;stroke-opacity:1;stroke-dasharray:none" /><path
                                   d="m 289,624 0,15"
                                   inkscape:connector-curvature="0"
                                   id="path280"
                                   style="fill:none;stroke:#000000;stroke-width:1;stroke-linecap:butt;stroke-linejoin:bevel;stroke-miterlimit:10;stroke-opacity:1;stroke-dasharray:none" /><path
                                   d="m 289,586 0,38"
                                   inkscape:connector-curvature="0"
                                   id="path282"
                                   style="fill:none;stroke:#000000;stroke-width:1;stroke-linecap:butt;stroke-linejoin:bevel;stroke-miterlimit:10;stroke-opacity:1;stroke-dasharray:none" /></g><g
                                   transform="matrix(0,1,-1,0,328.519,548)"
                                   id="g284"><g
                                   id="g286"><text
                                   transform="translate(15.5,11.5)"
                                   id="text288"><tspan
                                   x="0 7 14 17 21 28 35 42 51 58 65 69 76"
                                   y="0"
                                   id="tspan290"
                                   style="font-size:13px;font-variant:normal;writing-mode:lr-tb;fill:#0000ff;fill-opacity:1;fill-rule:nonzero;stroke:none;font-family:Nimbus Sans L;-inkscape-font-specification:NimbusSanL-Regu">voltageSource</tspan></text>
</g></g><g
                                   id="g292" /><g
                                   transform="matrix(0,1,-1,0,289,559.4)"
                                   id="g294"><g
                                   id="g296"><text
                                   transform="translate(13,15.5)"
                                   id="text298"><tspan
                                   x="0"
                                   y="0"
                                   id="tspan300"
                                   style="font-size:19px;font-variant:normal;writing-mode:lr-tb;fill:#0000ff;fill-opacity:1;fill-rule:nonzero;stroke:none;font-family:Nimbus Sans L;-inkscape-font-specification:NimbusSanL-Regu">+</tspan></text>
</g></g><g
                                   id="g302" /><g
                                   transform="matrix(0,1,-1,0,289,612.6)"
                                   id="g304"><g
                                   id="g306"><text
                                   transform="translate(14.5,16.5)"
                                   id="text308"><tspan
                                   x="0"
                                   y="0"
                                   id="tspan310"
                                   style="font-size:23px;font-variant:normal;writing-mode:lr-tb;fill:#0000ff;fill-opacity:1;fill-rule:nonzero;stroke:none;font-family:Nimbus Sans L;-inkscape-font-specification:NimbusSanL-Regu">-</tspan></text>
</g></g><g
                                   id="g312"><path
                                   d="m 289,519 2,0 1,0 2,0 1,-1 1,0 2,-1 1,0 2,-1 1,0 1,-1 2,-1 1,-1 1,-1 1,-1 1,-1 1,-1 1,-1 1,-2 1,-1 0,-1 1,-2 0,-1 1,-2 0,-1 1,-1 0,-2 0,-1 0,-2 0,-2 0,-1 0,-2 -1,-1 0,-1 -1,-2 0,-1 -1,-2 0,-1 -1,-1 -1,-2 -1,-1 -1,-1 -1,-1 -1,-1 -1,-1 -1,-1 -2,-1 -1,-1 -1,0 -2,-1 -1,0 -2,-1 -1,0 -1,-1 -2,0 -1,0 -2,0 -2,0 -1,0 -2,0 -1,1 -1,0 -2,1 -1,0 -2,1 -1,0 -1,1 -2,1 -1,1 -1,1 -1,1 -1,1 -1,1 -1,1 -1,2 -1,1 0,1 -1,2 0,1 -1,2 0,1 -1,1 0,2 0,1 0,2 0,2 0,1 0,2 1,1 0,1 1,2 0,1 1,2 0,1 1,1 1,2 1,1 1,1 1,1 1,1 1,1 1,1 2,1 1,1 1,0 2,1 1,0 2,1 1,0 1,1 2,0 1,0 2,0 z"
                                   inkscape:connector-curvature="0"
                                   id="path314"
                                   style="fill:#ffffff;fill-opacity:1;fill-rule:evenodd;stroke:#000000;stroke-width:1;stroke-linecap:butt;stroke-linejoin:bevel;stroke-miterlimit:10;stroke-opacity:1;stroke-dasharray:none" /><path
                                   d="m 262,492 12,0"
                                   inkscape:connector-curvature="0"
                                   id="path316"
                                   style="fill:none;stroke:#000000;stroke-width:1;stroke-linecap:butt;stroke-linejoin:bevel;stroke-miterlimit:10;stroke-opacity:1;stroke-dasharray:none" /><path
                                   d="m 277,501 -10,6"
                                   inkscape:connector-curvature="0"
                                   id="path318"
                                   style="fill:none;stroke:#000000;stroke-width:1;stroke-linecap:butt;stroke-linejoin:bevel;stroke-miterlimit:10;stroke-opacity:1;stroke-dasharray:none" /><path
                                   d="m 277,483 -10,-6"
                                   inkscape:connector-curvature="0"
                                   id="path320"
                                   style="fill:none;stroke:#000000;stroke-width:1;stroke-linecap:butt;stroke-linejoin:bevel;stroke-miterlimit:10;stroke-opacity:1;stroke-dasharray:none" /><path
                                   d="m 284,506 -4,11"
                                   inkscape:connector-curvature="0"
                                   id="path322"
                                   style="fill:none;stroke:#000000;stroke-width:1;stroke-linecap:butt;stroke-linejoin:bevel;stroke-miterlimit:10;stroke-opacity:1;stroke-dasharray:none" /><path
                                   d="m 284,478 -4,-11"
                                   inkscape:connector-curvature="0"
                                   id="path324"
                                   style="fill:none;stroke:#000000;stroke-width:1;stroke-linecap:butt;stroke-linejoin:bevel;stroke-miterlimit:10;stroke-opacity:1;stroke-dasharray:none" /><path
                                   d="m 289,492 -11,3"
                                   inkscape:connector-curvature="0"
                                   id="path326"
                                   style="fill:none;stroke:#000000;stroke-width:1;stroke-linecap:butt;stroke-linejoin:bevel;stroke-miterlimit:10;stroke-opacity:1;stroke-dasharray:none" /><path
                                   d="m 277,492 2,7 -12,0 10,-7 z"
                                   inkscape:connector-curvature="0"
                                   id="path328"
                                   style="fill:#000000;fill-opacity:1;fill-rule:evenodd;stroke:#000000;stroke-width:1;stroke-linecap:butt;stroke-linejoin:bevel;stroke-miterlimit:10;stroke-opacity:1;stroke-dasharray:none" /><path
                                   d="m 289,494 1,0 0,-1 1,0 0,-1 0,-1 -1,0 0,-1 -1,0 -1,0 0,1 -1,0 0,1 0,1 1,0 0,1 1,0 z"
                                   inkscape:connector-curvature="0"
                                   id="path330"
                                   style="fill:#000000;fill-opacity:1;fill-rule:evenodd;stroke:#000000;stroke-width:1;stroke-linecap:butt;stroke-linejoin:bevel;stroke-miterlimit:10;stroke-opacity:1;stroke-dasharray:none" /></g><g
                                   transform="matrix(0,1,-1,0,315.6,480.98)"
                                   id="g332"><g
                                   id="g334"><text
                                   transform="translate(4,18)"
                                   id="text336"><tspan
                                   x="0"
                                   y="0"
                                   id="tspan338"
                                   style="font-size:21px;font-variant:normal;writing-mode:lr-tb;fill:#000000;fill-opacity:1;fill-rule:nonzero;stroke:none;font-family:Nimbus Sans L;-inkscape-font-specification:NimbusSanL-Regu">A</tspan></text>
</g></g><g
                                   id="g340"><path
                                   d="m 289,465 0,-7"
                                   inkscape:connector-curvature="0"
                                   id="path342"
                                   style="fill:none;stroke:#000000;stroke-width:1;stroke-linecap:butt;stroke-linejoin:bevel;stroke-miterlimit:10;stroke-opacity:1;stroke-dasharray:none" /></g><g
                                   transform="matrix(0,1,-1,0,258.599,435)"
                                   id="g344"><g
                                   id="g346"><text
                                   transform="translate(12,12)"
                                   id="text348"><tspan
                                   x="0 7 15 20 25 33 41 45 54 62 70 77 85"
                                   y="0"
                                   id="tspan350"
                                   style="font-size:14px;font-variant:normal;writing-mode:lr-tb;fill:#0000ff;fill-opacity:1;fill-rule:nonzero;stroke:none;font-family:Nimbus Sans L;-inkscape-font-specification:NimbusSanL-Regu">currentSensor</tspan></text>
</g></g><g
                                   id="g352"><path
                                   d="m 289,519 0,7"
                                   inkscape:connector-curvature="0"
                                   id="path354"
                                   style="fill:none;stroke:#000000;stroke-width:1;stroke-linecap:butt;stroke-linejoin:bevel;stroke-miterlimit:10;stroke-opacity:1;stroke-dasharray:none" /><path
                                   d="m 323,492 -7,0"
                                   inkscape:connector-curvature="0"
                                   id="path356"
                                   style="fill:none;stroke:#0000ff;stroke-width:1;stroke-linecap:butt;stroke-linejoin:bevel;stroke-miterlimit:10;stroke-opacity:1;stroke-dasharray:none" /><path
                                   d="m 591,454 0,-38 -113,0 0,38"
                                   inkscape:connector-curvature="0"
                                   id="path358"
                                   style="fill:none;stroke:#ffffff;stroke-width:5;stroke-linecap:butt;stroke-linejoin:bevel;stroke-miterlimit:10;stroke-opacity:1;stroke-dasharray:none" /><path
                                   d="m 591,454 0,-38 -113,0 0,38"
                                   inkscape:connector-curvature="0"
                                   id="path360"
                                   style="fill:none;stroke:#0000ff;stroke-width:1;stroke-linecap:butt;stroke-linejoin:bevel;stroke-miterlimit:10;stroke-opacity:1;stroke-dasharray:none" /><path
                                   d="m 478,567 0,-9 0,-10 0,-18"
                                   inkscape:connector-curvature="0"
                                   id="path362"
                                   style="fill:none;stroke:#ffffff;stroke-width:5;stroke-linecap:butt;stroke-linejoin:bevel;stroke-miterlimit:10;stroke-opacity:1;stroke-dasharray:none" /><path
                                   d="m 478,567 0,-9 0,-10 0,-18"
                                   inkscape:connector-curvature="0"
                                   id="path364"
                                   style="fill:none;stroke:#0000ff;stroke-width:1;stroke-linecap:butt;stroke-linejoin:bevel;stroke-miterlimit:10;stroke-opacity:1;stroke-dasharray:none" /><path
                                   d="m 591,567 0,-37"
                                   inkscape:connector-curvature="0"
                                   id="path366"
                                   style="fill:none;stroke:#ffffff;stroke-width:5;stroke-linecap:butt;stroke-linejoin:bevel;stroke-miterlimit:10;stroke-opacity:1;stroke-dasharray:none" /><path
                                   d="m 591,567 0,-37"
                                   inkscape:connector-curvature="0"
                                   id="path368"
                                   style="fill:none;stroke:#0000ff;stroke-width:1;stroke-linecap:butt;stroke-linejoin:bevel;stroke-miterlimit:10;stroke-opacity:1;stroke-dasharray:none" /><path
                                   d="m 591,643 0,38 -113,0"
                                   inkscape:connector-curvature="0"
                                   id="path370"
                                   style="fill:none;stroke:#ffffff;stroke-width:5;stroke-linecap:butt;stroke-linejoin:bevel;stroke-miterlimit:10;stroke-opacity:1;stroke-dasharray:none" /><path
                                   d="m 591,643 0,38 -113,0"
                                   inkscape:connector-curvature="0"
                                   id="path372"
                                   style="fill:none;stroke:#0000ff;stroke-width:1;stroke-linecap:butt;stroke-linejoin:bevel;stroke-miterlimit:10;stroke-opacity:1;stroke-dasharray:none" /><path
                                   d="m 289,643 0,38 189,0"
                                   inkscape:connector-curvature="0"
                                   id="path374"
                                   style="fill:none;stroke:#ffffff;stroke-width:5;stroke-linecap:butt;stroke-linejoin:bevel;stroke-miterlimit:10;stroke-opacity:1;stroke-dasharray:none" /><path
                                   d="m 289,643 0,38 189,0"
                                   inkscape:connector-curvature="0"
                                   id="path376"
                                   style="fill:none;stroke:#0000ff;stroke-width:1;stroke-linecap:butt;stroke-linejoin:bevel;stroke-miterlimit:10;stroke-opacity:1;stroke-dasharray:none" /><path
                                   d="m 176,605 87,0"
                                   inkscape:connector-curvature="0"
                                   id="path378"
                                   style="fill:none;stroke:#ffffff;stroke-width:5;stroke-linecap:butt;stroke-linejoin:bevel;stroke-miterlimit:10;stroke-opacity:1;stroke-dasharray:none" /><path
                                   d="m 176,605 87,0"
                                   inkscape:connector-curvature="0"
                                   id="path380"
                                   style="fill:none;stroke:#00007f;stroke-width:1;stroke-linecap:butt;stroke-linejoin:bevel;stroke-miterlimit:10;stroke-opacity:1;stroke-dasharray:none" /><path
                                   d="m 365,492 -19,0 -19,0"
                                   inkscape:connector-curvature="0"
                                   id="path382"
                                   style="fill:none;stroke:#ffffff;stroke-width:5;stroke-linecap:butt;stroke-linejoin:bevel;stroke-miterlimit:10;stroke-opacity:1;stroke-dasharray:none" /><path
                                   d="m 365,492 -19,0 -19,0"
                                   inkscape:connector-curvature="0"
                                   id="path384"
                                   style="fill:none;stroke:#00007f;stroke-width:1;stroke-linecap:butt;stroke-linejoin:bevel;stroke-miterlimit:10;stroke-opacity:1;stroke-dasharray:none" /><path
                                   d="m 478,643 0,19 0,19"
                                   inkscape:connector-curvature="0"
                                   id="path386"
                                   style="fill:none;stroke:#ffffff;stroke-width:5;stroke-linecap:butt;stroke-linejoin:bevel;stroke-miterlimit:10;stroke-opacity:1;stroke-dasharray:none" /><path
                                   d="m 478,643 0,19 0,19"
                                   inkscape:connector-curvature="0"
                                   id="path388"
                                   style="fill:none;stroke:#0000ff;stroke-width:1;stroke-linecap:butt;stroke-linejoin:bevel;stroke-miterlimit:10;stroke-opacity:1;stroke-dasharray:none" /><path
                                   d="M 365,492 z"
                                   inkscape:connector-curvature="0"
                                   id="path390"
                                   style="fill:none;stroke:#ffffff;stroke-width:5;stroke-linecap:butt;stroke-linejoin:bevel;stroke-miterlimit:10;stroke-opacity:1;stroke-dasharray:none" /><path
                                   d="M 365,492 z"
                                   inkscape:connector-curvature="0"
                                   id="path392"
                                   style="fill:none;stroke:#00007f;stroke-width:1;stroke-linecap:butt;stroke-linejoin:bevel;stroke-miterlimit:10;stroke-opacity:1;stroke-dasharray:none" /><path
                                   d="m 289,454 0,-38 189,0 0,38"
                                   inkscape:connector-curvature="0"
                                   id="path394"
                                   style="fill:none;stroke:#ffffff;stroke-width:5;stroke-linecap:butt;stroke-linejoin:bevel;stroke-miterlimit:10;stroke-opacity:1;stroke-dasharray:none" /><path
                                   d="m 289,454 0,-38 189,0 0,38"
                                   inkscape:connector-curvature="0"
                                   id="path396"
                                   style="fill:none;stroke:#0000ff;stroke-width:1;stroke-linecap:butt;stroke-linejoin:bevel;stroke-miterlimit:10;stroke-opacity:1;stroke-dasharray:none" /><path
                                   d="m 289,530 0,9 0,9 0,19"
                                   inkscape:connector-curvature="0"
                                   id="path398"
                                   style="fill:none;stroke:#ffffff;stroke-width:5;stroke-linecap:butt;stroke-linejoin:bevel;stroke-miterlimit:10;stroke-opacity:1;stroke-dasharray:none" /><path
                                   d="m 289,530 0,9 0,9 0,19"
                                   inkscape:connector-curvature="0"
                                   id="path400"
                                   style="fill:none;stroke:#0000ff;stroke-width:1;stroke-linecap:butt;stroke-linejoin:bevel;stroke-miterlimit:10;stroke-opacity:1;stroke-dasharray:none" /><path
                                   d="m 481,415.5 c 0,1.932 -1.568,3.5 -3.5,3.5 -1.933,0 -3.5,-1.568 -3.5,-3.5 0,-1.933 1.567,-3.5 3.5,-3.5 1.932,0 3.5,1.567 3.5,3.5 z"
                                   inkscape:connector-curvature="0"
                                   id="path402"
                                   style="fill:#0000ff;fill-opacity:1;fill-rule:evenodd;stroke:none" /><path
                                   d="m 176,586 38,19 -38,19 0,-38 z"
                                   inkscape:connector-curvature="0"
                                   id="path404"
                                   style="fill:#00007f;fill-opacity:1;fill-rule:evenodd;stroke:#00007f;stroke-width:1;stroke-linecap:butt;stroke-linejoin:bevel;stroke-miterlimit:10;stroke-opacity:1;stroke-dasharray:none" /></g><g
                                   transform="translate(100,570.799)"
                                   id="g406"><g
                                   id="g408"><text
                                   transform="translate(72,12)"
                                   id="text410"><tspan
                                   x="0"
                                   y="0"
                                   id="tspan412"
                                   style="font-size:15px;font-variant:normal;writing-mode:lr-tb;fill:#000000;fill-opacity:1;fill-rule:nonzero;stroke:none;font-family:Nimbus Sans L;-inkscape-font-specification:NimbusSanL-Regu">v</tspan></text>
</g></g><g
                                   id="g414"><path
                                   d="m 365,511 38,-19 -38,-19 0,38 z"
                                   inkscape:connector-curvature="0"
                                   id="path416"
                                   style="fill:#00007f;fill-opacity:1;fill-rule:evenodd;stroke:#00007f;stroke-width:1;stroke-linecap:butt;stroke-linejoin:bevel;stroke-miterlimit:10;stroke-opacity:1;stroke-dasharray:none" /></g><g
                                   transform="translate(288.999,511)"
                                   id="g418"><g
                                   id="g420"><text
                                   transform="translate(74.5,12)"
                                   id="text422"><tspan
                                   x="0"
                                   y="0"
                                   id="tspan424"
                                   style="font-size:14px;font-variant:normal;writing-mode:lr-tb;fill:#000000;fill-opacity:1;fill-rule:nonzero;stroke:none;font-family:Nimbus Sans L;-inkscape-font-specification:NimbusSanL-Regu">i</tspan></text>
</g></g><g
                                   id="g426"><path
                                   d="m 474,450 0,8 8,0 0,-8 -8,0 z"
                                   inkscape:connector-curvature="0"
                                   id="path428"
                                   style="fill:#0000ff;fill-opacity:1;fill-rule:nonzero;stroke:#0000ff;stroke-width:1;stroke-linecap:butt;stroke-linejoin:bevel;stroke-miterlimit:10;stroke-opacity:1;stroke-dasharray:none" /><path
                                   d="m 474,526 0,8 8,0 0,-8 -8,0 z"
                                   inkscape:connector-curvature="0"
                                   id="path430"
                                   style="fill:#ffffff;fill-opacity:1;fill-rule:nonzero;stroke:#0000ff;stroke-width:1;stroke-linecap:butt;stroke-linejoin:bevel;stroke-miterlimit:10;stroke-opacity:1;stroke-dasharray:none" /><path
                                   d="m 474,563 0,8 8,0 0,-8 -8,0 z"
                                   inkscape:connector-curvature="0"
                                   id="path432"
                                   style="fill:#0000ff;fill-opacity:1;fill-rule:nonzero;stroke:#0000ff;stroke-width:1;stroke-linecap:butt;stroke-linejoin:bevel;stroke-miterlimit:10;stroke-opacity:1;stroke-dasharray:none" /><path
                                   d="m 474,639 0,8 8,0 0,-8 -8,0 z"
                                   inkscape:connector-curvature="0"
                                   id="path434"
                                   style="fill:#ffffff;fill-opacity:1;fill-rule:nonzero;stroke:#0000ff;stroke-width:1;stroke-linecap:butt;stroke-linejoin:bevel;stroke-miterlimit:10;stroke-opacity:1;stroke-dasharray:none" /><path
                                   d="m 587,563 0,8 8,0 0,-8 -8,0 z"
                                   inkscape:connector-curvature="0"
                                   id="path436"
                                   style="fill:#0000ff;fill-opacity:1;fill-rule:nonzero;stroke:#0000ff;stroke-width:1;stroke-linecap:butt;stroke-linejoin:bevel;stroke-miterlimit:10;stroke-opacity:1;stroke-dasharray:none" /><path
                                   d="m 587,639 0,8 8,0 0,-8 -8,0 z"
                                   inkscape:connector-curvature="0"
                                   id="path438"
                                   style="fill:#ffffff;fill-opacity:1;fill-rule:nonzero;stroke:#0000ff;stroke-width:1;stroke-linecap:butt;stroke-linejoin:bevel;stroke-miterlimit:10;stroke-opacity:1;stroke-dasharray:none" /><path
                                   d="m 474,676 0,8 8,0 0,-8 -8,0 z"
                                   inkscape:connector-curvature="0"
                                   id="path440"
                                   style="fill:#0000ff;fill-opacity:1;fill-rule:nonzero;stroke:#0000ff;stroke-width:1;stroke-linecap:butt;stroke-linejoin:bevel;stroke-miterlimit:10;stroke-opacity:1;stroke-dasharray:none" /><path
                                   d="m 587,450 0,8 8,0 0,-8 -8,0 z"
                                   inkscape:connector-curvature="0"
                                   id="path442"
                                   style="fill:#0000ff;fill-opacity:1;fill-rule:nonzero;stroke:#0000ff;stroke-width:1;stroke-linecap:butt;stroke-linejoin:bevel;stroke-miterlimit:10;stroke-opacity:1;stroke-dasharray:none" /><path
                                   d="m 587,526 0,8 8,0 0,-8 -8,0 z"
                                   inkscape:connector-curvature="0"
                                   id="path444"
                                   style="fill:#ffffff;fill-opacity:1;fill-rule:nonzero;stroke:#0000ff;stroke-width:1;stroke-linecap:butt;stroke-linejoin:bevel;stroke-miterlimit:10;stroke-opacity:1;stroke-dasharray:none" /><path
                                   d="m 285,563 0,8 8,0 0,-8 -8,0 z"
                                   inkscape:connector-curvature="0"
                                   id="path446"
                                   style="fill:#0000ff;fill-opacity:1;fill-rule:nonzero;stroke:#0000ff;stroke-width:1;stroke-linecap:butt;stroke-linejoin:bevel;stroke-miterlimit:10;stroke-opacity:1;stroke-dasharray:none" /><path
                                   d="m 285,639 0,8 8,0 0,-8 -8,0 z"
                                   inkscape:connector-curvature="0"
                                   id="path448"
                                   style="fill:#ffffff;fill-opacity:1;fill-rule:nonzero;stroke:#0000ff;stroke-width:1;stroke-linecap:butt;stroke-linejoin:bevel;stroke-miterlimit:10;stroke-opacity:1;stroke-dasharray:none" /><path
                                   d="m 254,613 16,-8 -16,-8 0,16 z"
                                   inkscape:connector-curvature="0"
                                   id="path450"
                                   style="fill:#00007f;fill-opacity:1;fill-rule:evenodd;stroke:#00007f;stroke-width:1;stroke-linecap:butt;stroke-linejoin:bevel;stroke-miterlimit:10;stroke-opacity:1;stroke-dasharray:none" /><path
                                   d="m 285,450 0,8 8,0 0,-8 -8,0 z"
                                   inkscape:connector-curvature="0"
                                   id="path452"
                                   style="fill:#0000ff;fill-opacity:1;fill-rule:nonzero;stroke:#0000ff;stroke-width:1;stroke-linecap:butt;stroke-linejoin:bevel;stroke-miterlimit:10;stroke-opacity:1;stroke-dasharray:none" /><path
                                   d="m 285,526 0,8 8,0 0,-8 -8,0 z"
                                   inkscape:connector-curvature="0"
                                   id="path454"
                                   style="fill:#ffffff;fill-opacity:1;fill-rule:nonzero;stroke:#0000ff;stroke-width:1;stroke-linecap:butt;stroke-linejoin:bevel;stroke-miterlimit:10;stroke-opacity:1;stroke-dasharray:none" /><path
                                   d="m 323,488 8,4 -8,4 0,-8 z"
                                   inkscape:connector-curvature="0"
                                   id="path456"
                                   style="fill:#ffffff;fill-opacity:1;fill-rule:evenodd;stroke:#00007f;stroke-width:1;stroke-linecap:butt;stroke-linejoin:bevel;stroke-miterlimit:10;stroke-opacity:1;stroke-dasharray:none" /></g></g></g></g></g></g></g></g></g></g></g></g></g></g></g></g></g></g></g></g></g></g></g></g></g></g></g></g></g></g></g></g></g></g></g></g></g></g></g></g></svg>