<?xml version="1.0" encoding="UTF-8" standalone="no"?>
<!-- Created with Inkscape (http://www.inkscape.org/) -->

<svg
   xmlns:dc="http://purl.org/dc/elements/1.1/"
   xmlns:cc="http://creativecommons.org/ns#"
   xmlns:rdf="http://www.w3.org/1999/02/22-rdf-syntax-ns#"
   xmlns:svg="http://www.w3.org/2000/svg"
   xmlns="http://www.w3.org/2000/svg"
   xmlns:inkscape="http://www.inkscape.org/namespaces/inkscape"
   version="1.1"
   width="703.75"
   height="247.5"
   id="svg2"
   xml:space="preserve"><metadata
     id="metadata8"><rdf:RDF><cc:Work
         rdf:about=""><dc:format>image/svg+xml</dc:format><dc:type
           rdf:resource="http://purl.org/dc/dcmitype/StillImage" /></cc:Work></rdf:RDF></metadata><defs
     id="defs6"><clipPath
       id="clipPath18"><path
         d="M 0,0 563,0 563,198 0,198 0,0 z"
         inkscape:connector-curvature="0"
         id="path20" /></clipPath><clipPath
       id="clipPath28"><path
         d="M 0,0 563,0 563,198 0,198 0,0 z"
         inkscape:connector-curvature="0"
         id="path30" /></clipPath><clipPath
       id="clipPath38"><path
         d="M 0,0 563,0 563,198 0,198 0,0 z"
         inkscape:connector-curvature="0"
         id="path40" /></clipPath><clipPath
       id="clipPath48"><path
         d="M 0,0 563,0 563,198 0,198 0,0 z"
         inkscape:connector-curvature="0"
         id="path50" /></clipPath><clipPath
       id="clipPath58"><path
         d="M 0,0 563,0 563,198 0,198 0,0 z"
         inkscape:connector-curvature="0"
         id="path60" /></clipPath><clipPath
       id="clipPath68"><path
         d="M 0,0 563,0 563,198 0,198 0,0 z"
         inkscape:connector-curvature="0"
         id="path70" /></clipPath><clipPath
       id="clipPath78"><path
         d="M 0,0 612,0 612,792 0,792 0,0 z"
         inkscape:connector-curvature="0"
         id="path80" /></clipPath></defs><g
     transform="matrix(1.25,0,0,-1.25,0,247.5)"
     id="g10"><g
       id="g12"><g
         id="g14"><g
           clip-path="url(#clipPath18)"
           id="g16"><g
             id="g22"><g
               id="g24"><g
                 clip-path="url(#clipPath28)"
                 id="g26"><g
                   id="g32"><g
                     id="g34"><g
                       clip-path="url(#clipPath38)"
                       id="g36"><g
                         id="g42"><g
                           id="g44"><g
                             clip-path="url(#clipPath48)"
                             id="g46"><g
                               id="g52"><g
                                 id="g54"><g
                                   clip-path="url(#clipPath58)"
                                   id="g56"><g
                                   id="g62"><g
                                   id="g64"><g
                                   clip-path="url(#clipPath68)"
                                   id="g66"><g
                                   transform="translate(-18,-297)"
                                   id="g72"><g
                                   id="g74"><g
                                   clip-path="url(#clipPath78)"
                                   id="g76"><g
                                   transform="scale(0.12,0.12)"
                                   id="g82"><path
                                   d="m 3491,2637 6,0 0,569 -6,0 0,-569 z"
                                   inkscape:connector-curvature="0"
                                   id="path84"
                                   style="fill:#bfbfbf;fill-opacity:1;fill-rule:nonzero;stroke:none" /><path
                                   d="m 4059,2637 7,0 0,569 -7,0 0,-569 z"
                                   inkscape:connector-curvature="0"
                                   id="path86"
                                   style="fill:#bfbfbf;fill-opacity:1;fill-rule:nonzero;stroke:none" /><path
                                   d="m 4066,3712 0,-25 -7,0 0,25 7,0 z m 0,-37 0,-25 -7,0 0,25 7,0 z m 0,-38 0,-25 -7,0 0,25 7,0 z m 0,-37 0,-25 -7,0 0,25 7,0 z m 0,-38 0,-25 -7,0 0,25 7,0 z m 0,-37 0,-25 -7,0 0,25 7,0 z m 0,-38 0,-25 -7,0 0,25 7,0 z m 0,-37 0,-25 -7,0 0,25 7,0 z m 0,-38 0,-25 -7,0 0,25 7,0 z m 0,-37 0,-25 -7,0 0,25 7,0 z m 0,-38 0,-25 -7,0 0,25 7,0 z m 0,-37 0,-25 -7,0 0,25 7,0 z m 0,-38 0,-25 -7,0 0,25 7,0 z m 0,-37 0,-25 -7,0 0,25 7,0 z m 0,-38 0,-25 -7,0 0,25 7,0 z m -3,-24 11,23 5,-3 -11,-23 -5,3 z m 16,34 11,22 6,-3 -11,-22 -6,3 z m 17,33 7,15 3,-1 1,-3 -7,-3 -3,6 8,3 4,-5 -7,-14 -6,2 z m -8,3 -23,-9 -3,6 24,9 2,-6 z m -35,-14 -23,-9 -2,6 23,9 2,-6 z m -35,-14 -4,-2 -3,6 5,2 2,-6"
                                   inkscape:connector-curvature="0"
                                   id="path88"
                                   style="fill:#bfbfbf;fill-opacity:1;fill-rule:nonzero;stroke:none" /><path
                                   d="m 4063,3712 -32,-87 63,0 -31,87"
                                   inkscape:connector-curvature="0"
                                   id="path90"
                                   style="fill:#bfbfbf;fill-opacity:1;fill-rule:evenodd;stroke:none" /><path
                                   d="m 4063,3712 -32,-87 63,0 -31,87 z"
                                   inkscape:connector-curvature="0"
                                   id="path92"
                                   style="fill:none;stroke:#bfbfbf;stroke-width:1;stroke-linecap:round;stroke-linejoin:round;stroke-miterlimit:10;stroke-opacity:1;stroke-dasharray:none" /><path
                                   d="m 4108,3158 519,-518 -4,-5 -519,519 4,4"
                                   inkscape:connector-curvature="0"
                                   id="path94"
                                   style="fill:#bfbfbf;fill-opacity:1;fill-rule:nonzero;stroke:none" /><path
                                   d="m 4015,3154 -519,-519 -4,5 518,518 5,-4"
                                   inkscape:connector-curvature="0"
                                   id="path96"
                                   style="fill:#bfbfbf;fill-opacity:1;fill-rule:nonzero;stroke:none" /><path
                                   d="m 3546,3158 519,-518 -5,-5 -518,519 4,4"
                                   inkscape:connector-curvature="0"
                                   id="path98"
                                   style="fill:#bfbfbf;fill-opacity:1;fill-rule:nonzero;stroke:none" /><path
                                   d="m 2977,3158 519,-518 -4,-5 -519,519 4,4"
                                   inkscape:connector-curvature="0"
                                   id="path100"
                                   style="fill:#bfbfbf;fill-opacity:1;fill-rule:nonzero;stroke:none" /><path
                                   d="m 2883,3154 -518,-519 -5,5 519,518 4,-4"
                                   inkscape:connector-curvature="0"
                                   id="path102"
                                   style="fill:#bfbfbf;fill-opacity:1;fill-rule:nonzero;stroke:none" /><path
                                   d="m 874.996,3581 825,0 0,331 -825,0 0,-331 z"
                                   inkscape:connector-curvature="0"
                                   id="path104"
                                   style="fill:#ffffff;fill-opacity:1;fill-rule:evenodd;stroke:none" /><path
                                   d="m 874.996,3916 825.004,0 3,-4 0,-331 -3,-3 -825.004,0 -3,3 0,331 3,4 z m 3,-4 0,-331 -3,0 0,3 825.004,0 0,-3 -3,0 0,331 3,0 0,-3 -825.004,0 0,3 3,0"
                                   inkscape:connector-curvature="0"
                                   id="path106"
                                   style="fill:#000000;fill-opacity:1;fill-rule:nonzero;stroke:none" /><path
                                   d="m 2922,2637 6,0 0,569 -6,0 0,-569 z"
                                   inkscape:connector-curvature="0"
                                   id="path108"
                                   style="fill:#bfbfbf;fill-opacity:1;fill-rule:nonzero;stroke:none" /><path
                                   d="m 421.996,2731 6,0 0,1181 -6,0 0,-1181 z"
                                   inkscape:connector-curvature="0"
                                   id="path110"
                                   style="fill:#000000;fill-opacity:1;fill-rule:nonzero;stroke:none" /><path
                                   d="m 424.996,3912 -31,-87 62,0 -31,87"
                                   inkscape:connector-curvature="0"
                                   id="path112"
                                   style="fill:#000000;fill-opacity:1;fill-rule:evenodd;stroke:none" /><path
                                   d="m 424.996,3912 -31,-87 62,0 -31,87 z"
                                   inkscape:connector-curvature="0"
                                   id="path114"
                                   style="fill:none;stroke:#000000;stroke-width:1;stroke-linecap:round;stroke-linejoin:round;stroke-miterlimit:10;stroke-opacity:1;stroke-dasharray:none" /><g
                                   transform="scale(8.33333,8.33333)"
                                   id="g116"><text
                                   transform="matrix(1,0,0,-1,28.1995,477.72)"
                                   id="text118"><tspan
                                   x="0 6.0000005 11.280003 19.560003 24.840004 30.000008 35.280006 37.560005 39.840008"
                                   y="0"
                                   id="tspan120"
                                   style="font-size:9px;font-variant:normal;font-weight:normal;writing-mode:lr-tb;fill:#000000;fill-opacity:1;fill-rule:nonzero;stroke:none;font-family:Helvetica;-inkscape-font-specification:Helvetica">Composite</tspan><tspan
                                   x="10.92 16.92 22.080004 27.360003 29.640003"
                                   y="164.39999"
                                   id="tspan122"
                                   style="font-size:9px;font-variant:normal;font-weight:normal;writing-mode:lr-tb;fill:#000000;fill-opacity:1;fill-rule:nonzero;stroke:none;font-family:Helvetica;-inkscape-font-specification:Helvetica">Basic</tspan></text>
</g><path
                                   d="m 4131,3775 0,-19 -6,-6 0,-13 -6,0 -6,-6 0,-6 -7,0 -6,-6 0,-7 -12,0 -7,-6 -37,0 -6,6 -7,0 -6,7 -6,6 -6,0 0,6 -7,6 -6,0 0,13 -6,6 0,38 6,6 0,6 6,6 7,7 0,6 6,0 6,6 6,6 7,0 6,7 37,0 7,-7 12,0 0,-6 6,-6 7,0 0,-6 6,-7 6,-6 0,-6 6,-6 0,-19"
                                   inkscape:connector-curvature="0"
                                   id="path124"
                                   style="fill:#bfbfbf;fill-opacity:1;fill-rule:evenodd;stroke:none" /><path
                                   d="m 4138,3775 0,-19 -2,-4 -7,-6 -4,4 6,0 0,-13 -6,-6 -6,0 0,6 4,-4 -6,-6 -4,4 6,0 0,-6 -6,-6 -7,0 0,6 5,-4 -7,-7 -4,5 6,0 0,-7 -6,-6 -12,0 0,6 4,-4 -6,-6 -5,-2 -37,0 -5,2 -6,6 5,4 0,-6 -7,0 -4,2 -6,6 -7,7 5,4 0,-6 -6,0 -7,6 0,6 7,0 -5,-4 -6,6 4,4 0,-6 -6,0 -6,6 0,13 6,0 -4,-4 -7,6 -1,4 0,38 1,4 7,6 4,-4 -6,0 0,6 2,5 6,6 6,6 5,-4 -7,0 0,6 7,6 6,0 0,-6 -5,4 7,7 6,6 4,2 7,0 0,-7 -5,5 6,6 5,2 37,0 5,-2 6,-6 -4,-5 0,7 12,0 6,-7 0,-6 -6,0 4,5 7,-7 -5,-4 0,6 7,0 6,-6 0,-6 -6,0 4,4 6,-6 6,-6 2,-5 0,-6 -6,0 4,4 7,-6 2,-4 0,-19 z m -13,0 0,19 6,0 -4,-5 -6,7 -2,4 0,6 6,0 -4,-4 -7,6 -6,6 -2,5 0,6 7,0 0,-6 -7,0 -4,2 -6,6 -2,4 0,6 6,0 0,-6 -12,0 -5,2 -6,6 4,5 0,-7 -37,0 0,7 4,-5 -6,-6 -4,-2 -7,0 0,6 5,-4 -7,-6 -6,-6 -4,-2 -6,0 0,6 6,0 0,-6 -2,-5 -6,-6 -7,-6 -4,4 6,0 0,-6 -2,-4 -6,-7 -4,5 6,0 0,-38 -6,0 4,5 6,-7 2,-4 0,-13 -6,0 0,7 6,0 5,-2 6,-6 2,-5 0,-6 -6,0 0,6 6,0 4,-2 6,-6 7,-6 -5,-5 0,7 7,0 4,-2 6,-6 -4,-5 0,6 37,0 0,-6 -4,5 6,6 5,2 12,0 0,-7 -6,0 0,7 2,4 6,6 4,2 7,0 0,-6 -7,0 0,6 2,5 6,6 5,2 6,0 0,-7 -6,0 0,13 2,4 6,7 4,-5 -6,0 0,19"
                                   inkscape:connector-curvature="0"
                                   id="path126"
                                   style="fill:#7f7f7f;fill-opacity:1;fill-rule:nonzero;stroke:none" /><g
                                   transform="scale(8.33333,8.33333)"
                                   id="g128"><text
                                   transform="matrix(1,0,0,-1,150.12,438)"
                                   id="text130"><tspan
                                   x="0 5.9999971 9.8399973 15.000004 20.280008 25.560015 30.840015 33.000015 38.280022"
                                   y="0"
                                   id="tspan132"
                                   style="font-size:9px;font-variant:normal;font-weight:normal;writing-mode:lr-tb;fill:#000000;fill-opacity:1;fill-rule:nonzero;stroke:none;font-family:Helvetica;-inkscape-font-specification:Helvetica">Expansion</tspan><tspan
                                   x="0 5.9999971 9.8399973 11.999997 17.280003 22.560009 27.84001 30.00001 35.280014"
                                   y="-17.040001"
                                   id="tspan134"
                                   style="font-size:9px;font-variant:normal;font-weight:normal;writing-mode:lr-tb;fill:#000000;fill-opacity:1;fill-rule:nonzero;stroke:none;font-family:Helvetica;-inkscape-font-specification:Helvetica">Extension</tspan></text>
</g><path
                                   d="m 2431,2637 0,-18 -6,-7 0,-12 -6,0 -6,-6 0,-7 -7,0 -6,-6 0,-6 -12,0 -7,-6 -37,0 -6,6 -7,0 -6,6 -6,6 -6,0 0,7 -7,6 -6,0 0,12 -6,7 0,37 6,6 0,7 6,6 7,6 0,6 6,0 6,7 6,6 7,0 6,6 37,0 7,-6 12,0 0,-6 6,-7 7,0 0,-6 6,-6 6,-6 0,-7 6,-6 0,-19"
                                   inkscape:connector-curvature="0"
                                   id="path136"
                                   style="fill:#ffffff;fill-opacity:1;fill-rule:evenodd;stroke:none" /><path
                                   d="m 2434,2637 0,-18 -1,-2 -6,-7 -2,2 3,0 0,-12 -3,-3 -6,0 0,3 2,-2 -6,-6 -2,2 3,0 0,-7 -3,-3 -7,0 0,3 2,-2 -6,-6 -2,2 3,0 0,-6 -3,-3 -12,0 0,3 2,-2 -7,-6 -2,-1 -37,0 -2,1 -7,6 3,2 0,-3 -7,0 -2,1 -6,6 -6,6 2,2 0,-3 -6,0 -4,3 0,7 4,0 -3,-2 -6,6 2,2 0,-3 -6,0 -3,3 0,12 3,0 -2,-2 -6,7 -1,2 0,37 1,2 6,7 2,-3 -3,0 0,7 1,2 6,6 6,6 3,-2 -4,0 0,6 4,4 6,0 0,-4 -2,3 6,6 6,6 2,1 7,0 0,-3 -3,2 7,6 2,1 37,0 2,-1 7,-6 -2,-2 0,3 12,0 3,-3 0,-6 -3,0 2,2 6,-6 -2,-3 0,4 7,0 3,-4 0,-6 -3,0 2,2 6,-6 6,-6 1,-2 0,-7 -3,0 2,3 6,-7 1,-2 0,-19 z m -6,0 0,19 3,0 -2,-2 -6,6 -1,2 0,7 3,0 -2,-2 -6,6 -7,6 -1,2 0,6 4,0 0,-3 -7,0 -2,1 -6,7 -1,2 0,6 3,0 0,-3 -12,0 -3,1 -6,6 2,2 0,-3 -37,0 0,3 2,-2 -6,-6 -2,-1 -7,0 0,3 2,-2 -6,-6 -6,-7 -2,-1 -6,0 0,3 3,0 0,-6 -1,-2 -7,-6 -6,-6 -2,2 3,0 0,-7 -1,-2 -6,-6 -2,2 3,0 0,-37 -3,0 2,2 6,-6 1,-3 0,-12 -3,0 0,3 6,0 2,-1 7,-6 1,-2 0,-7 -3,0 0,4 6,0 2,-1 6,-7 6,-6 -2,-2 0,3 7,0 2,-1 6,-6 -2,-2 0,3 37,0 0,-3 -2,2 6,6 3,1 12,0 0,-3 -3,0 0,6 1,2 6,7 2,1 7,0 0,-4 -4,0 0,7 1,2 7,6 2,1 6,0 0,-3 -3,0 0,12 1,3 6,6 2,-2 -3,0 0,18"
                                   inkscape:connector-curvature="0"
                                   id="path138"
                                   style="fill:#7f7f7f;fill-opacity:1;fill-rule:nonzero;stroke:none" /><path
                                   d="m 943.996,3816 237,0 0,6 -237,0 0,-6 z"
                                   inkscape:connector-curvature="0"
                                   id="path140"
                                   style="fill:#bfbfbf;fill-opacity:1;fill-rule:nonzero;stroke:none" /><path
                                   d="m 2994,2637 0,-18 -6,-7 0,-12 -7,0 -6,-6 0,-7 -6,0 -6,-6 0,-6 -13,0 -6,-6 -38,0 -6,6 -6,0 -6,6 -7,6 -6,0 0,7 -6,6 -6,0 0,12 -7,7 0,37 7,6 0,7 6,6 6,6 0,6 6,0 7,7 6,6 6,0 6,6 38,0 6,-6 13,0 0,-6 6,-7 6,0 0,-6 6,-6 7,-6 0,-7 6,-6 0,-19"
                                   inkscape:connector-curvature="0"
                                   id="path142"
                                   style="fill:#ffffff;fill-opacity:1;fill-rule:evenodd;stroke:none" /><path
                                   d="m 2997,2637 0,-18 -1,-2 -6,-7 -2,2 3,0 0,-12 -3,-3 -7,0 0,3 2,-2 -6,-6 -2,2 3,0 0,-7 -3,-3 -6,0 0,3 2,-2 -6,-6 -2,2 3,0 0,-6 -3,-3 -13,0 0,3 2,-2 -6,-6 -2,-1 -38,0 -2,1 -6,6 2,2 0,-3 -6,0 -2,1 -7,6 -6,6 2,2 0,-3 -6,0 -3,3 0,7 3,0 -2,-2 -6,6 2,2 0,-3 -6,0 -4,3 0,12 4,0 -3,-2 -6,7 -1,2 0,37 1,2 6,7 3,-3 -4,0 0,7 1,2 7,6 6,6 2,-2 -3,0 0,6 3,4 6,0 0,-4 -2,3 6,6 7,6 2,1 6,0 0,-3 -2,2 6,6 2,1 38,0 2,-1 6,-6 -2,-2 0,3 13,0 3,-3 0,-6 -3,0 2,2 6,-6 -2,-3 0,4 6,0 3,-4 0,-6 -3,0 2,2 6,-6 7,-6 1,-2 0,-7 -3,0 2,3 6,-7 1,-2 0,-19 z m -6,0 0,19 3,0 -2,-2 -7,6 -1,2 0,7 4,0 -3,-2 -6,6 -6,6 -1,2 0,6 3,0 0,-3 -6,0 -2,1 -7,7 -1,2 0,6 4,0 0,-3 -13,0 -2,1 -6,6 2,2 0,-3 -38,0 0,3 2,-2 -6,-6 -2,-1 -6,0 0,3 2,-2 -6,-6 -7,-7 -2,-1 -6,0 0,3 3,0 0,-6 -1,-2 -6,-6 -6,-6 -2,2 3,0 0,-7 -1,-2 -7,-6 -2,2 3,0 0,-37 -3,0 2,2 7,-6 1,-3 0,-12 -3,0 0,3 6,0 2,-1 6,-6 1,-2 0,-7 -3,0 0,4 6,0 2,-1 7,-7 6,-6 -2,-2 0,3 6,0 2,-1 6,-6 -2,-2 0,3 38,0 0,-3 -2,2 6,6 2,1 13,0 0,-3 -4,0 0,6 1,2 7,7 2,1 6,0 0,-4 -3,0 0,7 1,2 6,6 2,1 7,0 0,-3 -4,0 0,12 1,3 7,6 2,-2 -3,0 0,18"
                                   inkscape:connector-curvature="0"
                                   id="path144"
                                   style="fill:#7f7f7f;fill-opacity:1;fill-rule:nonzero;stroke:none" /><path
                                   d="m 4131,2637 0,-18 -6,-7 0,-12 -6,0 -6,-6 0,-7 -7,0 -6,-6 0,-6 -12,0 -7,-6 -37,0 -6,6 -7,0 -6,6 -6,6 -6,0 0,7 -7,6 -6,0 0,12 -6,7 0,37 6,6 0,7 6,6 7,6 0,6 6,0 6,7 6,6 7,0 6,6 37,0 7,-6 12,0 0,-6 6,-7 7,0 0,-6 6,-6 6,-6 0,-7 6,-6 0,-19"
                                   inkscape:connector-curvature="0"
                                   id="path146"
                                   style="fill:#ffffff;fill-opacity:1;fill-rule:evenodd;stroke:none" /><path
                                   d="m 4134,2637 0,-18 -1,-2 -6,-7 -2,2 3,0 0,-12 -3,-3 -6,0 0,3 2,-2 -6,-6 -2,2 3,0 0,-7 -3,-3 -7,0 0,3 2,-2 -6,-6 -2,2 3,0 0,-6 -3,-3 -12,0 0,3 2,-2 -7,-6 -2,-1 -37,0 -2,1 -7,6 3,2 0,-3 -7,0 -2,1 -6,6 -6,6 2,2 0,-3 -6,0 -4,3 0,7 4,0 -3,-2 -6,6 2,2 0,-3 -6,0 -3,3 0,12 3,0 -2,-2 -6,7 -1,2 0,37 1,2 6,7 2,-3 -3,0 0,7 1,2 6,6 6,6 3,-2 -4,0 0,6 4,4 6,0 0,-4 -2,3 6,6 6,6 2,1 7,0 0,-3 -3,2 7,6 2,1 37,0 2,-1 7,-6 -2,-2 0,3 12,0 3,-3 0,-6 -3,0 2,2 6,-6 -2,-3 0,4 7,0 3,-4 0,-6 -3,0 2,2 6,-6 6,-6 1,-2 0,-7 -3,0 2,3 6,-7 1,-2 0,-19 z m -6,0 0,19 3,0 -2,-2 -6,6 -1,2 0,7 3,0 -2,-2 -6,6 -7,6 -1,2 0,6 4,0 0,-3 -7,0 -2,1 -6,7 -1,2 0,6 3,0 0,-3 -12,0 -3,1 -6,6 2,2 0,-3 -37,0 0,3 2,-2 -6,-6 -2,-1 -7,0 0,3 2,-2 -6,-6 -6,-7 -2,-1 -6,0 0,3 3,0 0,-6 -1,-2 -7,-6 -6,-6 -2,2 3,0 0,-7 -1,-2 -6,-6 -2,2 3,0 0,-37 -3,0 2,2 6,-6 1,-3 0,-12 -3,0 0,3 6,0 2,-1 7,-6 1,-2 0,-7 -3,0 0,4 6,0 2,-1 6,-7 6,-6 -2,-2 0,3 7,0 2,-1 6,-6 -2,-2 0,3 37,0 0,-3 -2,2 6,6 3,1 12,0 0,-3 -3,0 0,6 1,2 6,7 2,1 7,0 0,-4 -4,0 0,7 1,2 7,6 2,1 6,0 0,-3 -3,0 0,12 1,3 6,6 2,-2 -3,0 0,18"
                                   inkscape:connector-curvature="0"
                                   id="path148"
                                   style="fill:#7f7f7f;fill-opacity:1;fill-rule:nonzero;stroke:none" /><path
                                   d="m 3563,3206 0,-19 -7,-6 0,-12 -6,0 -6,-7 0,-6 -6,0 -7,-6 0,-6 -12,0 -6,-7 -38,0 -6,7 -6,0 -7,6 -6,6 -6,0 0,6 -6,7 -7,0 0,12 -6,6 0,38 6,6 0,6 7,7 6,6 0,6 6,0 6,6 7,7 6,0 6,6 38,0 6,-6 12,0 0,-7 7,-6 6,0 0,-6 6,-6 6,-7 0,-6 7,-6 0,-19"
                                   inkscape:connector-curvature="0"
                                   id="path150"
                                   style="fill:#dd172f;fill-opacity:1;fill-rule:evenodd;stroke:none" /><path
                                   d="m 3566,3206 0,-19 -1,-2 -7,-6 -2,2 3,0 0,-12 -3,-3 -6,0 0,3 2,-2 -6,-7 -2,2 3,0 0,-6 -3,-3 -6,0 0,3 2,-2 -7,-6 -2,2 3,0 0,-6 -3,-3 -12,0 0,3 2,-2 -6,-7 -2,-1 -38,0 -2,1 -6,7 2,2 0,-3 -6,0 -3,1 -6,6 -6,6 2,2 0,-3 -6,0 -3,3 0,6 3,0 -2,-2 -7,7 3,2 0,-3 -7,0 -3,3 0,12 3,0 -2,-2 -6,6 -1,2 0,38 1,2 6,6 2,-2 -3,0 0,6 1,3 6,6 7,6 2,-2 -3,0 0,6 3,3 6,0 0,-3 -2,2 6,7 6,6 3,1 6,0 0,-3 -2,2 6,6 2,1 38,0 2,-1 6,-6 -2,-2 0,3 12,0 3,-3 0,-7 -3,0 2,3 7,-7 -2,-2 0,3 6,0 3,-3 0,-6 -3,0 2,2 6,-6 6,-6 1,-3 0,-6 -3,0 2,2 7,-6 1,-2 0,-19 z m -7,0 0,19 4,0 -3,-2 -6,6 -1,2 0,6 3,0 -2,-2 -6,7 -6,6 -1,2 0,6 3,0 0,-3 -6,0 -3,1 -6,6 -1,2 0,7 3,0 0,-3 -12,0 -2,1 -7,6 3,2 0,-3 -38,0 0,3 2,-2 -6,-6 -2,-1 -6,0 0,3 2,-2 -7,-7 -6,-6 -2,-1 -6,0 0,3 3,0 0,-6 -1,-2 -6,-6 -7,-7 -2,2 3,0 0,-6 -1,-2 -6,-6 -2,2 3,0 0,-38 -3,0 2,3 6,-7 1,-2 0,-12 -3,0 0,3 7,0 2,-1 6,-6 1,-3 0,-6 -3,0 0,3 6,0 2,-1 6,-6 7,-6 -2,-2 0,3 6,0 2,-1 6,-6 -2,-3 0,4 38,0 0,-4 -3,3 7,6 2,1 12,0 0,-3 -3,0 0,6 1,2 6,6 3,1 6,0 0,-3 -3,0 0,6 1,3 6,6 2,1 6,0 0,-3 -3,0 0,12 1,2 6,7 3,-3 -4,0 0,19"
                                   inkscape:connector-curvature="0"
                                   id="path152"
                                   style="fill:#aa0000;fill-opacity:1;fill-rule:nonzero;stroke:none" /><g
                                   transform="scale(8.33333,8.33333)"
                                   id="g154"><text
                                   transform="matrix(1,0,0,-1,468,477.96)"
                                   id="text156"><tspan
                                   x="0 6.0000119 11.280018 16.560022 21.72003 27.000006 32.279984 35.279972"
                                   y="0"
                                   id="tspan158"
                                   style="font-size:9px;font-variant:normal;font-weight:normal;writing-mode:lr-tb;fill:#000000;fill-opacity:1;fill-rule:nonzero;stroke:none;font-family:Helvetica;-inkscape-font-specification:Helvetica">Boundary</tspan><tspan
                                   x="11.28 17.280012 22.560017"
                                   y="11.16"
                                   id="tspan160"
                                   style="font-size:9px;font-variant:normal;font-weight:normal;writing-mode:lr-tb;fill:#000000;fill-opacity:1;fill-rule:nonzero;stroke:none;font-family:Helvetica;-inkscape-font-specification:Helvetica">Bus</tspan><tspan
                                   x="1.8 7.0800056 12.360011 17.640017 20.640005 28.799994 34.079971"
                                   y="135.96001"
                                   id="tspan162"
                                   style="font-size:9px;font-variant:normal;font-weight:normal;writing-mode:lr-tb;fill:#000000;fill-opacity:1;fill-rule:nonzero;stroke:none;font-family:Helvetica;-inkscape-font-specification:Helvetica">Thermal</tspan><tspan
                                   x="1.8 8.6400118 10.800023 13.080011 15.36 20.640005 25.800005 28.080017 31.800016"
                                   y="147.24001"
                                   id="tspan164"
                                   style="font-size:9px;font-variant:normal;font-weight:normal;writing-mode:lr-tb;fill:#000000;fill-opacity:1;fill-rule:nonzero;stroke:none;font-family:Helvetica;-inkscape-font-specification:Helvetica">Diffusive</tspan><tspan
                                   x="-134.16 -128.87999 -123.71999 -118.43998 -115.43999 -107.16 -101.88"
                                   y="135.96001"
                                   id="tspan166"
                                   style="font-size:9px;font-variant:normal;font-weight:normal;writing-mode:lr-tb;fill:#000000;fill-opacity:1;fill-rule:nonzero;stroke:none;font-family:Helvetica;-inkscape-font-specification:Helvetica">Thermal</tspan><tspan
                                   x="-135.72 -130.43999 -125.15998 -121.43998 -116.15997 -111.71998 -109.43999 -107.15998 -103.43998"
                                   y="147.24001"
                                   id="tspan168"
                                   style="font-size:9px;font-variant:normal;font-weight:normal;writing-mode:lr-tb;fill:#000000;fill-opacity:1;fill-rule:nonzero;stroke:none;font-family:Helvetica;-inkscape-font-specification:Helvetica">Advective</tspan><tspan
                                   x="-202.92 -196.91998 -194.64 -189.36 -187.19998 -182.63998 -177.35997 -175.19997 -169.91995"
                                   y="135.96001"
                                   id="tspan170"
                                   style="font-size:9px;font-variant:normal;font-weight:normal;writing-mode:lr-tb;fill:#000000;fill-opacity:1;fill-rule:nonzero;stroke:none;font-family:Helvetica;-inkscape-font-specification:Helvetica">Stoichio-</tspan><tspan
                                   x="-197.64 -189.36002 -184.20001 -181.92001 -178.92003 -176.64001"
                                   y="147.24001"
                                   id="tspan172"
                                   style="font-size:9px;font-variant:normal;font-weight:normal;writing-mode:lr-tb;fill:#000000;fill-opacity:1;fill-rule:nonzero;stroke:none;font-family:Helvetica;-inkscape-font-specification:Helvetica">metric</tspan><tspan
                                   x="-69.959999 -67.680016 -62.400005 -60.120018 -57.120029 -51.960026 -49.680035 -47.400047 -45.12006 -39.960052 -37.680065 -32.400059 -30.120071"
                                   y="67.919998"
                                   id="tspan174"
                                   style="font-size:9px;font-variant:normal;font-weight:normal;writing-mode:lr-tb;fill:#000000;fill-opacity:1;fill-rule:nonzero;stroke:none;font-family:Helvetica;-inkscape-font-specification:Helvetica">Intra, Inter,</tspan><tspan
                                   x="-66.959999 -61.679993 -56.39999 -51.119984 -48.959995 -46.680008 -41.400002 -36.119995 -33.120007"
                                   y="79.199997"
                                   id="tspan176"
                                   style="font-size:9px;font-variant:normal;font-weight:normal;writing-mode:lr-tb;fill:#000000;fill-opacity:1;fill-rule:nonzero;stroke:none;font-family:Helvetica;-inkscape-font-specification:Helvetica">and Inert</tspan></text>
</g><path
                                   d="m 1181,3672 -25,0 0,6 25,0 0,-6 z m -37,0 -25,0 0,6 25,0 0,-6 z m -38,0 -25,0 0,6 25,0 0,-6 z m -37,0 -25,0 0,6 25,0 0,-6 z m -38,0 -25,0 0,6 25,0 0,-6 z m -37.004,0 -25,0 0,6 25,0 0,-6 z m -38,0 -12,0 0,3 3,0 0,-13 -6,0 0,13 3,3 12,0 0,-6 z m -9,-22 0,-19 -3,0 0,3 6,0 0,-6 -6,0 -3,3 0,19 6,0 z m 16,-16 25,0 0,-6 -25,0 0,6 z m 37,0 25.004,0 0,-6 -25.004,0 0,6 z m 38.004,0 25,0 0,-6 -25,0 0,6 z m 37,0 13,0 0,-6 -13,0 0,6 z m 0,0 13,0 0,-6 -13,0 0,6 z m -12,-6 -25,0 0,6 25,0 0,-6 z m -38,0 -25.004,0 0,6 25.004,0 0,-6 z m -37.004,0 -25,0 0,6 25,0 0,-6 z m -38,0 -25,0 0,6 25,0 0,-6 z m -37,0 -13,0 0,6 13,0 0,-6 z m 0,0 -13,0 0,6 13,0 0,-6 z m 12,6 25,0 0,-6 -25,0 0,6 z m 38,0 25,0 0,-6 -25,0 0,6 z m 37,0 25.004,0 0,-6 -25.004,0 0,6 z m 38.004,0 25,0 0,-6 -25,0 0,6 z m 37,0 13,0 0,-6 -13,0 0,6"
                                   inkscape:connector-curvature="0"
                                   id="path178"
                                   style="fill:#bfbfbf;fill-opacity:1;fill-rule:nonzero;stroke:none" /><path
                                   d="m 1181,3675 -93,31 0,-56 93,25"
                                   inkscape:connector-curvature="0"
                                   id="path180"
                                   style="fill:#bfbfbf;fill-opacity:1;fill-rule:evenodd;stroke:none" /><path
                                   d="m 1181,3675 -93,31 0,-56 93,25 z"
                                   inkscape:connector-curvature="0"
                                   id="path182"
                                   style="fill:none;stroke:#bfbfbf;stroke-width:1;stroke-linecap:round;stroke-linejoin:round;stroke-miterlimit:10;stroke-opacity:1;stroke-dasharray:none" /><path
                                   d="m 899.996,4150 188,0 0,50 -188,0 0,-50 z"
                                   inkscape:connector-curvature="0"
                                   id="path184"
                                   style="fill:#ffffff;fill-opacity:1;fill-rule:evenodd;stroke:none" /><path
                                   d="m 899.996,4150 188,0 0,50 -188,0 0,-50 z"
                                   inkscape:connector-curvature="0"
                                   id="path186"
                                   style="fill:none;stroke:#ffffff;stroke-width:1;stroke-linecap:round;stroke-linejoin:round;stroke-miterlimit:10;stroke-opacity:1;stroke-dasharray:none" /><path
                                   d="m 899.996,3634 188.004,0 0,-6 -144.004,0 -3,3 0,44 6,0 0,-44 -3,0 0,3 144.004,0 0,-6 -188.004,0 0,6"
                                   inkscape:connector-curvature="0"
                                   id="path188"
                                   style="fill:#ffffff;fill-opacity:1;fill-rule:nonzero;stroke:none" /><g
                                   transform="scale(8.33333,8.33333)"
                                   id="g190"><text
                                   transform="matrix(1,0,0,-1,97.5595,327.96)"
                                   id="text192"><tspan
                                   x="0 5.159997 13.439997 18.719995 23.999994 29.16"
                                   y="0"
                                   id="tspan194"
                                   style="font-size:9px;font-variant:normal;font-weight:normal;writing-mode:lr-tb;fill:#000000;fill-opacity:1;fill-rule:nonzero;stroke:none;font-family:Helvetica;-inkscape-font-specification:Helvetica">Amagat</tspan></text>
</g><path
                                   d="m 1013,2637 0,-18 -7,-7 0,-12 -6.004,0 -6,-6 0,-7 -6,0 -7,-6 0,-6 -12,0 -6,-6 -38,0 -6,6 -6,0 -7,6 -6,6 -6,0 0,7 -6,6 -7,0 0,12 -6,7 0,37 6,6 0,7 7,6 6,6 0,6 6,0 6,7 7,6 6,0 6,6 38,0 6,-6 12,0 0,-6 7,-7 6,0 0,-6 6,-6 6.004,-6 0,-7 7,-6 0,-19"
                                   inkscape:connector-curvature="0"
                                   id="path196"
                                   style="fill:#ffffff;fill-opacity:1;fill-rule:evenodd;stroke:none" /><path
                                   d="m 1016,2637 0,-18 -1,-2 -7,-7 -2,2 3,0 0,-12 -3,-3 -6.004,0 0,3 2.004,-2 -6.004,-6 -2,2 3,0 0,-7 -3,-3 -6,0 0,3 2,-2 -7,-6 -2,2 3,0 0,-6 -3,-3 -12,0 0,3 2,-2 -6,-6 -2,-1 -38,0 -2,1 -6,6 2,2 0,-3 -6,0 -3,1 -6,6 -6,6 2,2 0,-3 -6,0 -3,3 0,7 3,0 -2,-2 -7,6 3,2 0,-3 -7,0 -3,3 0,12 3,0 -2,-2 -6,7 -1,2 0,37 1,2 6,7 2,-3 -3,0 0,7 1,2 6,6 7,6 2,-2 -3,0 0,6 3,4 6,0 0,-4 -2,3 6,6 6,6 3,1 6,0 0,-3 -2,2 6,6 2,1 38,0 2,-1 6,-6 -2,-2 0,3 12,0 3,-3 0,-6 -3,0 2,2 7,-6 -2,-3 0,4 6,0 3,-4 0,-6 -3,0 2,2 6.004,-6 6,-6 1,-2 0,-7 -3,0 2,3 7,-7 1,-2 0,-19 z m -7,0 0,19 4,0 -3,-2 -6,6 -1,2 0,7 3,0 -2,-2 -6.004,6 -6,6 -1,2 0,6 3,0 0,-3 -6,0 -3,1 -6,7 -1,2 0,6 3,0 0,-3 -12,0 -2,1 -7,6 3,2 0,-3 -38,0 0,3 2,-2 -6,-6 -2,-1 -6,0 0,3 2,-2 -7,-6 -6,-7 -2,-1 -6,0 0,3 3,0 0,-6 -1,-2 -6,-6 -7,-6 -2,2 3,0 0,-7 -1,-2 -6,-6 -2,2 3,0 0,-37 -3,0 2,2 6,-6 1,-3 0,-12 -3,0 0,3 7,0 2,-1 6,-6 1,-2 0,-7 -3,0 0,4 6,0 2,-1 6,-7 7,-6 -2,-2 0,3 6,0 2,-1 6,-6 -2,-2 0,3 38,0 0,-3 -3,2 7,6 2,1 12,0 0,-3 -3,0 0,6 1,2 6,7 3,1 6,0 0,-4 -3,0 0,7 1,2 6,6 2,1 6.004,0 0,-3 -3,0 0,12 1,3 6,6 3,-2 -4,0 0,18"
                                   inkscape:connector-curvature="0"
                                   id="path198"
                                   style="fill:#0b2bc5;fill-opacity:1;fill-rule:nonzero;stroke:none" /><path
                                   d="m 980.996,2637 0,-12 -6,-6 0,-7 -6,0 0,-6 -6,0 -7,-6 -25,0 -6,6 -6,0 0,6 -6,0 0,7 -7,6 0,25 7,6 0,6 6,0 0,7 6,0 6,6 25,0 7,-6 6,0 0,-7 6,0 0,-6 6,-6 0,-13"
                                   inkscape:connector-curvature="0"
                                   id="path200"
                                   style="fill:#2f6bfb;fill-opacity:1;fill-rule:evenodd;stroke:none" /><path
                                   d="m 980.996,2637 0,-12 -6,-6 0,-7 -6,0 0,-6 -6,0 -7,-6 -25,0 -6,6 -6,0 0,6 -6,0 0,7 -7,6 0,25 7,6 0,6 6,0 0,7 6,0 6,6 25,0 7,-6 6,0 0,-7 6,0 0,-6 6,-6 0,-13 z"
                                   inkscape:connector-curvature="0"
                                   id="path202"
                                   style="fill:none;stroke:#2f6bfb;stroke-width:1;stroke-linecap:round;stroke-linejoin:round;stroke-miterlimit:10;stroke-opacity:1;stroke-dasharray:none" /><g
                                   transform="scale(8.33333,8.33333)"
                                   id="g204"><text
                                   transform="matrix(1,0,0,-1,156.72,327.96)"
                                   id="text206"><tspan
                                   x="0 6.8400002 12.000006 14.280003 16.560007 21.840012"
                                   y="0"
                                   id="tspan208"
                                   style="font-size:9px;font-variant:normal;font-weight:normal;writing-mode:lr-tb;fill:#000000;fill-opacity:1;fill-rule:nonzero;stroke:none;font-family:Helvetica;-inkscape-font-specification:Helvetica">Dalton</tspan></text>
</g><path
                                   d="m 1488,2637 0,-18 -7,-7 0,-12 -6,0 -6,-6 0,-7 -6,0 -7,-6 0,-6 -12,0 -6,-6 -38,0 -6,6 -6,0 -7,6 -6,6 -6,0 0,7 -6,6 -7,0 0,12 -6,7 0,37 6,6 0,7 7,6 6,6 0,6 6,0 6,7 7,6 6,0 6,6 38,0 6,-6 12,0 0,-6 7,-7 6,0 0,-6 6,-6 6,-6 0,-7 7,-6 0,-19"
                                   inkscape:connector-curvature="0"
                                   id="path210"
                                   style="fill:#2f6bfb;fill-opacity:1;fill-rule:evenodd;stroke:none" /><path
                                   d="m 1491,2637 0,-18 -1,-2 -7,-7 -2,2 3,0 0,-12 -3,-3 -6,0 0,3 2,-2 -6,-6 -2,2 3,0 0,-7 -3,-3 -6,0 0,3 2,-2 -7,-6 -2,2 3,0 0,-6 -3,-3 -12,0 0,3 2,-2 -6,-6 -2,-1 -38,0 -2,1 -6,6 2,2 0,-3 -6,0 -3,1 -6,6 -6,6 2,2 0,-3 -6,0 -3,3 0,7 3,0 -2,-2 -7,6 3,2 0,-3 -7,0 -3,3 0,12 3,0 -2,-2 -6,7 -1,2 0,37 1,2 6,7 2,-3 -3,0 0,7 1,2 6,6 7,6 2,-2 -3,0 0,6 3,4 6,0 0,-4 -2,3 6,6 6,6 3,1 6,0 0,-3 -2,2 6,6 2,1 38,0 2,-1 6,-6 -2,-2 0,3 12,0 3,-3 0,-6 -3,0 2,2 7,-6 -2,-3 0,4 6,0 3,-4 0,-6 -3,0 2,2 6,-6 6,-6 1,-2 0,-7 -3,0 2,3 7,-7 1,-2 0,-19 z m -7,0 0,19 4,0 -3,-2 -6,6 -1,2 0,7 3,0 -2,-2 -6,6 -6,6 -1,2 0,6 3,0 0,-3 -6,0 -3,1 -6,7 -1,2 0,6 3,0 0,-3 -12,0 -2,1 -7,6 3,2 0,-3 -38,0 0,3 2,-2 -6,-6 -2,-1 -6,0 0,3 2,-2 -7,-6 -6,-7 -2,-1 -6,0 0,3 3,0 0,-6 -1,-2 -6,-6 -7,-6 -2,2 3,0 0,-7 -1,-2 -6,-6 -2,2 3,0 0,-37 -3,0 2,2 6,-6 1,-3 0,-12 -3,0 0,3 7,0 2,-1 6,-6 1,-2 0,-7 -3,0 0,4 6,0 2,-1 6,-7 7,-6 -2,-2 0,3 6,0 2,-1 6,-6 -2,-2 0,3 38,0 0,-3 -3,2 7,6 2,1 12,0 0,-3 -3,0 0,6 1,2 6,7 3,1 6,0 0,-4 -3,0 0,7 1,2 6,6 2,1 6,0 0,-3 -3,0 0,12 1,3 6,6 3,-2 -4,0 0,18"
                                   inkscape:connector-curvature="0"
                                   id="path212"
                                   style="fill:#0b2bc5;fill-opacity:1;fill-rule:nonzero;stroke:none" /><path
                                   d="m 2994,3206 0,-19 -6,-6 0,-12 -7,0 -6,-7 0,-6 -6,0 -6,-6 0,-6 -13,0 -6,-7 -38,0 -6,7 -6,0 -6,6 -7,6 -6,0 0,6 -6,7 -6,0 0,12 -7,6 0,38 7,6 0,6 6,7 6,6 0,6 6,0 7,6 6,7 6,0 6,6 38,0 6,-6 13,0 0,-7 6,-6 6,0 0,-6 6,-6 7,-7 0,-6 6,-6 0,-19"
                                   inkscape:connector-curvature="0"
                                   id="path214"
                                   style="fill:#ffffff;fill-opacity:1;fill-rule:evenodd;stroke:none" /><path
                                   d="m 2997,3206 0,-19 -1,-2 -6,-6 -2,2 3,0 0,-12 -3,-3 -7,0 0,3 2,-2 -6,-7 -2,2 3,0 0,-6 -3,-3 -6,0 0,3 2,-2 -6,-6 -2,2 3,0 0,-6 -3,-3 -13,0 0,3 2,-2 -6,-7 -2,-1 -38,0 -2,1 -6,7 2,2 0,-3 -6,0 -2,1 -7,6 -6,6 2,2 0,-3 -6,0 -3,3 0,6 3,0 -2,-2 -6,7 2,2 0,-3 -6,0 -4,3 0,12 4,0 -3,-2 -6,6 -1,2 0,38 1,2 6,6 3,-2 -4,0 0,6 1,3 7,6 6,6 2,-2 -3,0 0,6 3,3 6,0 0,-3 -2,2 6,7 7,6 2,1 6,0 0,-3 -2,2 6,6 2,1 38,0 2,-1 6,-6 -2,-2 0,3 13,0 3,-3 0,-7 -3,0 2,3 6,-7 -2,-2 0,3 6,0 3,-3 0,-6 -3,0 2,2 6,-6 7,-6 1,-3 0,-6 -3,0 2,2 6,-6 1,-2 0,-19 z m -6,0 0,19 3,0 -2,-2 -7,6 -1,2 0,6 4,0 -3,-2 -6,7 -6,6 -1,2 0,6 3,0 0,-3 -6,0 -2,1 -7,6 -1,2 0,7 4,0 0,-3 -13,0 -2,1 -6,6 2,2 0,-3 -38,0 0,3 2,-2 -6,-6 -2,-1 -6,0 0,3 2,-2 -6,-7 -7,-6 -2,-1 -6,0 0,3 3,0 0,-6 -1,-2 -6,-6 -6,-7 -2,2 3,0 0,-6 -1,-2 -7,-6 -2,2 3,0 0,-38 -3,0 2,3 7,-7 1,-2 0,-12 -3,0 0,3 6,0 2,-1 6,-6 1,-3 0,-6 -3,0 0,3 6,0 2,-1 7,-6 6,-6 -2,-2 0,3 6,0 2,-1 6,-6 -2,-3 0,4 38,0 0,-4 -2,3 6,6 2,1 13,0 0,-3 -4,0 0,6 1,2 7,6 2,1 6,0 0,-3 -3,0 0,6 1,3 6,6 2,1 7,0 0,-3 -4,0 0,12 1,2 7,7 2,-3 -3,0 0,19"
                                   inkscape:connector-curvature="0"
                                   id="path216"
                                   style="fill:#7f7f7f;fill-opacity:1;fill-rule:nonzero;stroke:none" /><g
                                   transform="scale(8.33333,8.33333)"
                                   id="g218"><text
                                   transform="matrix(1,0,0,-1,333,396.24)"
                                   id="text220"><tspan
                                   x="0 6.7200122 12.000018 17.280024 21.720024 24.000011 26.280024 31.560028"
                                   y="0"
                                   id="tspan222"
                                   style="font-size:9px;font-variant:normal;font-weight:normal;writing-mode:lr-tb;fill:#000000;fill-opacity:1;fill-rule:nonzero;stroke:none;font-family:Helvetica;-inkscape-font-specification:Helvetica">Reaction</tspan></text>
</g><path
                                   d="m 2994,3206 0,-19 -6,-6 0,-12 -7,0 -6,-7 0,-6 -6,0 -6,-6 0,-6 -13,0 -6,-7 -38,0 -6,7 -6,0 -6,6 -7,6 -6,0 0,6 -6,7 -6,0 0,12 -7,6 0,38 7,6 0,6 6,7 6,6 0,6 6,0 7,6 6,7 6,0 6,6 38,0 6,-6 13,0 0,-7 6,-6 6,0 0,-6 6,-6 7,-7 0,-6 6,-6 0,-19"
                                   inkscape:connector-curvature="0"
                                   id="path224"
                                   style="fill:#ffffff;fill-opacity:1;fill-rule:evenodd;stroke:none" /><path
                                   d="m 2997,3206 0,-19 -1,-2 -6,-6 -2,2 3,0 0,-12 -3,-3 -7,0 0,3 2,-2 -6,-7 -2,2 3,0 0,-6 -3,-3 -6,0 0,3 2,-2 -6,-6 -2,2 3,0 0,-6 -3,-3 -13,0 0,3 2,-2 -6,-7 -2,-1 -38,0 -2,1 -6,7 2,2 0,-3 -6,0 -2,1 -7,6 -6,6 2,2 0,-3 -6,0 -3,3 0,6 3,0 -2,-2 -6,7 2,2 0,-3 -6,0 -4,3 0,12 4,0 -3,-2 -6,6 -1,2 0,38 1,2 6,6 3,-2 -4,0 0,6 1,3 7,6 6,6 2,-2 -3,0 0,6 3,3 6,0 0,-3 -2,2 6,7 7,6 2,1 6,0 0,-3 -2,2 6,6 2,1 38,0 2,-1 6,-6 -2,-2 0,3 13,0 3,-3 0,-7 -3,0 2,3 6,-7 -2,-2 0,3 6,0 3,-3 0,-6 -3,0 2,2 6,-6 7,-6 1,-3 0,-6 -3,0 2,2 6,-6 1,-2 0,-19 z m -6,0 0,19 3,0 -2,-2 -7,6 -1,2 0,6 4,0 -3,-2 -6,7 -6,6 -1,2 0,6 3,0 0,-3 -6,0 -2,1 -7,6 -1,2 0,7 4,0 0,-3 -13,0 -2,1 -6,6 2,2 0,-3 -38,0 0,3 2,-2 -6,-6 -2,-1 -6,0 0,3 2,-2 -6,-7 -7,-6 -2,-1 -6,0 0,3 3,0 0,-6 -1,-2 -6,-6 -6,-7 -2,2 3,0 0,-6 -1,-2 -7,-6 -2,2 3,0 0,-38 -3,0 2,3 7,-7 1,-2 0,-12 -3,0 0,3 6,0 2,-1 6,-6 1,-3 0,-6 -3,0 0,3 6,0 2,-1 7,-6 6,-6 -2,-2 0,3 6,0 2,-1 6,-6 -2,-3 0,4 38,0 0,-4 -2,3 6,6 2,1 13,0 0,-3 -4,0 0,6 1,2 7,6 2,1 6,0 0,-3 -3,0 0,6 1,3 6,6 2,1 7,0 0,-3 -4,0 0,12 1,2 7,7 2,-3 -3,0 0,19"
                                   inkscape:connector-curvature="0"
                                   id="path226"
                                   style="fill:#ef8e01;fill-opacity:1;fill-rule:nonzero;stroke:none" /><path
                                   d="m 2963,3206 0,-12 -7,-7 0,-6 -6,0 0,-6 -6,0 -6,-6 -25,0 -7,6 -6,0 0,6 -6,0 0,6 -6,7 0,25 6,6 0,6 6,0 0,6 6,0 7,7 25,0 6,-7 6,0 0,-6 6,0 0,-6 7,-6 0,-13"
                                   inkscape:connector-curvature="0"
                                   id="path228"
                                   style="fill:#ffc326;fill-opacity:1;fill-rule:evenodd;stroke:none" /><path
                                   d="m 2963,3206 0,-12 -7,-7 0,-6 -6,0 0,-6 -6,0 -6,-6 -25,0 -7,6 -6,0 0,6 -6,0 0,6 -6,7 0,25 6,6 0,6 6,0 0,6 6,0 7,7 25,0 6,-7 6,0 0,-6 6,0 0,-6 7,-6 0,-13 z"
                                   inkscape:connector-curvature="0"
                                   id="path230"
                                   style="fill:none;stroke:#ffc326;stroke-width:1;stroke-linecap:round;stroke-linejoin:round;stroke-miterlimit:10;stroke-opacity:1;stroke-dasharray:none" /><path
                                   d="m 4694,2637 0,-18 -6,-7 0,-12 -7,0 -6,-6 0,-7 -6,0 -6,-6 0,-6 -13,0 -6,-6 -38,0 -6,6 -6,0 -6,6 -7,6 -6,0 0,7 -6,6 -6,0 0,12 -7,7 0,37 7,6 0,7 6,6 6,6 0,6 6,0 7,7 6,6 6,0 6,6 38,0 6,-6 13,0 0,-6 6,-7 6,0 0,-6 6,-6 7,-6 0,-7 6,-6 0,-19"
                                   inkscape:connector-curvature="0"
                                   id="path232"
                                   style="fill:#ffffff;fill-opacity:1;fill-rule:evenodd;stroke:none" /><path
                                   d="m 4697,2637 0,-18 -1,-2 -6,-7 -2,2 3,0 0,-12 -3,-3 -7,0 0,3 2,-2 -6,-6 -2,2 3,0 0,-7 -3,-3 -6,0 0,3 2,-2 -6,-6 -2,2 3,0 0,-6 -3,-3 -13,0 0,3 2,-2 -6,-6 -2,-1 -38,0 -2,1 -6,6 2,2 0,-3 -6,0 -2,1 -7,6 -6,6 2,2 0,-3 -6,0 -3,3 0,7 3,0 -2,-2 -6,6 2,2 0,-3 -6,0 -4,3 0,12 4,0 -3,-2 -6,7 -1,2 0,37 1,2 6,7 3,-3 -4,0 0,7 1,2 7,6 6,6 2,-2 -3,0 0,6 3,4 6,0 0,-4 -2,3 6,6 7,6 2,1 6,0 0,-3 -2,2 6,6 2,1 38,0 2,-1 6,-6 -2,-2 0,3 13,0 3,-3 0,-6 -3,0 2,2 6,-6 -2,-3 0,4 6,0 3,-4 0,-6 -3,0 2,2 6,-6 7,-6 1,-2 0,-7 -3,0 2,3 6,-7 1,-2 0,-19 z m -6,0 0,19 3,0 -2,-2 -7,6 -1,2 0,7 4,0 -3,-2 -6,6 -6,6 -1,2 0,6 3,0 0,-3 -6,0 -2,1 -7,7 -1,2 0,6 4,0 0,-3 -13,0 -2,1 -6,6 2,2 0,-3 -38,0 0,3 2,-2 -6,-6 -2,-1 -6,0 0,3 2,-2 -6,-6 -7,-7 -2,-1 -6,0 0,3 3,0 0,-6 -1,-2 -6,-6 -6,-6 -2,2 3,0 0,-7 -1,-2 -7,-6 -2,2 3,0 0,-37 -3,0 2,2 7,-6 1,-3 0,-12 -3,0 0,3 6,0 2,-1 6,-6 1,-2 0,-7 -3,0 0,4 6,0 2,-1 7,-7 6,-6 -2,-2 0,3 6,0 2,-1 6,-6 -2,-2 0,3 38,0 0,-3 -2,2 6,6 2,1 13,0 0,-3 -4,0 0,6 1,2 7,7 2,1 6,0 0,-4 -3,0 0,7 1,2 6,6 2,1 7,0 0,-3 -4,0 0,12 1,3 7,6 2,-2 -3,0 0,18"
                                   inkscape:connector-curvature="0"
                                   id="path234"
                                   style="fill:#7f7f7f;fill-opacity:1;fill-rule:nonzero;stroke:none" /><g
                                   transform="scale(8.33333,8.33333)"
                                   id="g236"><text
                                   transform="matrix(1,0,0,-1,539.28,327.96)"
                                   id="text238"><tspan
                                   x="0 6.7199888 11.999966 14.279954 19.43993 22.439919 24.719929 29.999907"
                                   y="0"
                                   id="tspan240"
                                   style="font-size:9px;font-variant:normal;font-weight:normal;writing-mode:lr-tb;fill:#000000;fill-opacity:1;fill-rule:nonzero;stroke:none;font-family:Helvetica;-inkscape-font-specification:Helvetica">Material</tspan></text>
</g><path
                                   d="m 4131,3206 0,-19 -6,-6 0,-12 -6,0 -6,-7 0,-6 -7,0 -6,-6 0,-6 -12,0 -7,-7 -37,0 -6,7 -7,0 -6,6 -6,6 -6,0 0,6 -7,7 -6,0 0,12 -6,6 0,38 6,6 0,6 6,7 7,6 0,6 6,0 6,6 6,7 7,0 6,6 37,0 7,-6 12,0 0,-7 6,-6 7,0 0,-6 6,-6 6,-7 0,-6 6,-6 0,-19"
                                   inkscape:connector-curvature="0"
                                   id="path242"
                                   style="fill:#ffffff;fill-opacity:1;fill-rule:evenodd;stroke:none" /><path
                                   d="m 4134,3206 0,-19 -1,-2 -6,-6 -2,2 3,0 0,-12 -3,-3 -6,0 0,3 2,-2 -6,-7 -2,2 3,0 0,-6 -3,-3 -7,0 0,3 2,-2 -6,-6 -2,2 3,0 0,-6 -3,-3 -12,0 0,3 2,-2 -7,-7 -2,-1 -37,0 -2,1 -7,7 3,2 0,-3 -7,0 -2,1 -6,6 -6,6 2,2 0,-3 -6,0 -4,3 0,6 4,0 -3,-2 -6,7 2,2 0,-3 -6,0 -3,3 0,12 3,0 -2,-2 -6,6 -1,2 0,38 1,2 6,6 2,-2 -3,0 0,6 1,3 6,6 6,6 3,-2 -4,0 0,6 4,3 6,0 0,-3 -2,2 6,7 6,6 2,1 7,0 0,-3 -3,2 7,6 2,1 37,0 2,-1 7,-6 -2,-2 0,3 12,0 3,-3 0,-7 -3,0 2,3 6,-7 -2,-2 0,3 7,0 3,-3 0,-6 -3,0 2,2 6,-6 6,-6 1,-3 0,-6 -3,0 2,2 6,-6 1,-2 0,-19 z m -6,0 0,19 3,0 -2,-2 -6,6 -1,2 0,6 3,0 -2,-2 -6,7 -7,6 -1,2 0,6 4,0 0,-3 -7,0 -2,1 -6,6 -1,2 0,7 3,0 0,-3 -12,0 -3,1 -6,6 2,2 0,-3 -37,0 0,3 2,-2 -6,-6 -2,-1 -7,0 0,3 2,-2 -6,-7 -6,-6 -2,-1 -6,0 0,3 3,0 0,-6 -1,-2 -7,-6 -6,-7 -2,2 3,0 0,-6 -1,-2 -6,-6 -2,2 3,0 0,-38 -3,0 2,3 6,-7 1,-2 0,-12 -3,0 0,3 6,0 2,-1 7,-6 1,-3 0,-6 -3,0 0,3 6,0 2,-1 6,-6 6,-6 -2,-2 0,3 7,0 2,-1 6,-6 -2,-3 0,4 37,0 0,-4 -2,3 6,6 3,1 12,0 0,-3 -3,0 0,6 1,2 6,6 2,1 7,0 0,-3 -4,0 0,6 1,3 7,6 2,1 6,0 0,-3 -3,0 0,12 1,2 6,7 2,-3 -3,0 0,19"
                                   inkscape:connector-curvature="0"
                                   id="path244"
                                   style="fill:#7f7f7f;fill-opacity:1;fill-rule:nonzero;stroke:none" /><g
                                   transform="scale(8.33333,8.33333)"
                                   id="g246"><text
                                   transform="matrix(1,0,0,-1,468,396.24)"
                                   id="text248"><tspan
                                   x="0 6.0000119 11.280018 16.560022 21.72003 27.000006 32.279984 35.279972"
                                   y="0"
                                   id="tspan250"
                                   style="font-size:9px;font-variant:normal;font-weight:normal;writing-mode:lr-tb;fill:#000000;fill-opacity:1;fill-rule:nonzero;stroke:none;font-family:Helvetica;-inkscape-font-specification:Helvetica">Boundary</tspan></text>
</g><path
                                   d="m 4131,3206 0,-19 -6,-6 0,-12 -6,0 -6,-7 0,-6 -7,0 -6,-6 0,-6 -12,0 -7,-7 -37,0 -6,7 -7,0 -6,6 -6,6 -6,0 0,6 -7,7 -6,0 0,12 -6,6 0,38 6,6 0,6 6,7 7,6 0,6 6,0 6,6 6,7 7,0 6,6 37,0 7,-6 12,0 0,-7 6,-6 7,0 0,-6 6,-6 6,-7 0,-6 6,-6 0,-19"
                                   inkscape:connector-curvature="0"
                                   id="path252"
                                   style="fill:#bfbfbf;fill-opacity:1;fill-rule:evenodd;stroke:none" /><path
                                   d="m 4134,3206 0,-19 -1,-2 -6,-6 -2,2 3,0 0,-12 -3,-3 -6,0 0,3 2,-2 -6,-7 -2,2 3,0 0,-6 -3,-3 -7,0 0,3 2,-2 -6,-6 -2,2 3,0 0,-6 -3,-3 -12,0 0,3 2,-2 -7,-7 -2,-1 -37,0 -2,1 -7,7 3,2 0,-3 -7,0 -2,1 -6,6 -6,6 2,2 0,-3 -6,0 -4,3 0,6 4,0 -3,-2 -6,7 2,2 0,-3 -6,0 -3,3 0,12 3,0 -2,-2 -6,6 -1,2 0,38 1,2 6,6 2,-2 -3,0 0,6 1,3 6,6 6,6 3,-2 -4,0 0,6 4,3 6,0 0,-3 -2,2 6,7 6,6 2,1 7,0 0,-3 -3,2 7,6 2,1 37,0 2,-1 7,-6 -2,-2 0,3 12,0 3,-3 0,-7 -3,0 2,3 6,-7 -2,-2 0,3 7,0 3,-3 0,-6 -3,0 2,2 6,-6 6,-6 1,-3 0,-6 -3,0 2,2 6,-6 1,-2 0,-19 z m -6,0 0,19 3,0 -2,-2 -6,6 -1,2 0,6 3,0 -2,-2 -6,7 -7,6 -1,2 0,6 4,0 0,-3 -7,0 -2,1 -6,6 -1,2 0,7 3,0 0,-3 -12,0 -3,1 -6,6 2,2 0,-3 -37,0 0,3 2,-2 -6,-6 -2,-1 -7,0 0,3 2,-2 -6,-7 -6,-6 -2,-1 -6,0 0,3 3,0 0,-6 -1,-2 -7,-6 -6,-7 -2,2 3,0 0,-6 -1,-2 -6,-6 -2,2 3,0 0,-38 -3,0 2,3 6,-7 1,-2 0,-12 -3,0 0,3 6,0 2,-1 7,-6 1,-3 0,-6 -3,0 0,3 6,0 2,-1 6,-6 6,-6 -2,-2 0,3 7,0 2,-1 6,-6 -2,-3 0,4 37,0 0,-4 -2,3 6,6 3,1 12,0 0,-3 -3,0 0,6 1,2 6,6 2,1 7,0 0,-3 -4,0 0,6 1,3 7,6 2,1 6,0 0,-3 -3,0 0,12 1,2 6,7 2,-3 -3,0 0,19"
                                   inkscape:connector-curvature="0"
                                   id="path254"
                                   style="fill:#7f7f7f;fill-opacity:1;fill-rule:nonzero;stroke:none" /><path
                                   d="m 3563,2637 0,-18 -7,-7 0,-12 -6,0 -6,-6 0,-7 -6,0 -7,-6 0,-6 -12,0 -6,-6 -38,0 -6,6 -6,0 -7,6 -6,6 -6,0 0,7 -6,6 -7,0 0,12 -6,7 0,37 6,6 0,7 7,6 6,6 0,6 6,0 6,7 7,6 6,0 6,6 38,0 6,-6 12,0 0,-6 7,-7 6,0 0,-6 6,-6 6,-6 0,-7 7,-6 0,-19"
                                   inkscape:connector-curvature="0"
                                   id="path256"
                                   style="fill:#ffffff;fill-opacity:1;fill-rule:evenodd;stroke:none" /><path
                                   d="m 3566,2637 0,-18 -1,-2 -7,-7 -2,2 3,0 0,-12 -3,-3 -6,0 0,3 2,-2 -6,-6 -2,2 3,0 0,-7 -3,-3 -6,0 0,3 2,-2 -7,-6 -2,2 3,0 0,-6 -3,-3 -12,0 0,3 2,-2 -6,-6 -2,-1 -38,0 -2,1 -6,6 2,2 0,-3 -6,0 -3,1 -6,6 -6,6 2,2 0,-3 -6,0 -3,3 0,7 3,0 -2,-2 -7,6 3,2 0,-3 -7,0 -3,3 0,12 3,0 -2,-2 -6,7 -1,2 0,37 1,2 6,7 2,-3 -3,0 0,7 1,2 6,6 7,6 2,-2 -3,0 0,6 3,4 6,0 0,-4 -2,3 6,6 6,6 3,1 6,0 0,-3 -2,2 6,6 2,1 38,0 2,-1 6,-6 -2,-2 0,3 12,0 3,-3 0,-6 -3,0 2,2 7,-6 -2,-3 0,4 6,0 3,-4 0,-6 -3,0 2,2 6,-6 6,-6 1,-2 0,-7 -3,0 2,3 7,-7 1,-2 0,-19 z m -7,0 0,19 4,0 -3,-2 -6,6 -1,2 0,7 3,0 -2,-2 -6,6 -6,6 -1,2 0,6 3,0 0,-3 -6,0 -3,1 -6,7 -1,2 0,6 3,0 0,-3 -12,0 -2,1 -7,6 3,2 0,-3 -38,0 0,3 2,-2 -6,-6 -2,-1 -6,0 0,3 2,-2 -7,-6 -6,-7 -2,-1 -6,0 0,3 3,0 0,-6 -1,-2 -6,-6 -7,-6 -2,2 3,0 0,-7 -1,-2 -6,-6 -2,2 3,0 0,-37 -3,0 2,2 6,-6 1,-3 0,-12 -3,0 0,3 7,0 2,-1 6,-6 1,-2 0,-7 -3,0 0,4 6,0 2,-1 6,-7 7,-6 -2,-2 0,3 6,0 2,-1 6,-6 -2,-2 0,3 38,0 0,-3 -3,2 7,6 2,1 12,0 0,-3 -3,0 0,6 1,2 6,7 3,1 6,0 0,-4 -3,0 0,7 1,2 6,6 2,1 6,0 0,-3 -3,0 0,12 1,3 6,6 3,-2 -4,0 0,18"
                                   inkscape:connector-curvature="0"
                                   id="path258"
                                   style="fill:#7f7f7f;fill-opacity:1;fill-rule:nonzero;stroke:none" /><g
                                   transform="scale(8.33333,8.33333)"
                                   id="g260"><text
                                   transform="matrix(1,0,0,-1,392.28,327.96)"
                                   id="text262"><tspan
                                   x="0 5.2800059 8.279994 13.44 18.720005 24.000006 26.280018 31.440023 33.720013 36.000023 41.280029 46.440033 51.720039 -185.28 -178.56 -173.28 -167.99998 -159.71999 -157.56 -152.99998 -147.71999"
                                   y="0"
                                   id="tspan264"
                                   style="font-size:9px;font-variant:normal;font-weight:normal;writing-mode:lr-tb;fill:#000000;fill-opacity:1;fill-rule:nonzero;stroke:none;font-family:Helvetica;-inkscape-font-specification:Helvetica">TranslationalChemical</tspan></text>
</g><path
                                   d="m 1956,2637 0,-18 -6,-7 0,-12 -6,0 -6,-6 0,-7 -7,0 -6,-6 0,-6 -12,0 -7,-6 -37,0 -6,6 -7,0 -6,6 -6,6 -6,0 0,7 -7,6 -6,0 0,12 -6,7 0,37 6,6 0,7 6,6 7,6 0,6 6,0 6,7 6,6 7,0 6,6 37,0 7,-6 12,0 0,-6 6,-7 7,0 0,-6 6,-6 6,-6 0,-7 6,-6 0,-19"
                                   inkscape:connector-curvature="0"
                                   id="path266"
                                   style="fill:#ffc326;fill-opacity:1;fill-rule:evenodd;stroke:none" /><path
                                   d="m 1959,2637 0,-18 -1,-2 -6,-7 -2,2 3,0 0,-12 -3,-3 -6,0 0,3 2,-2 -6,-6 -2,2 3,0 0,-7 -3,-3 -7,0 0,3 2,-2 -6,-6 -2,2 3,0 0,-6 -3,-3 -12,0 0,3 2,-2 -7,-6 -2,-1 -37,0 -2,1 -7,6 3,2 0,-3 -7,0 -2,1 -6,6 -6,6 2,2 0,-3 -6,0 -4,3 0,7 4,0 -3,-2 -6,6 2,2 0,-3 -6,0 -3,3 0,12 3,0 -2,-2 -6,7 -1,2 0,37 1,2 6,7 2,-3 -3,0 0,7 1,2 6,6 6,6 3,-2 -4,0 0,6 4,4 6,0 0,-4 -2,3 6,6 6,6 2,1 7,0 0,-3 -3,2 7,6 2,1 37,0 2,-1 7,-6 -2,-2 0,3 12,0 3,-3 0,-6 -3,0 2,2 6,-6 -2,-3 0,4 7,0 3,-4 0,-6 -3,0 2,2 6,-6 6,-6 1,-2 0,-7 -3,0 2,3 6,-7 1,-2 0,-19 z m -6,0 0,19 3,0 -2,-2 -6,6 -1,2 0,7 3,0 -2,-2 -6,6 -7,6 -1,2 0,6 4,0 0,-3 -7,0 -2,1 -6,7 -1,2 0,6 3,0 0,-3 -12,0 -3,1 -6,6 2,2 0,-3 -37,0 0,3 2,-2 -6,-6 -2,-1 -7,0 0,3 2,-2 -6,-6 -6,-7 -2,-1 -6,0 0,3 3,0 0,-6 -1,-2 -7,-6 -6,-6 -2,2 3,0 0,-7 -1,-2 -6,-6 -2,2 3,0 0,-37 -3,0 2,2 6,-6 1,-3 0,-12 -3,0 0,3 6,0 2,-1 7,-6 1,-2 0,-7 -3,0 0,4 6,0 2,-1 6,-7 6,-6 -2,-2 0,3 7,0 2,-1 6,-6 -2,-2 0,3 37,0 0,-3 -2,2 6,6 3,1 12,0 0,-3 -3,0 0,6 1,2 6,7 2,1 7,0 0,-4 -4,0 0,7 1,2 7,6 2,1 6,0 0,-3 -3,0 0,12 1,3 6,6 2,-2 -3,0 0,18"
                                   inkscape:connector-curvature="0"
                                   id="path268"
                                   style="fill:#ef8e01;fill-opacity:1;fill-rule:nonzero;stroke:none" /></g></g></g></g></g></g></g></g></g></g></g></g></g></g></g></g></g></g></g></g></g></g></g></svg>