<?xml version="1.0" encoding="UTF-8" standalone="no"?>
<!-- Created with Inkscape (http://www.inkscape.org/) -->

<svg
   xmlns:dc="http://purl.org/dc/elements/1.1/"
   xmlns:cc="http://creativecommons.org/ns#"
   xmlns:rdf="http://www.w3.org/1999/02/22-rdf-syntax-ns#"
   xmlns:svg="http://www.w3.org/2000/svg"
   xmlns="http://www.w3.org/2000/svg"
   xmlns:inkscape="http://www.inkscape.org/namespaces/inkscape"
   version="1.1"
   width="105"
   height="215"
   id="svg2"
   xml:space="preserve"><metadata
     id="metadata8"><rdf:RDF><cc:Work
         rdf:about=""><dc:format>image/svg+xml</dc:format><dc:type
           rdf:resource="http://purl.org/dc/dcmitype/StillImage" /></cc:Work></rdf:RDF></metadata><defs
     id="defs6"><clipPath
       id="clipPath18"><path
         d="M 0,0 84,0 84,172 0,172 0,0 z"
         inkscape:connector-curvature="0"
         id="path20" /></clipPath><clipPath
       id="clipPath28"><path
         d="M 0,0 84,0 84,172 0,172 0,0 z"
         inkscape:connector-curvature="0"
         id="path30" /></clipPath><clipPath
       id="clipPath38"><path
         d="M 0,0 612,0 612,792 0,792 0,0 z"
         inkscape:connector-curvature="0"
         id="path40" /></clipPath></defs><g
     transform="matrix(1.25,0,0,-1.25,0,215)"
     id="g10"><g
       id="g12"><g
         id="g14"><g
           clip-path="url(#clipPath18)"
           id="g16"><g
             id="g22"><g
               id="g24"><g
                 clip-path="url(#clipPath28)"
                 id="g26"><g
                   transform="translate(-264,-374)"
                   id="g32"><g
                     id="g34"><g
                       clip-path="url(#clipPath38)"
                       id="g36"><g
                         transform="scale(0.12,0.12)"
                         id="g42"><g
                           transform="scale(8.33333,8.33333)"
                           id="g44"><text
                             transform="matrix(1,0,0,-1,282,529.2)"
                             id="text46"><tspan
                               x="0 4.8000059 9.6000118 13.800013 15.600024 18.600012 23.400019 28.200024 36.000011 40.800018 45.600025"
                               y="0"
                               id="tspan48"
                               style="font-size:9px;font-variant:normal;font-weight:normal;writing-mode:lr-tb;fill:#000000;fill-opacity:1;fill-rule:nonzero;stroke:none;font-family:Helvetica;-inkscape-font-specification:Helvetica">environment</tspan></text>
</g><path
                           d="m 2360,4010 380,0 0,375 -380,0 0,-375 z"
                           inkscape:connector-curvature="0"
                           id="path50"
                           style="fill:#ffffff;fill-opacity:1;fill-rule:evenodd;stroke:none" /><path
                           d="m 2360,4010 380,0 0,375 -380,0 0,-375 z"
                           inkscape:connector-curvature="0"
                           id="path52"
                           style="fill:none;stroke:#ffffff;stroke-width:1;stroke-linecap:round;stroke-linejoin:round;stroke-miterlimit:10;stroke-opacity:1;stroke-dasharray:none" /><path
                           d="m 2385,4015 330,0 0,345 -330,0 0,-345 z"
                           inkscape:connector-curvature="0"
                           id="path54"
                           style="fill:#ffffff;fill-opacity:1;fill-rule:evenodd;stroke:none" /><path
                           d="m 2385,4015 330,0 0,345 -330,0 0,-345 z"
                           inkscape:connector-curvature="0"
                           id="path56"
                           style="fill:none;stroke:#ffffff;stroke-width:1;stroke-linecap:round;stroke-linejoin:round;stroke-miterlimit:10;stroke-opacity:1;stroke-dasharray:none" /><path
                           d="m 2385,4015 330,0 0,345 -330,0 0,-345 z"
                           inkscape:connector-curvature="0"
                           id="path58"
                           style="fill:#f8fcff;fill-opacity:1;fill-rule:evenodd;stroke:none" /><path
                           d="m 2385,4015 330,0 0,345 -330,0 0,-345 z"
                           inkscape:connector-curvature="0"
                           id="path60"
                           style="fill:none;stroke:#f8fcff;stroke-width:1;stroke-linecap:round;stroke-linejoin:round;stroke-miterlimit:10;stroke-opacity:1;stroke-dasharray:none" /><path
                           d="m 2385,4015 330,0 0,345 -330,0 0,-345 z"
                           inkscape:connector-curvature="0"
                           id="path62"
                           style="fill:#f2f9ff;fill-opacity:1;fill-rule:evenodd;stroke:none" /><path
                           d="m 2385,4015 330,0 0,345 -330,0 0,-345 z"
                           inkscape:connector-curvature="0"
                           id="path64"
                           style="fill:none;stroke:#f2f9ff;stroke-width:1;stroke-linecap:round;stroke-linejoin:round;stroke-miterlimit:10;stroke-opacity:1;stroke-dasharray:none" /><path
                           d="m 2385,4020 330,0 0,340 -330,0 0,-340 z"
                           inkscape:connector-curvature="0"
                           id="path66"
                           style="fill:#ecf6ff;fill-opacity:1;fill-rule:evenodd;stroke:none" /><path
                           d="m 2385,4020 330,0 0,340 -330,0 0,-340 z"
                           inkscape:connector-curvature="0"
                           id="path68"
                           style="fill:none;stroke:#ecf6ff;stroke-width:1;stroke-linecap:round;stroke-linejoin:round;stroke-miterlimit:10;stroke-opacity:1;stroke-dasharray:none" /><path
                           d="m 2385,4020 330,0 0,335 -330,0 0,-335 z"
                           inkscape:connector-curvature="0"
                           id="path70"
                           style="fill:#e7f3ff;fill-opacity:1;fill-rule:evenodd;stroke:none" /><path
                           d="m 2385,4020 330,0 0,335 -330,0 0,-335 z"
                           inkscape:connector-curvature="0"
                           id="path72"
                           style="fill:none;stroke:#e7f3ff;stroke-width:1;stroke-linecap:round;stroke-linejoin:round;stroke-miterlimit:10;stroke-opacity:1;stroke-dasharray:none" /><path
                           d="m 2385,4025 330,0 0,325 -330,0 0,-325 z"
                           inkscape:connector-curvature="0"
                           id="path74"
                           style="fill:#e1f0ff;fill-opacity:1;fill-rule:evenodd;stroke:none" /><path
                           d="m 2385,4025 330,0 0,325 -330,0 0,-325 z"
                           inkscape:connector-curvature="0"
                           id="path76"
                           style="fill:none;stroke:#e1f0ff;stroke-width:1;stroke-linecap:round;stroke-linejoin:round;stroke-miterlimit:10;stroke-opacity:1;stroke-dasharray:none" /><path
                           d="m 2385,4030 330,0 0,315 -330,0 0,-315 z"
                           inkscape:connector-curvature="0"
                           id="path78"
                           style="fill:#dbedff;fill-opacity:1;fill-rule:evenodd;stroke:none" /><path
                           d="m 2385,4030 330,0 0,315 -330,0 0,-315 z"
                           inkscape:connector-curvature="0"
                           id="path80"
                           style="fill:none;stroke:#dbedff;stroke-width:1;stroke-linecap:round;stroke-linejoin:round;stroke-miterlimit:10;stroke-opacity:1;stroke-dasharray:none" /><path
                           d="m 2385,4035 330,0 0,305 -330,0 0,-305 z"
                           inkscape:connector-curvature="0"
                           id="path82"
                           style="fill:#d6eaff;fill-opacity:1;fill-rule:evenodd;stroke:none" /><path
                           d="m 2385,4035 330,0 0,305 -330,0 0,-305 z"
                           inkscape:connector-curvature="0"
                           id="path84"
                           style="fill:none;stroke:#d6eaff;stroke-width:1;stroke-linecap:round;stroke-linejoin:round;stroke-miterlimit:10;stroke-opacity:1;stroke-dasharray:none" /><path
                           d="m 2385,4040 330,0 0,295 -330,0 0,-295 z"
                           inkscape:connector-curvature="0"
                           id="path86"
                           style="fill:#d1e8ff;fill-opacity:1;fill-rule:evenodd;stroke:none" /><path
                           d="m 2385,4040 330,0 0,295 -330,0 0,-295 z"
                           inkscape:connector-curvature="0"
                           id="path88"
                           style="fill:none;stroke:#d1e8ff;stroke-width:1;stroke-linecap:round;stroke-linejoin:round;stroke-miterlimit:10;stroke-opacity:1;stroke-dasharray:none" /><path
                           d="m 2385,4050 330,0 0,280 -330,0 0,-280 z"
                           inkscape:connector-curvature="0"
                           id="path90"
                           style="fill:#cce5ff;fill-opacity:1;fill-rule:evenodd;stroke:none" /><path
                           d="m 2385,4050 330,0 0,280 -330,0 0,-280 z"
                           inkscape:connector-curvature="0"
                           id="path92"
                           style="fill:none;stroke:#cce5ff;stroke-width:1;stroke-linecap:round;stroke-linejoin:round;stroke-miterlimit:10;stroke-opacity:1;stroke-dasharray:none" /><path
                           d="m 2385,4055 330,0 0,265 -330,0 0,-265 z"
                           inkscape:connector-curvature="0"
                           id="path94"
                           style="fill:#c7e3ff;fill-opacity:1;fill-rule:evenodd;stroke:none" /><path
                           d="m 2385,4055 330,0 0,265 -330,0 0,-265 z"
                           inkscape:connector-curvature="0"
                           id="path96"
                           style="fill:none;stroke:#c7e3ff;stroke-width:1;stroke-linecap:round;stroke-linejoin:round;stroke-miterlimit:10;stroke-opacity:1;stroke-dasharray:none" /><path
                           d="m 2385,4065 330,0 0,250 -330,0 0,-250 z"
                           inkscape:connector-curvature="0"
                           id="path98"
                           style="fill:#c2e1ff;fill-opacity:1;fill-rule:evenodd;stroke:none" /><path
                           d="m 2385,4065 330,0 0,250 -330,0 0,-250 z"
                           inkscape:connector-curvature="0"
                           id="path100"
                           style="fill:none;stroke:#c2e1ff;stroke-width:1;stroke-linecap:round;stroke-linejoin:round;stroke-miterlimit:10;stroke-opacity:1;stroke-dasharray:none" /><path
                           d="m 2385,4070 330,0 0,235 -330,0 0,-235 z"
                           inkscape:connector-curvature="0"
                           id="path102"
                           style="fill:#bedfff;fill-opacity:1;fill-rule:evenodd;stroke:none" /><path
                           d="m 2385,4070 330,0 0,235 -330,0 0,-235 z"
                           inkscape:connector-curvature="0"
                           id="path104"
                           style="fill:none;stroke:#bedfff;stroke-width:1;stroke-linecap:round;stroke-linejoin:round;stroke-miterlimit:10;stroke-opacity:1;stroke-dasharray:none" /><path
                           d="m 2385,4080 330,0 0,215 -330,0 0,-215 z"
                           inkscape:connector-curvature="0"
                           id="path106"
                           style="fill:#baddff;fill-opacity:1;fill-rule:evenodd;stroke:none" /><path
                           d="m 2385,4080 330,0 0,215 -330,0 0,-215 z"
                           inkscape:connector-curvature="0"
                           id="path108"
                           style="fill:none;stroke:#baddff;stroke-width:1;stroke-linecap:round;stroke-linejoin:round;stroke-miterlimit:10;stroke-opacity:1;stroke-dasharray:none" /><path
                           d="m 2385,4090 330,0 0,195 -330,0 0,-195 z"
                           inkscape:connector-curvature="0"
                           id="path110"
                           style="fill:#b7dbff;fill-opacity:1;fill-rule:evenodd;stroke:none" /><path
                           d="m 2385,4090 330,0 0,195 -330,0 0,-195 z"
                           inkscape:connector-curvature="0"
                           id="path112"
                           style="fill:none;stroke:#b7dbff;stroke-width:1;stroke-linecap:round;stroke-linejoin:round;stroke-miterlimit:10;stroke-opacity:1;stroke-dasharray:none" /><path
                           d="m 2385,4100 330,0 0,175 -330,0 0,-175 z"
                           inkscape:connector-curvature="0"
                           id="path114"
                           style="fill:#b4daff;fill-opacity:1;fill-rule:evenodd;stroke:none" /><path
                           d="m 2385,4100 330,0 0,175 -330,0 0,-175 z"
                           inkscape:connector-curvature="0"
                           id="path116"
                           style="fill:none;stroke:#b4daff;stroke-width:1;stroke-linecap:round;stroke-linejoin:round;stroke-miterlimit:10;stroke-opacity:1;stroke-dasharray:none" /><path
                           d="m 2385,4110 330,0 0,155 -330,0 0,-155 z"
                           inkscape:connector-curvature="0"
                           id="path118"
                           style="fill:#b1d8ff;fill-opacity:1;fill-rule:evenodd;stroke:none" /><path
                           d="m 2385,4110 330,0 0,155 -330,0 0,-155 z"
                           inkscape:connector-curvature="0"
                           id="path120"
                           style="fill:none;stroke:#b1d8ff;stroke-width:1;stroke-linecap:round;stroke-linejoin:round;stroke-miterlimit:10;stroke-opacity:1;stroke-dasharray:none" /><path
                           d="m 2385,4125 330,0 0,130 -330,0 0,-130 z"
                           inkscape:connector-curvature="0"
                           id="path122"
                           style="fill:#afd7ff;fill-opacity:1;fill-rule:evenodd;stroke:none" /><path
                           d="m 2385,4125 330,0 0,130 -330,0 0,-130 z"
                           inkscape:connector-curvature="0"
                           id="path124"
                           style="fill:none;stroke:#afd7ff;stroke-width:1;stroke-linecap:round;stroke-linejoin:round;stroke-miterlimit:10;stroke-opacity:1;stroke-dasharray:none" /><path
                           d="m 2385,4135 330,0 0,105 -330,0 0,-105 z"
                           inkscape:connector-curvature="0"
                           id="path126"
                           style="fill:#add6ff;fill-opacity:1;fill-rule:evenodd;stroke:none" /><path
                           d="m 2385,4135 330,0 0,105 -330,0 0,-105 z"
                           inkscape:connector-curvature="0"
                           id="path128"
                           style="fill:none;stroke:#add6ff;stroke-width:1;stroke-linecap:round;stroke-linejoin:round;stroke-miterlimit:10;stroke-opacity:1;stroke-dasharray:none" /><path
                           d="m 2385,4145 330,0 0,85 -330,0 0,-85 z"
                           inkscape:connector-curvature="0"
                           id="path130"
                           style="fill:#abd5ff;fill-opacity:1;fill-rule:evenodd;stroke:none" /><path
                           d="m 2385,4145 330,0 0,85 -330,0 0,-85 z"
                           inkscape:connector-curvature="0"
                           id="path132"
                           style="fill:none;stroke:#abd5ff;stroke-width:1;stroke-linecap:round;stroke-linejoin:round;stroke-miterlimit:10;stroke-opacity:1;stroke-dasharray:none" /><path
                           d="m 2385,4160 330,0 0,60 -330,0 0,-60 z"
                           inkscape:connector-curvature="0"
                           id="path134"
                           style="fill:#aad5ff;fill-opacity:1;fill-rule:evenodd;stroke:none" /><path
                           d="m 2385,4160 330,0 0,60 -330,0 0,-60 z"
                           inkscape:connector-curvature="0"
                           id="path136"
                           style="fill:none;stroke:#aad5ff;stroke-width:1;stroke-linecap:round;stroke-linejoin:round;stroke-miterlimit:10;stroke-opacity:1;stroke-dasharray:none" /><path
                           d="m 2385,4170 330,0 0,35 -330,0 0,-35 z"
                           inkscape:connector-curvature="0"
                           id="path138"
                           style="fill:#aad5ff;fill-opacity:1;fill-rule:evenodd;stroke:none" /><path
                           d="m 2385,4170 330,0 0,35 -330,0 0,-35 z"
                           inkscape:connector-curvature="0"
                           id="path140"
                           style="fill:none;stroke:#aad5ff;stroke-width:1;stroke-linecap:round;stroke-linejoin:round;stroke-miterlimit:10;stroke-opacity:1;stroke-dasharray:none" /><path
                           d="m 2385,4185 330,0 0,10 -330,0 0,-10 z"
                           inkscape:connector-curvature="0"
                           id="path142"
                           style="fill:#aad5ff;fill-opacity:1;fill-rule:evenodd;stroke:none" /><path
                           d="m 2385,4185 330,0 0,10 -330,0 0,-10 z"
                           inkscape:connector-curvature="0"
                           id="path144"
                           style="fill:none;stroke:#aad5ff;stroke-width:1;stroke-linecap:round;stroke-linejoin:round;stroke-miterlimit:10;stroke-opacity:1;stroke-dasharray:none" /><path
                           d="m 2380,4010 340,0 0,95 -340,0 0,-95 z"
                           inkscape:connector-curvature="0"
                           id="path146"
                           style="fill:#ffffff;fill-opacity:1;fill-rule:evenodd;stroke:none" /><path
                           d="m 2380,4010 340,0 0,95 -340,0 0,-95 z"
                           inkscape:connector-curvature="0"
                           id="path148"
                           style="fill:none;stroke:#ffffff;stroke-width:1;stroke-linecap:round;stroke-linejoin:round;stroke-miterlimit:10;stroke-opacity:1;stroke-dasharray:none" /><path
                           d="m 2456,4202 15,-10 2,-2 0,-5 -3,0 0,2 5,0 3,-2 0,-5 -3,0 0,2 5,0 3,-2 0,-5 -3,0 2,2 5,-5 5,-5 -2,-2 0,2 7,0 5,-5 5,-5 1,-2 0,-5 -3,0 2,2 5,-5 5,-5 5,-5 5,-5 1,-2 0,-5 -5,0 0,5 2,2 5,0 0,-2 -2,0 0,7 5,5 2,-2 -2,0 0,7 5,5 5,5 2,-2 -2,1 5,10 0,1 5,5 10,10 2,-2 -2,1 5,10 0,1 5,5 2,-2 -2,1 5,10 0,1 5,5 1,0 10,5 1,-2 -2,2 5,5 5,5 5,5 7,0 0,-2 -1,2 30,15 2,-4 -30,-15 -1,-1 -5,0 0,3 2,-2 -5,-5 -5,-5 -5,-5 -1,0 -10,-5 -1,2 2,-2 -5,-5 -2,2 2,-1 -5,-10 0,-1 -5,-5 -2,2 2,-1 -5,-10 0,-1 -10,-10 -5,-5 -2,2 2,-1 -5,-10 0,-1 -5,-5 -5,-5 -2,2 3,0 0,-5 -1,-2 -5,-5 -2,2 3,0 0,-5 -3,-3 -5,0 0,3 3,0 0,-5 -5,0 0,5 2,0 -2,-2 -5,5 -5,5 -5,5 -5,5 0,7 2,0 -2,-2 -5,5 -5,5 2,2 0,-3 -5,0 -2,1 -5,5 -5,5 0,7 2,0 0,-3 -5,0 -2,3 0,5 2,0 0,-3 -5,0 -2,3 0,5 2,0 -1,-2 -15,10 2,4"
                           inkscape:connector-curvature="0"
                           id="path150"
                           style="fill:#000000;fill-opacity:1;fill-rule:nonzero;stroke:none" /><path
                           d="m 2665,4245 0,-10 -5,0 0,-5 -5,0 0,-5 -20,0 0,5 -5,0 0,5 -5,0 0,20 5,0 0,5 5,0 0,5 20,0 0,-5 5,0 0,-5 5,0 0,-10"
                           inkscape:connector-curvature="0"
                           id="path152"
                           style="fill:#aad5ff;fill-opacity:1;fill-rule:evenodd;stroke:none" /><path
                           d="m 2665,4245 0,-10 -5,0 0,-5 -5,0 0,-5 -20,0 0,5 -5,0 0,5 -5,0 0,20 5,0 0,5 5,0 0,5 20,0 0,-5 5,0 0,-5 5,0 0,-10 z"
                           inkscape:connector-curvature="0"
                           id="path154"
                           style="fill:none;stroke:#aad5ff;stroke-width:1;stroke-linecap:round;stroke-linejoin:round;stroke-miterlimit:10;stroke-opacity:1;stroke-dasharray:none" /><path
                           d="m 2665,4245 0,-10 -5,0 0,-5 -5,0 0,-5 -20,0 0,5 -5,0 0,5 -5,0 0,20 5,0 0,5 5,0 0,5 20,0 0,-5 5,0 0,-5 5,0 0,-10"
                           inkscape:connector-curvature="0"
                           id="path156"
                           style="fill:#84a2bf;fill-opacity:1;fill-rule:evenodd;stroke:none" /><path
                           d="m 2665,4245 0,-10 -5,0 0,-5 -5,0 0,-5 -20,0 0,5 -5,0 0,5 -5,0 0,20 5,0 0,5 5,0 0,5 20,0 0,-5 5,0 0,-5 5,0 0,-10 z"
                           inkscape:connector-curvature="0"
                           id="path158"
                           style="fill:none;stroke:#84a2bf;stroke-width:1;stroke-linecap:round;stroke-linejoin:round;stroke-miterlimit:10;stroke-opacity:1;stroke-dasharray:none" /><path
                           d="m 2660,4245 0,-5 -5,-5 -5,-5 -10,0 -5,5 -5,5 0,10 5,5 5,5 10,0 5,-5 5,-5 0,-5"
                           inkscape:connector-curvature="0"
                           id="path160"
                           style="fill:#637586;fill-opacity:1;fill-rule:evenodd;stroke:none" /><path
                           d="m 2660,4245 0,-5 -5,-5 -5,-5 -10,0 -5,5 -5,5 0,10 5,5 5,5 10,0 5,-5 5,-5 0,-5 z"
                           inkscape:connector-curvature="0"
                           id="path162"
                           style="fill:none;stroke:#637586;stroke-width:1;stroke-linecap:round;stroke-linejoin:round;stroke-miterlimit:10;stroke-opacity:1;stroke-dasharray:none" /><path
                           d="m 2655,4245 0,-5 -5,0 0,-5 -10,0 0,5 -5,0 0,10 5,0 0,5 10,0 0,-5 5,0 0,-5"
                           inkscape:connector-curvature="0"
                           id="path164"
                           style="fill:#485159;fill-opacity:1;fill-rule:evenodd;stroke:none" /><path
                           d="m 2655,4245 0,-5 -5,0 0,-5 -10,0 0,5 -5,0 0,10 5,0 0,5 10,0 0,-5 5,0 0,-5 z"
                           inkscape:connector-curvature="0"
                           id="path166"
                           style="fill:none;stroke:#485159;stroke-width:1;stroke-linecap:round;stroke-linejoin:round;stroke-miterlimit:10;stroke-opacity:1;stroke-dasharray:none" /><path
                           d="m 2655,4245 0,-5 -5,0 0,-5 -10,0 0,5 -5,0 0,10 5,0 0,5 10,0 0,-5 5,0 0,-5"
                           inkscape:connector-curvature="0"
                           id="path168"
                           style="fill:#37393c;fill-opacity:1;fill-rule:evenodd;stroke:none" /><path
                           d="m 2655,4245 0,-5 -5,0 0,-5 -10,0 0,5 -5,0 0,10 5,0 0,5 10,0 0,-5 5,0 0,-5 z"
                           inkscape:connector-curvature="0"
                           id="path170"
                           style="fill:none;stroke:#37393c;stroke-width:1;stroke-linecap:round;stroke-linejoin:round;stroke-miterlimit:10;stroke-opacity:1;stroke-dasharray:none" /><path
                           d="m 2640,4245 5,0 0,5 -5,0 0,-5 z"
                           inkscape:connector-curvature="0"
                           id="path172"
                           style="fill:#323232;fill-opacity:1;fill-rule:evenodd;stroke:none" /><path
                           d="m 2640,4245 5,0 0,5 -5,0 0,-5 z"
                           inkscape:connector-curvature="0"
                           id="path174"
                           style="fill:none;stroke:#323232;stroke-width:1;stroke-linecap:round;stroke-linejoin:round;stroke-miterlimit:10;stroke-opacity:1;stroke-dasharray:none" /><path
                           d="m 2715,4100 15,0 0,260 -15,0 0,-260 z"
                           inkscape:connector-curvature="0"
                           id="path176"
                           style="fill:#ffffff;fill-opacity:1;fill-rule:evenodd;stroke:none" /><path
                           d="m 2715,4100 15,0 0,260 -15,0 0,-260 z"
                           inkscape:connector-curvature="0"
                           id="path178"
                           style="fill:none;stroke:#ffffff;stroke-width:1;stroke-linecap:round;stroke-linejoin:round;stroke-miterlimit:10;stroke-opacity:1;stroke-dasharray:none" /><path
                           d="m 2370,4100 15,0 0,260 -15,0 0,-260 z"
                           inkscape:connector-curvature="0"
                           id="path180"
                           style="fill:#ffffff;fill-opacity:1;fill-rule:evenodd;stroke:none" /><path
                           d="m 2370,4100 15,0 0,260 -15,0 0,-260 z"
                           inkscape:connector-curvature="0"
                           id="path182"
                           style="fill:none;stroke:#ffffff;stroke-width:1;stroke-linecap:round;stroke-linejoin:round;stroke-miterlimit:10;stroke-opacity:1;stroke-dasharray:none" /><path
                           d="m 2360,4387 20,0 0,-5 -20,0 0,5 z m 30,0 20,0 0,-5 -20,0 0,5 z m 30,0 20,0 0,-5 -20,0 0,5 z m 30,0 20,0 0,-5 -20,0 0,5 z m 30,0 20,0 0,-5 -20,0 0,5 z m 30,0 20,0 0,-5 -20,0 0,5 z m 30,0 20,0 0,-5 -20,0 0,5 z m 30,0 20,0 0,-5 -20,0 0,5 z m 30,0 20,0 0,-5 -20,0 0,5 z m 30,0 20,0 0,-5 -20,0 0,5 z m 30,0 20,0 0,-5 -20,0 0,5 z m 30,0 20,0 0,-5 -20,0 0,5 z m 30,0 20,0 0,-5 -20,0 0,5 z m 23,-12 0,-20 -5,0 0,20 5,0 z m 0,-30 0,-20 -5,0 0,20 5,0 z m 0,-30 0,-20 -5,0 0,20 5,0 z m 0,-30 0,-20 -5,0 0,20 5,0 z m 0,-30 0,-20 -5,0 0,20 5,0 z m 0,-30 0,-20 -5,0 0,20 5,0 z m 0,-30 0,-20 -5,0 0,20 5,0 z m 0,-30 0,-20 -5,0 0,20 5,0 z m 0,-30 0,-20 -5,0 0,20 5,0 z m 0,-30 0,-20 -5,0 0,20 5,0 z m 0,-30 0,-20 -5,0 0,20 5,0 z m 0,-30 0,-20 -5,0 0,20 5,0 z m 0,-30 0,-5 -3,-3 -15,0 0,5 15,0 0,-2 -2,0 0,5 5,0 z m -28,-8 -20,0 0,5 20,0 0,-5 z m -30,0 -20,0 0,5 20,0 0,-5 z m -30,0 -20,0 0,5 20,0 0,-5 z m -30,0 -20,0 0,5 20,0 0,-5 z m -30,0 -20,0 0,5 20,0 0,-5 z m -30,0 -20,0 0,5 20,0 0,-5 z m -30,0 -20,0 0,5 20,0 0,-5 z m -30,0 -20,0 0,5 20,0 0,-5 z m -30,0 -20,0 0,5 20,0 0,-5 z m -30,0 -20,0 0,5 20,0 0,-5 z m -30,0 -20,0 0,5 20,0 0,-5 z m -30,0 -20,0 0,5 20,0 0,-5 z m -27,8 0,20 5,0 0,-20 -5,0 z m 0,30 0,20 5,0 0,-20 -5,0 z m 0,30 0,20 5,0 0,-20 -5,0 z m 0,30 0,20 5,0 0,-20 -5,0 z m 0,30 0,20 5,0 0,-20 -5,0 z m 0,30 0,20 5,0 0,-20 -5,0 z m 0,30 0,20 5,0 0,-20 -5,0 z m 0,30 0,20 5,0 0,-20 -5,0 z m 0,30 0,20 5,0 0,-20 -5,0 z m 0,30 0,20 5,0 0,-20 -5,0 z m 0,30 0,20 5,0 0,-20 -5,0 z m 0,30 0,20 5,0 0,-20 -5,0 z m 0,30 0,10 5,0 0,-10 -5,0"
                           inkscape:connector-curvature="0"
                           id="path184"
                           style="fill:#000000;fill-opacity:1;fill-rule:nonzero;stroke:none" /><path
                           d="m 2385,4102 330,0 0,5 -330,0 0,-5 z"
                           inkscape:connector-curvature="0"
                           id="path186"
                           style="fill:#000000;fill-opacity:1;fill-rule:nonzero;stroke:none" /><path
                           d="m 2393,4037 70,70 4,-4 -70,-70 -4,4"
                           inkscape:connector-curvature="0"
                           id="path188"
                           style="fill:#000000;fill-opacity:1;fill-rule:nonzero;stroke:none" /><path
                           d="m 2553,4037 70,70 4,-4 -70,-70 -4,4"
                           inkscape:connector-curvature="0"
                           id="path190"
                           style="fill:#000000;fill-opacity:1;fill-rule:nonzero;stroke:none" /><path
                           d="m 2633,4037 70,70 4,-4 -70,-70 -4,4"
                           inkscape:connector-curvature="0"
                           id="path192"
                           style="fill:#000000;fill-opacity:1;fill-rule:nonzero;stroke:none" /><path
                           d="m 2473,4037 70,70 4,-4 -70,-70 -4,4"
                           inkscape:connector-curvature="0"
                           id="path194"
                           style="fill:#000000;fill-opacity:1;fill-rule:nonzero;stroke:none" /><path
                           d="m 2315,3295 140,0 0,10 -140,0 0,-10 z"
                           inkscape:connector-curvature="0"
                           id="path196"
                           style="fill:#7f7f7f;fill-opacity:1;fill-rule:nonzero;stroke:none" /><path
                           d="m 2455,3340 55,55 135,0 0,-135 -55,-55 -135,0 0,135"
                           inkscape:connector-curvature="0"
                           id="path198"
                           style="fill:#ffffff;fill-opacity:1;fill-rule:evenodd;stroke:none" /><path
                           d="m 2453,3342 55,55 137,0 3,-2 0,-135 -1,-2 -55,-55 -2,-1 -135,0 -2,3 0,137 z m 5,-2 0,-135 -3,0 0,2 135,0 0,-2 -2,2 55,55 2,-2 -2,0 0,135 2,0 0,-3 -135,0 0,3 2,-2 -55,-55 -2,2 3,0"
                           inkscape:connector-curvature="0"
                           id="path200"
                           style="fill:#7f7f7f;fill-opacity:1;fill-rule:nonzero;stroke:none" /><path
                           d="m 2453,3207 14,14 4,-4 -14,-14 -4,4 z m 21,21 15,14 3,-3 -14,-15 -4,4 z m 22,21 12,13 4,-4 -13,-12 -3,3"
                           inkscape:connector-curvature="0"
                           id="path202"
                           style="fill:#7f7f7f;fill-opacity:1;fill-rule:nonzero;stroke:none" /><path
                           d="m 2513,3395 0,-20 -5,0 0,20 5,0 z m 0,-30 0,-20 -5,0 0,20 5,0 z m 0,-30 0,-20 -5,0 0,20 5,0 z m 0,-30 0,-20 -5,0 0,20 5,0 z m 0,-30 0,-15 -3,0 0,2 5,0 0,-5 -5,0 -2,3 0,15 5,0 z m 12,-13 20,0 0,-5 -20,0 0,5 z m 30,0 20,0 0,-5 -20,0 0,5 z m 30,0 20,0 0,-5 -20,0 0,5 z m 30,0 20,0 0,-5 -20,0 0,5"
                           inkscape:connector-curvature="0"
                           id="path204"
                           style="fill:#7f7f7f;fill-opacity:1;fill-rule:nonzero;stroke:none" /><path
                           d="m 2455,3295 160,0 0,10 -160,0 0,-10 z"
                           inkscape:connector-curvature="0"
                           id="path206"
                           style="fill:#d2d2d2;fill-opacity:1;fill-rule:nonzero;stroke:none" /><path
                           d="m 2615,3295 170,0 0,10 -170,0 0,-10 z"
                           inkscape:connector-curvature="0"
                           id="path208"
                           style="fill:#7f7f7f;fill-opacity:1;fill-rule:nonzero;stroke:none" /><path
                           d="m 2455,3342 135,0 3,-2 0,-135 -5,0 0,135 2,0 0,-3 -135,0 0,5"
                           inkscape:connector-curvature="0"
                           id="path210"
                           style="fill:#7f7f7f;fill-opacity:1;fill-rule:nonzero;stroke:none" /><path
                           d="m 2453,3342 55,55 137,0 3,-2 0,-135 -1,-2 -55,-55 -2,-1 -135,0 -2,3 0,137 55,55 4,-4 -55,-55 -2,2 3,0 0,-135 -3,0 0,2 135,0 0,-2 -2,2 55,55 2,-2 -2,0 0,135 2,0 0,-3 -135,0 0,3 2,-2 -55,-55 -4,4"
                           inkscape:connector-curvature="0"
                           id="path212"
                           style="fill:#7f7f7f;fill-opacity:1;fill-rule:nonzero;stroke:none" /><path
                           d="m 2647,3393 -55,-55 -4,4 55,55 4,-4"
                           inkscape:connector-curvature="0"
                           id="path214"
                           style="fill:#7f7f7f;fill-opacity:1;fill-rule:nonzero;stroke:none" /><g
                           transform="scale(8.33333,8.33333)"
                           id="g216"><text
                             transform="matrix(1,0,0,-1,286.8,414.72)"
                             id="text218"><tspan
                               x="0 4.7999997 9.6000061 14.400012 17.4 22.200006 27.000011 28.800024 33.600029"
                               y="0"
                               id="tspan220"
                               style="font-size:9px;font-variant:normal;font-weight:normal;writing-mode:lr-tb;fill:#000000;fill-opacity:1;fill-rule:nonzero;stroke:none;font-family:Helvetica;-inkscape-font-specification:Helvetica">subregion</tspan></text>
</g><path
                           d="m 2340,3300 0,-10 -5,-5 0,-5 -5,0 -5,-5 -20,0 0,5 -10,0 0,5 -5,5 0,20 5,0 0,10 10,0 0,5 20,0 5,-5 5,0 0,-10 5,0 0,-10"
                           inkscape:connector-curvature="0"
                           id="path222"
                           style="fill:#bfbfbf;fill-opacity:1;fill-rule:evenodd;stroke:none" /><path
                           d="m 2345,3300 0,-10 -1,-4 -5,-5 -4,4 5,0 0,-5 -5,-5 -5,0 0,5 4,-4 -5,-5 -4,-1 -20,0 -5,5 0,5 5,0 0,-5 -10,0 -5,5 0,5 5,0 -4,-4 -5,5 -1,4 0,20 5,5 5,0 0,-5 -5,0 0,10 5,5 10,0 0,-5 -5,0 0,5 5,5 20,0 4,-1 5,-5 -4,-4 0,5 5,0 5,-5 0,-10 -5,0 0,5 5,0 5,-5 0,-10 z m -10,0 0,10 5,0 0,-5 -5,0 -5,5 0,10 5,0 0,-5 -5,0 -4,1 -5,5 4,4 0,-5 -20,0 0,5 5,0 0,-5 -5,-5 -10,0 0,5 5,0 0,-10 -5,-5 -5,0 0,5 5,0 0,-20 -5,0 4,4 5,-5 1,-4 0,-5 -5,0 0,5 10,0 5,-5 0,-5 -5,0 0,5 20,0 0,-5 -4,4 5,5 4,1 5,0 0,-5 -5,0 0,5 1,4 5,5 4,-4 -5,0 0,10"
                           inkscape:connector-curvature="0"
                           id="path224"
                           style="fill:#7f7f7f;fill-opacity:1;fill-rule:nonzero;stroke:none" /><path
                           d="m 2810,3300 0,-10 -5,-5 0,-5 -5,0 -5,-5 -20,0 0,5 -10,0 0,5 -5,5 0,20 5,0 0,10 10,0 0,5 20,0 5,-5 5,0 0,-10 5,0 0,-10"
                           inkscape:connector-curvature="0"
                           id="path226"
                           style="fill:#bfbfbf;fill-opacity:1;fill-rule:evenodd;stroke:none" /><path
                           d="m 2815,3300 0,-10 -1,-4 -5,-5 -4,4 5,0 0,-5 -5,-5 -5,0 0,5 4,-4 -5,-5 -4,-1 -20,0 -5,5 0,5 5,0 0,-5 -10,0 -5,5 0,5 5,0 -4,-4 -5,5 -1,4 0,20 5,5 5,0 0,-5 -5,0 0,10 5,5 10,0 0,-5 -5,0 0,5 5,5 20,0 4,-1 5,-5 -4,-4 0,5 5,0 5,-5 0,-10 -5,0 0,5 5,0 5,-5 0,-10 z m -10,0 0,10 5,0 0,-5 -5,0 -5,5 0,10 5,0 0,-5 -5,0 -4,1 -5,5 4,4 0,-5 -20,0 0,5 5,0 0,-5 -5,-5 -10,0 0,5 5,0 0,-10 -5,-5 -5,0 0,5 5,0 0,-20 -5,0 4,4 5,-5 1,-4 0,-5 -5,0 0,5 10,0 5,-5 0,-5 -5,0 0,5 20,0 0,-5 -4,4 5,5 4,1 5,0 0,-5 -5,0 0,5 1,4 5,5 4,-4 -5,0 0,10"
                           inkscape:connector-curvature="0"
                           id="path228"
                           style="fill:#7f7f7f;fill-opacity:1;fill-rule:nonzero;stroke:none" /></g></g></g></g></g></g></g></g></g></g></g></svg>