<?xml version="1.0" encoding="UTF-8" standalone="no"?>
<!-- Created with Inkscape (http://www.inkscape.org/) -->

<svg
   xmlns:dc="http://purl.org/dc/elements/1.1/"
   xmlns:cc="http://creativecommons.org/ns#"
   xmlns:rdf="http://www.w3.org/1999/02/22-rdf-syntax-ns#"
   xmlns:svg="http://www.w3.org/2000/svg"
   xmlns="http://www.w3.org/2000/svg"
   xmlns:inkscape="http://www.inkscape.org/namespaces/inkscape"
   version="1.1"
   width="653.75"
   height="653.75"
   id="svg2"
   xml:space="preserve"><metadata
     id="metadata8"><rdf:RDF><cc:Work
         rdf:about=""><dc:format>image/svg+xml</dc:format><dc:type
           rdf:resource="http://purl.org/dc/dcmitype/StillImage" /></cc:Work></rdf:RDF></metadata><defs
     id="defs6"><clipPath
       id="clipPath18"><path
         d="M 0,0 523,0 523,523 0,523 0,0 z"
         inkscape:connector-curvature="0"
         id="path20" /></clipPath><clipPath
       id="clipPath28"><path
         d="M 0,0 523,0 523,523 0,523 0,0 z"
         inkscape:connector-curvature="0"
         id="path30" /></clipPath><clipPath
       id="clipPath38"><path
         d="M 0,0 523,0 523,523 0,523 0,0 z"
         inkscape:connector-curvature="0"
         id="path40" /></clipPath><clipPath
       id="clipPath48"><path
         d="M 0,0 523,0 523,523 0,523 0,0 z"
         inkscape:connector-curvature="0"
         id="path50" /></clipPath><clipPath
       id="clipPath58"><path
         d="M 0,0 523,0 523,523 0,523 0,0 z"
         inkscape:connector-curvature="0"
         id="path60" /></clipPath><clipPath
       id="clipPath68"><path
         d="M 0,0 523,0 523,523 0,523 0,0 z"
         inkscape:connector-curvature="0"
         id="path70" /></clipPath><clipPath
       id="clipPath78"><path
         d="M 0,0 523,0 523,523 0,523 0,0 z"
         inkscape:connector-curvature="0"
         id="path80" /></clipPath><clipPath
       id="clipPath88"><path
         d="M 0,0 595,0 595,842 0,842 0,0 z"
         inkscape:connector-curvature="0"
         id="path90" /></clipPath></defs><g
     transform="matrix(1.25,0,0,-1.25,0,653.75)"
     id="g10"><g
       id="g12"><g
         id="g14"><g
           clip-path="url(#clipPath18)"
           id="g16"><g
             id="g22"><g
               id="g24"><g
                 clip-path="url(#clipPath28)"
                 id="g26"><g
                   id="g32"><g
                     id="g34"><g
                       clip-path="url(#clipPath38)"
                       id="g36"><g
                         id="g42"><g
                           id="g44"><g
                             clip-path="url(#clipPath48)"
                             id="g46"><g
                               id="g52"><g
                                 id="g54"><g
                                   clip-path="url(#clipPath58)"
                                   id="g56"><g
                                   id="g62"><g
                                   id="g64"><g
                                   clip-path="url(#clipPath68)"
                                   id="g66"><g
                                   id="g72"><g
                                   id="g74"><g
                                   clip-path="url(#clipPath78)"
                                   id="g76"><g
                                   transform="translate(-36,-159)"
                                   id="g82"><g
                                   id="g84"><g
                                   clip-path="url(#clipPath88)"
                                   id="g86"><g
                                   transform="matrix(0.75,0,0,-0.75,24,818)"
                                   id="g92"><g
                                   id="g94"><g
                                   id="g96" /></g><g
                                   id="g98"><g
                                   id="g100" /><g
                                   id="g102"><path
                                   d="m 61,530 182,0"
                                   inkscape:connector-curvature="0"
                                   id="path104"
                                   style="fill:none;stroke:#7f7f7f;stroke-width:2;stroke-linecap:butt;stroke-linejoin:bevel;stroke-miterlimit:10;stroke-opacity:1;stroke-dasharray:none" /><path
                                   d="m 365,652 0,182"
                                   inkscape:connector-curvature="0"
                                   id="path106"
                                   style="fill:none;stroke:#7f7f7f;stroke-width:2;stroke-linecap:butt;stroke-linejoin:bevel;stroke-miterlimit:10;stroke-opacity:1;stroke-dasharray:none" /><path
                                   d="m 487,408 30,-30"
                                   inkscape:connector-curvature="0"
                                   id="path108"
                                   style="fill:none;stroke:#7f7f7f;stroke-width:2;stroke-linecap:butt;stroke-linejoin:bevel;stroke-miterlimit:10;stroke-opacity:1;stroke-dasharray:none" /><path
                                   d="m 243,481 73,-73 171,0 0,171 -73,73 -171,0 0,-171 z"
                                   inkscape:connector-curvature="0"
                                   id="path110"
                                   style="fill:#ffffff;fill-opacity:1;fill-rule:evenodd;stroke:#7f7f7f;stroke-width:1;stroke-linecap:butt;stroke-linejoin:bevel;stroke-miterlimit:10;stroke-opacity:1;stroke-dasharray:none" /><path
                                   d="m 243,652 73,-73"
                                   inkscape:connector-curvature="0"
                                   id="path112"
                                   style="fill:none;stroke:#7f7f7f;stroke-width:1;stroke-linecap:butt;stroke-linejoin:bevel;stroke-miterlimit:10;stroke-opacity:1;stroke-dasharray:4, 2;stroke-dashoffset:0" /><path
                                   d="m 316,408 0,171 171,0"
                                   inkscape:connector-curvature="0"
                                   id="path114"
                                   style="fill:none;stroke:#7f7f7f;stroke-width:1;stroke-linecap:butt;stroke-linejoin:bevel;stroke-miterlimit:10;stroke-opacity:1;stroke-dasharray:4, 2;stroke-dashoffset:0" /><path
                                   d="m 243,530 207,0"
                                   inkscape:connector-curvature="0"
                                   id="path116"
                                   style="fill:none;stroke:#d2d2d2;stroke-width:2;stroke-linecap:butt;stroke-linejoin:bevel;stroke-miterlimit:10;stroke-opacity:1;stroke-dasharray:none" /><path
                                   d="m 365,445 0,207"
                                   inkscape:connector-curvature="0"
                                   id="path118"
                                   style="fill:none;stroke:#d2d2d2;stroke-width:2;stroke-linecap:butt;stroke-linejoin:bevel;stroke-miterlimit:10;stroke-opacity:1;stroke-dasharray:none" /><path
                                   d="m 450,530 219,0"
                                   inkscape:connector-curvature="0"
                                   id="path120"
                                   style="fill:none;stroke:#7f7f7f;stroke-width:2;stroke-linecap:butt;stroke-linejoin:bevel;stroke-miterlimit:10;stroke-opacity:1;stroke-dasharray:none" /><path
                                   d="m 365,226 0,219"
                                   inkscape:connector-curvature="0"
                                   id="path122"
                                   style="fill:none;stroke:#7f7f7f;stroke-width:2;stroke-linecap:butt;stroke-linejoin:bevel;stroke-miterlimit:10;stroke-opacity:1;stroke-dasharray:none" /><path
                                   d="M 329,566 487,408"
                                   inkscape:connector-curvature="0"
                                   id="path124"
                                   style="fill:none;stroke:#d2d2d2;stroke-width:2;stroke-linecap:butt;stroke-linejoin:bevel;stroke-miterlimit:10;stroke-opacity:1;stroke-dasharray:none" /><path
                                   d="m 243,481 171,0 0,171"
                                   inkscape:connector-curvature="0"
                                   id="path126"
                                   style="fill:none;stroke:#7f7f7f;stroke-width:1;stroke-linecap:butt;stroke-linejoin:bevel;stroke-miterlimit:10;stroke-opacity:1;stroke-dasharray:none" /><path
                                   d="M 213,682 329,566"
                                   inkscape:connector-curvature="0"
                                   id="path128"
                                   style="fill:none;stroke:#7f7f7f;stroke-width:2;stroke-linecap:butt;stroke-linejoin:bevel;stroke-miterlimit:10;stroke-opacity:1;stroke-dasharray:none" /><path
                                   d="m 243,481 73,-73 171,0 0,171 -73,73 -171,0 0,-171 73,-73"
                                   inkscape:connector-curvature="0"
                                   id="path130"
                                   style="fill:none;stroke:#7f7f7f;stroke-width:1;stroke-linecap:butt;stroke-linejoin:bevel;stroke-miterlimit:10;stroke-opacity:1;stroke-dasharray:none" /><path
                                   d="m 487,408 -73,73"
                                   inkscape:connector-curvature="0"
                                   id="path132"
                                   style="fill:none;stroke:#7f7f7f;stroke-width:1;stroke-linecap:butt;stroke-linejoin:bevel;stroke-miterlimit:10;stroke-opacity:1;stroke-dasharray:none" /></g><g
                                   transform="translate(61,238.159)"
                                   id="g134"><g
                                   id="g136"><text
                                   transform="translate(58,96)"
                                   id="text138"><tspan
                                   x="0 72 132 192 228 288 348 372 432"
                                   y="0"
                                   id="tspan140"
                                   style="font-size:108px;font-variant:normal;writing-mode:lr-tb;fill:#000000;fill-opacity:1;fill-rule:nonzero;stroke:none;font-family:Nimbus Sans L;-inkscape-font-specification:NimbusSanL-Regu">Subregion</tspan></text>
</g></g><g
                                   id="g142"><path
                                   d="m 91,530 0,2 0,1 0,2 -1,1 0,2 0,1 -1,2 -1,1 0,2 -1,1 -1,1 -1,2 -1,1 -1,1 -1,1 -1,1 -1,1 -1,1 -2,1 -1,1 -1,1 -2,0 -1,1 -2,1 -1,0 -2,0 -1,1 -2,0 -1,0 -2,0 -2,0 -1,0 -2,0 -1,-1 -2,0 -1,0 -2,-1 -1,-1 -2,0 -1,-1 -1,-1 -2,-1 -1,-1 -1,-1 -1,-1 -1,-1 -1,-1 -1,-1 -1,-2 -1,-1 -1,-1 0,-2 -1,-1 -1,-2 0,-1 0,-2 -1,-1 0,-2 0,-1 0,-2 0,-2 0,-1 0,-2 1,-1 0,-2 0,-1 1,-2 1,-1 0,-2 1,-1 1,-1 1,-2 1,-1 1,-1 1,-1 1,-1 1,-1 1,-1 2,-1 1,-1 1,-1 2,0 1,-1 2,-1 1,0 2,0 1,-1 2,0 1,0 2,0 2,0 1,0 2,0 1,1 2,0 1,0 2,1 1,1 2,0 1,1 1,1 2,1 1,1 1,1 1,1 1,1 1,1 1,1 1,2 1,1 1,1 0,2 1,1 1,2 0,1 0,2 1,1 0,2 0,1 0,2 z"
                                   inkscape:connector-curvature="0"
                                   id="path144"
                                   style="fill:#bfbfbf;fill-opacity:1;fill-rule:evenodd;stroke:#7f7f7f;stroke-width:2;stroke-linecap:butt;stroke-linejoin:bevel;stroke-miterlimit:10;stroke-opacity:1;stroke-dasharray:none" /><path
                                   d="m 395,834 0,2 0,1 0,2 -1,1 0,2 0,1 -1,2 -1,1 0,2 -1,1 -1,1 -1,2 -1,1 -1,1 -1,1 -1,1 -1,1 -1,1 -2,1 -1,1 -1,1 -2,0 -1,1 -2,1 -1,0 -2,0 -1,1 -2,0 -1,0 -2,0 -2,0 -1,0 -2,0 -1,-1 -2,0 -1,0 -2,-1 -1,-1 -2,0 -1,-1 -1,-1 -2,-1 -1,-1 -1,-1 -1,-1 -1,-1 -1,-1 -1,-1 -1,-2 -1,-1 -1,-1 0,-2 -1,-1 -1,-2 0,-1 0,-2 -1,-1 0,-2 0,-1 0,-2 0,-2 0,-1 0,-2 1,-1 0,-2 0,-1 1,-2 1,-1 0,-2 1,-1 1,-1 1,-2 1,-1 1,-1 1,-1 1,-1 1,-1 1,-1 2,-1 1,-1 1,-1 2,0 1,-1 2,-1 1,0 2,0 1,-1 2,0 1,0 2,0 2,0 1,0 2,0 1,1 2,0 1,0 2,1 1,1 2,0 1,1 1,1 2,1 1,1 1,1 1,1 1,1 1,1 1,1 1,2 1,1 1,1 0,2 1,1 1,2 0,1 0,2 1,1 0,2 0,1 0,2 z"
                                   inkscape:connector-curvature="0"
                                   id="path146"
                                   style="fill:#bfbfbf;fill-opacity:1;fill-rule:evenodd;stroke:#7f7f7f;stroke-width:2;stroke-linecap:butt;stroke-linejoin:bevel;stroke-miterlimit:10;stroke-opacity:1;stroke-dasharray:none" /><path
                                   d="m 547,378 0,2 0,1 0,2 -1,1 0,2 0,1 -1,2 -1,1 0,2 -1,1 -1,1 -1,2 -1,1 -1,1 -1,1 -1,1 -1,1 -1,1 -2,1 -1,1 -1,1 -2,0 -1,1 -2,1 -1,0 -2,0 -1,1 -2,0 -1,0 -2,0 -2,0 -1,0 -2,0 -1,-1 -2,0 -1,0 -2,-1 -1,-1 -2,0 -1,-1 -1,-1 -2,-1 -1,-1 -1,-1 -1,-1 -1,-1 -1,-1 -1,-1 -1,-2 -1,-1 -1,-1 0,-2 -1,-1 -1,-2 0,-1 0,-2 -1,-1 0,-2 0,-1 0,-2 0,-2 0,-1 0,-2 1,-1 0,-2 0,-1 1,-2 1,-1 0,-2 1,-1 1,-1 1,-2 1,-1 1,-1 1,-1 1,-1 1,-1 1,-1 2,-1 1,-1 1,-1 2,0 1,-1 2,-1 1,0 2,0 1,-1 2,0 1,0 2,0 2,0 1,0 2,0 1,1 2,0 1,0 2,1 1,1 2,0 1,1 1,1 2,1 1,1 1,1 1,1 1,1 1,1 1,1 1,2 1,1 1,1 0,2 1,1 1,2 0,1 0,2 1,1 0,2 0,1 0,2 z"
                                   inkscape:connector-curvature="0"
                                   id="path148"
                                   style="fill:#bfbfbf;fill-opacity:1;fill-rule:evenodd;stroke:#7f7f7f;stroke-width:2;stroke-linecap:butt;stroke-linejoin:bevel;stroke-miterlimit:10;stroke-opacity:1;stroke-dasharray:none" /><path
                                   d="m 699,530 0,2 0,1 0,2 -1,1 0,2 0,1 -1,2 -1,1 0,2 -1,1 -1,1 -1,2 -1,1 -1,1 -1,1 -1,1 -1,1 -1,1 -2,1 -1,1 -1,1 -2,0 -1,1 -2,1 -1,0 -2,0 -1,1 -2,0 -1,0 -2,0 -2,0 -1,0 -2,0 -1,-1 -2,0 -1,0 -2,-1 -1,-1 -2,0 -1,-1 -1,-1 -2,-1 -1,-1 -1,-1 -1,-1 -1,-1 -1,-1 -1,-1 -1,-2 -1,-1 -1,-1 0,-2 -1,-1 -1,-2 0,-1 0,-2 -1,-1 0,-2 0,-1 0,-2 0,-2 0,-1 0,-2 1,-1 0,-2 0,-1 1,-2 1,-1 0,-2 1,-1 1,-1 1,-2 1,-1 1,-1 1,-1 1,-1 1,-1 1,-1 2,-1 1,-1 1,-1 2,0 1,-1 2,-1 1,0 2,0 1,-1 2,0 1,0 2,0 2,0 1,0 2,0 1,1 2,0 1,0 2,1 1,1 2,0 1,1 1,1 2,1 1,1 1,1 1,1 1,1 1,1 1,1 1,2 1,1 1,1 0,2 1,1 1,2 0,1 0,2 1,1 0,2 0,1 0,2 z"
                                   inkscape:connector-curvature="0"
                                   id="path150"
                                   style="fill:#bfbfbf;fill-opacity:1;fill-rule:evenodd;stroke:#7f7f7f;stroke-width:2;stroke-linecap:butt;stroke-linejoin:bevel;stroke-miterlimit:10;stroke-opacity:1;stroke-dasharray:none" /><path
                                   d="m 395,226 0,2 0,1 0,2 -1,1 0,2 0,1 -1,2 -1,1 0,2 -1,1 -1,1 -1,2 -1,1 -1,1 -1,1 -1,1 -1,1 -1,1 -2,1 -1,1 -1,1 -2,0 -1,1 -2,1 -1,0 -2,0 -1,1 -2,0 -1,0 -2,0 -2,0 -1,0 -2,0 -1,-1 -2,0 -1,0 -2,-1 -1,-1 -2,0 -1,-1 -1,-1 -2,-1 -1,-1 -1,-1 -1,-1 -1,-1 -1,-1 -1,-1 -1,-2 -1,-1 -1,-1 0,-2 -1,-1 -1,-2 0,-1 0,-2 -1,-1 0,-2 0,-1 0,-2 0,-2 0,-1 0,-2 1,-1 0,-2 0,-1 1,-2 1,-1 0,-2 1,-1 1,-1 1,-2 1,-1 1,-1 1,-1 1,-1 1,-1 1,-1 2,-1 1,-1 1,-1 2,0 1,-1 2,-1 1,0 2,0 1,-1 2,0 1,0 2,0 2,0 1,0 2,0 1,1 2,0 1,0 2,1 1,1 2,0 1,1 1,1 2,1 1,1 1,1 1,1 1,1 1,1 1,1 1,2 1,1 1,1 0,2 1,1 1,2 0,1 0,2 1,1 0,2 0,1 0,2 z"
                                   inkscape:connector-curvature="0"
                                   id="path152"
                                   style="fill:#bfbfbf;fill-opacity:1;fill-rule:evenodd;stroke:#7f7f7f;stroke-width:2;stroke-linecap:butt;stroke-linejoin:bevel;stroke-miterlimit:10;stroke-opacity:1;stroke-dasharray:none" /><path
                                   d="m 243,682 0,2 0,1 0,2 -1,1 0,2 0,1 -1,2 -1,1 0,2 -1,1 -1,1 -1,2 -1,1 -1,1 -1,1 -1,1 -1,1 -1,1 -2,1 -1,1 -1,1 -2,0 -1,1 -2,1 -1,0 -2,0 -1,1 -2,0 -1,0 -2,0 -2,0 -1,0 -2,0 -1,-1 -2,0 -1,0 -2,-1 -1,-1 -2,0 -1,-1 -1,-1 -2,-1 -1,-1 -1,-1 -1,-1 -1,-1 -1,-1 -1,-1 -1,-2 -1,-1 -1,-1 0,-2 -1,-1 -1,-2 0,-1 0,-2 -1,-1 0,-2 0,-1 0,-2 0,-2 0,-1 0,-2 1,-1 0,-2 0,-1 1,-2 1,-1 0,-2 1,-1 1,-1 1,-2 1,-1 1,-1 1,-1 1,-1 1,-1 1,-1 2,-1 1,-1 1,-1 2,0 1,-1 2,-1 1,0 2,0 1,-1 2,0 1,0 2,0 2,0 1,0 2,0 1,1 2,0 1,0 2,1 1,1 2,0 1,1 1,1 2,1 1,1 1,1 1,1 1,1 1,1 1,1 1,2 1,1 1,1 0,2 1,1 1,2 0,1 0,2 1,1 0,2 0,1 0,2 z"
                                   inkscape:connector-curvature="0"
                                   id="path154"
                                   style="fill:#bfbfbf;fill-opacity:1;fill-rule:evenodd;stroke:#7f7f7f;stroke-width:2;stroke-linecap:butt;stroke-linejoin:bevel;stroke-miterlimit:10;stroke-opacity:1;stroke-dasharray:none" /></g></g></g></g></g></g></g></g></g></g></g></g></g></g></g></g></g></g></g></g></g></g></g></g></g></g></g></g></svg>