<?xml version="1.0" encoding="UTF-8" standalone="no"?>
<!-- Created with Inkscape (http://www.inkscape.org/) -->

<svg
   xmlns:dc="http://purl.org/dc/elements/1.1/"
   xmlns:cc="http://creativecommons.org/ns#"
   xmlns:rdf="http://www.w3.org/1999/02/22-rdf-syntax-ns#"
   xmlns:svg="http://www.w3.org/2000/svg"
   xmlns="http://www.w3.org/2000/svg"
   xmlns:inkscape="http://www.inkscape.org/namespaces/inkscape"
   version="1.1"
   width="653.75"
   height="780"
   id="svg2"
   xml:space="preserve"><metadata
     id="metadata8"><rdf:RDF><cc:Work
         rdf:about=""><dc:format>image/svg+xml</dc:format><dc:type
           rdf:resource="http://purl.org/dc/dcmitype/StillImage" /></cc:Work></rdf:RDF></metadata><defs
     id="defs6"><clipPath
       id="clipPath18"><path
         d="M 0,0 523,0 523,624 0,624 0,0 z"
         inkscape:connector-curvature="0"
         id="path20" /></clipPath><clipPath
       id="clipPath28"><path
         d="M 0,0 523,0 523,624 0,624 0,0 z"
         inkscape:connector-curvature="0"
         id="path30" /></clipPath><clipPath
       id="clipPath38"><path
         d="M 0,0 523,0 523,624 0,624 0,0 z"
         inkscape:connector-curvature="0"
         id="path40" /></clipPath><clipPath
       id="clipPath48"><path
         d="M 0,0 523,0 523,624 0,624 0,0 z"
         inkscape:connector-curvature="0"
         id="path50" /></clipPath><clipPath
       id="clipPath58"><path
         d="M 0,0 523,0 523,624 0,624 0,0 z"
         inkscape:connector-curvature="0"
         id="path60" /></clipPath><clipPath
       id="clipPath68"><path
         d="M 0,0 523,0 523,624 0,624 0,0 z"
         inkscape:connector-curvature="0"
         id="path70" /></clipPath><clipPath
       id="clipPath78"><path
         d="M 0,0 523,0 523,624 0,624 0,0 z"
         inkscape:connector-curvature="0"
         id="path80" /></clipPath><clipPath
       id="clipPath88"><path
         d="M 0,0 523,0 523,624 0,624 0,0 z"
         inkscape:connector-curvature="0"
         id="path90" /></clipPath><clipPath
       id="clipPath98"><path
         d="M 0,0 595,0 595,842 0,842 0,0 z"
         inkscape:connector-curvature="0"
         id="path100" /></clipPath></defs><g
     transform="matrix(1.25,0,0,-1.25,0,780)"
     id="g10"><g
       id="g12"><g
         id="g14"><g
           clip-path="url(#clipPath18)"
           id="g16"><g
             id="g22"><g
               id="g24"><g
                 clip-path="url(#clipPath28)"
                 id="g26"><g
                   id="g32"><g
                     id="g34"><g
                       clip-path="url(#clipPath38)"
                       id="g36"><g
                         id="g42"><g
                           id="g44"><g
                             clip-path="url(#clipPath48)"
                             id="g46"><g
                               id="g52"><g
                                 id="g54"><g
                                   clip-path="url(#clipPath58)"
                                   id="g56"><g
                                   id="g62"><g
                                   id="g64"><g
                                   clip-path="url(#clipPath68)"
                                   id="g66"><g
                                   id="g72"><g
                                   id="g74"><g
                                   clip-path="url(#clipPath78)"
                                   id="g76"><g
                                   id="g82"><g
                                   id="g84"><g
                                   clip-path="url(#clipPath88)"
                                   id="g86"><g
                                   transform="translate(-36,-159)"
                                   id="g92"><g
                                   id="g94"><g
                                   clip-path="url(#clipPath98)"
                                   id="g96"><g
                                   transform="matrix(0.75,0,0,-0.75,24,818)"
                                   id="g102"><g
                                   id="g104"><g
                                   id="g106" /></g><g
                                   id="g108"><g
                                   id="g110" /><g
                                   id="g112" /><g
                                   transform="translate(61,43.5999)"
                                   id="g114"><g
                                   id="g116"><text
                                   transform="translate(133,96)"
                                   id="text118"><tspan
                                   x="0 78 138 198 222 282"
                                   y="0"
                                   id="tspan120"
                                   style="font-size:108px;font-variant:normal;writing-mode:lr-tb;fill:#000000;fill-opacity:1;fill-rule:nonzero;stroke:none;font-family:Nimbus Sans L;-inkscape-font-specification:NimbusSanL-Regu">Region</tspan></text>
</g></g><g
                                   id="g122" /><g
                                   id="g124" /><g
                                   id="g126"><path
                                   d="m 395,317 -91,91 31,31 91,-91 -31,-31 z"
                                   inkscape:connector-curvature="0"
                                   id="path128"
                                   style="fill:#5f5f5f;fill-opacity:1;fill-rule:nonzero;stroke:none" /></g><g
                                   id="g130" /><g
                                   id="g132"><path
                                   d="m 395,317 -91,91 31,31 91,-91 -31,-31 z"
                                   inkscape:connector-curvature="0"
                                   id="path134"
                                   style="fill:#616161;fill-opacity:1;fill-rule:nonzero;stroke:none" /></g><g
                                   id="g136" /><g
                                   id="g138"><path
                                   d="m 396,317 -92,92 30,30 92,-92 -30,-30 z"
                                   inkscape:connector-curvature="0"
                                   id="path140"
                                   style="fill:#646464;fill-opacity:1;fill-rule:nonzero;stroke:none" /></g><g
                                   id="g142" /><g
                                   id="g144"><path
                                   d="m 396,318 -91,91 29,29 91,-91 -29,-29 z"
                                   inkscape:connector-curvature="0"
                                   id="path146"
                                   style="fill:#676767;fill-opacity:1;fill-rule:nonzero;stroke:none" /></g><g
                                   id="g148" /><g
                                   id="g150"><path
                                   d="m 396,318 -91,91 29,29 91,-91 -29,-29 z"
                                   inkscape:connector-curvature="0"
                                   id="path152"
                                   style="fill:#6a6a6a;fill-opacity:1;fill-rule:nonzero;stroke:none" /></g><g
                                   id="g154" /><g
                                   id="g156"><path
                                   d="m 396,318 -91,91 29,29 91,-91 -29,-29 z"
                                   inkscape:connector-curvature="0"
                                   id="path158"
                                   style="fill:#6c6c6c;fill-opacity:1;fill-rule:nonzero;stroke:none" /></g><g
                                   id="g160" /><g
                                   id="g162"><path
                                   d="m 397,319 -91,91 27,27 91,-91 -27,-27 z"
                                   inkscape:connector-curvature="0"
                                   id="path164"
                                   style="fill:#6f6f6f;fill-opacity:1;fill-rule:nonzero;stroke:none" /></g><g
                                   id="g166" /><g
                                   id="g168"><path
                                   d="m 397,319 -91,91 27,27 91,-91 -27,-27 z"
                                   inkscape:connector-curvature="0"
                                   id="path170"
                                   style="fill:#727272;fill-opacity:1;fill-rule:nonzero;stroke:none" /></g><g
                                   id="g172" /><g
                                   id="g174"><path
                                   d="m 398,320 -91,91 25,25 91,-91 -25,-25 z"
                                   inkscape:connector-curvature="0"
                                   id="path176"
                                   style="fill:#747474;fill-opacity:1;fill-rule:nonzero;stroke:none" /></g><g
                                   id="g178" /><g
                                   id="g180"><path
                                   d="m 398,320 -91,91 25,25 91,-91 -25,-25 z"
                                   inkscape:connector-curvature="0"
                                   id="path182"
                                   style="fill:#767676;fill-opacity:1;fill-rule:nonzero;stroke:none" /></g><g
                                   id="g184" /><g
                                   id="g186"><path
                                   d="m 399,321 -91,91 23,23 91,-91 -23,-23 z"
                                   inkscape:connector-curvature="0"
                                   id="path188"
                                   style="fill:#797979;fill-opacity:1;fill-rule:nonzero;stroke:none" /></g><g
                                   id="g190" /><g
                                   id="g192"><path
                                   d="m 400,321 -92,92 22,22 92,-92 -22,-22 z"
                                   inkscape:connector-curvature="0"
                                   id="path194"
                                   style="fill:#7b7b7b;fill-opacity:1;fill-rule:nonzero;stroke:none" /></g><g
                                   id="g196" /><g
                                   id="g198"><path
                                   d="m 400,322 -91,91 21,21 91,-91 -21,-21 z"
                                   inkscape:connector-curvature="0"
                                   id="path200"
                                   style="fill:#7d7d7d;fill-opacity:1;fill-rule:nonzero;stroke:none" /></g><g
                                   id="g202" /><g
                                   id="g204"><path
                                   d="m 401,323 -91,91 19,19 91,-91 -19,-19 z"
                                   inkscape:connector-curvature="0"
                                   id="path206"
                                   style="fill:#7f7f7f;fill-opacity:1;fill-rule:nonzero;stroke:none" /></g><g
                                   id="g208" /><g
                                   id="g210"><path
                                   d="m 402,324 -91,91 17,17 91,-91 -17,-17 z"
                                   inkscape:connector-curvature="0"
                                   id="path212"
                                   style="fill:#808080;fill-opacity:1;fill-rule:nonzero;stroke:none" /></g><g
                                   id="g214" /><g
                                   id="g216"><path
                                   d="m 403,325 -91,91 15,15 91,-91 -15,-15 z"
                                   inkscape:connector-curvature="0"
                                   id="path218"
                                   style="fill:#828282;fill-opacity:1;fill-rule:nonzero;stroke:none" /></g><g
                                   id="g220" /><g
                                   id="g222"><path
                                   d="m 404,326 -91,91 13,13 91,-91 -13,-13 z"
                                   inkscape:connector-curvature="0"
                                   id="path224"
                                   style="fill:#838383;fill-opacity:1;fill-rule:nonzero;stroke:none" /></g><g
                                   id="g226" /><g
                                   id="g228"><path
                                   d="m 405,327 -91,91 11,11 91,-91 -11,-11 z"
                                   inkscape:connector-curvature="0"
                                   id="path230"
                                   style="fill:#848484;fill-opacity:1;fill-rule:nonzero;stroke:none" /></g><g
                                   id="g232" /><g
                                   id="g234"><path
                                   d="m 406,328 -91,91 9,9 91,-91 -9,-9 z"
                                   inkscape:connector-curvature="0"
                                   id="path236"
                                   style="fill:#858585;fill-opacity:1;fill-rule:nonzero;stroke:none" /></g><g
                                   id="g238" /><g
                                   id="g240"><path
                                   d="m 407,329 -91,91 7,7 91,-91 -7,-7 z"
                                   inkscape:connector-curvature="0"
                                   id="path242"
                                   style="fill:#868686;fill-opacity:1;fill-rule:nonzero;stroke:none" /></g><g
                                   id="g244" /><g
                                   id="g246"><path
                                   d="m 408,330 -91,91 5,5 91,-91 -5,-5 z"
                                   inkscape:connector-curvature="0"
                                   id="path248"
                                   style="fill:#868686;fill-opacity:1;fill-rule:nonzero;stroke:none" /></g><g
                                   id="g250" /><g
                                   id="g252"><path
                                   d="m 409,331 -91,91 3,3 91,-91 -3,-3 z"
                                   inkscape:connector-curvature="0"
                                   id="path254"
                                   style="fill:#868686;fill-opacity:1;fill-rule:nonzero;stroke:none" /></g><g
                                   id="g256" /><g
                                   id="g258"><path
                                   d="m 410,332 -91,91 1,1 91,-91 -1,-1 z"
                                   inkscape:connector-curvature="0"
                                   id="path260"
                                   style="fill:#878787;fill-opacity:1;fill-rule:nonzero;stroke:none" /></g><g
                                   id="g262" /><g
                                   id="g264"><path
                                   d="m 304,408 61,0 0,304 -61,0 0,-304 z"
                                   inkscape:connector-curvature="0"
                                   id="path266"
                                   style="fill:#5f5f5f;fill-opacity:1;fill-rule:nonzero;stroke:none" /><path
                                   d="m 304,408 61,0 0,304 -61,0 0,-304 z"
                                   inkscape:connector-curvature="0"
                                   id="path268"
                                   style="fill:#616161;fill-opacity:1;fill-rule:nonzero;stroke:none" /><path
                                   d="m 304,408 61,0 0,304 -61,0 0,-304 z"
                                   inkscape:connector-curvature="0"
                                   id="path270"
                                   style="fill:#646464;fill-opacity:1;fill-rule:nonzero;stroke:none" /><path
                                   d="m 305,408 59,0 0,304 -59,0 0,-304 z"
                                   inkscape:connector-curvature="0"
                                   id="path272"
                                   style="fill:#676767;fill-opacity:1;fill-rule:nonzero;stroke:none" /><path
                                   d="m 305,408 59,0 0,304 -59,0 0,-304 z"
                                   inkscape:connector-curvature="0"
                                   id="path274"
                                   style="fill:#6a6a6a;fill-opacity:1;fill-rule:nonzero;stroke:none" /><path
                                   d="m 306,408 57,0 0,304 -57,0 0,-304 z"
                                   inkscape:connector-curvature="0"
                                   id="path276"
                                   style="fill:#6c6c6c;fill-opacity:1;fill-rule:nonzero;stroke:none" /><path
                                   d="m 307,408 55,0 0,304 -55,0 0,-304 z"
                                   inkscape:connector-curvature="0"
                                   id="path278"
                                   style="fill:#6f6f6f;fill-opacity:1;fill-rule:nonzero;stroke:none" /><path
                                   d="m 308,408 53,0 0,304 -53,0 0,-304 z"
                                   inkscape:connector-curvature="0"
                                   id="path280"
                                   style="fill:#727272;fill-opacity:1;fill-rule:nonzero;stroke:none" /><path
                                   d="m 309,408 51,0 0,304 -51,0 0,-304 z"
                                   inkscape:connector-curvature="0"
                                   id="path282"
                                   style="fill:#747474;fill-opacity:1;fill-rule:nonzero;stroke:none" /><path
                                   d="m 310,408 49,0 0,304 -49,0 0,-304 z"
                                   inkscape:connector-curvature="0"
                                   id="path284"
                                   style="fill:#767676;fill-opacity:1;fill-rule:nonzero;stroke:none" /><path
                                   d="m 311,408 47,0 0,304 -47,0 0,-304 z"
                                   inkscape:connector-curvature="0"
                                   id="path286"
                                   style="fill:#797979;fill-opacity:1;fill-rule:nonzero;stroke:none" /><path
                                   d="m 313,408 43,0 0,304 -43,0 0,-304 z"
                                   inkscape:connector-curvature="0"
                                   id="path288"
                                   style="fill:#7b7b7b;fill-opacity:1;fill-rule:nonzero;stroke:none" /><path
                                   d="m 314,408 41,0 0,304 -41,0 0,-304 z"
                                   inkscape:connector-curvature="0"
                                   id="path290"
                                   style="fill:#7d7d7d;fill-opacity:1;fill-rule:nonzero;stroke:none" /><path
                                   d="m 316,408 37,0 0,304 -37,0 0,-304 z"
                                   inkscape:connector-curvature="0"
                                   id="path292"
                                   style="fill:#7f7f7f;fill-opacity:1;fill-rule:nonzero;stroke:none" /><path
                                   d="m 318,408 34,0 0,304 -34,0 0,-304 z"
                                   inkscape:connector-curvature="0"
                                   id="path294"
                                   style="fill:#808080;fill-opacity:1;fill-rule:nonzero;stroke:none" /><path
                                   d="m 319,408 31,0 0,304 -31,0 0,-304 z"
                                   inkscape:connector-curvature="0"
                                   id="path296"
                                   style="fill:#828282;fill-opacity:1;fill-rule:nonzero;stroke:none" /><path
                                   d="m 321,408 27,0 0,304 -27,0 0,-304 z"
                                   inkscape:connector-curvature="0"
                                   id="path298"
                                   style="fill:#838383;fill-opacity:1;fill-rule:nonzero;stroke:none" /><path
                                   d="m 323,408 23,0 0,304 -23,0 0,-304 z"
                                   inkscape:connector-curvature="0"
                                   id="path300"
                                   style="fill:#848484;fill-opacity:1;fill-rule:nonzero;stroke:none" /><path
                                   d="m 325,408 0,304 19,0 0,-304 -19,0 z"
                                   inkscape:connector-curvature="0"
                                   id="path302"
                                   style="fill:#858585;fill-opacity:1;fill-rule:nonzero;stroke:none" /><path
                                   d="m 327,408 0,304 15,0 0,-304 -15,0 z"
                                   inkscape:connector-curvature="0"
                                   id="path304"
                                   style="fill:#868686;fill-opacity:1;fill-rule:nonzero;stroke:none" /><path
                                   d="m 329,408 0,304 11,0 0,-304 -11,0 z"
                                   inkscape:connector-curvature="0"
                                   id="path306"
                                   style="fill:#868686;fill-opacity:1;fill-rule:nonzero;stroke:none" /><path
                                   d="m 331,408 0,304 6,0 0,-304 -6,0 z"
                                   inkscape:connector-curvature="0"
                                   id="path308"
                                   style="fill:#868686;fill-opacity:1;fill-rule:nonzero;stroke:none" /><path
                                   d="m 334,408 0,304 2,0 0,-304 -2,0 z"
                                   inkscape:connector-curvature="0"
                                   id="path310"
                                   style="fill:#878787;fill-opacity:1;fill-rule:nonzero;stroke:none" /></g><g
                                   id="g312" /><g
                                   id="g314"><path
                                   d="m 426,530 67,0 0,-243 -256,0 0,243 67,0 0,-122 61,-60 61,0 0,182 z"
                                   inkscape:connector-curvature="0"
                                   id="path316"
                                   style="fill:#ffffff;fill-opacity:1;fill-rule:evenodd;stroke:none" /></g><g
                                   id="g318" /><g
                                   id="g320"><path
                                   d="m 426,530 67,0 0,243 -256,0 0,-243 67,0 0,182 61,0 61,-60 0,-122 z"
                                   inkscape:connector-curvature="0"
                                   id="path322"
                                   style="fill:#ffffff;fill-opacity:1;fill-rule:evenodd;stroke:none" /></g><g
                                   id="g324" /><g
                                   id="g326"><path
                                   d="m 304,408 61,0 0,304 -61,0 0,-304 61,0"
                                   inkscape:connector-curvature="0"
                                   id="path328"
                                   style="fill:none;stroke:#000000;stroke-width:1;stroke-linecap:butt;stroke-linejoin:bevel;stroke-miterlimit:10;stroke-opacity:1;stroke-dasharray:none" /><path
                                   d="m 304,408 61,-60 61,0 -61,60 -61,0 61,-60"
                                   inkscape:connector-curvature="0"
                                   id="path330"
                                   style="fill:none;stroke:#000000;stroke-width:1;stroke-linecap:butt;stroke-linejoin:bevel;stroke-miterlimit:10;stroke-opacity:1;stroke-dasharray:none" /><path
                                   d="m 426,348 -61,60 0,304 61,-60 0,-304 z"
                                   inkscape:connector-curvature="0"
                                   id="path332"
                                   style="fill:#5f5f5f;fill-opacity:1;fill-rule:evenodd;stroke:#000000;stroke-width:1;stroke-linecap:butt;stroke-linejoin:bevel;stroke-miterlimit:10;stroke-opacity:1;stroke-dasharray:none" /></g><g
                                   id="g334" /><g
                                   id="g336"><path
                                   d="m 414,384 -37,37 0,12 31,-31 0,19 -31,30 0,43 37,-37 0,-12 -31,30 0,-18 31,-30 0,-43 z"
                                   inkscape:connector-curvature="0"
                                   id="path338"
                                   style="fill:#000000;fill-opacity:1;fill-rule:evenodd;stroke:none" /></g><g
                                   id="g340" /><g
                                   id="g342"><path
                                   d="m 414,445 -37,36 0,13 31,-31 0,18 -31,31 0,42 37,-36 0,-12 -31,30 0,-18 31,-31 0,-42 z"
                                   inkscape:connector-curvature="0"
                                   id="path344"
                                   style="fill:#000000;fill-opacity:1;fill-rule:evenodd;stroke:none" /></g><g
                                   id="g346" /><g
                                   id="g348"><path
                                   d="m 414,506 -37,36 0,12 31,-30 0,18 -31,31 0,42 37,-36 0,-13 -31,31 0,-18 31,-31 0,-42 z"
                                   inkscape:connector-curvature="0"
                                   id="path350"
                                   style="fill:#000000;fill-opacity:1;fill-rule:evenodd;stroke:none" /></g><g
                                   id="g352" /><g
                                   id="g354"><path
                                   d="m 414,566 -37,37 0,12 31,-30 0,18 -31,30 0,43 37,-37 0,-12 -31,31 0,-19 31,-30 0,-43 z"
                                   inkscape:connector-curvature="0"
                                   id="path356"
                                   style="fill:#000000;fill-opacity:1;fill-rule:evenodd;stroke:none" /></g><g
                                   id="g358" /><g
                                   id="g360"><path
                                   d="m 395,530 274,0"
                                   inkscape:connector-curvature="0"
                                   id="path362"
                                   style="fill:none;stroke:#f00000;stroke-width:2;stroke-linecap:butt;stroke-linejoin:bevel;stroke-miterlimit:10;stroke-opacity:1;stroke-dasharray:none" /><path
                                   d="M 304,530 61,530"
                                   inkscape:connector-curvature="0"
                                   id="path364"
                                   style="fill:none;stroke:#7f7f7f;stroke-width:2;stroke-linecap:butt;stroke-linejoin:bevel;stroke-miterlimit:10;stroke-opacity:1;stroke-dasharray:none" /><path
                                   d="m 365,712 0,122"
                                   inkscape:connector-curvature="0"
                                   id="path366"
                                   style="fill:none;stroke:#f00000;stroke-width:2;stroke-linecap:butt;stroke-linejoin:bevel;stroke-miterlimit:10;stroke-opacity:1;stroke-dasharray:none" /><path
                                   d="m 377,378 0,1 -1,1 0,1 -1,0 0,1 -1,0 -1,0 0,1 -1,0 -1,0 -1,0 0,1 -1,0 -1,0 -1,0 -1,0 -1,0 -1,0 -1,0 -1,0 -1,0 -1,0 0,-1 -1,0 -1,0 -1,0 0,-1 -1,0 -1,0 0,-1 -1,0 0,-1 -1,-1 0,-1 0,-1 1,-1 0,-1 1,0 0,-1 1,0 1,0 0,-1 1,0 1,0 1,0 0,-1 1,0 1,0 1,0 1,0 1,0 1,0 1,0 1,0 1,0 1,0 0,1 1,0 1,0 1,0 0,1 1,0 1,0 0,1 1,0 0,1 1,1 0,1 z"
                                   inkscape:connector-curvature="0"
                                   id="path368"
                                   style="fill:#878787;fill-opacity:1;fill-rule:evenodd;stroke:none" /><path
                                   d="m 377,378 0,1 -1,1 0,1 -1,0 0,1 -1,0 -1,0 0,1 -1,0 -1,0 -1,0 0,1 -1,0 -1,0 -1,0 -1,0 -1,0 -1,0 -1,0 -1,0 -1,0 -1,0 0,-1 -1,0 -1,0 -1,0 0,-1 -1,0 -1,0 0,-1 -1,0 0,-1 -1,-1 0,-1 0,-1 1,-1 0,-1 1,0 0,-1 1,0 1,0 0,-1 1,0 1,0 1,0 0,-1 1,0 1,0 1,0 1,0 1,0 1,0 1,0 1,0 1,0 1,0 0,1 1,0 1,0 1,0 0,1 1,0 1,0 0,1 1,0 0,1 1,1 0,1 z"
                                   inkscape:connector-curvature="0"
                                   id="path370"
                                   style="fill:#927777;fill-opacity:1;fill-rule:evenodd;stroke:none" /><path
                                   d="m 377,378 0,1 -1,1 0,1 -1,0 0,1 -1,0 -1,0 0,1 -1,0 -1,0 -1,0 0,1 -1,0 -1,0 -1,0 -1,0 -1,0 -1,0 -1,0 -1,0 -1,0 -1,0 0,-1 -1,0 -1,0 -1,0 0,-1 -1,0 -1,0 0,-1 -1,0 0,-1 -1,-1 0,-1 0,-1 1,-1 0,-1 1,0 0,-1 1,0 1,0 0,-1 1,0 1,0 1,0 0,-1 1,0 1,0 1,0 1,0 1,0 1,0 1,0 1,0 1,0 1,0 0,1 1,0 1,0 1,0 0,1 1,0 1,0 0,1 1,0 0,1 1,1 0,1 z"
                                   inkscape:connector-curvature="0"
                                   id="path372"
                                   style="fill:#9e6868;fill-opacity:1;fill-rule:evenodd;stroke:none" /><path
                                   d="m 377,378 0,1 0,1 -1,0 0,1 -1,0 -1,1 -1,0 0,1 -1,0 -1,0 -1,0 -1,1 -1,0 -1,0 -1,0 -1,0 -1,0 -1,0 -1,0 -1,0 -1,-1 -1,0 -1,0 -1,0 0,-1 -1,0 -1,-1 -1,0 0,-1 -1,0 0,-1 0,-1 0,-1 0,-1 1,0 0,-1 1,0 1,-1 1,0 0,-1 1,0 1,0 1,0 1,-1 1,0 1,0 1,0 1,0 1,0 1,0 1,0 1,0 1,1 1,0 1,0 1,0 0,1 1,0 1,1 1,0 0,1 1,0 0,1 0,1 z"
                                   inkscape:connector-curvature="0"
                                   id="path374"
                                   style="fill:#a95a5a;fill-opacity:1;fill-rule:evenodd;stroke:none" /><path
                                   d="m 376,378 0,1 0,1 -1,0 0,1 -1,0 -1,1 -1,1 -1,0 -1,0 -1,1 -1,0 -1,0 -1,0 -1,0 -1,0 -1,0 -1,0 -1,0 -1,-1 -1,0 -1,0 -1,-1 -1,-1 -1,0 0,-1 -1,0 0,-1 0,-1 0,-1 0,-1 1,0 0,-1 1,0 1,-1 1,-1 1,0 1,0 1,-1 1,0 1,0 1,0 1,0 1,0 1,0 1,0 1,0 1,1 1,0 1,0 1,1 1,1 1,0 0,1 1,0 0,1 0,1 z"
                                   inkscape:connector-curvature="0"
                                   id="path376"
                                   style="fill:#b44c4c;fill-opacity:1;fill-rule:evenodd;stroke:none" /><path
                                   d="m 375,378 0,1 -1,1 0,1 -1,0 -1,1 -1,0 -1,0 -1,1 -1,0 -1,0 -1,0 -1,0 -1,0 -1,0 -1,0 -1,0 -1,-1 -1,0 -1,0 -1,-1 -1,0 0,-1 -1,-1 0,-1 0,-1 1,-1 1,-1 1,-1 1,0 1,0 1,-1 1,0 1,0 1,0 1,0 1,0 1,0 1,0 1,0 1,1 1,0 1,0 1,1 1,1 1,1 0,1 z"
                                   inkscape:connector-curvature="0"
                                   id="path378"
                                   style="fill:#be3f3f;fill-opacity:1;fill-rule:evenodd;stroke:none" /><path
                                   d="m 375,378 0,1 -1,1 0,1 -1,0 -1,1 -1,0 -1,0 -1,1 -1,0 -1,0 -1,0 -1,0 -1,0 -1,0 -1,0 -1,0 -1,-1 -1,0 -1,0 -1,-1 -1,0 0,-1 -1,-1 0,-1 0,-1 1,-1 1,-1 1,-1 1,0 1,0 1,-1 1,0 1,0 1,0 1,0 1,0 1,0 1,0 1,0 1,1 1,0 1,0 1,1 1,1 1,1 0,1 z"
                                   inkscape:connector-curvature="0"
                                   id="path380"
                                   style="fill:#c83232;fill-opacity:1;fill-rule:evenodd;stroke:none" /><path
                                   d="m 374,378 0,1 -1,1 -1,0 0,1 -1,0 -1,0 -1,1 -1,0 -1,0 -1,0 -1,0 -1,0 -1,0 -1,0 -1,0 -1,-1 -1,0 -1,0 0,-1 -1,0 -1,-1 0,-1 0,-1 1,-1 1,0 0,-1 1,0 1,0 1,-1 1,0 1,0 1,0 1,0 1,0 1,0 1,0 1,0 1,1 1,0 1,0 0,1 1,0 1,1 0,1 z"
                                   inkscape:connector-curvature="0"
                                   id="path382"
                                   style="fill:#d12727;fill-opacity:1;fill-rule:evenodd;stroke:none" /><path
                                   d="m 373,378 0,1 -1,1 -1,1 -1,0 -1,0 0,1 -1,0 -1,0 -1,0 -1,0 -1,0 -1,0 -1,0 -1,0 0,-1 -1,0 -1,0 -1,-1 -1,-1 0,-1 0,-1 1,-1 1,-1 1,0 1,0 0,-1 1,0 1,0 1,0 1,0 1,0 1,0 1,0 1,0 0,1 1,0 1,0 1,1 1,1 0,1 z"
                                   inkscape:connector-curvature="0"
                                   id="path384"
                                   style="fill:#d91d1d;fill-opacity:1;fill-rule:evenodd;stroke:none" /><path
                                   d="m 372,378 0,1 -1,0 0,1 -1,0 -1,0 0,1 -1,0 -1,0 -1,0 -1,0 -1,0 -1,0 -1,0 -1,0 0,-1 -1,0 -1,0 0,-1 -1,0 0,-1 0,-1 1,0 0,-1 1,0 1,0 0,-1 1,0 1,0 1,0 1,0 1,0 1,0 1,0 1,0 0,1 1,0 1,0 0,1 1,0 0,1 z"
                                   inkscape:connector-curvature="0"
                                   id="path386"
                                   style="fill:#df1414;fill-opacity:1;fill-rule:evenodd;stroke:none" /><path
                                   d="m 371,378 0,1 -1,0 0,1 -1,0 -1,1 -1,0 -1,0 -1,0 -1,0 -1,0 -1,0 -1,-1 -1,0 0,-1 -1,0 0,-1 0,-1 1,0 0,-1 1,0 1,-1 1,0 1,0 1,0 1,0 1,0 1,0 1,1 1,0 0,1 1,0 0,1 z"
                                   inkscape:connector-curvature="0"
                                   id="path388"
                                   style="fill:#e50d0d;fill-opacity:1;fill-rule:evenodd;stroke:none" /><path
                                   d="m 370,378 0,1 -1,0 -1,1 -1,0 -1,0 -1,0 -1,0 -1,0 -1,0 -1,-1 -1,0 0,-1 0,-1 1,0 1,-1 1,0 1,0 1,0 1,0 1,0 1,0 1,1 1,0 0,1 z"
                                   inkscape:connector-curvature="0"
                                   id="path390"
                                   style="fill:#ea0707;fill-opacity:1;fill-rule:evenodd;stroke:none" /><path
                                   d="m 368,378 0,1 -1,0 0,1 -1,0 -1,0 -1,0 -1,0 0,-1 -1,0 0,-1 0,-1 1,0 0,-1 1,0 1,0 1,0 1,0 0,1 1,0 0,1 z"
                                   inkscape:connector-curvature="0"
                                   id="path392"
                                   style="fill:#ed0303;fill-opacity:1;fill-rule:evenodd;stroke:none" /><path
                                   d="m 367,378 0,1 -1,0 -1,0 -1,0 -1,0 0,-1 0,-1 1,0 1,0 1,0 1,0 0,1 z"
                                   inkscape:connector-curvature="0"
                                   id="path394"
                                   style="fill:#ef0000;fill-opacity:1;fill-rule:evenodd;stroke:none" /><path
                                   d="m 364,378 0,1 1,0 0,-1 -1,0 z"
                                   inkscape:connector-curvature="0"
                                   id="path396"
                                   style="fill:#f00000;fill-opacity:1;fill-rule:nonzero;stroke:none" /><path
                                   d="m 365,226 0,152"
                                   inkscape:connector-curvature="0"
                                   id="path398"
                                   style="fill:none;stroke:#f00000;stroke-width:2;stroke-linecap:butt;stroke-linejoin:bevel;stroke-miterlimit:10;stroke-opacity:1;stroke-dasharray:none" /><path
                                   d="m 91,530 0,2 0,1 0,2 -1,1 0,2 0,1 -1,2 -1,1 0,2 -1,1 -1,1 -1,2 -1,1 -1,1 -1,1 -1,1 -1,1 -1,1 -2,1 -1,1 -1,1 -2,0 -1,1 -2,1 -1,0 -2,0 -1,1 -2,0 -1,0 -2,0 -2,0 -1,0 -2,0 -1,-1 -2,0 -1,0 -2,-1 -1,-1 -2,0 -1,-1 -1,-1 -2,-1 -1,-1 -1,-1 -1,-1 -1,-1 -1,-1 -1,-1 -1,-2 -1,-1 -1,-1 0,-2 -1,-1 -1,-2 0,-1 0,-2 -1,-1 0,-2 0,-1 0,-2 0,-2 0,-1 0,-2 1,-1 0,-2 0,-1 1,-2 1,-1 0,-2 1,-1 1,-1 1,-2 1,-1 1,-1 1,-1 1,-1 1,-1 1,-1 2,-1 1,-1 1,-1 2,0 1,-1 2,-1 1,0 2,0 1,-1 2,0 1,0 2,0 2,0 1,0 2,0 1,1 2,0 1,0 2,1 1,1 2,0 1,1 1,1 2,1 1,1 1,1 1,1 1,1 1,1 1,1 1,2 1,1 1,1 0,2 1,1 1,2 0,1 0,2 1,1 0,2 0,1 0,2 z"
                                   inkscape:connector-curvature="0"
                                   id="path400"
                                   style="fill:#bfbfbf;fill-opacity:1;fill-rule:evenodd;stroke:#7f7f7f;stroke-width:2;stroke-linecap:butt;stroke-linejoin:bevel;stroke-miterlimit:10;stroke-opacity:1;stroke-dasharray:none" /><path
                                   d="m 699,530 0,2 0,1 0,2 -1,1 0,2 0,1 -1,2 -1,1 0,2 -1,1 -1,1 -1,2 -1,1 -1,1 -1,1 -1,1 -1,1 -1,1 -2,1 -1,1 -1,1 -2,0 -1,1 -2,1 -1,0 -2,0 -1,1 -2,0 -1,0 -2,0 -2,0 -1,0 -2,0 -1,-1 -2,0 -1,0 -2,-1 -1,-1 -2,0 -1,-1 -1,-1 -2,-1 -1,-1 -1,-1 -1,-1 -1,-1 -1,-1 -1,-1 -1,-2 -1,-1 -1,-1 0,-2 -1,-1 -1,-2 0,-1 0,-2 -1,-1 0,-2 0,-1 0,-2 0,-2 0,-1 0,-2 1,-1 0,-2 0,-1 1,-2 1,-1 0,-2 1,-1 1,-1 1,-2 1,-1 1,-1 1,-1 1,-1 1,-1 1,-1 2,-1 1,-1 1,-1 2,0 1,-1 2,-1 1,0 2,0 1,-1 2,0 1,0 2,0 2,0 1,0 2,0 1,1 2,0 1,0 2,1 1,1 2,0 1,1 1,1 2,1 1,1 1,1 1,1 1,1 1,1 1,1 1,2 1,1 1,1 0,2 1,1 1,2 0,1 0,2 1,1 0,2 0,1 0,2 z"
                                   inkscape:connector-curvature="0"
                                   id="path402"
                                   style="fill:#bfbfbf;fill-opacity:1;fill-rule:evenodd;stroke:#7f7f7f;stroke-width:2;stroke-linecap:butt;stroke-linejoin:bevel;stroke-miterlimit:10;stroke-opacity:1;stroke-dasharray:none" /><path
                                   d="m 395,834 0,2 0,1 0,2 -1,1 0,2 0,1 -1,2 -1,1 0,2 -1,1 -1,1 -1,2 -1,1 -1,1 -1,1 -1,1 -1,1 -1,1 -2,1 -1,1 -1,1 -2,0 -1,1 -2,1 -1,0 -2,0 -1,1 -2,0 -1,0 -2,0 -2,0 -1,0 -2,0 -1,-1 -2,0 -1,0 -2,-1 -1,-1 -2,0 -1,-1 -1,-1 -2,-1 -1,-1 -1,-1 -1,-1 -1,-1 -1,-1 -1,-1 -1,-2 -1,-1 -1,-1 0,-2 -1,-1 -1,-2 0,-1 0,-2 -1,-1 0,-2 0,-1 0,-2 0,-2 0,-1 0,-2 1,-1 0,-2 0,-1 1,-2 1,-1 0,-2 1,-1 1,-1 1,-2 1,-1 1,-1 1,-1 1,-1 1,-1 1,-1 2,-1 1,-1 1,-1 2,0 1,-1 2,-1 1,0 2,0 1,-1 2,0 1,0 2,0 2,0 1,0 2,0 1,1 2,0 1,0 2,1 1,1 2,0 1,1 1,1 2,1 1,1 1,1 1,1 1,1 1,1 1,1 1,2 1,1 1,1 0,2 1,1 1,2 0,1 0,2 1,1 0,2 0,1 0,2 z"
                                   inkscape:connector-curvature="0"
                                   id="path404"
                                   style="fill:#bfbfbf;fill-opacity:1;fill-rule:evenodd;stroke:#7f7f7f;stroke-width:2;stroke-linecap:butt;stroke-linejoin:bevel;stroke-miterlimit:10;stroke-opacity:1;stroke-dasharray:none" /><path
                                   d="m 395,226 0,2 0,1 0,2 -1,1 0,2 0,1 -1,2 -1,1 0,2 -1,1 -1,1 -1,2 -1,1 -1,1 -1,1 -1,1 -1,1 -1,1 -2,1 -1,1 -1,1 -2,0 -1,1 -2,1 -1,0 -2,0 -1,1 -2,0 -1,0 -2,0 -2,0 -1,0 -2,0 -1,-1 -2,0 -1,0 -2,-1 -1,-1 -2,0 -1,-1 -1,-1 -2,-1 -1,-1 -1,-1 -1,-1 -1,-1 -1,-1 -1,-1 -1,-2 -1,-1 -1,-1 0,-2 -1,-1 -1,-2 0,-1 0,-2 -1,-1 0,-2 0,-1 0,-2 0,-2 0,-1 0,-2 1,-1 0,-2 0,-1 1,-2 1,-1 0,-2 1,-1 1,-1 1,-2 1,-1 1,-1 1,-1 1,-1 1,-1 1,-1 2,-1 1,-1 1,-1 2,0 1,-1 2,-1 1,0 2,0 1,-1 2,0 1,0 2,0 2,0 1,0 2,0 1,1 2,0 1,0 2,1 1,1 2,0 1,1 1,1 2,1 1,1 1,1 1,1 1,1 1,1 1,1 1,2 1,1 1,1 0,2 1,1 1,2 0,1 0,2 1,1 0,2 0,1 0,2 z"
                                   inkscape:connector-curvature="0"
                                   id="path406"
                                   style="fill:#bfbfbf;fill-opacity:1;fill-rule:evenodd;stroke:#7f7f7f;stroke-width:2;stroke-linecap:butt;stroke-linejoin:bevel;stroke-miterlimit:10;stroke-opacity:1;stroke-dasharray:none" /></g></g></g></g></g></g></g></g></g></g></g></g></g></g></g></g></g></g></g></g></g></g></g></g></g></g></g></g></g></g></g></svg>