<?xml version="1.0" encoding="UTF-8" standalone="no"?>
<!-- Created with Inkscape (http://www.inkscape.org/) -->

<svg
   xmlns:dc="http://purl.org/dc/elements/1.1/"
   xmlns:cc="http://creativecommons.org/ns#"
   xmlns:rdf="http://www.w3.org/1999/02/22-rdf-syntax-ns#"
   xmlns:svg="http://www.w3.org/2000/svg"
   xmlns="http://www.w3.org/2000/svg"
   xmlns:inkscape="http://www.inkscape.org/namespaces/inkscape"
   version="1.1"
   width="355"
   height="342.5"
   id="svg2"
   xml:space="preserve"><metadata
     id="metadata8"><rdf:RDF><cc:Work
         rdf:about=""><dc:format>image/svg+xml</dc:format><dc:type
           rdf:resource="http://purl.org/dc/dcmitype/StillImage" /></cc:Work></rdf:RDF></metadata><defs
     id="defs6"><clipPath
       id="clipPath18"><path
         d="M 0,0 284,0 284,274 0,274 0,0 z"
         inkscape:connector-curvature="0"
         id="path20" /></clipPath><clipPath
       id="clipPath28"><path
         d="M 0,0 284,0 284,274 0,274 0,0 z"
         inkscape:connector-curvature="0"
         id="path30" /></clipPath><clipPath
       id="clipPath38"><path
         d="M 0,0 284,0 284,274 0,274 0,0 z"
         inkscape:connector-curvature="0"
         id="path40" /></clipPath><clipPath
       id="clipPath48"><path
         d="M 0,0 284,0 284,274 0,274 0,0 z"
         inkscape:connector-curvature="0"
         id="path50" /></clipPath><clipPath
       id="clipPath58"><path
         d="M 0,0 284,0 284,274 0,274 0,0 z"
         inkscape:connector-curvature="0"
         id="path60" /></clipPath><clipPath
       id="clipPath68"><path
         d="M 0,0 612,0 612,792 0,792 0,0 z"
         inkscape:connector-curvature="0"
         id="path70" /></clipPath></defs><g
     transform="matrix(1.25,0,0,-1.25,0,342.5)"
     id="g10"><g
       id="g12"><g
         id="g14"><g
           clip-path="url(#clipPath18)"
           id="g16"><g
             id="g22"><g
               id="g24"><g
                 clip-path="url(#clipPath28)"
                 id="g26"><g
                   id="g32"><g
                     id="g34"><g
                       clip-path="url(#clipPath38)"
                       id="g36"><g
                         id="g42"><g
                           id="g44"><g
                             clip-path="url(#clipPath48)"
                             id="g46"><g
                               id="g52"><g
                                 id="g54"><g
                                   clip-path="url(#clipPath58)"
                                   id="g56"><g
                                   transform="translate(-163,-235)"
                                   id="g62"><g
                                   id="g64"><g
                                   clip-path="url(#clipPath68)"
                                   id="g66"><g
                                   transform="scale(0.12,0.12)"
                                   id="g72"><path
                                   d="m 2788,3062 0,-31 -7,-12 0,-19 -6,-13 -6,-12 0,-6 -6,-13 -7,-6 -6,-13 -6,-6 -6,-12 -7,-7 -6,-12 -6,-6 -6,-7 -13,-6 -6,-6 -13,-6 -6,-7 -12,-6 -7,-6 -12,-6 -6,0 -13,-7 -12,-6 -19,0 -13,-6 -62,0 -13,6 -18,0 -13,6 -12,7 -7,0 -12,6 -6,6 -13,6 -6,7 -13,6 -6,6 -12,6 -7,7 -6,6 -6,12 -6,7 -7,12 -6,6 -6,13 -6,6 -7,13 0,6 -6,12 -6,13 0,19 -6,12 0,63 6,12 0,19 6,12 6,13 0,6 7,13 6,6 6,12 6,7 7,12 6,6 6,13 6,6 7,6 12,7 6,6 13,6 6,6 13,7 6,6 12,6 7,0 12,6 13,7 18,0 13,6 62,0 13,-6 19,0 12,-7 13,-6 6,0 12,-6 7,-6 12,-7 6,-6 13,-6 6,-6 13,-7 6,-6 6,-6 6,-13 7,-6 6,-12 6,-7 6,-12 7,-6 6,-13 0,-6 6,-13 6,-12 0,-19 7,-12 0,-32"
                                   inkscape:connector-curvature="0"
                                   id="path74"
                                   style="fill:#e1e1e1;fill-opacity:1;fill-rule:evenodd;stroke:none" /><path
                                   d="m 2791,3062 0,-25 -7,0 0,25 7,0 z m -3,-38 -4,-7 -3,2 3,0 0,-18 -6,0 0,19 4,7 6,-3 z m -9,-35 -1,-3 -6,-12 -3,1 3,0 0,-8 -1,-1 -6,3 1,1 3,-1 -3,0 0,7 6,13 2,3 5,-3 z m -15,-35 -6,-6 -2,2 3,-1 -6,-13 -1,-1 -2,-2 -4,5 2,2 2,-3 -3,2 6,12 1,1 6,6 4,-4 z m -20,-30 -4,-7 0,0 -7,-7 -2,2 3,-1 -4,-7 -5,2 3,8 1,1 6,6 3,-2 -3,1 3,7 6,-3 z m -22,-31 -1,-1 -6,-7 -1,0 -13,-7 -1,3 2,-2 0,0 -4,4 0,0 1,1 12,6 2,-3 -3,3 7,6 1,1 4,-4 z m -30,-23 -9,-4 -2,3 2,-2 -6,-7 -1,0 -5,-3 -3,6 6,2 1,-3 -2,3 6,6 1,1 9,4 3,-6 z m -31,-19 -3,-3 0,-1 -13,-6 -7,0 0,3 1,-3 -1,0 -2,5 0,1 8,0 0,-3 -2,3 13,6 1,-3 -2,2 3,3 4,-4 z m -34,-16 -1,0 -12,-7 -12,0 0,6 11,0 0,-3 -2,3 13,6 0,1 3,-6 z m -35,-8 -9,-5 -17,0 0,6 15,0 0,-3 -1,3 9,4 3,-5 z m -38,-5 -25,0 0,6 25,0 0,-6 z m -39,1 -10,5 1,3 0,-3 -13,0 0,6 15,0 10,-5 -3,-6 z m -35,9 -6,3 -13,6 2,3 0,-3 -5,0 0,6 6,0 12,-7 6,-3 -2,-5 z m -35,14 -3,1 0,1 -7,6 3,2 -2,-3 -11,6 3,6 11,-6 1,-1 6,-6 -2,-2 1,3 3,-2 -3,-5 z m -30,21 -10,5 -1,1 -6,6 2,2 -1,-3 -4,2 2,6 4,-2 1,-1 6,-6 -2,-2 2,3 10,-5 -3,-6 z m -32,20 -4,5 -6,6 -1,1 -4,9 5,3 5,-10 -3,-1 2,2 6,-6 5,-4 -5,-5 z m -23,30 -7,13 3,1 -2,-2 -6,6 -1,1 -1,2 6,3 1,-2 -3,-2 2,3 6,-7 1,0 6,-13 -5,-3 z m -19,31 -6,6 0,1 -7,12 0,5 6,0 0,-3 -3,0 3,1 6,-12 -2,-2 2,2 5,-5 -4,-5 z m -17,34 -2,4 -6,13 0,7 6,0 0,-6 -3,0 3,1 6,-12 2,-4 -6,-3 z m -8,37 3,0 -3,-2 -6,13 -1,1 0,11 7,0 0,-11 -3,0 2,2 7,-13 0,-1 -6,0 z m -7,36 0,25 7,0 0,-25 -7,0 z m 0,37 0,2 1,1 6,13 3,-2 -3,0 0,10 6,0 0,-11 -7,-13 -2,2 3,0 0,-2 -7,0 z m 8,37 5,10 6,12 3,-1 -3,0 6,0 0,-1 -6,-13 -5,-9 -6,2 z m 14,35 4,6 0,1 7,6 2,-2 -3,1 4,8 5,-3 -3,-7 -1,-1 -6,-6 -2,2 2,-2 -3,-6 -6,3 z m 22,31 1,1 2,-2 -3,1 7,13 0,0 7,7 2,-3 -3,2 0,0 6,-2 0,-1 -1,-1 -6,-6 -2,2 2,-1 -6,-13 -1,0 -1,-2 -4,5 z m 19,31 0,0 1,1 6,6 6,7 1,0 6,3 3,-5 -6,-3 -1,2 2,-2 -7,-6 -6,-6 -2,2 3,-1 -1,-1 -5,3 z m 29,24 3,2 1,1 12,6 2,-3 -2,2 5,6 4,-5 -5,-5 -1,-1 -12,-6 -2,3 2,-2 -2,-3 -5,5 z m 32,20 3,2 2,-3 -3,2 7,6 0,1 12,6 3,-6 -12,-6 -1,3 2,-2 -6,-6 -1,-1 -3,-1 -3,5 z m 33,16 8,4 12,7 4,0 0,-6 -2,0 0,3 1,-3 -13,-6 -7,-4 -3,5 z m 36,11 4,0 0,-3 -1,3 12,6 9,0 0,-6 -7,0 0,3 1,-3 -12,-6 -6,0 0,6 z m 36,6 25,0 0,-6 -25,0 0,6 z m 38,0 7,0 12,-6 -1,-3 0,3 5,0 0,-6 -7,0 -12,6 1,3 0,-3 -5,0 0,6 z m 36,-6 2,0 12,-7 10,-4 -3,-6 -9,5 -13,6 2,3 0,-3 -1,0 0,6 z m 36,-14 10,-5 0,-1 7,-6 -2,-2 1,3 4,-3 -3,-5 -4,2 -1,1 -6,6 2,2 -1,-3 -10,5 3,6 z m 32,-21 3,-4 -2,-2 2,3 12,-6 1,-1 4,-4 -4,-4 -4,4 2,2 -2,-3 -12,6 -1,1 -4,4 5,4 z m 30,-20 4,-2 1,0 6,-7 6,-6 1,-1 1,-2 -6,-3 -1,3 3,1 -2,-2 -6,6 -7,6 3,2 -2,-2 -4,2 3,5 z m 24,-28 6,-6 0,0 7,-13 -3,-1 2,2 2,-2 -4,-5 -2,3 -1,0 -6,13 3,1 -3,-2 -5,5 4,5 z m 22,-31 3,-7 -3,-1 2,2 7,-6 0,-1 4,-8 -5,-3 -4,8 3,2 -3,-2 -6,6 -1,1 -3,6 6,3 z m 16,-33 6,-11 5,-11 -5,-3 -6,11 -5,11 5,3 z m 12,-36 0,-8 -3,0 3,2 6,-13 1,-1 0,-4 -7,0 0,4 4,0 -3,-2 -7,13 0,9 6,0 z m 7,-36 0,-16 -7,0 0,16 7,0"
                                   inkscape:connector-curvature="0"
                                   id="path76"
                                   style="fill:#7f7f7f;fill-opacity:1;fill-rule:nonzero;stroke:none" /><g
                                   transform="scale(8.33333,8.33333)"
                                   id="g78"><text
                                   transform="matrix(0.707107,0.707107,0.707107,-0.707107,290.52,370.2)"
                                   id="text80"><tspan
                                   x="0"
                                   y="0"
                                   id="tspan82"
                                   style="font-size:8.9996624px;font-variant:normal;font-weight:normal;writing-mode:lr-tb;fill:#000000;fill-opacity:1;fill-rule:nonzero;stroke:none;font-family:Helvetica;-inkscape-font-specification:Helvetica">H</tspan><tspan
                                   x="6.0245519"
                                   y="0.08485283"
                                   id="tspan84"
                                   style="font-size:8.9996624px;font-variant:normal;font-weight:normal;writing-mode:lr-tb;fill:#000000;fill-opacity:1;fill-rule:nonzero;stroke:none;font-family:Helvetica;-inkscape-font-specification:Helvetica">2</tspan><tspan
                                   x="12.049104"
                                   y="0"
                                   id="tspan86"
                                   style="font-size:8.9996624px;font-variant:normal;font-weight:normal;writing-mode:lr-tb;fill:#000000;fill-opacity:1;fill-rule:nonzero;stroke:none;font-family:Helvetica;-inkscape-font-specification:Helvetica">O</tspan></text>
<text
                                   transform="matrix(1,0,0,-1,219.72,432.6)"
                                   id="text88"><tspan
                                   x="0 5.2800059 13.560006 18.840012 24.000017 29.280024 31.560011 38.280022 43.560028 45.840038 48.000027 53.280033"
                                   y="0"
                                   id="tspan90"
                                   style="font-size:9px;font-variant:normal;font-weight:normal;writing-mode:lr-tb;fill:#000000;fill-opacity:1;fill-rule:nonzero;stroke:none;font-family:Helvetica;-inkscape-font-specification:Helvetica">amagatDalton</tspan></text>
</g><path
                                   d="m 2006,3534 138,0 0,7 -138,0 0,-7 z"
                                   inkscape:connector-curvature="0"
                                   id="path92"
                                   style="fill:#2f6bfb;fill-opacity:1;fill-rule:nonzero;stroke:none" /><path
                                   d="m 2075,3587 -50,-50 50,-50 50,50 -50,50"
                                   inkscape:connector-curvature="0"
                                   id="path94"
                                   style="fill:#ffffff;fill-opacity:1;fill-rule:evenodd;stroke:none" /><path
                                   d="m 2077,3585 -50,-50 -2,2 2,3 50,-50 -2,-3 -2,3 50,50 2,-3 -2,-2 -50,50 2,2 2,-2 z m 0,5 50,-50 0,-5 -50,-50 -4,0 -50,50 0,5 50,50 4,0"
                                   inkscape:connector-curvature="0"
                                   id="path96"
                                   style="fill:#2f6bfb;fill-opacity:1;fill-rule:nonzero;stroke:none" /><path
                                   d="m 2778,2975 0,-381 -15,0 0,15 731,0 0,-31 -731,0 -16,16 0,381 31,0"
                                   inkscape:connector-curvature="0"
                                   id="path98"
                                   style="fill:#ffffff;fill-opacity:1;fill-rule:nonzero;stroke:none" /><path
                                   d="m 2766,2975 0,-381 -3,0 0,3 731,0 0,-6 -731,0 -4,3 0,381 7,0"
                                   inkscape:connector-curvature="0"
                                   id="path100"
                                   style="fill:#dd172f;fill-opacity:1;fill-rule:nonzero;stroke:none" /><path
                                   d="m 1606,3522 375,0 0,31 -375,0 0,-31 z"
                                   inkscape:connector-curvature="0"
                                   id="path102"
                                   style="fill:#ffffff;fill-opacity:1;fill-rule:nonzero;stroke:none" /><path
                                   d="m 1606,3534 375,0 0,7 -375,0 0,-7 z"
                                   inkscape:connector-curvature="0"
                                   id="path104"
                                   style="fill:#2f6bfb;fill-opacity:1;fill-rule:nonzero;stroke:none" /><path
                                   d="m 2175,3553 163,0 15,-16 0,-381 -31,0 0,381 16,0 0,-15 -163,0 0,31"
                                   inkscape:connector-curvature="0"
                                   id="path106"
                                   style="fill:#ffffff;fill-opacity:1;fill-rule:nonzero;stroke:none" /><path
                                   d="m 2175,3541 163,0 3,-4 0,-381 -7,0 0,381 4,0 0,-3 -163,0 0,7"
                                   inkscape:connector-curvature="0"
                                   id="path108"
                                   style="fill:#2f6bfb;fill-opacity:1;fill-rule:nonzero;stroke:none" /><path
                                   d="m 1606,3047 944,0 0,31 -944,0 0,-31 z"
                                   inkscape:connector-curvature="0"
                                   id="path110"
                                   style="fill:#ffffff;fill-opacity:1;fill-rule:nonzero;stroke:none" /><path
                                   d="m 1606,3059 944,0 0,7 -944,0 0,-7 z"
                                   inkscape:connector-curvature="0"
                                   id="path112"
                                   style="fill:#7f7f7f;fill-opacity:1;fill-rule:nonzero;stroke:none" /><path
                                   d="m 2550,3047 944,0 0,31 -944,0 0,-31 z"
                                   inkscape:connector-curvature="0"
                                   id="path114"
                                   style="fill:#ffffff;fill-opacity:1;fill-rule:nonzero;stroke:none" /><path
                                   d="m 2550,3059 944,0 0,7 -944,0 0,-7 z"
                                   inkscape:connector-curvature="0"
                                   id="path116"
                                   style="fill:#7f7f7f;fill-opacity:1;fill-rule:nonzero;stroke:none" /><path
                                   d="m 2534,2119 32,0 0,943 -32,0 0,-943 z"
                                   inkscape:connector-curvature="0"
                                   id="path118"
                                   style="fill:#ffffff;fill-opacity:1;fill-rule:nonzero;stroke:none" /><path
                                   d="m 2547,2119 6,0 0,943 -6,0 0,-943 z"
                                   inkscape:connector-curvature="0"
                                   id="path120"
                                   style="fill:#7f7f7f;fill-opacity:1;fill-rule:nonzero;stroke:none" /><path
                                   d="m 2534,3062 32,0 0,944 -32,0 0,-944 z"
                                   inkscape:connector-curvature="0"
                                   id="path122"
                                   style="fill:#ffffff;fill-opacity:1;fill-rule:nonzero;stroke:none" /><path
                                   d="m 2547,3062 6,0 0,944 -6,0 0,-944 z"
                                   inkscape:connector-curvature="0"
                                   id="path124"
                                   style="fill:#7f7f7f;fill-opacity:1;fill-rule:nonzero;stroke:none" /><path
                                   d="m 2539,3074 475,475 22,-23 -475,-475 -22,23"
                                   inkscape:connector-curvature="0"
                                   id="path126"
                                   style="fill:#ffffff;fill-opacity:1;fill-rule:nonzero;stroke:none" /><path
                                   d="m 2548,3065 475,475 4,-5 -475,-475 -4,5"
                                   inkscape:connector-curvature="0"
                                   id="path128"
                                   style="fill:#7f7f7f;fill-opacity:1;fill-rule:nonzero;stroke:none" /><path
                                   d="m 2561,3051 -475,-468 -22,22 475,469 22,-23"
                                   inkscape:connector-curvature="0"
                                   id="path130"
                                   style="fill:#ffffff;fill-opacity:1;fill-rule:nonzero;stroke:none" /><path
                                   d="m 2552,3060 -475,-468 -4,4 475,469 4,-5"
                                   inkscape:connector-curvature="0"
                                   id="path132"
                                   style="fill:#7f7f7f;fill-opacity:1;fill-rule:nonzero;stroke:none" /><path
                                   d="m 2441,3275 0,500 15,0 0,-16 -381,0 -16,16 0,231 32,0 0,-231 -16,0 0,16 381,0 16,-16 0,-500 -31,0"
                                   inkscape:connector-curvature="0"
                                   id="path134"
                                   style="fill:#ffffff;fill-opacity:1;fill-rule:nonzero;stroke:none" /><path
                                   d="m 2453,3275 0,500 3,0 0,-3 -381,0 -3,3 0,231 6,0 0,-231 -3,0 0,3 381,0 3,-3 0,-500 -6,0"
                                   inkscape:connector-curvature="0"
                                   id="path136"
                                   style="fill:#ffc326;fill-opacity:1;fill-rule:nonzero;stroke:none" /><path
                                   d="m 2669,2850 0,12 -6,0 0,7 -7,0 0,6 -25,0 0,-6 -6,0 0,-7 -6,0 0,-25 6,0 0,-6 6,0 0,-6 25,0 0,6 7,0 0,6 6,0 0,13"
                                   inkscape:connector-curvature="0"
                                   id="path138"
                                   style="fill:#ffffff;fill-opacity:1;fill-rule:evenodd;stroke:none" /><path
                                   d="m 2666,2850 0,12 3,0 0,-3 -6,0 -4,3 0,7 4,0 0,-3 -7,0 -3,3 0,6 3,0 0,-3 -25,0 0,3 3,0 0,-6 -3,-3 -6,0 0,3 3,0 0,-7 -3,-3 -6,0 0,3 3,0 0,-25 -3,0 0,4 6,0 3,-4 0,-6 -3,0 0,3 6,0 3,-3 0,-6 -3,0 0,3 25,0 0,-3 -3,0 0,6 3,3 7,0 0,-3 -4,0 0,6 4,4 6,0 0,-4 -3,0 0,13 z m 6,0 0,-13 -3,-3 -6,0 0,3 3,0 0,-6 -3,-3 -7,0 0,3 3,0 0,-6 -3,-3 -25,0 -3,3 0,6 3,0 0,-3 -6,0 -3,3 0,6 3,0 0,-3 -6,0 -3,3 0,25 3,4 6,0 0,-4 -3,0 0,7 3,3 6,0 0,-3 -3,0 0,6 3,3 25,0 3,-3 0,-6 -3,0 0,3 7,0 3,-3 0,-7 -3,0 0,4 6,0 3,-4 0,-12"
                                   inkscape:connector-curvature="0"
                                   id="path140"
                                   style="fill:#7f7f7f;fill-opacity:1;fill-rule:nonzero;stroke:none" /><path
                                   d="m 2659,2850 0,6 4,0 -3,-2 -6,6 -6,7 2,2 0,-3 -12,0 0,3 2,-2 -7,-7 -6,-6 -2,2 3,0 0,-12 -3,0 2,2 6,-6 7,-7 -2,-2 0,3 12,0 0,-3 -2,2 6,7 6,6 3,-2 -4,0 0,6 z m 7,0 0,-6 -1,-2 -7,-7 -6,-6 -2,-1 -12,0 -3,1 -6,6 -6,7 -1,2 0,12 1,2 6,7 6,6 3,1 12,0 2,-1 6,-6 7,-7 1,-2 0,-6"
                                   inkscape:connector-curvature="0"
                                   id="path142"
                                   style="fill:#dd172f;fill-opacity:1;fill-rule:nonzero;stroke:none" /><path
                                   d="m 2669,2850 0,12 -6,0 0,7 -7,0 0,6 -25,0 0,-6 -6,0 0,-7 -6,0 0,-25 6,0 0,-6 6,0 0,-6 25,0 0,6 7,0 0,6 6,0 0,13"
                                   inkscape:connector-curvature="0"
                                   id="path144"
                                   style="fill:#dd172f;fill-opacity:1;fill-rule:evenodd;stroke:none" /><path
                                   d="m 2666,2850 0,12 3,0 0,-3 -6,0 -4,3 0,7 4,0 0,-3 -7,0 -3,3 0,6 3,0 0,-3 -25,0 0,3 3,0 0,-6 -3,-3 -6,0 0,3 3,0 0,-7 -3,-3 -6,0 0,3 3,0 0,-25 -3,0 0,4 6,0 3,-4 0,-6 -3,0 0,3 6,0 3,-3 0,-6 -3,0 0,3 25,0 0,-3 -3,0 0,6 3,3 7,0 0,-3 -4,0 0,6 4,4 6,0 0,-4 -3,0 0,13 z m 6,0 0,-13 -3,-3 -6,0 0,3 3,0 0,-6 -3,-3 -7,0 0,3 3,0 0,-6 -3,-3 -25,0 -3,3 0,6 3,0 0,-3 -6,0 -3,3 0,6 3,0 0,-3 -6,0 -3,3 0,25 3,4 6,0 0,-4 -3,0 0,7 3,3 6,0 0,-3 -3,0 0,6 3,3 25,0 3,-3 0,-6 -3,0 0,3 7,0 3,-3 0,-7 -3,0 0,4 6,0 3,-4 0,-12"
                                   inkscape:connector-curvature="0"
                                   id="path146"
                                   style="fill:#aa0000;fill-opacity:1;fill-rule:nonzero;stroke:none" /><g
                                   transform="scale(8.33333,8.33333)"
                                   id="g148"><text
                                   transform="matrix(1,0,0,-1,315.72,340.44)"
                                   id="text150"><tspan
                                   x="0"
                                   y="0"
                                   id="tspan152"
                                   style="font-size:5.25px;font-variant:normal;font-weight:bold;writing-mode:lr-tb;fill:#ffffff;fill-opacity:1;fill-rule:nonzero;stroke:none;font-family:Helvetica;-inkscape-font-specification:Helvetica-Bold">1</tspan></text>
</g><path
                                   d="m 2669,2850 0,12 -6,0 0,7 -7,0 0,6 -25,0 0,-6 -6,0 0,-7 -6,0 0,-25 6,0 0,-6 6,0 0,-6 25,0 0,6 7,0 0,6 6,0 0,13"
                                   inkscape:connector-curvature="0"
                                   id="path154"
                                   style="fill:#ffffff;fill-opacity:1;fill-rule:evenodd;stroke:none" /><path
                                   d="m 2666,2850 0,12 3,0 0,-3 -6,0 -4,3 0,7 4,0 0,-3 -7,0 -3,3 0,6 3,0 0,-3 -25,0 0,3 3,0 0,-6 -3,-3 -6,0 0,3 3,0 0,-7 -3,-3 -6,0 0,3 3,0 0,-25 -3,0 0,4 6,0 3,-4 0,-6 -3,0 0,3 6,0 3,-3 0,-6 -3,0 0,3 25,0 0,-3 -3,0 0,6 3,3 7,0 0,-3 -4,0 0,6 4,4 6,0 0,-4 -3,0 0,13 z m 6,0 0,-13 -3,-3 -6,0 0,3 3,0 0,-6 -3,-3 -7,0 0,3 3,0 0,-6 -3,-3 -25,0 -3,3 0,6 3,0 0,-3 -6,0 -3,3 0,6 3,0 0,-3 -6,0 -3,3 0,25 3,4 6,0 0,-4 -3,0 0,7 3,3 6,0 0,-3 -3,0 0,6 3,3 25,0 3,-3 0,-6 -3,0 0,3 7,0 3,-3 0,-7 -3,0 0,4 6,0 3,-4 0,-12"
                                   inkscape:connector-curvature="0"
                                   id="path156"
                                   style="fill:#7f7f7f;fill-opacity:1;fill-rule:nonzero;stroke:none" /><path
                                   d="m 2659,2850 0,6 4,0 -3,-2 -6,6 -6,7 2,2 0,-3 -12,0 0,3 2,-2 -7,-7 -6,-6 -2,2 3,0 0,-12 -3,0 2,2 6,-6 7,-7 -2,-2 0,3 12,0 0,-3 -2,2 6,7 6,6 3,-2 -4,0 0,6 z m 7,0 0,-6 -1,-2 -7,-7 -6,-6 -2,-1 -12,0 -3,1 -6,6 -6,7 -1,2 0,12 1,2 6,7 6,6 3,1 12,0 2,-1 6,-6 7,-7 1,-2 0,-6"
                                   inkscape:connector-curvature="0"
                                   id="path158"
                                   style="fill:#dd172f;fill-opacity:1;fill-rule:nonzero;stroke:none" /><path
                                   d="m 2669,2850 0,12 -6,0 0,7 -7,0 0,6 -25,0 0,-6 -6,0 0,-7 -6,0 0,-25 6,0 0,-6 6,0 0,-6 25,0 0,6 7,0 0,6 6,0 0,13"
                                   inkscape:connector-curvature="0"
                                   id="path160"
                                   style="fill:#dd172f;fill-opacity:1;fill-rule:evenodd;stroke:none" /><path
                                   d="m 2666,2850 0,12 3,0 0,-3 -6,0 -4,3 0,7 4,0 0,-3 -7,0 -3,3 0,6 3,0 0,-3 -25,0 0,3 3,0 0,-6 -3,-3 -6,0 0,3 3,0 0,-7 -3,-3 -6,0 0,3 3,0 0,-25 -3,0 0,4 6,0 3,-4 0,-6 -3,0 0,3 6,0 3,-3 0,-6 -3,0 0,3 25,0 0,-3 -3,0 0,6 3,3 7,0 0,-3 -4,0 0,6 4,4 6,0 0,-4 -3,0 0,13 z m 6,0 0,-13 -3,-3 -6,0 0,3 3,0 0,-6 -3,-3 -7,0 0,3 3,0 0,-6 -3,-3 -25,0 -3,3 0,6 3,0 0,-3 -6,0 -3,3 0,6 3,0 0,-3 -6,0 -3,3 0,25 3,4 6,0 0,-4 -3,0 0,7 3,3 6,0 0,-3 -3,0 0,6 3,3 25,0 3,-3 0,-6 -3,0 0,3 7,0 3,-3 0,-7 -3,0 0,4 6,0 3,-4 0,-12"
                                   inkscape:connector-curvature="0"
                                   id="path162"
                                   style="fill:#aa0000;fill-opacity:1;fill-rule:nonzero;stroke:none" /><g
                                   transform="scale(8.33333,8.33333)"
                                   id="g164"><text
                                   transform="matrix(1,0,0,-1,315.72,340.44)"
                                   id="text166"><tspan
                                   x="0"
                                   y="0"
                                   id="tspan168"
                                   style="font-size:5.25px;font-variant:normal;font-weight:bold;writing-mode:lr-tb;fill:#ffffff;fill-opacity:1;fill-rule:nonzero;stroke:none;font-family:Helvetica;-inkscape-font-specification:Helvetica-Bold">1</tspan></text>
</g><path
                                   d="m 2788,2975 0,12 -7,0 0,7 -6,0 0,6 -25,0 0,-6 -6,0 0,-7 -6,0 0,-25 6,0 0,-6 6,0 0,-6 25,0 0,6 6,0 0,6 7,0 0,13"
                                   inkscape:connector-curvature="0"
                                   id="path170"
                                   style="fill:#ffffff;fill-opacity:1;fill-rule:evenodd;stroke:none" /><path
                                   d="m 2784,2975 0,12 4,0 0,-3 -7,0 -3,3 0,7 3,0 0,-3 -6,0 -3,3 0,6 3,0 0,-3 -25,0 0,3 3,0 0,-6 -3,-3 -6,0 0,3 3,0 0,-7 -3,-3 -6,0 0,3 3,0 0,-25 -3,0 0,4 6,0 3,-4 0,-6 -3,0 0,3 6,0 3,-3 0,-6 -3,0 0,3 25,0 0,-3 -3,0 0,6 3,3 6,0 0,-3 -3,0 0,6 3,4 7,0 0,-4 -4,0 0,13 z m 7,0 0,-13 -3,-3 -7,0 0,3 3,0 0,-6 -3,-3 -6,0 0,3 3,0 0,-6 -3,-3 -25,0 -3,3 0,6 3,0 0,-3 -6,0 -3,3 0,6 3,0 0,-3 -6,0 -4,3 0,25 4,4 6,0 0,-4 -3,0 0,7 3,3 6,0 0,-3 -3,0 0,6 3,3 25,0 3,-3 0,-6 -3,0 0,3 6,0 3,-3 0,-7 -3,0 0,4 7,0 3,-4 0,-12"
                                   inkscape:connector-curvature="0"
                                   id="path172"
                                   style="fill:#7f7f7f;fill-opacity:1;fill-rule:nonzero;stroke:none" /><path
                                   d="m 2788,2975 0,12 -7,0 0,7 -6,0 0,6 -25,0 0,-6 -6,0 0,-7 -6,0 0,-25 6,0 0,-6 6,0 0,-6 25,0 0,6 6,0 0,6 7,0 0,13"
                                   inkscape:connector-curvature="0"
                                   id="path174"
                                   style="fill:#ffffff;fill-opacity:1;fill-rule:evenodd;stroke:none" /><path
                                   d="m 2784,2975 0,12 4,0 0,-3 -7,0 -3,3 0,7 3,0 0,-3 -6,0 -3,3 0,6 3,0 0,-3 -25,0 0,3 3,0 0,-6 -3,-3 -6,0 0,3 3,0 0,-7 -3,-3 -6,0 0,3 3,0 0,-25 -3,0 0,4 6,0 3,-4 0,-6 -3,0 0,3 6,0 3,-3 0,-6 -3,0 0,3 25,0 0,-3 -3,0 0,6 3,3 6,0 0,-3 -3,0 0,6 3,4 7,0 0,-4 -4,0 0,13 z m 7,0 0,-13 -3,-3 -7,0 0,3 3,0 0,-6 -3,-3 -6,0 0,3 3,0 0,-6 -3,-3 -25,0 -3,3 0,6 3,0 0,-3 -6,0 -3,3 0,6 3,0 0,-3 -6,0 -4,3 0,25 4,4 6,0 0,-4 -3,0 0,7 3,3 6,0 0,-3 -3,0 0,6 3,3 25,0 3,-3 0,-6 -3,0 0,3 6,0 3,-3 0,-7 -3,0 0,4 7,0 3,-4 0,-12"
                                   inkscape:connector-curvature="0"
                                   id="path176"
                                   style="fill:#7f7f7f;fill-opacity:1;fill-rule:nonzero;stroke:none" /><path
                                   d="m 2778,2975 0,6 3,0 -2,-2 -6,6 -6,7 2,2 0,-3 -13,0 0,3 2,-2 -6,-7 -6,-6 -2,2 3,0 0,-12 -3,0 2,2 6,-6 6,-7 -2,-2 0,3 13,0 0,-3 -2,2 6,7 6,6 2,-2 -3,0 0,6 z m 6,0 0,-6 -1,-2 -6,-7 -6,-6 -2,-1 -13,0 -2,1 -6,6 -6,7 -1,2 0,12 1,2 6,7 6,6 2,1 13,0 2,-1 6,-6 6,-7 1,-2 0,-6"
                                   inkscape:connector-curvature="0"
                                   id="path178"
                                   style="fill:#dd172f;fill-opacity:1;fill-rule:nonzero;stroke:none" /><path
                                   d="m 2788,2975 0,12 -7,0 0,7 -6,0 0,6 -25,0 0,-6 -6,0 0,-7 -6,0 0,-25 6,0 0,-6 6,0 0,-6 25,0 0,6 6,0 0,6 7,0 0,13"
                                   inkscape:connector-curvature="0"
                                   id="path180"
                                   style="fill:#dd172f;fill-opacity:1;fill-rule:evenodd;stroke:none" /><path
                                   d="m 2784,2975 0,12 4,0 0,-3 -7,0 -3,3 0,7 3,0 0,-3 -6,0 -3,3 0,6 3,0 0,-3 -25,0 0,3 3,0 0,-6 -3,-3 -6,0 0,3 3,0 0,-7 -3,-3 -6,0 0,3 3,0 0,-25 -3,0 0,4 6,0 3,-4 0,-6 -3,0 0,3 6,0 3,-3 0,-6 -3,0 0,3 25,0 0,-3 -3,0 0,6 3,3 6,0 0,-3 -3,0 0,6 3,4 7,0 0,-4 -4,0 0,13 z m 7,0 0,-13 -3,-3 -7,0 0,3 3,0 0,-6 -3,-3 -6,0 0,3 3,0 0,-6 -3,-3 -25,0 -3,3 0,6 3,0 0,-3 -6,0 -3,3 0,6 3,0 0,-3 -6,0 -4,3 0,25 4,4 6,0 0,-4 -3,0 0,7 3,3 6,0 0,-3 -3,0 0,6 3,3 25,0 3,-3 0,-6 -3,0 0,3 6,0 3,-3 0,-7 -3,0 0,4 7,0 3,-4 0,-12"
                                   inkscape:connector-curvature="0"
                                   id="path182"
                                   style="fill:#aa0000;fill-opacity:1;fill-rule:nonzero;stroke:none" /><g
                                   transform="scale(8.33333,8.33333)"
                                   id="g184"><text
                                   transform="matrix(1,0,0,-1,330,355.44)"
                                   id="text186"><tspan
                                   x="0"
                                   y="0"
                                   id="tspan188"
                                   style="font-size:5.25px;font-variant:normal;font-weight:bold;writing-mode:lr-tb;fill:#ffffff;fill-opacity:1;fill-rule:nonzero;stroke:none;font-family:Helvetica;-inkscape-font-specification:Helvetica-Bold">2</tspan></text>
</g><path
                                   d="m 2788,2975 0,12 -7,0 0,7 -6,0 0,6 -25,0 0,-6 -6,0 0,-7 -6,0 0,-25 6,0 0,-6 6,0 0,-6 25,0 0,6 6,0 0,6 7,0 0,13"
                                   inkscape:connector-curvature="0"
                                   id="path190"
                                   style="fill:#ffffff;fill-opacity:1;fill-rule:evenodd;stroke:none" /><path
                                   d="m 2784,2975 0,12 4,0 0,-3 -7,0 -3,3 0,7 3,0 0,-3 -6,0 -3,3 0,6 3,0 0,-3 -25,0 0,3 3,0 0,-6 -3,-3 -6,0 0,3 3,0 0,-7 -3,-3 -6,0 0,3 3,0 0,-25 -3,0 0,4 6,0 3,-4 0,-6 -3,0 0,3 6,0 3,-3 0,-6 -3,0 0,3 25,0 0,-3 -3,0 0,6 3,3 6,0 0,-3 -3,0 0,6 3,4 7,0 0,-4 -4,0 0,13 z m 7,0 0,-13 -3,-3 -7,0 0,3 3,0 0,-6 -3,-3 -6,0 0,3 3,0 0,-6 -3,-3 -25,0 -3,3 0,6 3,0 0,-3 -6,0 -3,3 0,6 3,0 0,-3 -6,0 -4,3 0,25 4,4 6,0 0,-4 -3,0 0,7 3,3 6,0 0,-3 -3,0 0,6 3,3 25,0 3,-3 0,-6 -3,0 0,3 6,0 3,-3 0,-7 -3,0 0,4 7,0 3,-4 0,-12"
                                   inkscape:connector-curvature="0"
                                   id="path192"
                                   style="fill:#7f7f7f;fill-opacity:1;fill-rule:nonzero;stroke:none" /><path
                                   d="m 2788,2975 0,12 -7,0 0,7 -6,0 0,6 -25,0 0,-6 -6,0 0,-7 -6,0 0,-25 6,0 0,-6 6,0 0,-6 25,0 0,6 6,0 0,6 7,0 0,13"
                                   inkscape:connector-curvature="0"
                                   id="path194"
                                   style="fill:#ffffff;fill-opacity:1;fill-rule:evenodd;stroke:none" /><path
                                   d="m 2784,2975 0,12 4,0 0,-3 -7,0 -3,3 0,7 3,0 0,-3 -6,0 -3,3 0,6 3,0 0,-3 -25,0 0,3 3,0 0,-6 -3,-3 -6,0 0,3 3,0 0,-7 -3,-3 -6,0 0,3 3,0 0,-25 -3,0 0,4 6,0 3,-4 0,-6 -3,0 0,3 6,0 3,-3 0,-6 -3,0 0,3 25,0 0,-3 -3,0 0,6 3,3 6,0 0,-3 -3,0 0,6 3,4 7,0 0,-4 -4,0 0,13 z m 7,0 0,-13 -3,-3 -7,0 0,3 3,0 0,-6 -3,-3 -6,0 0,3 3,0 0,-6 -3,-3 -25,0 -3,3 0,6 3,0 0,-3 -6,0 -3,3 0,6 3,0 0,-3 -6,0 -4,3 0,25 4,4 6,0 0,-4 -3,0 0,7 3,3 6,0 0,-3 -3,0 0,6 3,3 25,0 3,-3 0,-6 -3,0 0,3 6,0 3,-3 0,-7 -3,0 0,4 7,0 3,-4 0,-12"
                                   inkscape:connector-curvature="0"
                                   id="path196"
                                   style="fill:#7f7f7f;fill-opacity:1;fill-rule:nonzero;stroke:none" /><path
                                   d="m 2778,2975 0,6 3,0 -2,-2 -6,6 -6,7 2,2 0,-3 -13,0 0,3 2,-2 -6,-7 -6,-6 -2,2 3,0 0,-12 -3,0 2,2 6,-6 6,-7 -2,-2 0,3 13,0 0,-3 -2,2 6,7 6,6 2,-2 -3,0 0,6 z m 6,0 0,-6 -1,-2 -6,-7 -6,-6 -2,-1 -13,0 -2,1 -6,6 -6,7 -1,2 0,12 1,2 6,7 6,6 2,1 13,0 2,-1 6,-6 6,-7 1,-2 0,-6"
                                   inkscape:connector-curvature="0"
                                   id="path198"
                                   style="fill:#dd172f;fill-opacity:1;fill-rule:nonzero;stroke:none" /><path
                                   d="m 2788,2975 0,12 -7,0 0,7 -6,0 0,6 -25,0 0,-6 -6,0 0,-7 -6,0 0,-25 6,0 0,-6 6,0 0,-6 25,0 0,6 6,0 0,6 7,0 0,13"
                                   inkscape:connector-curvature="0"
                                   id="path200"
                                   style="fill:#dd172f;fill-opacity:1;fill-rule:evenodd;stroke:none" /><path
                                   d="m 2784,2975 0,12 4,0 0,-3 -7,0 -3,3 0,7 3,0 0,-3 -6,0 -3,3 0,6 3,0 0,-3 -25,0 0,3 3,0 0,-6 -3,-3 -6,0 0,3 3,0 0,-7 -3,-3 -6,0 0,3 3,0 0,-25 -3,0 0,4 6,0 3,-4 0,-6 -3,0 0,3 6,0 3,-3 0,-6 -3,0 0,3 25,0 0,-3 -3,0 0,6 3,3 6,0 0,-3 -3,0 0,6 3,4 7,0 0,-4 -4,0 0,13 z m 7,0 0,-13 -3,-3 -7,0 0,3 3,0 0,-6 -3,-3 -6,0 0,3 3,0 0,-6 -3,-3 -25,0 -3,3 0,6 3,0 0,-3 -6,0 -3,3 0,6 3,0 0,-3 -6,0 -4,3 0,25 4,4 6,0 0,-4 -3,0 0,7 3,3 6,0 0,-3 -3,0 0,6 3,3 25,0 3,-3 0,-6 -3,0 0,3 6,0 3,-3 0,-7 -3,0 0,4 7,0 3,-4 0,-12"
                                   inkscape:connector-curvature="0"
                                   id="path202"
                                   style="fill:#aa0000;fill-opacity:1;fill-rule:nonzero;stroke:none" /><g
                                   transform="scale(8.33333,8.33333)"
                                   id="g204"><text
                                   transform="matrix(1,0,0,-1,330,355.44)"
                                   id="text206"><tspan
                                   x="0"
                                   y="0"
                                   id="tspan208"
                                   style="font-size:5.25px;font-variant:normal;font-weight:bold;writing-mode:lr-tb;fill:#ffffff;fill-opacity:1;fill-rule:nonzero;stroke:none;font-family:Helvetica;-inkscape-font-specification:Helvetica-Bold">2</tspan></text>
</g><path
                                   d="m 2353,3156 0,6 3,0 -2,-2 -6,7 -6,6 2,2 0,-3 -13,0 0,3 2,-2 -6,-6 -6,-7 -2,2 3,0 0,-12 -3,0 2,2 6,-6 6,-6 -2,-3 0,4 13,0 0,-4 -2,3 6,6 6,6 2,-2 -3,0 0,6 z m 6,0 0,-6 -1,-2 -6,-6 -6,-7 -2,-1 -13,0 -2,1 -6,7 -6,6 -1,2 0,12 1,3 6,6 6,6 2,1 13,0 2,-1 6,-6 6,-6 1,-3 0,-6"
                                   inkscape:connector-curvature="0"
                                   id="path210"
                                   style="fill:#2f6bfb;fill-opacity:1;fill-rule:nonzero;stroke:none" /><path
                                   d="m 2363,3156 0,13 -7,0 0,6 -6,0 0,6 -25,0 0,-6 -6,0 0,-6 -6,0 0,-25 6,0 0,-7 6,0 0,-6 25,0 0,6 6,0 0,7 7,0 0,12"
                                   inkscape:connector-curvature="0"
                                   id="path212"
                                   style="fill:#2f6bfb;fill-opacity:1;fill-rule:evenodd;stroke:none" /><path
                                   d="m 2359,3156 0,13 4,0 0,-3 -7,0 -3,3 0,6 3,0 0,-3 -6,0 -3,3 0,6 3,0 0,-3 -25,0 0,3 3,0 0,-6 -3,-3 -6,0 0,3 3,0 0,-6 -3,-3 -6,0 0,3 3,0 0,-25 -3,0 0,3 6,0 3,-3 0,-7 -3,0 0,4 6,0 3,-4 0,-6 -3,0 0,3 25,0 0,-3 -3,0 0,6 3,4 6,0 0,-4 -3,0 0,7 3,3 7,0 0,-3 -4,0 0,12 z m 7,0 0,-12 -3,-3 -7,0 0,3 3,0 0,-7 -3,-3 -6,0 0,3 3,0 0,-6 -3,-3 -25,0 -3,3 0,6 3,0 0,-3 -6,0 -3,3 0,7 3,0 0,-3 -6,0 -4,3 0,25 4,3 6,0 0,-3 -3,0 0,6 3,3 6,0 0,-3 -3,0 0,6 3,3 25,0 3,-3 0,-6 -3,0 0,3 6,0 3,-3 0,-6 -3,0 0,3 7,0 3,-3 0,-13"
                                   inkscape:connector-curvature="0"
                                   id="path214"
                                   style="fill:#0b2bc5;fill-opacity:1;fill-rule:nonzero;stroke:none" /><path
                                   d="m 2575,3062 0,-12 -6,0 0,-6 -6,0 0,-7 -25,0 0,7 -7,0 0,6 -6,0 0,25 6,0 0,6 7,0 0,6 25,0 0,-6 6,0 0,-6 6,0 0,-13"
                                   inkscape:connector-curvature="0"
                                   id="path216"
                                   style="fill:#ffffff;fill-opacity:1;fill-rule:evenodd;stroke:none" /><path
                                   d="m 2578,3062 0,-12 -3,-3 -6,0 0,3 3,0 0,-6 -3,-3 -6,0 0,3 3,0 0,-7 -3,-3 -25,0 -4,3 0,7 4,0 0,-3 -7,0 -3,3 0,6 3,0 0,-3 -6,0 -3,3 0,25 3,3 6,0 0,-3 -3,0 0,6 3,3 7,0 0,-3 -4,0 0,6 4,4 25,0 3,-4 0,-6 -3,0 0,3 6,0 3,-3 0,-6 -3,0 0,3 6,0 3,-3 0,-13 z m -6,0 0,13 3,0 0,-3 -6,0 -3,3 0,6 3,0 0,-3 -6,0 -4,3 0,6 4,0 0,-3 -25,0 0,3 3,0 0,-6 -3,-3 -7,0 0,3 3,0 0,-6 -3,-3 -6,0 0,3 3,0 0,-25 -3,0 0,3 6,0 3,-3 0,-6 -3,0 0,3 7,0 3,-3 0,-7 -3,0 0,4 25,0 0,-4 -4,0 0,7 4,3 6,0 0,-3 -3,0 0,6 3,3 6,0 0,-3 -3,0 0,12"
                                   inkscape:connector-curvature="0"
                                   id="path218"
                                   style="fill:#7f7f7f;fill-opacity:1;fill-rule:nonzero;stroke:none" /><path
                                   d="m 2575,3062 0,-12 -6,0 0,-6 -6,0 0,-7 -25,0 0,7 -7,0 0,6 -6,0 0,25 6,0 0,6 7,0 0,6 25,0 0,-6 6,0 0,-6 6,0 0,-13"
                                   inkscape:connector-curvature="0"
                                   id="path220"
                                   style="fill:#bfbfbf;fill-opacity:1;fill-rule:evenodd;stroke:none" /><path
                                   d="m 2578,3062 0,-12 -3,-3 -6,0 0,3 3,0 0,-6 -3,-3 -6,0 0,3 3,0 0,-7 -3,-3 -25,0 -4,3 0,7 4,0 0,-3 -7,0 -3,3 0,6 3,0 0,-3 -6,0 -3,3 0,25 3,3 6,0 0,-3 -3,0 0,6 3,3 7,0 0,-3 -4,0 0,6 4,4 25,0 3,-4 0,-6 -3,0 0,3 6,0 3,-3 0,-6 -3,0 0,3 6,0 3,-3 0,-13 z m -6,0 0,13 3,0 0,-3 -6,0 -3,3 0,6 3,0 0,-3 -6,0 -4,3 0,6 4,0 0,-3 -25,0 0,3 3,0 0,-6 -3,-3 -7,0 0,3 3,0 0,-6 -3,-3 -6,0 0,3 3,0 0,-25 -3,0 0,3 6,0 3,-3 0,-6 -3,0 0,3 7,0 3,-3 0,-7 -3,0 0,4 25,0 0,-4 -4,0 0,7 4,3 6,0 0,-3 -3,0 0,6 3,3 6,0 0,-3 -3,0 0,12"
                                   inkscape:connector-curvature="0"
                                   id="path222"
                                   style="fill:#7f7f7f;fill-opacity:1;fill-rule:nonzero;stroke:none" /><path
                                   d="m 2575,3062 0,-12 -6,0 0,-6 -6,0 0,-7 -25,0 0,7 -7,0 0,6 -6,0 0,25 6,0 0,6 7,0 0,6 25,0 0,-6 6,0 0,-6 6,0 0,-13"
                                   inkscape:connector-curvature="0"
                                   id="path224"
                                   style="fill:#ffffff;fill-opacity:1;fill-rule:evenodd;stroke:none" /><path
                                   d="m 2578,3062 0,-12 -3,-3 -6,0 0,3 3,0 0,-6 -3,-3 -6,0 0,3 3,0 0,-7 -3,-3 -25,0 -4,3 0,7 4,0 0,-3 -7,0 -3,3 0,6 3,0 0,-3 -6,0 -3,3 0,25 3,3 6,0 0,-3 -3,0 0,6 3,3 7,0 0,-3 -4,0 0,6 4,4 25,0 3,-4 0,-6 -3,0 0,3 6,0 3,-3 0,-6 -3,0 0,3 6,0 3,-3 0,-13 z m -6,0 0,13 3,0 0,-3 -6,0 -3,3 0,6 3,0 0,-3 -6,0 -4,3 0,6 4,0 0,-3 -25,0 0,3 3,0 0,-6 -3,-3 -7,0 0,3 3,0 0,-6 -3,-3 -6,0 0,3 3,0 0,-25 -3,0 0,3 6,0 3,-3 0,-6 -3,0 0,3 7,0 3,-3 0,-7 -3,0 0,4 25,0 0,-4 -4,0 0,7 4,3 6,0 0,-3 -3,0 0,6 3,3 6,0 0,-3 -3,0 0,12"
                                   inkscape:connector-curvature="0"
                                   id="path226"
                                   style="fill:#7f7f7f;fill-opacity:1;fill-rule:nonzero;stroke:none" /><path
                                   d="m 2575,3062 0,-12 -6,0 0,-6 -6,0 0,-7 -25,0 0,7 -7,0 0,6 -6,0 0,25 6,0 0,6 7,0 0,6 25,0 0,-6 6,0 0,-6 6,0 0,-13"
                                   inkscape:connector-curvature="0"
                                   id="path228"
                                   style="fill:#bfbfbf;fill-opacity:1;fill-rule:evenodd;stroke:none" /><path
                                   d="m 2578,3062 0,-12 -3,-3 -6,0 0,3 3,0 0,-6 -3,-3 -6,0 0,3 3,0 0,-7 -3,-3 -25,0 -4,3 0,7 4,0 0,-3 -7,0 -3,3 0,6 3,0 0,-3 -6,0 -3,3 0,25 3,3 6,0 0,-3 -3,0 0,6 3,3 7,0 0,-3 -4,0 0,6 4,4 25,0 3,-4 0,-6 -3,0 0,3 6,0 3,-3 0,-6 -3,0 0,3 6,0 3,-3 0,-13 z m -6,0 0,13 3,0 0,-3 -6,0 -3,3 0,6 3,0 0,-3 -6,0 -4,3 0,6 4,0 0,-3 -25,0 0,3 3,0 0,-6 -3,-3 -7,0 0,3 3,0 0,-6 -3,-3 -6,0 0,3 3,0 0,-25 -3,0 0,3 6,0 3,-3 0,-6 -3,0 0,3 7,0 3,-3 0,-7 -3,0 0,4 25,0 0,-4 -4,0 0,7 4,3 6,0 0,-3 -3,0 0,6 3,3 6,0 0,-3 -3,0 0,12"
                                   inkscape:connector-curvature="0"
                                   id="path230"
                                   style="fill:#7f7f7f;fill-opacity:1;fill-rule:nonzero;stroke:none" /><path
                                   d="m 2441,3275 0,-6 -3,0 2,2 6,-6 6,-7 -2,-2 0,3 13,0 0,-3 -3,2 7,7 6,6 2,-2 -3,0 0,12 3,0 -2,-2 -6,6 -7,7 3,2 0,-3 -13,0 0,3 2,-2 -6,-7 -6,-6 -2,2 3,0 0,-6 z m -7,0 0,6 1,2 7,7 6,6 2,1 13,0 2,-1 6,-6 6,-7 1,-2 0,-12 -1,-2 -6,-7 -6,-6 -2,-1 -13,0 -2,1 -6,6 -7,7 -1,2 0,6"
                                   inkscape:connector-curvature="0"
                                   id="path232"
                                   style="fill:#ffc326;fill-opacity:1;fill-rule:nonzero;stroke:none" /><path
                                   d="m 2431,3275 0,-13 7,0 0,-6 6,0 0,-6 25,0 0,6 6,0 0,6 6,0 0,25 -6,0 0,7 -6,0 0,6 -25,0 0,-6 -6,0 0,-7 -7,0 0,-12"
                                   inkscape:connector-curvature="0"
                                   id="path234"
                                   style="fill:#ffc326;fill-opacity:1;fill-rule:evenodd;stroke:none" /><path
                                   d="m 2434,3275 0,-13 -3,0 0,4 7,0 3,-4 0,-6 -3,0 0,3 6,0 3,-3 0,-6 -3,0 0,3 25,0 0,-3 -3,0 0,6 3,3 6,0 0,-3 -3,0 0,6 3,4 6,0 0,-4 -3,0 0,25 3,0 0,-3 -6,0 -3,3 0,7 3,0 0,-3 -6,0 -3,3 0,6 3,0 0,-3 -25,0 0,3 3,0 0,-6 -3,-3 -6,0 0,3 3,0 0,-7 -3,-3 -7,0 0,3 3,0 0,-12 z m -6,0 0,12 3,4 7,0 0,-4 -4,0 0,7 4,3 6,0 0,-3 -3,0 0,6 3,3 25,0 3,-3 0,-6 -3,0 0,3 6,0 3,-3 0,-7 -3,0 0,4 6,0 3,-4 0,-25 -3,-3 -6,0 0,3 3,0 0,-6 -3,-3 -6,0 0,3 3,0 0,-6 -3,-3 -25,0 -3,3 0,6 3,0 0,-3 -6,0 -4,3 0,6 4,0 0,-3 -7,0 -3,3 0,13"
                                   inkscape:connector-curvature="0"
                                   id="path236"
                                   style="fill:#ef8e01;fill-opacity:1;fill-rule:nonzero;stroke:none" /><path
                                   d="m 2441,3275 0,-6 -3,0 2,2 6,-6 6,-7 -2,-2 0,3 13,0 0,-3 -3,2 7,7 6,6 2,-2 -3,0 0,12 3,0 -2,-2 -6,6 -7,7 3,2 0,-3 -13,0 0,3 2,-2 -6,-7 -6,-6 -2,2 3,0 0,-6 z m -7,0 0,6 1,2 7,7 6,6 2,1 13,0 2,-1 6,-6 6,-7 1,-2 0,-12 -1,-2 -6,-7 -6,-6 -2,-1 -13,0 -2,1 -6,6 -7,7 -1,2 0,6"
                                   inkscape:connector-curvature="0"
                                   id="path238"
                                   style="fill:#ffc326;fill-opacity:1;fill-rule:nonzero;stroke:none" /><path
                                   d="m 2431,3275 0,-13 7,0 0,-6 6,0 0,-6 25,0 0,6 6,0 0,6 6,0 0,25 -6,0 0,7 -6,0 0,6 -25,0 0,-6 -6,0 0,-7 -7,0 0,-12"
                                   inkscape:connector-curvature="0"
                                   id="path240"
                                   style="fill:#ffc326;fill-opacity:1;fill-rule:evenodd;stroke:none" /><path
                                   d="m 2434,3275 0,-13 -3,0 0,4 7,0 3,-4 0,-6 -3,0 0,3 6,0 3,-3 0,-6 -3,0 0,3 25,0 0,-3 -3,0 0,6 3,3 6,0 0,-3 -3,0 0,6 3,4 6,0 0,-4 -3,0 0,25 3,0 0,-3 -6,0 -3,3 0,7 3,0 0,-3 -6,0 -3,3 0,6 3,0 0,-3 -25,0 0,3 3,0 0,-6 -3,-3 -6,0 0,3 3,0 0,-7 -3,-3 -7,0 0,3 3,0 0,-12 z m -6,0 0,12 3,4 7,0 0,-4 -4,0 0,7 4,3 6,0 0,-3 -3,0 0,6 3,3 25,0 3,-3 0,-6 -3,0 0,3 6,0 3,-3 0,-7 -3,0 0,4 6,0 3,-4 0,-25 -3,-3 -6,0 0,3 3,0 0,-6 -3,-3 -6,0 0,3 3,0 0,-6 -3,-3 -25,0 -3,3 0,6 3,0 0,-3 -6,0 -4,3 0,6 4,0 0,-3 -7,0 -3,3 0,13"
                                   inkscape:connector-curvature="0"
                                   id="path242"
                                   style="fill:#ef8e01;fill-opacity:1;fill-rule:nonzero;stroke:none" /><g
                                   transform="scale(8.33333,8.33333)"
                                   id="g244"><text
                                   transform="matrix(1,0,0,-1,173.28,378.96)"
                                   id="text246"><tspan
                                   x="0 3.7199998 10.439997 15.720002 21.000008 26.280014 28.440014 30.720011 34.44001"
                                   y="0"
                                   id="tspan248"
                                   style="font-size:9px;font-variant:normal;font-weight:normal;writing-mode:lr-tb;fill:#000000;fill-opacity:1;fill-rule:nonzero;stroke:none;font-family:Helvetica;-inkscape-font-specification:Helvetica">xNegative</tspan></text>
</g><path
                                   d="m 1675,3062 0,-18 -6,-7 0,-12 -6,0 -7,-6 0,-7 -6,0 -6,-6 0,-6 -13,0 -6,-6 -37,0 -7,6 -6,0 -6,6 -6,6 -7,0 0,7 -6,6 -6,0 0,12 -6,7 0,37 6,6 0,7 6,6 6,6 0,6 7,0 6,7 6,6 6,0 7,6 37,0 6,-6 13,0 0,-6 6,-7 6,0 0,-6 7,-6 6,-6 0,-7 6,-6 0,-19"
                                   inkscape:connector-curvature="0"
                                   id="path250"
                                   style="fill:#bfbfbf;fill-opacity:1;fill-rule:evenodd;stroke:none" /><path
                                   d="m 1681,3062 0,-18 -2,-5 -6,-6 -4,4 6,0 0,-12 -6,-6 -6,0 0,6 4,-4 -6,-7 -5,5 7,0 0,-7 -7,-6 -6,0 0,6 4,-4 -6,-6 -4,4 6,0 0,-6 -6,-6 -13,0 0,6 5,-4 -7,-7 -4,-2 -37,0 -5,2 -6,7 4,4 0,-6 -6,0 -4,2 -7,6 -6,6 5,4 0,-6 -7,0 -6,6 0,7 6,0 -4,-5 -6,7 4,4 0,-6 -6,0 -6,6 0,12 6,0 -5,-4 -6,6 -2,5 0,37 2,5 6,6 5,-5 -6,0 0,7 1,4 7,6 6,7 4,-5 -6,0 0,6 6,7 7,0 0,-7 -5,5 6,6 7,6 4,2 6,0 0,-6 -4,4 6,7 5,1 37,0 4,-1 7,-7 -5,-4 0,6 13,0 6,-6 0,-6 -6,0 4,4 6,-6 -4,-5 0,7 6,0 7,-7 0,-6 -7,0 5,5 6,-7 6,-6 2,-4 0,-7 -6,0 4,5 6,-6 2,-5 0,-19 z m -12,0 0,19 6,0 -4,-4 -7,6 -1,4 0,7 6,0 -5,-5 -6,7 -6,6 -2,4 0,6 6,0 0,-6 -6,0 -4,2 -7,6 -1,5 0,6 6,0 0,-6 -13,0 -4,2 -6,6 4,4 0,-6 -37,0 0,6 4,-4 -6,-6 -5,-2 -6,0 0,6 4,-4 -6,-7 -6,-6 -4,-2 -7,0 0,6 7,0 0,-6 -2,-4 -7,-6 -6,-7 -4,5 6,0 0,-7 -2,-4 -6,-6 -4,4 6,0 0,-37 -6,0 4,4 6,-6 2,-5 0,-12 -6,0 0,6 6,0 4,-2 7,-6 2,-4 0,-7 -7,0 0,7 7,0 4,-2 6,-6 6,-7 -4,-4 0,6 6,0 5,-2 6,-6 -4,-4 0,6 37,0 0,-6 -4,4 6,6 4,2 13,0 0,-6 -6,0 0,6 1,5 7,6 4,2 6,0 0,-7 -6,0 0,7 2,4 6,6 5,2 6,0 0,-6 -6,0 0,12 1,5 7,6 4,-4 -6,0 0,18"
                                   inkscape:connector-curvature="0"
                                   id="path252"
                                   style="fill:#7f7f7f;fill-opacity:1;fill-rule:nonzero;stroke:none" /><g
                                   transform="scale(8.33333,8.33333)"
                                   id="g254"><text
                                   transform="matrix(1,0,0,-1,286.56,265.8)"
                                   id="text256"><tspan
                                   x="0 3.7199998 10.440012 15.720017 21.000023 26.160028 28.440018 30.720028 34.440029"
                                   y="0"
                                   id="tspan258"
                                   style="font-size:9px;font-variant:normal;font-weight:normal;writing-mode:lr-tb;fill:#000000;fill-opacity:1;fill-rule:nonzero;stroke:none;font-family:Helvetica;-inkscape-font-specification:Helvetica">yNegative</tspan></text>
</g><path
                                   d="m 2619,2119 0,-19 -6,-6 0,-13 -7,0 -6,-6 0,-6 -6,0 -6,-7 0,-6 -13,0 -6,-6 -38,0 -6,6 -6,0 -6,6 -7,7 -6,0 0,6 -6,6 -6,0 0,13 -7,6 0,37 7,7 0,6 6,6 6,6 0,7 6,0 7,6 6,6 6,0 6,6 38,0 6,-6 13,0 0,-6 6,-6 6,0 0,-7 6,-6 7,-6 0,-6 6,-7 0,-18"
                                   inkscape:connector-curvature="0"
                                   id="path260"
                                   style="fill:#bfbfbf;fill-opacity:1;fill-rule:evenodd;stroke:none" /><path
                                   d="m 2625,2119 0,-19 -2,-4 -6,-7 -4,5 6,0 0,-13 -6,-6 -7,0 0,6 5,-4 -7,-6 -4,4 6,0 0,-6 -6,-7 -6,0 0,7 4,-5 -6,-6 -4,4 6,0 0,-6 -6,-6 -13,0 0,6 4,-4 -6,-6 -4,-2 -38,0 -4,2 -6,6 4,4 0,-6 -6,0 -5,2 -6,6 -6,6 4,5 0,-7 -6,0 -6,7 0,6 6,0 -4,-4 -7,6 5,4 0,-6 -6,0 -7,6 0,13 7,0 -5,-5 -6,7 -2,4 0,37 2,5 6,6 5,-4 -7,0 0,6 2,4 6,7 7,6 4,-5 -6,0 0,7 6,6 6,0 0,-6 -4,4 6,6 6,7 5,1 6,0 0,-6 -4,5 6,6 4,2 38,0 4,-2 6,-6 -4,-5 0,6 13,0 6,-6 0,-6 -6,0 4,4 6,-6 -4,-4 0,6 6,0 6,-6 0,-7 -6,0 4,5 7,-6 6,-7 2,-4 0,-6 -6,0 4,4 6,-6 2,-5 0,-18 z m -12,0 0,18 6,0 -5,-4 -6,6 -2,5 0,6 7,0 -5,-4 -6,6 -6,6 -2,4 0,7 6,0 0,-7 -6,0 -5,2 -6,7 -2,4 0,6 7,0 0,-6 -13,0 -4,2 -7,6 5,4 0,-6 -38,0 0,6 5,-4 -7,-6 -4,-2 -6,0 0,6 4,-4 -6,-6 -6,-7 -5,-2 -6,0 0,7 6,0 0,-7 -2,-4 -6,-6 -6,-6 -4,4 6,0 0,-6 -2,-5 -6,-6 -5,4 7,0 0,-37 -7,0 5,4 6,-6 2,-4 0,-13 -6,0 0,6 6,0 4,-1 6,-7 2,-4 0,-6 -6,0 0,6 6,0 5,-2 6,-6 6,-6 -4,-5 0,6 6,0 4,-1 7,-7 -5,-4 0,6 38,0 0,-6 -5,4 7,7 4,1 13,0 0,-6 -7,0 0,6 2,5 6,6 5,2 6,0 0,-6 -6,0 0,6 2,4 6,7 4,1 7,0 0,-6 -7,0 0,13 2,4 6,6 5,-4 -6,0 0,19"
                                   inkscape:connector-curvature="0"
                                   id="path262"
                                   style="fill:#7f7f7f;fill-opacity:1;fill-rule:nonzero;stroke:none" /><g
                                   transform="scale(8.33333,8.33333)"
                                   id="g264"><text
                                   transform="matrix(1,0,0,-1,343.56,435.96)"
                                   id="text266"><tspan
                                   x="0 3.7199998 10.440012 15.720017 21.000023 26.160028 28.440018 30.720028 34.440029"
                                   y="0"
                                   id="tspan268"
                                   style="font-size:9px;font-variant:normal;font-weight:normal;writing-mode:lr-tb;fill:#000000;fill-opacity:1;fill-rule:nonzero;stroke:none;font-family:Helvetica;-inkscape-font-specification:Helvetica">zNegative</tspan></text>
</g><path
                                   d="m 3094,3537 0,-18 -6,-7 0,-12 -7,0 -6,-6 0,-7 -6,0 -6,-6 0,-6 -13,0 -6,-6 -38,0 -6,6 -6,0 -6,6 -7,6 -6,0 0,7 -6,6 -6,0 0,12 -7,7 0,37 7,6 0,7 6,6 6,6 0,6 6,0 7,7 6,6 6,0 6,6 38,0 6,-6 13,0 0,-6 6,-7 6,0 0,-6 6,-6 7,-6 0,-7 6,-6 0,-19"
                                   inkscape:connector-curvature="0"
                                   id="path270"
                                   style="fill:#bfbfbf;fill-opacity:1;fill-rule:evenodd;stroke:none" /><path
                                   d="m 3100,3537 0,-18 -2,-5 -6,-6 -4,4 6,0 0,-12 -6,-6 -7,0 0,6 5,-4 -7,-7 -4,5 6,0 0,-7 -6,-6 -6,0 0,6 4,-4 -6,-6 -4,4 6,0 0,-6 -6,-6 -13,0 0,6 4,-4 -6,-7 -4,-2 -38,0 -4,2 -6,7 4,4 0,-6 -6,0 -5,2 -6,6 -6,6 4,4 0,-6 -6,0 -6,6 0,7 6,0 -4,-5 -7,7 5,4 0,-6 -6,0 -7,6 0,12 7,0 -5,-4 -6,6 -2,5 0,37 2,5 6,6 5,-5 -7,0 0,7 2,4 6,6 7,7 4,-5 -6,0 0,6 6,7 6,0 0,-7 -4,5 6,6 6,6 5,2 6,0 0,-6 -4,4 6,7 4,1 38,0 4,-1 6,-7 -4,-4 0,6 13,0 6,-6 0,-6 -6,0 4,4 6,-6 -4,-5 0,7 6,0 6,-7 0,-6 -6,0 4,5 7,-7 6,-6 2,-4 0,-7 -6,0 4,5 6,-6 2,-5 0,-19 z m -12,0 0,19 6,0 -5,-4 -6,6 -2,4 0,7 7,0 -5,-5 -6,7 -6,6 -2,4 0,6 6,0 0,-6 -6,0 -5,2 -6,6 -2,5 0,6 7,0 0,-6 -13,0 -4,2 -7,6 5,4 0,-6 -38,0 0,6 5,-4 -7,-6 -4,-2 -6,0 0,6 4,-4 -6,-7 -6,-6 -5,-2 -6,0 0,6 6,0 0,-6 -2,-4 -6,-6 -6,-7 -4,5 6,0 0,-7 -2,-4 -6,-6 -5,4 7,0 0,-37 -7,0 5,4 6,-6 2,-5 0,-12 -6,0 0,6 6,0 4,-2 6,-6 2,-4 0,-7 -6,0 0,7 6,0 5,-2 6,-6 6,-7 -4,-4 0,6 6,0 4,-2 7,-6 -5,-4 0,6 38,0 0,-6 -5,4 7,6 4,2 13,0 0,-6 -7,0 0,6 2,5 6,6 5,2 6,0 0,-7 -6,0 0,7 2,4 6,6 4,2 7,0 0,-6 -7,0 0,12 2,5 6,6 5,-4 -6,0 0,18"
                                   inkscape:connector-curvature="0"
                                   id="path272"
                                   style="fill:#7f7f7f;fill-opacity:1;fill-rule:nonzero;stroke:none" /><g
                                   transform="scale(8.33333,8.33333)"
                                   id="g274"><text
                                   transform="matrix(1,0,0,-1,401.28,378.96)"
                                   id="text276"><tspan
                                   x="0 3.7199998 9.7200117 15.000017 20.280018 22.440029 24.720016 27.000029 30.720028"
                                   y="0"
                                   id="tspan278"
                                   style="font-size:9px;font-variant:normal;font-weight:normal;writing-mode:lr-tb;fill:#000000;fill-opacity:1;fill-rule:nonzero;stroke:none;font-family:Helvetica;-inkscape-font-specification:Helvetica">xPositive</tspan></text>
</g><path
                                   d="m 3563,3062 0,-18 -7,-7 0,-12 -6,0 -6,-6 0,-7 -6,0 -7,-6 0,-6 -12,0 -6,-6 -38,0 -6,6 -6,0 -7,6 -6,6 -6,0 0,7 -6,6 -7,0 0,12 -6,7 0,37 6,6 0,7 7,6 6,6 0,6 6,0 6,7 7,6 6,0 6,6 38,0 6,-6 12,0 0,-6 7,-7 6,0 0,-6 6,-6 6,-6 0,-7 7,-6 0,-19"
                                   inkscape:connector-curvature="0"
                                   id="path280"
                                   style="fill:#bfbfbf;fill-opacity:1;fill-rule:evenodd;stroke:none" /><path
                                   d="m 3569,3062 0,-18 -2,-5 -6,-6 -5,4 7,0 0,-12 -7,-6 -6,0 0,6 4,-4 -6,-7 -4,5 6,0 0,-7 -6,-6 -6,0 0,6 4,-4 -6,-6 -5,4 7,0 0,-6 -7,-6 -12,0 0,6 4,-4 -6,-7 -4,-2 -38,0 -4,2 -7,7 5,4 0,-6 -6,0 -5,2 -6,6 -6,6 4,4 0,-6 -6,0 -6,6 0,7 6,0 -5,-5 -6,7 5,4 0,-6 -7,0 -6,6 0,12 6,0 -4,-4 -6,6 -2,5 0,37 2,5 6,6 4,-5 -6,0 0,7 2,4 6,6 6,7 5,-5 -6,0 0,6 6,7 6,0 0,-7 -4,5 6,6 6,6 5,2 6,0 0,-6 -5,4 7,7 4,1 38,0 4,-1 6,-7 -4,-4 0,6 12,0 7,-6 0,-6 -7,0 5,4 6,-6 -4,-5 0,7 6,0 6,-7 0,-6 -6,0 4,5 6,-7 7,-6 2,-4 0,-7 -7,0 5,5 6,-6 2,-5 0,-19 z m -13,0 0,19 7,0 -5,-4 -6,6 -2,4 0,7 6,0 -4,-5 -6,7 -7,6 -1,4 0,6 6,0 0,-6 -6,0 -5,2 -6,6 -2,5 0,6 6,0 0,-6 -12,0 -5,2 -6,6 5,4 0,-6 -38,0 0,6 4,-4 -6,-6 -4,-2 -6,0 0,6 4,-4 -6,-7 -7,-6 -4,-2 -6,0 0,6 6,0 0,-6 -2,-4 -6,-6 -6,-7 -5,5 7,0 0,-7 -2,-4 -7,-6 -4,4 6,0 0,-37 -6,0 4,4 7,-6 2,-5 0,-12 -7,0 0,6 7,0 4,-2 6,-6 2,-4 0,-7 -6,0 0,7 6,0 4,-2 7,-6 6,-7 -4,-4 0,6 6,0 4,-2 6,-6 -4,-4 0,6 38,0 0,-6 -5,4 6,6 5,2 12,0 0,-6 -6,0 0,6 2,5 6,6 5,2 6,0 0,-7 -6,0 0,7 1,4 7,6 4,2 6,0 0,-6 -6,0 0,12 2,5 6,6 5,-4 -7,0 0,18"
                                   inkscape:connector-curvature="0"
                                   id="path282"
                                   style="fill:#7f7f7f;fill-opacity:1;fill-rule:nonzero;stroke:none" /><g
                                   transform="scale(8.33333,8.33333)"
                                   id="g284"><text
                                   transform="matrix(1,0,0,-1,288,492.24)"
                                   id="text286"><tspan
                                   x="0 3.7199998 9.7200117 15.000017 20.280018 22.560028 24.720016 27.000029 30.720028"
                                   y="0"
                                   id="tspan288"
                                   style="font-size:9px;font-variant:normal;font-weight:normal;writing-mode:lr-tb;fill:#000000;fill-opacity:1;fill-rule:nonzero;stroke:none;font-family:Helvetica;-inkscape-font-specification:Helvetica">yPositive</tspan></text>
</g><path
                                   d="m 2619,4006 0,-19 -6,-6 0,-12 -7,0 -6,-7 0,-6 -6,0 -6,-6 0,-6 -13,0 -6,-7 -38,0 -6,7 -6,0 -6,6 -7,6 -6,0 0,6 -6,7 -6,0 0,12 -7,6 0,38 7,6 0,6 6,7 6,6 0,6 6,0 7,6 6,7 6,0 6,6 38,0 6,-6 13,0 0,-7 6,-6 6,0 0,-6 6,-6 7,-7 0,-6 6,-6 0,-19"
                                   inkscape:connector-curvature="0"
                                   id="path290"
                                   style="fill:#bfbfbf;fill-opacity:1;fill-rule:evenodd;stroke:none" /><path
                                   d="m 2625,4006 0,-19 -2,-4 -6,-6 -4,4 6,0 0,-12 -6,-7 -7,0 0,7 5,-5 -7,-6 -4,4 6,0 0,-6 -6,-6 -6,0 0,6 4,-4 -6,-6 -4,4 6,0 0,-6 -6,-7 -13,0 0,7 4,-5 -6,-6 -4,-2 -38,0 -4,2 -6,6 4,5 0,-7 -6,0 -5,2 -6,7 -6,6 4,4 0,-6 -6,0 -6,6 0,6 6,0 -4,-4 -7,6 5,5 0,-7 -6,0 -7,7 0,12 7,0 -5,-4 -6,6 -2,4 0,38 2,4 6,7 5,-5 -7,0 0,6 2,5 6,6 7,6 4,-4 -6,0 0,6 6,6 6,0 0,-6 -4,5 6,6 6,6 5,2 6,0 0,-6 -4,4 6,6 4,2 38,0 4,-2 6,-6 -4,-4 0,6 13,0 6,-6 0,-7 -6,0 4,5 6,-6 -4,-5 0,6 6,0 6,-6 0,-6 -6,0 4,4 7,-6 6,-6 2,-5 0,-6 -6,0 4,5 6,-7 2,-4 0,-19 z m -12,0 0,19 6,0 -5,-4 -6,6 -2,4 0,6 7,0 -5,-4 -6,6 -6,7 -2,4 0,6 6,0 0,-6 -6,0 -5,2 -6,6 -2,4 0,7 7,0 0,-7 -13,0 -4,2 -7,7 5,4 0,-6 -38,0 0,6 5,-4 -7,-7 -4,-2 -6,0 0,7 4,-5 -6,-6 -6,-6 -5,-2 -6,0 0,6 6,0 0,-6 -2,-4 -6,-7 -6,-6 -4,4 6,0 0,-6 -2,-4 -6,-6 -5,4 7,0 0,-38 -7,0 5,5 6,-6 2,-5 0,-12 -6,0 0,6 6,0 4,-2 6,-6 2,-5 0,-6 -6,0 0,6 6,0 5,-1 6,-7 6,-6 -4,-4 0,6 6,0 4,-2 7,-6 -5,-5 0,7 38,0 0,-7 -5,5 7,6 4,2 13,0 0,-6 -7,0 0,6 2,4 6,7 5,1 6,0 0,-6 -6,0 0,6 2,5 6,6 4,2 7,0 0,-6 -7,0 0,12 2,5 6,6 5,-5 -6,0 0,19"
                                   inkscape:connector-curvature="0"
                                   id="path292"
                                   style="fill:#7f7f7f;fill-opacity:1;fill-rule:nonzero;stroke:none" /><g
                                   transform="scale(8.33333,8.33333)"
                                   id="g294"><text
                                   transform="matrix(1,0,0,-1,231,322.8)"
                                   id="text296"><tspan
                                   x="0 3.7199998 9.7199965 15.000003 20.280003 22.560015 24.720003 27.000013 30.720013"
                                   y="0"
                                   id="tspan298"
                                   style="font-size:9px;font-variant:normal;font-weight:normal;writing-mode:lr-tb;fill:#000000;fill-opacity:1;fill-rule:nonzero;stroke:none;font-family:Helvetica;-inkscape-font-specification:Helvetica">zPositive</tspan></text>
</g><path
                                   d="m 2144,2594 0,-19 -6,-6 0,-13 -7,0 -6,-6 0,-6 -6,0 -6,-7 0,-6 -13,0 -6,-6 -38,0 -6,6 -6,0 -6,6 -7,7 -6,0 0,6 -6,6 -6,0 0,13 -7,6 0,37 7,7 0,6 6,6 6,6 0,7 6,0 7,6 6,6 6,0 6,6 38,0 6,-6 13,0 0,-6 6,-6 6,0 0,-7 6,-6 7,-6 0,-6 6,-7 0,-18"
                                   inkscape:connector-curvature="0"
                                   id="path300"
                                   style="fill:#bfbfbf;fill-opacity:1;fill-rule:evenodd;stroke:none" /><path
                                   d="m 2150,2594 0,-19 -2,-4 -6,-7 -4,5 6,0 0,-13 -6,-6 -7,0 0,6 5,-4 -7,-6 -4,4 6,0 0,-6 -6,-7 -6,0 0,7 4,-5 -6,-6 -4,4 6,0 0,-6 -6,-6 -13,0 0,6 4,-4 -6,-6 -4,-2 -38,0 -4,2 -6,6 4,4 0,-6 -6,0 -5,2 -6,6 -6,6 4,5 0,-7 -6,0 -6,7 0,6 6,0 -4,-4 -7,6 5,4 0,-6 -6,0 -7,6 0,13 7,0 -5,-5 -6,7 -2,4 0,37 2,5 6,6 5,-4 -7,0 0,6 2,4 6,7 7,6 4,-5 -6,0 0,7 6,6 6,0 0,-6 -4,4 6,6 6,7 5,1 6,0 0,-6 -4,5 6,6 4,2 38,0 4,-2 6,-6 -4,-5 0,6 13,0 6,-6 0,-6 -6,0 4,4 6,-6 -4,-4 0,6 6,0 6,-6 0,-7 -6,0 4,5 7,-6 6,-7 2,-4 0,-6 -6,0 4,4 6,-6 2,-5 0,-18 z m -12,0 0,18 6,0 -5,-4 -6,6 -2,5 0,6 7,0 -5,-4 -6,6 -6,6 -2,4 0,7 6,0 0,-7 -6,0 -5,2 -6,7 -2,4 0,6 7,0 0,-6 -13,0 -4,2 -7,6 5,4 0,-6 -38,0 0,6 5,-4 -7,-6 -4,-2 -6,0 0,6 4,-4 -6,-6 -6,-7 -5,-2 -6,0 0,7 6,0 0,-7 -2,-4 -6,-6 -6,-6 -4,4 6,0 0,-6 -2,-5 -6,-6 -5,4 7,0 0,-37 -7,0 5,4 6,-6 2,-4 0,-13 -6,0 0,6 6,0 4,-1 6,-7 2,-4 0,-6 -6,0 0,6 6,0 5,-2 6,-6 6,-6 -4,-5 0,6 6,0 4,-1 7,-7 -5,-4 0,6 38,0 0,-6 -5,4 7,7 4,1 13,0 0,-6 -7,0 0,6 2,5 6,6 5,2 6,0 0,-6 -6,0 0,6 2,4 6,7 4,1 7,0 0,-6 -7,0 0,13 2,4 6,6 5,-4 -6,0 0,19"
                                   inkscape:connector-curvature="0"
                                   id="path302"
                                   style="fill:#7f7f7f;fill-opacity:1;fill-rule:nonzero;stroke:none" /><path
                                   d="m 3563,2594 0,-19 -7,-6 0,-13 -6,0 -6,-6 0,-6 -6,0 -7,-7 0,-6 -12,0 -6,-6 -38,0 -6,6 -6,0 -7,6 -6,7 -6,0 0,6 -6,6 -7,0 0,13 -6,6 0,37 6,7 0,6 7,6 6,6 0,7 6,0 6,6 7,6 6,0 6,6 38,0 6,-6 12,0 0,-6 7,-6 6,0 0,-7 6,-6 6,-6 0,-6 7,-7 0,-18"
                                   inkscape:connector-curvature="0"
                                   id="path304"
                                   style="fill:#ffffff;fill-opacity:1;fill-rule:evenodd;stroke:none" /><path
                                   d="m 3566,2594 0,-19 -1,-2 -7,-6 -2,2 3,0 0,-13 -3,-3 -6,0 0,3 2,-2 -6,-6 -2,2 3,0 0,-6 -3,-3 -6,0 0,3 2,-2 -7,-7 -2,2 3,0 0,-6 -3,-3 -12,0 0,3 2,-2 -6,-6 -2,-1 -38,0 -2,1 -6,6 2,2 0,-3 -6,0 -3,1 -6,6 -6,7 2,2 0,-3 -6,0 -3,3 0,6 3,0 -2,-2 -7,6 3,2 0,-3 -7,0 -3,3 0,13 3,0 -2,-2 -6,6 -1,2 0,37 1,3 6,6 2,-2 -3,0 0,6 1,2 6,6 7,7 2,-3 -3,0 0,7 3,3 6,0 0,-3 -2,2 6,6 6,6 3,1 6,0 0,-3 -2,2 6,7 2,1 38,0 2,-1 6,-7 -2,-2 0,3 12,0 3,-3 0,-6 -3,0 2,2 7,-6 -2,-2 0,3 6,0 3,-3 0,-7 -3,0 2,3 6,-7 6,-6 1,-2 0,-6 -3,0 2,2 7,-6 1,-3 0,-18 z m -7,0 0,18 4,0 -3,-2 -6,7 -1,2 0,6 3,0 -2,-2 -6,6 -6,6 -1,2 0,7 3,0 0,-3 -6,0 -3,1 -6,6 -1,2 0,6 3,0 0,-3 -12,0 -2,1 -7,6 3,2 0,-3 -38,0 0,3 2,-2 -6,-6 -2,-1 -6,0 0,3 2,-2 -7,-6 -6,-6 -2,-1 -6,0 0,3 3,0 0,-7 -1,-2 -6,-6 -7,-6 -2,2 3,0 0,-6 -1,-2 -6,-7 -2,2 3,0 0,-37 -3,0 2,2 6,-6 1,-2 0,-13 -3,0 0,3 7,0 2,-1 6,-6 1,-2 0,-6 -3,0 0,3 6,0 2,-1 6,-6 7,-7 -2,-2 0,3 6,0 2,-1 6,-6 -2,-2 0,3 38,0 0,-3 -3,2 7,6 2,1 12,0 0,-3 -3,0 0,6 1,3 6,6 3,1 6,0 0,-3 -3,0 0,6 1,2 6,6 2,1 6,0 0,-3 -3,0 0,13 1,2 6,6 3,-2 -4,0 0,19"
                                   inkscape:connector-curvature="0"
                                   id="path306"
                                   style="fill:#7f7f7f;fill-opacity:1;fill-rule:nonzero;stroke:none" /><g
                                   transform="scale(8.33333,8.33333)"
                                   id="g308"><text
                                   transform="matrix(1,0,0,-1,410.28,322.8)"
                                   id="text310"><tspan
                                   x="0 2.2800114 7.4400172 9.720005 15.000011"
                                   y="0"
                                   id="tspan312"
                                   style="font-size:9px;font-variant:normal;font-weight:normal;writing-mode:lr-tb;fill:#000000;fill-opacity:1;fill-rule:nonzero;stroke:none;font-family:Helvetica;-inkscape-font-specification:Helvetica">inter</tspan></text>
</g><path
                                   d="m 3563,2594 0,-19 -7,-6 0,-13 -6,0 -6,-6 0,-6 -6,0 -7,-7 0,-6 -12,0 -6,-6 -38,0 -6,6 -6,0 -7,6 -6,7 -6,0 0,6 -6,6 -7,0 0,13 -6,6 0,37 6,7 0,6 7,6 6,6 0,7 6,0 6,6 7,6 6,0 6,6 38,0 6,-6 12,0 0,-6 7,-6 6,0 0,-7 6,-6 6,-6 0,-6 7,-7 0,-18"
                                   inkscape:connector-curvature="0"
                                   id="path314"
                                   style="fill:#dd172f;fill-opacity:1;fill-rule:evenodd;stroke:none" /><path
                                   d="m 3566,2594 0,-19 -1,-2 -7,-6 -2,2 3,0 0,-13 -3,-3 -6,0 0,3 2,-2 -6,-6 -2,2 3,0 0,-6 -3,-3 -6,0 0,3 2,-2 -7,-7 -2,2 3,0 0,-6 -3,-3 -12,0 0,3 2,-2 -6,-6 -2,-1 -38,0 -2,1 -6,6 2,2 0,-3 -6,0 -3,1 -6,6 -6,7 2,2 0,-3 -6,0 -3,3 0,6 3,0 -2,-2 -7,6 3,2 0,-3 -7,0 -3,3 0,13 3,0 -2,-2 -6,6 -1,2 0,37 1,3 6,6 2,-2 -3,0 0,6 1,2 6,6 7,7 2,-3 -3,0 0,7 3,3 6,0 0,-3 -2,2 6,6 6,6 3,1 6,0 0,-3 -2,2 6,7 2,1 38,0 2,-1 6,-7 -2,-2 0,3 12,0 3,-3 0,-6 -3,0 2,2 7,-6 -2,-2 0,3 6,0 3,-3 0,-7 -3,0 2,3 6,-7 6,-6 1,-2 0,-6 -3,0 2,2 7,-6 1,-3 0,-18 z m -7,0 0,18 4,0 -3,-2 -6,7 -1,2 0,6 3,0 -2,-2 -6,6 -6,6 -1,2 0,7 3,0 0,-3 -6,0 -3,1 -6,6 -1,2 0,6 3,0 0,-3 -12,0 -2,1 -7,6 3,2 0,-3 -38,0 0,3 2,-2 -6,-6 -2,-1 -6,0 0,3 2,-2 -7,-6 -6,-6 -2,-1 -6,0 0,3 3,0 0,-7 -1,-2 -6,-6 -7,-6 -2,2 3,0 0,-6 -1,-2 -6,-7 -2,2 3,0 0,-37 -3,0 2,2 6,-6 1,-2 0,-13 -3,0 0,3 7,0 2,-1 6,-6 1,-2 0,-6 -3,0 0,3 6,0 2,-1 6,-6 7,-7 -2,-2 0,3 6,0 2,-1 6,-6 -2,-2 0,3 38,0 0,-3 -3,2 7,6 2,1 12,0 0,-3 -3,0 0,6 1,3 6,6 3,1 6,0 0,-3 -3,0 0,6 1,2 6,6 2,1 6,0 0,-3 -3,0 0,13 1,2 6,6 3,-2 -4,0 0,19"
                                   inkscape:connector-curvature="0"
                                   id="path316"
                                   style="fill:#aa0000;fill-opacity:1;fill-rule:nonzero;stroke:none" /><g
                                   transform="scale(8.33333,8.33333)"
                                   id="g318"><text
                                   transform="matrix(1,0,0,-1,415.92,307.8)"
                                   id="text320"><tspan
                                   x="0"
                                   y="0"
                                   id="tspan322"
                                   style="font-size:12.75px;font-variant:normal;font-weight:bold;writing-mode:lr-tb;fill:#ffffff;fill-opacity:1;fill-rule:nonzero;stroke:none;font-family:Helvetica;-inkscape-font-specification:Helvetica-Bold">2</tspan></text>
</g><g
                                   transform="scale(8.33333,8.33333)"
                                   id="g324"><text
                                   transform="matrix(1,0,0,-1,177,435.96)"
                                   id="text326"><tspan
                                   x="0 5.2800059 13.560006 18.720011 24.000017 29.280024"
                                   y="0"
                                   id="tspan328"
                                   style="font-size:9px;font-variant:normal;font-weight:normal;writing-mode:lr-tb;fill:#000000;fill-opacity:1;fill-rule:nonzero;stroke:none;font-family:Helvetica;-inkscape-font-specification:Helvetica">amagat</tspan></text>
</g><path
                                   d="m 1675,3537 0,-18 -6,-7 0,-12 -6,0 -7,-6 0,-7 -6,0 -6,-6 0,-6 -13,0 -6,-6 -37,0 -7,6 -6,0 -6,6 -6,6 -7,0 0,7 -6,6 -6,0 0,12 -6,7 0,37 6,6 0,7 6,6 6,6 0,6 7,0 6,7 6,6 6,0 7,6 37,0 6,-6 13,0 0,-6 6,-7 6,0 0,-6 7,-6 6,-6 0,-7 6,-6 0,-19"
                                   inkscape:connector-curvature="0"
                                   id="path330"
                                   style="fill:#ffffff;fill-opacity:1;fill-rule:evenodd;stroke:none" /><path
                                   d="m 1678,3537 0,-18 -1,-2 -6,-7 -2,2 3,0 0,-12 -3,-3 -6,0 0,3 2,-2 -7,-6 -2,2 3,0 0,-7 -3,-3 -6,0 0,3 2,-2 -6,-6 -2,2 3,0 0,-6 -3,-3 -13,0 0,3 2,-2 -6,-6 -2,-1 -37,0 -3,1 -6,6 2,2 0,-3 -6,0 -2,1 -6,6 -7,6 3,2 0,-3 -7,0 -3,3 0,7 3,0 -2,-2 -6,6 2,2 0,-3 -6,0 -3,3 0,12 3,0 -2,-2 -7,7 -1,2 0,37 1,2 7,7 2,-3 -3,0 0,7 1,2 6,6 6,6 2,-2 -3,0 0,6 3,4 7,0 0,-4 -3,3 7,6 6,6 2,1 6,0 0,-3 -2,2 6,6 3,1 37,0 2,-1 6,-6 -2,-2 0,3 13,0 3,-3 0,-6 -3,0 2,2 6,-6 -2,-3 0,4 6,0 3,-4 0,-6 -3,0 2,2 7,-6 6,-6 1,-2 0,-7 -3,0 2,3 6,-7 1,-2 0,-19 z m -6,0 0,19 3,0 -2,-2 -6,6 -1,2 0,7 3,0 -2,-2 -7,6 -6,6 -1,2 0,6 3,0 0,-3 -6,0 -2,1 -6,7 -1,2 0,6 3,0 0,-3 -13,0 -2,1 -6,6 2,2 0,-3 -37,0 0,3 2,-2 -7,-6 -2,-1 -6,0 0,3 2,-2 -6,-6 -6,-7 -2,-1 -7,0 0,3 3,0 0,-6 -1,-2 -6,-6 -6,-6 -2,2 3,0 0,-7 -1,-2 -6,-6 -2,2 3,0 0,-37 -3,0 2,2 6,-6 1,-3 0,-12 -3,0 0,3 6,0 2,-1 6,-6 1,-2 0,-7 -3,0 0,4 7,0 2,-1 6,-7 6,-6 -2,-2 0,3 6,0 2,-1 7,-6 -2,-2 0,3 37,0 0,-3 -2,2 6,6 2,1 13,0 0,-3 -3,0 0,6 1,2 6,7 2,1 6,0 0,-4 -3,0 0,7 1,2 6,6 3,1 6,0 0,-3 -3,0 0,12 1,3 6,6 2,-2 -3,0 0,18"
                                   inkscape:connector-curvature="0"
                                   id="path332"
                                   style="fill:#0b2bc5;fill-opacity:1;fill-rule:nonzero;stroke:none" /><path
                                   d="m 1644,3537 0,-12 -6,-6 0,-7 -7,0 0,-6 -6,0 -6,-6 -25,0 -6,6 -7,0 0,6 -6,0 0,7 -6,6 0,25 6,6 0,6 6,0 0,7 7,0 6,6 25,0 6,-6 6,0 0,-7 7,0 0,-6 6,-6 0,-13"
                                   inkscape:connector-curvature="0"
                                   id="path334"
                                   style="fill:#2f6bfb;fill-opacity:1;fill-rule:evenodd;stroke:none" /><path
                                   d="m 1644,3537 0,-12 -6,-6 0,-7 -7,0 0,-6 -6,0 -6,-6 -25,0 -6,6 -7,0 0,6 -6,0 0,7 -6,6 0,25 6,6 0,6 6,0 0,7 7,0 6,6 25,0 6,-6 6,0 0,-7 7,0 0,-6 6,-6 0,-13 z"
                                   inkscape:connector-curvature="0"
                                   id="path336"
                                   style="fill:none;stroke:#2f6bfb;stroke-width:1;stroke-linecap:round;stroke-linejoin:round;stroke-miterlimit:10;stroke-opacity:1;stroke-dasharray:none" /><g
                                   transform="scale(8.33333,8.33333)"
                                   id="g338"><text
                                   transform="matrix(1,0,0,-1,228,492.24)"
                                   id="text340"><tspan
                                   x="0 4.5599999 9.720006 15.000011 23.280001 30.000011 35.280018"
                                   y="0"
                                   id="tspan342"
                                   style="font-size:9px;font-variant:normal;font-weight:normal;writing-mode:lr-tb;fill:#000000;fill-opacity:1;fill-rule:nonzero;stroke:none;font-family:Helvetica;-inkscape-font-specification:Helvetica">chemH2O</tspan></text>
</g><path
                                   d="m 2144,4006 0,-19 -6,-6 0,-12 -7,0 -6,-7 0,-6 -6,0 -6,-6 0,-6 -13,0 -6,-7 -38,0 -6,7 -6,0 -6,6 -7,6 -6,0 0,6 -6,7 -6,0 0,12 -7,6 0,38 7,6 0,6 6,7 6,6 0,6 6,0 7,6 6,7 6,0 6,6 38,0 6,-6 13,0 0,-7 6,-6 6,0 0,-6 6,-6 7,-7 0,-6 6,-6 0,-19"
                                   inkscape:connector-curvature="0"
                                   id="path344"
                                   style="fill:#ffc326;fill-opacity:1;fill-rule:evenodd;stroke:none" /><path
                                   d="m 2147,4006 0,-19 -1,-2 -6,-6 -2,2 3,0 0,-12 -3,-3 -7,0 0,3 2,-2 -6,-7 -2,2 3,0 0,-6 -3,-3 -6,0 0,3 2,-2 -6,-6 -2,2 3,0 0,-6 -3,-3 -13,0 0,3 2,-2 -6,-7 -2,-1 -38,0 -2,1 -6,7 2,2 0,-3 -6,0 -2,1 -7,6 -6,6 2,2 0,-3 -6,0 -3,3 0,6 3,0 -2,-2 -6,7 2,2 0,-3 -6,0 -4,3 0,12 4,0 -3,-2 -6,6 -1,2 0,38 1,2 6,6 3,-2 -4,0 0,6 1,3 7,6 6,6 2,-2 -3,0 0,6 3,3 6,0 0,-3 -2,2 6,7 7,6 2,1 6,0 0,-3 -2,2 6,6 2,1 38,0 2,-1 6,-6 -2,-2 0,3 13,0 3,-3 0,-7 -3,0 2,3 6,-7 -2,-2 0,3 6,0 3,-3 0,-6 -3,0 2,2 6,-6 7,-6 1,-3 0,-6 -3,0 2,2 6,-6 1,-2 0,-19 z m -6,0 0,19 3,0 -2,-2 -7,6 -1,2 0,6 4,0 -3,-2 -6,7 -6,6 -1,2 0,6 3,0 0,-3 -6,0 -2,1 -7,6 -1,2 0,7 4,0 0,-3 -13,0 -2,1 -6,6 2,2 0,-3 -38,0 0,3 2,-2 -6,-6 -2,-1 -6,0 0,3 2,-2 -6,-7 -7,-6 -2,-1 -6,0 0,3 3,0 0,-6 -1,-2 -6,-6 -6,-7 -2,2 3,0 0,-6 -1,-2 -7,-6 -2,2 3,0 0,-38 -3,0 2,3 7,-7 1,-2 0,-12 -3,0 0,3 6,0 2,-1 6,-6 1,-3 0,-6 -3,0 0,3 6,0 2,-1 7,-6 6,-6 -2,-2 0,3 6,0 2,-1 6,-6 -2,-3 0,4 38,0 0,-4 -2,3 6,6 2,1 13,0 0,-3 -4,0 0,6 1,2 7,6 2,1 6,0 0,-3 -3,0 0,6 1,3 6,6 2,1 7,0 0,-3 -4,0 0,12 1,2 7,7 2,-3 -3,0 0,19"
                                   inkscape:connector-curvature="0"
                                   id="path346"
                                   style="fill:#ef8e01;fill-opacity:1;fill-rule:nonzero;stroke:none" /><path
                                   d="m 2003,3537 0,-6 -1,-2 -6,-6 -6,-6 -2,-1 -13,0 -2,1 -6,6 -7,6 -1,2 0,13 1,2 7,6 6,6 2,1 13,0 2,-1 6,-6 6,-6 1,-2 0,-7 z m -6,0 0,7 3,0 -2,-2 -6,6 -7,6 3,2 0,-3 -13,0 0,3 2,-2 -6,-6 -6,-6 -2,2 3,0 0,-13 -3,0 2,2 6,-6 6,-6 -2,-2 0,3 13,0 0,-3 -3,2 7,6 6,6 2,-2 -3,0 0,6"
                                   inkscape:connector-curvature="0"
                                   id="path348"
                                   style="fill:#2f6bfb;fill-opacity:1;fill-rule:nonzero;stroke:none" /><path
                                   d="m 2006,3537 0,-12 -6,0 0,-6 -6,0 0,-7 -25,0 0,7 -6,0 0,6 -7,0 0,25 7,0 0,6 6,0 0,6 25,0 0,-6 6,0 0,-6 6,0 0,-13"
                                   inkscape:connector-curvature="0"
                                   id="path350"
                                   style="fill:#ffffff;fill-opacity:1;fill-rule:evenodd;stroke:none" /><path
                                   d="m 2009,3537 0,-12 -3,-3 -6,0 0,3 3,0 0,-6 -3,-3 -6,0 0,3 3,0 0,-7 -3,-3 -25,0 -3,3 0,7 3,0 0,-3 -6,0 -4,3 0,6 4,0 0,-3 -7,0 -3,3 0,25 3,3 7,0 0,-3 -4,0 0,6 4,3 6,0 0,-3 -3,0 0,6 3,4 25,0 3,-4 0,-6 -3,0 0,3 6,0 3,-3 0,-6 -3,0 0,3 6,0 3,-3 0,-13 z m -6,0 0,13 3,0 0,-3 -6,0 -3,3 0,6 3,0 0,-3 -6,0 -3,3 0,6 3,0 0,-3 -25,0 0,3 3,0 0,-6 -3,-3 -6,0 0,3 3,0 0,-6 -3,-3 -7,0 0,3 3,0 0,-25 -3,0 0,3 7,0 3,-3 0,-6 -3,0 0,3 6,0 3,-3 0,-7 -3,0 0,4 25,0 0,-4 -3,0 0,7 3,3 6,0 0,-3 -3,0 0,6 3,3 6,0 0,-3 -3,0 0,12"
                                   inkscape:connector-curvature="0"
                                   id="path352"
                                   style="fill:#0b2bc5;fill-opacity:1;fill-rule:nonzero;stroke:none" /><path
                                   d="m 1994,3537 0,-6 -6,0 0,-6 -13,0 0,6 -6,0 0,13 6,0 0,6 13,0 0,-6 6,0 0,-7"
                                   inkscape:connector-curvature="0"
                                   id="path354"
                                   style="fill:#2f6bfb;fill-opacity:1;fill-rule:evenodd;stroke:none" /><path
                                   d="m 1994,3537 0,-6 -6,0 0,-6 -13,0 0,6 -6,0 0,13 6,0 0,6 13,0 0,-6 6,0 0,-7 z"
                                   inkscape:connector-curvature="0"
                                   id="path356"
                                   style="fill:none;stroke:#2f6bfb;stroke-width:1;stroke-linecap:round;stroke-linejoin:round;stroke-miterlimit:10;stroke-opacity:1;stroke-dasharray:none" /><path
                                   d="m 2191,3537 0,-6 -1,-2 -7,-6 -6,-6 -2,-1 -12,0 -3,1 -6,6 -6,6 -1,2 0,13 1,2 6,6 6,6 3,1 12,0 2,-1 6,-6 7,-6 1,-2 0,-7 z m -7,0 0,7 4,0 -3,-2 -6,6 -6,6 2,2 0,-3 -12,0 0,3 2,-2 -7,-6 -6,-6 -2,2 3,0 0,-13 -3,0 2,2 6,-6 7,-6 -2,-2 0,3 12,0 0,-3 -2,2 6,6 6,6 3,-2 -4,0 0,6"
                                   inkscape:connector-curvature="0"
                                   id="path358"
                                   style="fill:#2f6bfb;fill-opacity:1;fill-rule:nonzero;stroke:none" /><path
                                   d="m 2194,3537 0,-12 -6,0 0,-6 -7,0 0,-7 -25,0 0,7 -6,0 0,6 -6,0 0,25 6,0 0,6 6,0 0,6 25,0 0,-6 7,0 0,-6 6,0 0,-13"
                                   inkscape:connector-curvature="0"
                                   id="path360"
                                   style="fill:#2f6bfb;fill-opacity:1;fill-rule:evenodd;stroke:none" /><path
                                   d="m 2197,3537 0,-12 -3,-3 -6,0 0,3 3,0 0,-6 -3,-3 -7,0 0,3 3,0 0,-7 -3,-3 -25,0 -3,3 0,7 3,0 0,-3 -6,0 -3,3 0,6 3,0 0,-3 -6,0 -3,3 0,25 3,3 6,0 0,-3 -3,0 0,6 3,3 6,0 0,-3 -3,0 0,6 3,4 25,0 3,-4 0,-6 -3,0 0,3 7,0 3,-3 0,-6 -3,0 0,3 6,0 3,-3 0,-13 z m -6,0 0,13 3,0 0,-3 -6,0 -4,3 0,6 4,0 0,-3 -7,0 -3,3 0,6 3,0 0,-3 -25,0 0,3 3,0 0,-6 -3,-3 -6,0 0,3 3,0 0,-6 -3,-3 -6,0 0,3 3,0 0,-25 -3,0 0,3 6,0 3,-3 0,-6 -3,0 0,3 6,0 3,-3 0,-7 -3,0 0,4 25,0 0,-4 -3,0 0,7 3,3 7,0 0,-3 -4,0 0,6 4,3 6,0 0,-3 -3,0 0,12"
                                   inkscape:connector-curvature="0"
                                   id="path362"
                                   style="fill:#0b2bc5;fill-opacity:1;fill-rule:nonzero;stroke:none" /></g></g></g></g></g></g></g></g></g></g></g></g></g></g></g></g></g></g></g></g></svg>