<?xml version="1.0" encoding="UTF-8" standalone="no"?>
<!-- Created with Inkscape (http://www.inkscape.org/) -->

<svg
   xmlns:dc="http://purl.org/dc/elements/1.1/"
   xmlns:cc="http://creativecommons.org/ns#"
   xmlns:rdf="http://www.w3.org/1999/02/22-rdf-syntax-ns#"
   xmlns:svg="http://www.w3.org/2000/svg"
   xmlns="http://www.w3.org/2000/svg"
   xmlns:inkscape="http://www.inkscape.org/namespaces/inkscape"
   version="1.1"
   width="282.5"
   height="138.75"
   id="svg2"
   xml:space="preserve"><metadata
     id="metadata8"><rdf:RDF><cc:Work
         rdf:about=""><dc:format>image/svg+xml</dc:format><dc:type
           rdf:resource="http://purl.org/dc/dcmitype/StillImage" /></cc:Work></rdf:RDF></metadata><defs
     id="defs6"><clipPath
       id="clipPath18"><path
         d="M 0,0 226,0 226,111 0,111 0,0 z"
         inkscape:connector-curvature="0"
         id="path20" /></clipPath><clipPath
       id="clipPath28"><path
         d="M 0,0 226,0 226,111 0,111 0,0 z"
         inkscape:connector-curvature="0"
         id="path30" /></clipPath><clipPath
       id="clipPath38"><path
         d="M 0,0 226,0 226,111 0,111 0,0 z"
         inkscape:connector-curvature="0"
         id="path40" /></clipPath><clipPath
       id="clipPath48"><path
         d="M 0,0 227,0 227,111 0,111 0,0 z"
         inkscape:connector-curvature="0"
         id="path50" /></clipPath><clipPath
       id="clipPath58"><path
         d="M 0,0 612,0 612,792 0,792 0,0 z"
         inkscape:connector-curvature="0"
         id="path60" /></clipPath></defs><g
     transform="matrix(1.25,0,0,-1.25,0,138.75)"
     id="g10"><g
       id="g12"><g
         id="g14"><g
           clip-path="url(#clipPath18)"
           id="g16"><g
             id="g22"><g
               id="g24"><g
                 clip-path="url(#clipPath28)"
                 id="g26"><g
                   id="g32"><g
                     id="g34"><g
                       clip-path="url(#clipPath38)"
                       id="g36"><g
                         id="g42"><g
                           id="g44"><g
                             clip-path="url(#clipPath48)"
                             id="g46"><g
                               transform="translate(-194,-342)"
                               id="g52"><g
                                 id="g54"><g
                                   clip-path="url(#clipPath58)"
                                   id="g56"><g
                                   transform="scale(0.12,0.12)"
                                   id="g62"><path
                                   d="m 2719,3534 137,0 0,7 -137,0 0,-7 z"
                                   inkscape:connector-curvature="0"
                                   id="path64"
                                   style="fill:#ffc326;fill-opacity:1;fill-rule:nonzero;stroke:none" /><g
                                   transform="scale(8.33333,8.33333)"
                                   id="g66"><text
                                   transform="matrix(1,0,0,-1,324,432.6)"
                                   id="text68"><tspan
                                   x="0 2.9999883 8.279994 10.559982 11.999982 17.279987 20.279976"
                                   y="0"
                                   id="tspan70"
                                   style="font-size:9px;font-variant:normal;font-weight:normal;writing-mode:lr-tb;fill:#000000;fill-opacity:1;fill-rule:nonzero;stroke:none;font-family:Helvetica;-inkscape-font-specification:Helvetica">-2 'e-'</tspan></text>
</g><path
                                   d="m 2788,3587 50,-50 -50,-50 -50,50 50,50"
                                   inkscape:connector-curvature="0"
                                   id="path72"
                                   style="fill:#ffffff;fill-opacity:1;fill-rule:evenodd;stroke:none" /><path
                                   d="m 2790,3590 50,-50 0,-5 -50,-50 -5,0 -50,50 0,5 50,50 5,0 z m 0,-5 -50,-50 -2,2 2,3 50,-50 -2,-3 -3,3 50,50 3,-3 -3,-2 -50,50 3,2 2,-2"
                                   inkscape:connector-curvature="0"
                                   id="path74"
                                   style="fill:#ffc326;fill-opacity:1;fill-rule:nonzero;stroke:none" /><path
                                   d="m 2719,3059 137,0 0,7 -137,0 0,-7 z"
                                   inkscape:connector-curvature="0"
                                   id="path76"
                                   style="fill:#ffc326;fill-opacity:1;fill-rule:nonzero;stroke:none" /><g
                                   transform="scale(8.33333,8.33333)"
                                   id="g78"><text
                                   transform="matrix(1,0,0,-1,321.72,352.8)"
                                   id="text80"><tspan
                                   x="0 2.9999883 8.279994 10.559982 11.999982 18.839994 23.999989"
                                   y="0"
                                   id="tspan82"
                                   style="font-size:9px;font-variant:normal;font-weight:normal;writing-mode:lr-tb;fill:#000000;fill-opacity:1;fill-rule:nonzero;stroke:none;font-family:Helvetica;-inkscape-font-specification:Helvetica">-2 'H+'</tspan></text>
</g><path
                                   d="m 2788,3012 50,50 -50,50 -50,-50 50,-50"
                                   inkscape:connector-curvature="0"
                                   id="path84"
                                   style="fill:#ffffff;fill-opacity:1;fill-rule:evenodd;stroke:none" /><path
                                   d="m 2785,3015 50,50 3,-3 -3,-2 -50,50 3,2 2,-2 -50,-50 -2,2 2,3 50,-50 -2,-3 -3,3 z m 0,-5 -50,50 0,5 50,50 5,0 50,-50 0,-5 -50,-50 -5,0"
                                   inkscape:connector-curvature="0"
                                   id="path86"
                                   style="fill:#ffc326;fill-opacity:1;fill-rule:nonzero;stroke:none" /><path
                                   d="m 2244,3297 137,0 0,6 -137,0 0,-6 z"
                                   inkscape:connector-curvature="0"
                                   id="path88"
                                   style="fill:#ffc326;fill-opacity:1;fill-rule:nonzero;stroke:none" /><g
                                   transform="scale(8.33333,8.33333)"
                                   id="g90"><text
                                   transform="matrix(1,0,0,-1,267.72,404.04)"
                                   id="text92"><tspan
                                   x="0 5.2800059 7.5599937 14.280005"
                                   y="0"
                                   id="tspan94"
                                   style="font-size:9px;font-variant:normal;font-weight:normal;writing-mode:lr-tb;fill:#000000;fill-opacity:1;fill-rule:nonzero;stroke:none;font-family:Helvetica;-inkscape-font-specification:Helvetica">1 H2</tspan></text>
</g><path
                                   d="m 2313,3350 -50,-50 50,-50 50,50 -50,50"
                                   inkscape:connector-curvature="0"
                                   id="path96"
                                   style="fill:#ffffff;fill-opacity:1;fill-rule:evenodd;stroke:none" /><path
                                   d="m 2315,3348 -50,-50 -2,2 2,2 50,-50 -2,-2 -3,2 50,50 3,-2 -3,-2 -50,50 3,2 2,-2 z m 0,4 50,-50 0,-4 -50,-50 -5,0 -50,50 0,4 50,50 5,0"
                                   inkscape:connector-curvature="0"
                                   id="path98"
                                   style="fill:#ffc326;fill-opacity:1;fill-rule:nonzero;stroke:none" /><path
                                   d="m 1844,3284 375,0 0,32 -375,0 0,-32 z"
                                   inkscape:connector-curvature="0"
                                   id="path100"
                                   style="fill:#ffffff;fill-opacity:1;fill-rule:nonzero;stroke:none" /><path
                                   d="m 1844,3297 375,0 0,6 -375,0 0,-6 z"
                                   inkscape:connector-curvature="0"
                                   id="path102"
                                   style="fill:#ffc326;fill-opacity:1;fill-rule:nonzero;stroke:none" /><path
                                   d="m 2881,3522 375,0 0,31 -375,0 0,-31 z"
                                   inkscape:connector-curvature="0"
                                   id="path104"
                                   style="fill:#ffffff;fill-opacity:1;fill-rule:nonzero;stroke:none" /><path
                                   d="m 2881,3534 375,0 0,7 -375,0 0,-7 z"
                                   inkscape:connector-curvature="0"
                                   id="path106"
                                   style="fill:#ffc326;fill-opacity:1;fill-rule:nonzero;stroke:none" /><path
                                   d="m 2881,3047 375,0 0,31 -375,0 0,-31 z"
                                   inkscape:connector-curvature="0"
                                   id="path108"
                                   style="fill:#ffffff;fill-opacity:1;fill-rule:nonzero;stroke:none" /><path
                                   d="m 2881,3059 375,0 0,7 -375,0 0,-7 z"
                                   inkscape:connector-curvature="0"
                                   id="path110"
                                   style="fill:#ffc326;fill-opacity:1;fill-rule:nonzero;stroke:none" /><path
                                   d="m 2406,3316 144,0 0,-16 -16,0 0,237 16,16 144,0 0,-31 -144,0 0,15 16,0 0,-237 -16,-16 -144,0 0,32"
                                   inkscape:connector-curvature="0"
                                   id="path112"
                                   style="fill:#ffffff;fill-opacity:1;fill-rule:nonzero;stroke:none" /><path
                                   d="m 2406,3303 144,0 0,-3 -3,0 0,237 3,4 144,0 0,-7 -144,0 0,3 3,0 0,-237 -3,-3 -144,0 0,6"
                                   inkscape:connector-curvature="0"
                                   id="path114"
                                   style="fill:#ffc326;fill-opacity:1;fill-rule:nonzero;stroke:none" /><path
                                   d="m 2694,3047 -144,0 -16,15 0,238 16,0 0,-16 -144,0 0,32 144,0 16,-16 0,-238 -16,0 0,16 144,0 0,-31"
                                   inkscape:connector-curvature="0"
                                   id="path116"
                                   style="fill:#ffffff;fill-opacity:1;fill-rule:nonzero;stroke:none" /><path
                                   d="m 2694,3059 -144,0 -3,3 0,238 3,0 0,-3 -144,0 0,6 144,0 3,-3 0,-238 -3,0 0,4 144,0 0,-7"
                                   inkscape:connector-curvature="0"
                                   id="path118"
                                   style="fill:#ffc326;fill-opacity:1;fill-rule:nonzero;stroke:none" /><path
                                   d="m 2569,3303 c 0,-12 -10,-22 -22,-22 -12,0 -22,10 -22,22 0,12 10,22 22,22 12,0 22,-10 22,-22"
                                   inkscape:connector-curvature="0"
                                   id="path120"
                                   style="fill:#ffc326;fill-opacity:1;fill-rule:evenodd;stroke:none" /><path
                                   d="m 2569,3303 c 0,-12 -10,-22 -22,-22 -12,0 -22,10 -22,22 0,12 10,22 22,22 12,0 22,-10 22,-22 z"
                                   inkscape:connector-curvature="0"
                                   id="path122"
                                   style="fill:none;stroke:#ffc326;stroke-width:1;stroke-linecap:round;stroke-linejoin:round;stroke-miterlimit:10;stroke-opacity:1;stroke-dasharray:none" /><path
                                   d="m 2866,3537 0,-6 -3,0 2,2 6,-6 6,-6 -2,-2 0,3 13,0 0,-3 -3,2 7,6 6,6 2,-2 -3,0 0,13 3,0 -2,-2 -6,6 -7,6 3,2 0,-3 -13,0 0,3 2,-2 -6,-6 -6,-6 -2,2 3,0 0,-7 z m -7,0 0,7 1,2 7,6 6,6 2,1 13,0 2,-1 6,-6 6,-6 1,-2 0,-13 -1,-2 -6,-6 -6,-6 -2,-1 -13,0 -2,1 -6,6 -7,6 -1,2 0,6"
                                   inkscape:connector-curvature="0"
                                   id="path124"
                                   style="fill:#ffc326;fill-opacity:1;fill-rule:nonzero;stroke:none" /><path
                                   d="m 2856,3537 0,-12 7,0 0,-6 6,0 0,-7 25,0 0,7 6,0 0,6 6,0 0,25 -6,0 0,6 -6,0 0,6 -25,0 0,-6 -6,0 0,-6 -7,0 0,-13"
                                   inkscape:connector-curvature="0"
                                   id="path126"
                                   style="fill:#ffc326;fill-opacity:1;fill-rule:evenodd;stroke:none" /><path
                                   d="m 2859,3537 0,-12 -3,0 0,3 7,0 3,-3 0,-6 -3,0 0,3 6,0 3,-3 0,-7 -3,0 0,4 25,0 0,-4 -3,0 0,7 3,3 6,0 0,-3 -3,0 0,6 3,3 6,0 0,-3 -3,0 0,25 3,0 0,-3 -6,0 -3,3 0,6 3,0 0,-3 -6,0 -3,3 0,6 3,0 0,-3 -25,0 0,3 3,0 0,-6 -3,-3 -6,0 0,3 3,0 0,-6 -3,-3 -7,0 0,3 3,0 0,-13 z m -6,0 0,13 3,3 7,0 0,-3 -4,0 0,6 4,3 6,0 0,-3 -3,0 0,6 3,4 25,0 3,-4 0,-6 -3,0 0,3 6,0 3,-3 0,-6 -3,0 0,3 6,0 3,-3 0,-25 -3,-3 -6,0 0,3 3,0 0,-6 -3,-3 -6,0 0,3 3,0 0,-7 -3,-3 -25,0 -3,3 0,7 3,0 0,-3 -6,0 -4,3 0,6 4,0 0,-3 -7,0 -3,3 0,12"
                                   inkscape:connector-curvature="0"
                                   id="path128"
                                   style="fill:#ef8e01;fill-opacity:1;fill-rule:nonzero;stroke:none" /><path
                                   d="m 2669,3537 0,-12 6,0 0,-6 6,0 0,-7 25,0 0,7 7,0 0,6 6,0 0,25 -6,0 0,6 -7,0 0,6 -25,0 0,-6 -6,0 0,-6 -6,0 0,-13"
                                   inkscape:connector-curvature="0"
                                   id="path130"
                                   style="fill:#ffffff;fill-opacity:1;fill-rule:evenodd;stroke:none" /><path
                                   d="m 2672,3537 0,-12 -3,0 0,3 6,0 3,-3 0,-6 -3,0 0,3 6,0 3,-3 0,-7 -3,0 0,4 25,0 0,-4 -3,0 0,7 3,3 7,0 0,-3 -4,0 0,6 4,3 6,0 0,-3 -3,0 0,25 3,0 0,-3 -6,0 -4,3 0,6 4,0 0,-3 -7,0 -3,3 0,6 3,0 0,-3 -25,0 0,3 3,0 0,-6 -3,-3 -6,0 0,3 3,0 0,-6 -3,-3 -6,0 0,3 3,0 0,-13 z m -6,0 0,13 3,3 6,0 0,-3 -3,0 0,6 3,3 6,0 0,-3 -3,0 0,6 3,4 25,0 3,-4 0,-6 -3,0 0,3 7,0 3,-3 0,-6 -3,0 0,3 6,0 3,-3 0,-25 -3,-3 -6,0 0,3 3,0 0,-6 -3,-3 -7,0 0,3 3,0 0,-7 -3,-3 -25,0 -3,3 0,7 3,0 0,-3 -6,0 -3,3 0,6 3,0 0,-3 -6,0 -3,3 0,12"
                                   inkscape:connector-curvature="0"
                                   id="path132"
                                   style="fill:#7f7f7f;fill-opacity:1;fill-rule:nonzero;stroke:none" /><path
                                   d="m 2678,3537 0,-6 -3,0 2,2 6,-6 7,-6 -2,-2 0,3 12,0 0,-3 -2,2 6,6 6,6 3,-2 -4,0 0,13 4,0 -3,-2 -6,6 -6,6 2,2 0,-3 -12,0 0,3 2,-2 -7,-6 -6,-6 -2,2 3,0 0,-7 z m -6,0 0,7 1,2 6,6 6,6 3,1 12,0 2,-1 6,-6 7,-6 1,-2 0,-13 -1,-2 -7,-6 -6,-6 -2,-1 -12,0 -3,1 -6,6 -6,6 -1,2 0,6"
                                   inkscape:connector-curvature="0"
                                   id="path134"
                                   style="fill:#ffc326;fill-opacity:1;fill-rule:nonzero;stroke:none" /><path
                                   d="m 2669,3537 0,-12 6,0 0,-6 6,0 0,-7 25,0 0,7 7,0 0,6 6,0 0,25 -6,0 0,6 -7,0 0,6 -25,0 0,-6 -6,0 0,-6 -6,0 0,-13"
                                   inkscape:connector-curvature="0"
                                   id="path136"
                                   style="fill:#ffffff;fill-opacity:1;fill-rule:evenodd;stroke:none" /><path
                                   d="m 2672,3537 0,-12 -3,0 0,3 6,0 3,-3 0,-6 -3,0 0,3 6,0 3,-3 0,-7 -3,0 0,4 25,0 0,-4 -3,0 0,7 3,3 7,0 0,-3 -4,0 0,6 4,3 6,0 0,-3 -3,0 0,25 3,0 0,-3 -6,0 -4,3 0,6 4,0 0,-3 -7,0 -3,3 0,6 3,0 0,-3 -25,0 0,3 3,0 0,-6 -3,-3 -6,0 0,3 3,0 0,-6 -3,-3 -6,0 0,3 3,0 0,-13 z m -6,0 0,13 3,3 6,0 0,-3 -3,0 0,6 3,3 6,0 0,-3 -3,0 0,6 3,4 25,0 3,-4 0,-6 -3,0 0,3 7,0 3,-3 0,-6 -3,0 0,3 6,0 3,-3 0,-25 -3,-3 -6,0 0,3 3,0 0,-6 -3,-3 -7,0 0,3 3,0 0,-7 -3,-3 -25,0 -3,3 0,7 3,0 0,-3 -6,0 -3,3 0,6 3,0 0,-3 -6,0 -3,3 0,12"
                                   inkscape:connector-curvature="0"
                                   id="path138"
                                   style="fill:#ef8e01;fill-opacity:1;fill-rule:nonzero;stroke:none" /><path
                                   d="m 2681,3537 0,-6 7,0 0,-6 12,0 0,6 6,0 0,13 -6,0 0,6 -12,0 0,-6 -7,0 0,-7"
                                   inkscape:connector-curvature="0"
                                   id="path140"
                                   style="fill:#ffc326;fill-opacity:1;fill-rule:evenodd;stroke:none" /><path
                                   d="m 2681,3537 0,-6 7,0 0,-6 12,0 0,6 6,0 0,13 -6,0 0,6 -12,0 0,-6 -7,0 0,-7 z"
                                   inkscape:connector-curvature="0"
                                   id="path142"
                                   style="fill:none;stroke:#ffc326;stroke-width:1;stroke-linecap:round;stroke-linejoin:round;stroke-miterlimit:10;stroke-opacity:1;stroke-dasharray:none" /><path
                                   d="m 2859,3062 0,7 1,2 7,6 6,6 2,1 13,0 2,-1 6,-6 6,-6 1,-2 0,-13 -1,-2 -6,-6 -6,-6 -2,-1 -13,0 -2,1 -6,6 -7,6 -1,2 0,6 z m 7,0 0,-6 -3,0 2,2 6,-6 6,-6 -2,-2 0,3 13,0 0,-3 -3,2 7,6 6,6 2,-2 -3,0 0,13 3,0 -2,-2 -6,6 -7,6 3,2 0,-3 -13,0 0,3 2,-2 -6,-6 -6,-6 -2,2 3,0 0,-7"
                                   inkscape:connector-curvature="0"
                                   id="path144"
                                   style="fill:#ffc326;fill-opacity:1;fill-rule:nonzero;stroke:none" /><path
                                   d="m 2856,3062 0,13 7,0 0,6 6,0 0,6 25,0 0,-6 6,0 0,-6 6,0 0,-25 -6,0 0,-6 -6,0 0,-7 -25,0 0,7 -6,0 0,6 -7,0 0,12"
                                   inkscape:connector-curvature="0"
                                   id="path146"
                                   style="fill:#ffc326;fill-opacity:1;fill-rule:evenodd;stroke:none" /><path
                                   d="m 2853,3062 0,13 3,3 7,0 0,-3 -4,0 0,6 4,3 6,0 0,-3 -3,0 0,6 3,4 25,0 3,-4 0,-6 -3,0 0,3 6,0 3,-3 0,-6 -3,0 0,3 6,0 3,-3 0,-25 -3,-3 -6,0 0,3 3,0 0,-6 -3,-3 -6,0 0,3 3,0 0,-7 -3,-3 -25,0 -3,3 0,7 3,0 0,-3 -6,0 -4,3 0,6 4,0 0,-3 -7,0 -3,3 0,12 z m 6,0 0,-12 -3,0 0,3 7,0 3,-3 0,-6 -3,0 0,3 6,0 3,-3 0,-7 -3,0 0,4 25,0 0,-4 -3,0 0,7 3,3 6,0 0,-3 -3,0 0,6 3,3 6,0 0,-3 -3,0 0,25 3,0 0,-3 -6,0 -3,3 0,6 3,0 0,-3 -6,0 -3,3 0,6 3,0 0,-3 -25,0 0,3 3,0 0,-6 -3,-3 -6,0 0,3 3,0 0,-6 -3,-3 -7,0 0,3 3,0 0,-13"
                                   inkscape:connector-curvature="0"
                                   id="path148"
                                   style="fill:#ef8e01;fill-opacity:1;fill-rule:nonzero;stroke:none" /><path
                                   d="m 2669,3062 0,13 6,0 0,6 6,0 0,6 25,0 0,-6 7,0 0,-6 6,0 0,-25 -6,0 0,-6 -7,0 0,-7 -25,0 0,7 -6,0 0,6 -6,0 0,12"
                                   inkscape:connector-curvature="0"
                                   id="path150"
                                   style="fill:#ffffff;fill-opacity:1;fill-rule:evenodd;stroke:none" /><path
                                   d="m 2666,3062 0,13 3,3 6,0 0,-3 -3,0 0,6 3,3 6,0 0,-3 -3,0 0,6 3,4 25,0 3,-4 0,-6 -3,0 0,3 7,0 3,-3 0,-6 -3,0 0,3 6,0 3,-3 0,-25 -3,-3 -6,0 0,3 3,0 0,-6 -3,-3 -7,0 0,3 3,0 0,-7 -3,-3 -25,0 -3,3 0,7 3,0 0,-3 -6,0 -3,3 0,6 3,0 0,-3 -6,0 -3,3 0,12 z m 6,0 0,-12 -3,0 0,3 6,0 3,-3 0,-6 -3,0 0,3 6,0 3,-3 0,-7 -3,0 0,4 25,0 0,-4 -3,0 0,7 3,3 7,0 0,-3 -4,0 0,6 4,3 6,0 0,-3 -3,0 0,25 3,0 0,-3 -6,0 -4,3 0,6 4,0 0,-3 -7,0 -3,3 0,6 3,0 0,-3 -25,0 0,3 3,0 0,-6 -3,-3 -6,0 0,3 3,0 0,-6 -3,-3 -6,0 0,3 3,0 0,-13"
                                   inkscape:connector-curvature="0"
                                   id="path152"
                                   style="fill:#7f7f7f;fill-opacity:1;fill-rule:nonzero;stroke:none" /><path
                                   d="m 2672,3062 0,7 1,2 6,6 6,6 3,1 12,0 2,-1 6,-6 7,-6 1,-2 0,-13 -1,-2 -7,-6 -6,-6 -2,-1 -12,0 -3,1 -6,6 -6,6 -1,2 0,6 z m 6,0 0,-6 -3,0 2,2 6,-6 7,-6 -2,-2 0,3 12,0 0,-3 -2,2 6,6 6,6 3,-2 -4,0 0,13 4,0 -3,-2 -6,6 -6,6 2,2 0,-3 -12,0 0,3 2,-2 -7,-6 -6,-6 -2,2 3,0 0,-7"
                                   inkscape:connector-curvature="0"
                                   id="path154"
                                   style="fill:#ffc326;fill-opacity:1;fill-rule:nonzero;stroke:none" /><path
                                   d="m 2669,3062 0,13 6,0 0,6 6,0 0,6 25,0 0,-6 7,0 0,-6 6,0 0,-25 -6,0 0,-6 -7,0 0,-7 -25,0 0,7 -6,0 0,6 -6,0 0,12"
                                   inkscape:connector-curvature="0"
                                   id="path156"
                                   style="fill:#ffffff;fill-opacity:1;fill-rule:evenodd;stroke:none" /><path
                                   d="m 2666,3062 0,13 3,3 6,0 0,-3 -3,0 0,6 3,3 6,0 0,-3 -3,0 0,6 3,4 25,0 3,-4 0,-6 -3,0 0,3 7,0 3,-3 0,-6 -3,0 0,3 6,0 3,-3 0,-25 -3,-3 -6,0 0,3 3,0 0,-6 -3,-3 -7,0 0,3 3,0 0,-7 -3,-3 -25,0 -3,3 0,7 3,0 0,-3 -6,0 -3,3 0,6 3,0 0,-3 -6,0 -3,3 0,12 z m 6,0 0,-12 -3,0 0,3 6,0 3,-3 0,-6 -3,0 0,3 6,0 3,-3 0,-7 -3,0 0,4 25,0 0,-4 -3,0 0,7 3,3 7,0 0,-3 -4,0 0,6 4,3 6,0 0,-3 -3,0 0,25 3,0 0,-3 -6,0 -4,3 0,6 4,0 0,-3 -7,0 -3,3 0,6 3,0 0,-3 -25,0 0,3 3,0 0,-6 -3,-3 -6,0 0,3 3,0 0,-6 -3,-3 -6,0 0,3 3,0 0,-13"
                                   inkscape:connector-curvature="0"
                                   id="path158"
                                   style="fill:#ef8e01;fill-opacity:1;fill-rule:nonzero;stroke:none" /><path
                                   d="m 2681,3062 0,7 7,0 0,6 12,0 0,-6 6,0 0,-13 -6,0 0,-6 -12,0 0,6 -7,0 0,6"
                                   inkscape:connector-curvature="0"
                                   id="path160"
                                   style="fill:#ffc326;fill-opacity:1;fill-rule:evenodd;stroke:none" /><path
                                   d="m 2681,3062 0,7 7,0 0,6 12,0 0,-6 6,0 0,-13 -6,0 0,-6 -12,0 0,6 -7,0 0,6 z"
                                   inkscape:connector-curvature="0"
                                   id="path162"
                                   style="fill:none;stroke:#ffc326;stroke-width:1;stroke-linecap:round;stroke-linejoin:round;stroke-miterlimit:10;stroke-opacity:1;stroke-dasharray:none" /><path
                                   d="m 2241,3300 0,-6 -1,-2 -7,-7 -6,-6 -2,-1 -12,0 -3,1 -6,6 -6,7 -1,2 0,12 1,2 6,7 6,6 3,1 12,0 2,-1 6,-6 7,-7 1,-2 0,-6 z m -7,0 0,6 4,0 -3,-2 -6,6 -6,7 2,2 0,-3 -12,0 0,3 2,-2 -7,-7 -6,-6 -2,2 3,0 0,-12 -3,0 2,2 6,-6 7,-7 -2,-2 0,3 12,0 0,-3 -2,2 6,7 6,6 3,-2 -4,0 0,6"
                                   inkscape:connector-curvature="0"
                                   id="path164"
                                   style="fill:#ffc326;fill-opacity:1;fill-rule:nonzero;stroke:none" /><path
                                   d="m 2244,3300 0,-13 -6,0 0,-6 -7,0 0,-6 -25,0 0,6 -6,0 0,6 -6,0 0,25 6,0 0,7 6,0 0,6 25,0 0,-6 7,0 0,-7 6,0 0,-12"
                                   inkscape:connector-curvature="0"
                                   id="path166"
                                   style="fill:#ffc326;fill-opacity:1;fill-rule:evenodd;stroke:none" /><path
                                   d="m 2247,3300 0,-13 -3,-3 -6,0 0,3 3,0 0,-6 -3,-3 -7,0 0,3 3,0 0,-6 -3,-3 -25,0 -3,3 0,6 3,0 0,-3 -6,0 -3,3 0,6 3,0 0,-3 -6,0 -3,3 0,25 3,4 6,0 0,-4 -3,0 0,7 3,3 6,0 0,-3 -3,0 0,6 3,3 25,0 3,-3 0,-6 -3,0 0,3 7,0 3,-3 0,-7 -3,0 0,4 6,0 3,-4 0,-12 z m -6,0 0,12 3,0 0,-3 -6,0 -4,3 0,7 4,0 0,-3 -7,0 -3,3 0,6 3,0 0,-3 -25,0 0,3 3,0 0,-6 -3,-3 -6,0 0,3 3,0 0,-7 -3,-3 -6,0 0,3 3,0 0,-25 -3,0 0,4 6,0 3,-4 0,-6 -3,0 0,3 6,0 3,-3 0,-6 -3,0 0,3 25,0 0,-3 -3,0 0,6 3,3 7,0 0,-3 -4,0 0,6 4,4 6,0 0,-4 -3,0 0,13"
                                   inkscape:connector-curvature="0"
                                   id="path168"
                                   style="fill:#ef8e01;fill-opacity:1;fill-rule:nonzero;stroke:none" /><path
                                   d="m 2431,3300 0,-13 -6,0 0,-6 -6,0 0,-6 -25,0 0,6 -6,0 0,6 -7,0 0,25 7,0 0,7 6,0 0,6 25,0 0,-6 6,0 0,-7 6,0 0,-12"
                                   inkscape:connector-curvature="0"
                                   id="path170"
                                   style="fill:#ffffff;fill-opacity:1;fill-rule:evenodd;stroke:none" /><path
                                   d="m 2434,3300 0,-13 -3,-3 -6,0 0,3 3,0 0,-6 -3,-3 -6,0 0,3 3,0 0,-6 -3,-3 -25,0 -3,3 0,6 3,0 0,-3 -6,0 -4,3 0,6 4,0 0,-3 -7,0 -3,3 0,25 3,4 7,0 0,-4 -4,0 0,7 4,3 6,0 0,-3 -3,0 0,6 3,3 25,0 3,-3 0,-6 -3,0 0,3 6,0 3,-3 0,-7 -3,0 0,4 6,0 3,-4 0,-12 z m -6,0 0,12 3,0 0,-3 -6,0 -3,3 0,7 3,0 0,-3 -6,0 -3,3 0,6 3,0 0,-3 -25,0 0,3 3,0 0,-6 -3,-3 -6,0 0,3 3,0 0,-7 -3,-3 -7,0 0,3 3,0 0,-25 -3,0 0,4 7,0 3,-4 0,-6 -3,0 0,3 6,0 3,-3 0,-6 -3,0 0,3 25,0 0,-3 -3,0 0,6 3,3 6,0 0,-3 -3,0 0,6 3,4 6,0 0,-4 -3,0 0,13"
                                   inkscape:connector-curvature="0"
                                   id="path172"
                                   style="fill:#7f7f7f;fill-opacity:1;fill-rule:nonzero;stroke:none" /><path
                                   d="m 2428,3300 0,-6 -1,-2 -6,-7 -6,-6 -2,-1 -13,0 -2,1 -6,6 -7,7 -1,2 0,12 1,2 7,7 6,6 2,1 13,0 2,-1 6,-6 6,-7 1,-2 0,-6 z m -6,0 0,6 3,0 -2,-2 -6,6 -7,7 3,2 0,-3 -13,0 0,3 2,-2 -6,-7 -6,-6 -2,2 3,0 0,-12 -3,0 2,2 6,-6 6,-7 -2,-2 0,3 13,0 0,-3 -3,2 7,7 6,6 2,-2 -3,0 0,6"
                                   inkscape:connector-curvature="0"
                                   id="path174"
                                   style="fill:#ffc326;fill-opacity:1;fill-rule:nonzero;stroke:none" /><path
                                   d="m 2431,3300 0,-13 -6,0 0,-6 -6,0 0,-6 -25,0 0,6 -6,0 0,6 -7,0 0,25 7,0 0,7 6,0 0,6 25,0 0,-6 6,0 0,-7 6,0 0,-12"
                                   inkscape:connector-curvature="0"
                                   id="path176"
                                   style="fill:#ffffff;fill-opacity:1;fill-rule:evenodd;stroke:none" /><path
                                   d="m 2434,3300 0,-13 -3,-3 -6,0 0,3 3,0 0,-6 -3,-3 -6,0 0,3 3,0 0,-6 -3,-3 -25,0 -3,3 0,6 3,0 0,-3 -6,0 -4,3 0,6 4,0 0,-3 -7,0 -3,3 0,25 3,4 7,0 0,-4 -4,0 0,7 4,3 6,0 0,-3 -3,0 0,6 3,3 25,0 3,-3 0,-6 -3,0 0,3 6,0 3,-3 0,-7 -3,0 0,4 6,0 3,-4 0,-12 z m -6,0 0,12 3,0 0,-3 -6,0 -3,3 0,7 3,0 0,-3 -6,0 -3,3 0,6 3,0 0,-3 -25,0 0,3 3,0 0,-6 -3,-3 -6,0 0,3 3,0 0,-7 -3,-3 -7,0 0,3 3,0 0,-25 -3,0 0,4 7,0 3,-4 0,-6 -3,0 0,3 6,0 3,-3 0,-6 -3,0 0,3 25,0 0,-3 -3,0 0,6 3,3 6,0 0,-3 -3,0 0,6 3,4 6,0 0,-4 -3,0 0,13"
                                   inkscape:connector-curvature="0"
                                   id="path178"
                                   style="fill:#ef8e01;fill-opacity:1;fill-rule:nonzero;stroke:none" /><path
                                   d="m 2419,3300 0,-6 -6,0 0,-7 -13,0 0,7 -6,0 0,12 6,0 0,6 13,0 0,-6 6,0 0,-6"
                                   inkscape:connector-curvature="0"
                                   id="path180"
                                   style="fill:#ffc326;fill-opacity:1;fill-rule:evenodd;stroke:none" /><path
                                   d="m 2419,3300 0,-6 -6,0 0,-7 -13,0 0,7 -6,0 0,12 6,0 0,6 13,0 0,-6 6,0 0,-6 z"
                                   inkscape:connector-curvature="0"
                                   id="path182"
                                   style="fill:none;stroke:#ffc326;stroke-width:1;stroke-linecap:round;stroke-linejoin:round;stroke-miterlimit:10;stroke-opacity:1;stroke-dasharray:none" /><g
                                   transform="scale(8.33333,8.33333)"
                                   id="g184"><text
                                   transform="matrix(1,0,0,-1,373.56,435.96)"
                                   id="text186"><tspan
                                   x="0 1.4400001 6 11.160006 16.440012 24.719999 30.000006 32.999992"
                                   y="0"
                                   id="tspan188"
                                   style="font-size:9px;font-variant:normal;font-weight:normal;writing-mode:lr-tb;fill:#000000;fill-opacity:1;fill-rule:nonzero;stroke:none;font-family:Helvetica;-inkscape-font-specification:Helvetica">'cheme-'</tspan></text>
</g><path
                                   d="m 3325,3537 0,-18 -6,-7 0,-12 -6,0 -7,-6 0,-7 -6,0 -6,-6 0,-6 -13,0 -6,-6 -37,0 -7,6 -6,0 -6,6 -6,6 -7,0 0,7 -6,6 -6,0 0,12 -6,7 0,37 6,6 0,7 6,6 6,6 0,6 7,0 6,7 6,6 6,0 7,6 37,0 6,-6 13,0 0,-6 6,-7 6,0 0,-6 7,-6 6,-6 0,-7 6,-6 0,-19"
                                   inkscape:connector-curvature="0"
                                   id="path190"
                                   style="fill:#ffc326;fill-opacity:1;fill-rule:evenodd;stroke:none" /><path
                                   d="m 3328,3537 0,-18 -1,-2 -6,-7 -2,2 3,0 0,-12 -3,-3 -6,0 0,3 2,-2 -7,-6 -2,2 3,0 0,-7 -3,-3 -6,0 0,3 2,-2 -6,-6 -2,2 3,0 0,-6 -3,-3 -13,0 0,3 2,-2 -6,-6 -2,-1 -37,0 -3,1 -6,6 2,2 0,-3 -6,0 -2,1 -6,6 -7,6 3,2 0,-3 -7,0 -3,3 0,7 3,0 -2,-2 -6,6 2,2 0,-3 -6,0 -3,3 0,12 3,0 -2,-2 -7,7 -1,2 0,37 1,2 7,7 2,-3 -3,0 0,7 1,2 6,6 6,6 2,-2 -3,0 0,6 3,4 7,0 0,-4 -3,3 7,6 6,6 2,1 6,0 0,-3 -2,2 6,6 3,1 37,0 2,-1 6,-6 -2,-2 0,3 13,0 3,-3 0,-6 -3,0 2,2 6,-6 -2,-3 0,4 6,0 3,-4 0,-6 -3,0 2,2 7,-6 6,-6 1,-2 0,-7 -3,0 2,3 6,-7 1,-2 0,-19 z m -6,0 0,19 3,0 -2,-2 -6,6 -1,2 0,7 3,0 -2,-2 -7,6 -6,6 -1,2 0,6 3,0 0,-3 -6,0 -2,1 -6,7 -1,2 0,6 3,0 0,-3 -13,0 -2,1 -6,6 2,2 0,-3 -37,0 0,3 2,-2 -7,-6 -2,-1 -6,0 0,3 2,-2 -6,-6 -6,-7 -2,-1 -7,0 0,3 3,0 0,-6 -1,-2 -6,-6 -6,-6 -2,2 3,0 0,-7 -1,-2 -6,-6 -2,2 3,0 0,-37 -3,0 2,2 6,-6 1,-3 0,-12 -3,0 0,3 6,0 2,-1 6,-6 1,-2 0,-7 -3,0 0,4 7,0 2,-1 6,-7 6,-6 -2,-2 0,3 6,0 2,-1 7,-6 -2,-2 0,3 37,0 0,-3 -2,2 6,6 2,1 13,0 0,-3 -3,0 0,6 1,2 6,7 2,1 6,0 0,-4 -3,0 0,7 1,2 6,6 3,1 6,0 0,-3 -3,0 0,12 1,3 6,6 2,-2 -3,0 0,18"
                                   inkscape:connector-curvature="0"
                                   id="path192"
                                   style="fill:#ef8e01;fill-opacity:1;fill-rule:nonzero;stroke:none" /><g
                                   transform="scale(8.33333,8.33333)"
                                   id="g194"><text
                                   transform="matrix(1,0,0,-1,372,378.96)"
                                   id="text196"><tspan
                                   x="0 1.560006 6.0000062 11.280012 16.560017 24.720005 31.560019 36.720013"
                                   y="0"
                                   id="tspan198"
                                   style="font-size:9px;font-variant:normal;font-weight:normal;writing-mode:lr-tb;fill:#000000;fill-opacity:1;fill-rule:nonzero;stroke:none;font-family:Helvetica;-inkscape-font-specification:Helvetica">'chemH+'</tspan></text>
</g><path
                                   d="m 3325,3062 0,-18 -6,-7 0,-12 -6,0 -7,-6 0,-7 -6,0 -6,-6 0,-6 -13,0 -6,-6 -37,0 -7,6 -6,0 -6,6 -6,6 -7,0 0,7 -6,6 -6,0 0,12 -6,7 0,37 6,6 0,7 6,6 6,6 0,6 7,0 6,7 6,6 6,0 7,6 37,0 6,-6 13,0 0,-6 6,-7 6,0 0,-6 7,-6 6,-6 0,-7 6,-6 0,-19"
                                   inkscape:connector-curvature="0"
                                   id="path200"
                                   style="fill:#ffc326;fill-opacity:1;fill-rule:evenodd;stroke:none" /><path
                                   d="m 3328,3062 0,-18 -1,-2 -6,-7 -2,2 3,0 0,-12 -3,-3 -6,0 0,3 2,-2 -7,-6 -2,2 3,0 0,-7 -3,-3 -6,0 0,3 2,-2 -6,-6 -2,2 3,0 0,-6 -3,-3 -13,0 0,3 2,-2 -6,-6 -2,-1 -37,0 -3,1 -6,6 2,2 0,-3 -6,0 -2,1 -6,6 -7,6 3,2 0,-3 -7,0 -3,3 0,7 3,0 -2,-2 -6,6 2,2 0,-3 -6,0 -3,3 0,12 3,0 -2,-2 -7,7 -1,2 0,37 1,2 7,7 2,-3 -3,0 0,7 1,2 6,6 6,6 2,-2 -3,0 0,6 3,4 7,0 0,-4 -3,3 7,6 6,6 2,1 6,0 0,-3 -2,2 6,6 3,1 37,0 2,-1 6,-6 -2,-2 0,3 13,0 3,-3 0,-6 -3,0 2,2 6,-6 -2,-3 0,4 6,0 3,-4 0,-6 -3,0 2,2 7,-6 6,-6 1,-2 0,-7 -3,0 2,3 6,-7 1,-2 0,-19 z m -6,0 0,19 3,0 -2,-2 -6,6 -1,2 0,7 3,0 -2,-2 -7,6 -6,6 -1,2 0,6 3,0 0,-3 -6,0 -2,1 -6,7 -1,2 0,6 3,0 0,-3 -13,0 -2,1 -6,6 2,2 0,-3 -37,0 0,3 2,-2 -7,-6 -2,-1 -6,0 0,3 2,-2 -6,-6 -6,-7 -2,-1 -7,0 0,3 3,0 0,-6 -1,-2 -6,-6 -6,-6 -2,2 3,0 0,-7 -1,-2 -6,-6 -2,2 3,0 0,-37 -3,0 2,2 6,-6 1,-3 0,-12 -3,0 0,3 6,0 2,-1 6,-6 1,-2 0,-7 -3,0 0,4 7,0 2,-1 6,-7 6,-6 -2,-2 0,3 6,0 2,-1 7,-6 -2,-2 0,3 37,0 0,-3 -2,2 6,6 2,1 13,0 0,-3 -3,0 0,6 1,2 6,7 2,1 6,0 0,-4 -3,0 0,7 1,2 6,6 3,1 6,0 0,-3 -3,0 0,12 1,3 6,6 2,-2 -3,0 0,18"
                                   inkscape:connector-curvature="0"
                                   id="path202"
                                   style="fill:#ef8e01;fill-opacity:1;fill-rule:nonzero;stroke:none" /><g
                                   transform="scale(8.33333,8.33333)"
                                   id="g204"><text
                                   transform="matrix(1,0,0,-1,204,407.52)"
                                   id="text206"><tspan
                                   x="0 4.5599999 9.720006 15.000011 23.280012 30.000008"
                                   y="0"
                                   id="tspan208"
                                   style="font-size:9px;font-variant:normal;font-weight:normal;writing-mode:lr-tb;fill:#000000;fill-opacity:1;fill-rule:nonzero;stroke:none;font-family:Helvetica;-inkscape-font-specification:Helvetica">chemH2</tspan></text>
</g><path
                                   d="m 1913,3300 0,-19 -7,-6 0,-13 -6,0 -6,-6 0,-6 -6,0 -7,-6 0,-7 -12,0 -6,-6 -38,0 -6,6 -6,0 -7,7 -6,6 -6,0 0,6 -6,6 -7,0 0,13 -6,6 0,38 6,6 0,6 7,6 6,7 0,6 6,0 6,6 7,6 6,0 6,7 38,0 6,-7 12,0 0,-6 7,-6 6,0 0,-6 6,-7 6,-6 0,-6 7,-6 0,-19"
                                   inkscape:connector-curvature="0"
                                   id="path210"
                                   style="fill:#ffc326;fill-opacity:1;fill-rule:evenodd;stroke:none" /><path
                                   d="m 1916,3300 0,-19 -1,-2 -7,-6 -2,2 3,0 0,-13 -3,-3 -6,0 0,3 2,-2 -6,-6 -2,2 3,0 0,-6 -3,-3 -6,0 0,3 2,-2 -7,-6 -2,2 3,0 0,-7 -3,-3 -12,0 0,3 2,-2 -6,-6 -2,-1 -38,0 -2,1 -6,6 2,2 0,-3 -6,0 -3,1 -6,7 -6,6 2,2 0,-3 -6,0 -3,3 0,6 3,0 -2,-2 -7,6 3,2 0,-3 -7,0 -3,3 0,13 3,0 -2,-2 -6,6 -1,2 0,38 1,2 6,6 2,-2 -3,0 0,6 1,2 6,7 7,6 2,-2 -3,0 0,6 3,3 6,0 0,-3 -2,2 6,6 6,7 3,1 6,0 0,-4 -2,3 6,6 2,1 38,0 2,-1 6,-6 -2,-3 0,4 12,0 3,-4 0,-6 -3,0 2,2 7,-6 -2,-2 0,3 6,0 3,-3 0,-6 -3,0 2,2 6,-6 6,-7 1,-2 0,-6 -3,0 2,2 7,-6 1,-2 0,-19 z m -7,0 0,19 4,0 -3,-2 -6,6 -1,2 0,6 3,0 -2,-2 -6,6 -6,7 -1,2 0,6 3,0 0,-3 -6,0 -3,1 -6,6 -1,2 0,6 3,0 0,-3 -12,0 -2,1 -7,7 3,2 0,-3 -38,0 0,3 2,-2 -6,-7 -2,-1 -6,0 0,3 2,-2 -7,-6 -6,-6 -2,-1 -6,0 0,3 3,0 0,-6 -1,-2 -6,-7 -7,-6 -2,2 3,0 0,-6 -1,-2 -6,-6 -2,2 3,0 0,-38 -3,0 2,2 6,-6 1,-2 0,-13 -3,0 0,4 7,0 2,-1 6,-7 1,-2 0,-6 -3,0 0,3 6,0 2,-1 6,-6 7,-6 -2,-3 0,4 6,0 2,-1 6,-7 -2,-2 0,3 38,0 0,-3 -3,2 7,7 2,1 12,0 0,-4 -3,0 0,7 1,2 6,6 3,1 6,0 0,-3 -3,0 0,6 1,2 6,7 2,1 6,0 0,-4 -3,0 0,13 1,2 6,6 3,-2 -4,0 0,19"
                                   inkscape:connector-curvature="0"
                                   id="path212"
                                   style="fill:#ef8e01;fill-opacity:1;fill-rule:nonzero;stroke:none" /></g></g></g></g></g></g></g></g></g></g></g></g></g></g></g></g></g></svg>