<?xml version="1.0" encoding="UTF-8" standalone="no"?>
<!-- Created with Inkscape (http://www.inkscape.org/) -->

<svg
   xmlns:dc="http://purl.org/dc/elements/1.1/"
   xmlns:cc="http://creativecommons.org/ns#"
   xmlns:rdf="http://www.w3.org/1999/02/22-rdf-syntax-ns#"
   xmlns:svg="http://www.w3.org/2000/svg"
   xmlns="http://www.w3.org/2000/svg"
   xmlns:inkscape="http://www.inkscape.org/namespaces/inkscape"
   version="1.1"
   width="665"
   height="678.75"
   id="svg2"
   xml:space="preserve"><metadata
     id="metadata8"><rdf:RDF><cc:Work
         rdf:about=""><dc:format>image/svg+xml</dc:format><dc:type
           rdf:resource="http://purl.org/dc/dcmitype/StillImage" /></cc:Work></rdf:RDF></metadata><defs
     id="defs6"><clipPath
       id="clipPath18"><path
         d="M 0,0 532,0 532,543 0,543 0,0 z"
         inkscape:connector-curvature="0"
         id="path20" /></clipPath><clipPath
       id="clipPath28"><path
         d="M 0,0 532,0 532,543 0,543 0,0 z"
         inkscape:connector-curvature="0"
         id="path30" /></clipPath><clipPath
       id="clipPath38"><path
         d="M 0,0 532,0 532,543 0,543 0,0 z"
         inkscape:connector-curvature="0"
         id="path40" /></clipPath><clipPath
       id="clipPath48"><path
         d="M 0,0 532,0 532,543 0,543 0,0 z"
         inkscape:connector-curvature="0"
         id="path50" /></clipPath><clipPath
       id="clipPath58"><path
         d="M 0,0 532,0 532,543 0,543 0,0 z"
         inkscape:connector-curvature="0"
         id="path60" /></clipPath><clipPath
       id="clipPath68"><path
         d="M 0,0 532,0 532,543 0,543 0,0 z"
         inkscape:connector-curvature="0"
         id="path70" /></clipPath><clipPath
       id="clipPath78"><path
         d="M 0,0 612,0 612,792 0,792 0,0 z"
         inkscape:connector-curvature="0"
         id="path80" /></clipPath></defs><g
     transform="matrix(1.25,0,0,-1.25,0,678.75)"
     id="g10"><g
       id="g12"><g
         id="g14"><g
           clip-path="url(#clipPath18)"
           id="g16"><g
             id="g22"><g
               id="g24"><g
                 clip-path="url(#clipPath28)"
                 id="g26"><g
                   id="g32"><g
                     id="g34"><g
                       clip-path="url(#clipPath38)"
                       id="g36"><g
                         id="g42"><g
                           id="g44"><g
                             clip-path="url(#clipPath48)"
                             id="g46"><g
                               id="g52"><g
                                 id="g54"><g
                                   clip-path="url(#clipPath58)"
                                   id="g56"><g
                                   id="g62"><g
                                   id="g64"><g
                                   clip-path="url(#clipPath68)"
                                   id="g66"><g
                                   transform="translate(-40,-145)"
                                   id="g72"><g
                                   id="g74"><g
                                   clip-path="url(#clipPath78)"
                                   id="g76"><g
                                   transform="scale(0.12,0.12)"
                                   id="g82"><path
                                   d="m 2550,4575 -731,437 12,19 13,19 12,12 13,19 12,19 13,12 12,19 13,13 19,18 12,13 13,12 18,19 13,13 19,12 12,13 19,12 19,13 12,12 19,13 19,12 18,6 19,13 19,6 19,13 18,6 19,12 19,7 19,6 18,6 25,6 19,7 19,6 19,6 18,0 25,6 19,7 44,0 19,6 125,0 18,-6 44,0 19,-7 25,-6 19,0 18,-6 19,-6 19,-7 25,-6 19,-6 18,-6 19,-7 19,-12 19,-6 18,-13 19,-6 19,-13 19,-6 18,-12 19,-13 13,-12 18,-13 19,-12 13,-13 18,-12 13,-13 19,-19 12,-12 13,-13 18,-18 13,-13 12,-19 13,-12 12,-19 13,-19 12,-12 13,-19 12,-19 -731,-437"
                                   inkscape:connector-curvature="0"
                                   id="path84"
                                   style="fill:#e1e1e1;fill-opacity:1;fill-rule:evenodd;stroke:none" /><path
                                   d="m 2548,4572 -21,13 3,6 22,-13 -4,-6 z m -32,20 -21,12 3,6 21,-13 -3,-5 z m -32,19 -21,13 3,5 21,-13 -3,-5 z m -32,19 -22,13 4,5 21,-13 -3,-5 z m -32,19 -22,13 3,6 22,-13 -3,-6 z m -33,20 -21,12 3,6 22,-13 -4,-5 z m -32,19 -21,13 3,5 22,-13 -4,-5 z m -32,19 -21,13 3,5 21,-13 -3,-5 z m -32,19 -21,13 3,6 21,-13 -3,-6 z m -32,20 -22,12 4,6 21,-13 -3,-5 z m -32,19 -22,13 3,5 22,-13 -3,-5 z m -33,19 -21,13 3,5 22,-13 -4,-5 z m -32,19 -21,13 3,6 21,-13 -3,-6 z m -32,20 -21,12 3,6 21,-13 -3,-5 z m -32,19 -22,13 4,5 21,-13 -3,-5 z m -32,19 -22,13 3,5 22,-13 -3,-5 z m -32,19 -22,13 3,6 22,-13 -3,-6 z m -33,20 -21,12 3,6 22,-13 -4,-5 z m -32,19 -21,13 3,5 21,-13 -3,-5 z m -32,19 -21,13 3,5 21,-13 -3,-5 z m -32,19 -22,13 4,6 21,-13 -3,-6 z m -32,20 -22,12 3,6 22,-13 -3,-5 z m -33,19 -21,13 3,5 22,-13 -4,-5 z m -18,27 7,10 7,11 5,-4 -7,-10 -7,-11 -5,4 z m 22,31 10,11 2,-3 -2,2 5,9 5,-4 -5,-8 -1,-1 -10,-10 -4,4 z m 22,29 13,19 0,0 2,2 4,-4 -2,-2 -2,2 3,-2 -13,-18 -5,3 z m 24,30 2,2 2,-3 -3,2 13,19 5,-4 -13,-18 0,-1 -2,-2 -4,5 z m 23,29 4,4 13,14 5,-5 -14,-13 -4,-4 -4,4 z m 26,27 9,8 9,9 4,-4 -9,-9 -8,-9 -5,5 z m 27,26 13,13 4,5 5,-5 -5,-4 -13,-13 -4,4 z m 27,27 18,12 2,-3 -3,2 3,3 4,-4 -2,-3 -1,0 -18,-12 -3,5 z m 29,23 1,1 0,0 19,13 1,0 3,-5 -1,0 -18,-13 -2,3 2,-2 -1,-2 -4,5 z m 31,21 8,5 2,-2 -3,2 11,11 5,-4 -11,-11 -1,-1 -7,-5 -4,5 z m 29,24 10,6 11,8 3,-6 -11,-7 -9,-6 -4,5 z m 32,20 16,5 1,-3 -1,3 6,5 4,-5 -7,-5 -1,0 -16,-6 -2,6 z m 33,17 1,1 1,0 19,6 1,-3 -2,3 3,2 3,-5 -3,-2 0,-1 -19,-6 -1,3 2,-3 -2,-1 -3,6 z m 33,16 6,3 1,1 17,6 2,-6 -18,-6 0,3 1,-3 -5,-3 -4,5 z m 34,16 9,6 1,0 13,5 2,-6 -13,-4 -1,2 2,-2 -10,-6 -3,5 z m 35,15 13,4 11,4 2,-6 -12,-4 -12,-4 -2,6 z m 36,11 20,6 1,-4 -1,3 4,2 2,-6 -4,-1 0,-1 -21,-5 -1,6 z m 36,11 3,1 19,6 1,0 2,-5 -1,-1 -19,-6 -3,-1 -2,6 z m 35,11 6,2 19,0 0,-3 -1,3 1,0 2,-6 -20,0 0,3 0,-3 -5,-2 -2,6 z m 37,5 12,4 1,-4 -1,3 12,4 2,-6 -12,-3 0,-1 -12,-3 -2,6 z m 37,10 25,0 0,-6 -25,0 0,6 z m 38,0 1,0 0,-3 -1,3 19,6 5,0 0,-6 -4,0 0,3 0,-3 -18,-6 -2,0 0,6 z m 36,6 25,0 0,-6 -25,0 0,6 z m 38,0 25,0 0,-6 -25,0 0,6 z m 37,0 25,0 0,-6 -25,0 0,6 z m 38,-1 15,-5 -1,-3 0,3 10,0 0,-6 -11,0 -15,5 2,6 z m 36,-5 23,0 3,-1 -2,-6 -3,1 1,3 0,-3 -22,0 0,6 z m 38,-5 4,-2 -1,-3 1,4 20,-5 -2,-7 -20,5 0,1 -4,1 2,6 z m 35,-8 12,0 0,0 14,-4 -2,-6 -13,4 1,3 0,-3 -12,0 0,6 z m 37,-8 13,-4 11,-4 -2,-6 -11,4 -13,4 2,6 z m 36,-12 21,-5 0,0 3,-1 -2,-6 -3,1 1,3 -1,-3 -21,5 2,6 z m 36,-10 3,-1 19,-6 2,-1 -2,-6 -2,1 -18,6 -4,1 2,6 z m 36,-12 5,-2 1,0 16,-11 -4,-5 -16,11 2,2 -1,-2 -5,1 2,6 z m 33,-17 9,-3 1,-1 12,-8 -3,-5 -12,8 2,3 -1,-3 -10,3 2,6 z m 33,-17 14,-5 1,0 8,-6 -4,-5 -8,5 2,3 -1,-3 -14,5 2,6 z m 33,-18 0,0 -1,-3 1,3 18,-6 1,0 4,-3 -3,-5 -4,3 2,2 -1,-3 -19,7 -1,0 0,0 3,5 z m 34,-16 4,-3 17,-11 -4,-5 -16,11 -5,3 4,5 z m 30,-23 6,-5 -2,-2 1,2 15,-9 -4,-5 -14,9 -1,1 -5,5 4,4 z m 30,-21 13,-9 0,0 7,-7 -4,-4 -7,7 2,2 -2,-3 -13,9 4,5 z m 29,-24 15,-10 0,0 5,-5 -4,-4 -5,5 2,2 -1,-3 -16,10 4,5 z m 29,-24 18,-17 0,0 -5,-5 0,0 -17,18 4,4 z m 27,-26 3,-4 13,-12 1,-2 -4,-4 -2,1 -12,13 -4,3 5,5 z m 26,-27 8,-8 10,-9 -5,-5 -9,10 -8,8 4,4 z m 26,-28 8,-12 -3,-2 2,3 8,-8 -4,-4 -8,7 0,1 -8,12 5,3 z m 23,-29 10,-14 4,-7 -5,-3 -4,7 -10,14 5,3 z m 21,-31 1,-2 -2,-2 2,3 12,-13 1,0 3,-5 -5,-3 -3,4 2,2 -2,-2 -12,12 -1,1 -1,2 5,3 z m 24,-29 2,-4 12,-17 -6,-3 -11,17 -3,4 6,3 z m 5,-32 -21,-13 -4,5 22,13 3,-5 z m -32,-20 -22,-12 -3,5 22,13 3,-6 z m -32,-19 -22,-13 -3,6 22,12 3,-5 z m -32,-19 -22,-13 -3,5 21,13 4,-5 z m -33,-19 -21,-13 -3,5 21,13 3,-5 z m -32,-20 -21,-13 -3,6 21,13 3,-6 z m -32,-19 -21,-13 -4,6 22,12 3,-5 z m -32,-19 -22,-13 -3,5 22,13 3,-5 z m -32,-19 -22,-13 -3,5 21,13 4,-5 z m -32,-20 -22,-13 -3,6 21,13 4,-6 z m -33,-19 -21,-13 -3,6 21,12 3,-5 z m -32,-19 -21,-13 -4,5 22,13 3,-5 z m -32,-19 -21,-13 -4,5 22,13 3,-5 z m -32,-20 -22,-13 -3,6 22,13 3,-6 z m -32,-19 -22,-13 -3,6 21,12 4,-5 z m -33,-19 -21,-13 -3,5 21,13 3,-5 z m -32,-19 -21,-13 -3,5 21,13 3,-5 z m -32,-20 -21,-13 -4,6 22,13 3,-6 z m -32,-19 -22,-13 -3,6 22,12 3,-5 z m -32,-19 -22,-13 -3,5 21,13 4,-5 z m -32,-19 -22,-13 -3,5 21,13 4,-5 z m -33,-20 -21,-13 -3,6 21,13 3,-6 z m -32,-19 -14,-9 -4,6 15,8 3,-5"
                                   inkscape:connector-curvature="0"
                                   id="path86"
                                   style="fill:#7f7f7f;fill-opacity:1;fill-rule:nonzero;stroke:none" /><path
                                   d="m 3825,2362 731,438 7,-19 12,-19 6,-18 13,-19 6,-19 13,-19 6,-18 6,-19 6,-19 7,-25 6,-19 6,-18 6,-19 0,-19 7,-25 6,-19 0,-43 6,-19 0,-125 -6,-19 0,-44 -6,-18 -7,-25 0,-19 -6,-19 -6,-19 -6,-18 -7,-25 -6,-19 -6,-19 -6,-19 -13,-18 -6,-19 -13,-19 -6,-19 -12,-18 -7,-19 -12,-19 -13,-19 -12,-12 -13,-19 -12,-19 -13,-12 -12,-19 -13,-12 -18,-19 -13,-13 -12,-12 -19,-19 -13,-12 -18,-13 -13,-12 -19,-13 -18,-12 -13,-13 -19,-12 -18,-13 -19,-6 -19,-13 -19,-6 -18,-12 -19,-7 -19,-12 -19,-6 -18,-7 -19,-6 -25,-6 -19,-6 -19,-7 -18,-6 -19,0 -25,-6 -19,-6 -44,0 -18,-7 -63,0 0,850"
                                   inkscape:connector-curvature="0"
                                   id="path88"
                                   style="fill:#e1e1e1;fill-opacity:1;fill-rule:evenodd;stroke:none" /><path
                                   d="m 3823,2365 22,13 3,-5 -21,-13 -4,5 z m 33,19 21,13 3,-5 -21,-13 -3,5 z m 32,20 21,13 3,-6 -21,-13 -3,6 z m 32,19 21,13 4,-6 -22,-12 -3,5 z m 32,19 22,13 3,-5 -22,-13 -3,5 z m 32,19 22,13 3,-5 -21,-13 -4,5 z m 32,20 22,13 3,-6 -21,-13 -4,6 z m 33,19 21,13 3,-6 -21,-12 -3,5 z m 32,19 21,13 3,-5 -21,-13 -3,5 z m 32,19 21,13 4,-5 -22,-13 -3,5 z m 32,20 22,13 3,-6 -22,-13 -3,6 z m 32,19 22,13 3,-6 -21,-12 -4,5 z m 33,19 21,13 3,-5 -21,-13 -3,5 z m 32,19 21,13 3,-5 -21,-13 -3,5 z m 32,20 21,13 4,-6 -22,-13 -3,6 z m 32,19 22,13 3,-6 -22,-12 -3,5 z m 32,19 22,13 3,-5 -22,-13 -3,5 z m 32,19 22,13 3,-5 -21,-13 -4,5 z m 33,20 21,13 3,-6 -21,-13 -3,6 z m 32,19 21,13 3,-6 -21,-12 -3,5 z m 32,19 21,13 4,-5 -22,-13 -3,5 z m 32,19 22,13 3,-5 -22,-13 -3,5 z m 32,20 22,13 3,-6 -21,-13 -4,6 z m 31,2 3,-9 -2,-1 2,2 9,-13 -5,-3 -9,13 0,0 -3,9 5,2 z m 18,-33 4,-13 -3,-1 3,1 6,-9 -5,-3 -6,9 -1,1 -4,13 6,2 z m 17,-33 6,-18 -3,-1 3,2 3,-5 -5,-3 -4,5 0,0 -6,18 6,2 z m 16,-32 2,-4 0,-1 7,-18 0,-1 -6,-2 0,1 -6,19 3,0 -3,-1 -2,3 5,4 z m 13,-36 2,-6 6,-18 -6,-2 -6,18 -2,6 6,2 z m 11,-36 4,-14 -3,-1 2,1 4,-10 -6,-2 -3,10 -1,0 -3,14 6,2 z m 11,-36 5,-15 3,-9 -6,-2 -3,9 -5,15 6,2 z m 11,-37 0,-17 -3,0 3,1 2,-8 -6,-1 -2,7 0,18 6,0 z m 5,-36 2,-5 -3,-1 2,1 7,-18 -6,-2 -6,18 -1,0 -1,6 6,1 z m 8,-37 0,-25 -6,0 0,25 6,0 z m 2,-36 4,-13 0,-12 -6,0 0,11 3,0 -3,-1 -4,13 6,2 z m 4,-38 0,-25 -6,0 0,25 6,0 z m 0,-37 0,-25 -6,0 0,25 6,0 z m 0,-38 0,-25 -6,0 0,25 6,0 z m -4,-38 -2,-8 -3,1 3,0 0,-16 -6,0 0,17 2,8 6,-2 z m -2,-36 0,-15 -4,-10 -5,2 3,9 3,-1 -3,0 0,15 6,0 z m -7,-37 -6,-22 -3,1 3,0 0,-3 -6,0 0,4 6,22 6,-2 z m -6,-36 0,-5 -6,-19 0,-1 -6,2 0,1 6,19 3,-1 -3,0 0,4 6,0 z m -10,-37 -2,-5 -6,-19 -6,2 6,18 2,6 6,-2 z m -11,-35 -4,-14 0,0 -3,-11 -6,2 3,11 3,-1 -3,1 4,13 6,-1 z m -11,-36 -5,-16 -3,-8 -6,2 3,8 5,15 6,-1 z m -13,-37 -11,-17 -3,2 3,-1 -1,-4 -6,2 1,4 0,0 12,18 5,-4 z m -16,-32 -1,-3 -1,-1 -12,-18 -5,4 12,18 3,-2 -3,1 1,3 6,-2 z m -18,-33 -2,-7 0,-1 -10,-14 -5,3 9,14 3,-2 -3,1 3,8 5,-2 z m -17,-33 -4,-12 0,-1 -7,-10 -5,4 7,10 2,-2 -3,1 4,12 6,-2 z m -18,-33 -11,-17 -1,-1 -3,-3 -4,4 3,4 2,-3 -2,2 11,17 5,-3 z m -24,-30 0,0 -2,2 2,-2 -12,-18 -1,-2 -5,3 1,2 12,19 1,0 0,1 4,-5 z m -20,-31 -5,-6 0,-1 -12,-12 -4,5 12,12 2,-3 -3,2 5,7 5,-4 z m -24,-29 -6,-8 0,-1 -10,-10 -5,4 11,10 2,-2 -3,2 6,9 5,-4 z m -25,-28 -12,-12 -6,-6 -4,5 5,5 13,13 4,-5 z m -26,-26 -11,-11 -7,-7 -5,4 7,7 11,11 5,-4 z m -27,-27 -3,-3 -13,-12 0,-1 -3,-2 -3,6 3,1 1,-2 -2,2 13,12 3,4 4,-5 z m -29,-24 -6,-4 -1,2 2,-2 -13,-12 0,-1 -1,0 -3,5 0,0 2,-2 -2,2 12,12 1,1 6,4 3,-5 z m -29,-24 -8,-5 -13,-9 -3,5 13,9 8,5 3,-5 z m -30,-21 -9,-9 0,0 -11,-7 -3,5 10,7 2,-3 -2,2 9,9 4,-4 z m -30,-23 -17,-11 -1,-1 -4,-1 -2,6 5,1 1,-3 -2,3 16,11 4,-5 z m -34,-17 -2,-1 -1,3 1,-3 -18,-12 -1,0 0,-1 -2,6 0,0 1,-3 -2,3 19,13 1,0 2,1 2,-6 z m -33,-17 -7,-3 -1,3 2,-2 -15,-10 -3,5 15,10 0,0 7,2 2,-5 z m -33,-18 -11,-3 -1,2 1,-2 -10,-7 -4,5 11,7 1,0 11,4 2,-6 z m -33,-17 -16,-5 -8,-3 -2,6 8,3 16,5 2,-6 z m -35,-12 -18,-6 0,0 -7,-1 -1,6 6,1 1,-3 -1,3 18,6 2,-6 z m -37,-10 -6,-2 -1,3 1,-3 -17,-6 -2,6 17,6 0,0 7,2 1,-6 z m -35,-12 -9,-2 -15,-6 -2,6 15,5 9,3 2,-6 z m -37,-9 -10,0 0,3 1,-3 -15,-3 -2,6 15,3 11,0 0,-6 z m -36,-7 -17,-5 -8,0 0,6 7,0 0,-3 -1,3 17,5 2,-6 z m -37,-5 -25,0 0,3 1,-3 0,0 -2,5 0,1 26,0 0,-6 z m -36,-4 -7,-2 0,-1 -19,0 0,7 19,0 0,-4 -1,3 6,3 2,-6 z m -38,-3 -25,0 0,7 25,0 0,-7 z m -35,9 0,25 6,0 0,-25 -6,0 z m 0,38 0,25 6,0 0,-25 -6,0 z m 0,37 0,25 6,0 0,-25 -6,0 z m 0,38 0,25 6,0 0,-25 -6,0 z m 0,37 0,25 6,0 0,-25 -6,0 z m 0,38 0,25 6,0 0,-25 -6,0 z m 0,37 0,25 6,0 0,-25 -6,0 z m 0,38 0,25 6,0 0,-25 -6,0 z m 0,37 0,25 6,0 0,-25 -6,0 z m 0,38 0,25 6,0 0,-25 -6,0 z m 0,37 0,25 6,0 0,-25 -6,0 z m 0,38 0,25 6,0 0,-25 -6,0 z m 0,37 0,25 6,0 0,-25 -6,0 z m 0,38 0,25 6,0 0,-25 -6,0 z m 0,37 0,25 6,0 0,-25 -6,0 z m 0,38 0,25 6,0 0,-25 -6,0 z m 0,37 0,25 6,0 0,-25 -6,0 z m 0,38 0,25 6,0 0,-25 -6,0 z m 0,37 0,25 6,0 0,-25 -6,0 z m 0,38 0,25 6,0 0,-25 -6,0 z m 0,37 0,25 6,0 0,-25 -6,0 z m 0,38 0,25 6,0 0,-25 -6,0 z m 0,37 0,19 6,0 0,-19 -6,0"
                                   inkscape:connector-curvature="0"
                                   id="path90"
                                   style="fill:#7f7f7f;fill-opacity:1;fill-rule:nonzero;stroke:none" /><path
                                   d="m 1275,2362 0,-850 -62,0 -19,7 -44,0 -19,6 -25,6 -18,0 -19,6 -19,7 -19,6 -25,6 -18.004,6 -19,7 -19,6 -19,12 -18,7 -19,12 -19,6 -19,13 -18,6 -19,13 -19,12 -12,13 -19,12 -19,13 -12,12 -19,13 -13,12 -18,19 -13,12 -12,13 -19,19 -13,12 -12,19 -13,12 -12,19 -13,19 -12,12 -13,19 -12,19 -6,19 -13,18 -6,19 -13,19 -6,19 -12,18 -7,19 -6,19 -6,19 -6,25 -7,18 -6,19 -6,19 0,19 -6,25 -7,18 0,44 -6,19 0,125 6,19 0,43 7,19 6,25 0,19 6,19 6,18 7,19 6,25 6,19 6,19 7,18 12,19 6,19 13,19 6,18 13,19 6,19 L 1275,2362"
                                   inkscape:connector-curvature="0"
                                   id="path92"
                                   style="fill:#e1e1e1;fill-opacity:1;fill-rule:evenodd;stroke:none" /><path
                                   d="m 1278,2362 0,-25 -6,0 0,25 6,0 z m 0,-37 0,-25 -6,0 0,25 6,0 z m 0,-38 0,-25 -6,0 0,25 6,0 z m 0,-37 0,-25 -6,0 0,25 6,0 z m 0,-38 0,-25 -6,0 0,25 6,0 z m 0,-37 0,-25 -6,0 0,25 6,0 z m 0,-38 0,-25 -6,0 0,25 6,0 z m 0,-37 0,-25 -6,0 0,25 6,0 z m 0,-38 0,-25 -6,0 0,25 6,0 z m 0,-37 0,-25 -6,0 0,25 6,0 z m 0,-38 0,-25 -6,0 0,25 6,0 z m 0,-37 0,-25 -6,0 0,25 6,0 z m 0,-38 0,-25 -6,0 0,25 6,0 z m 0,-37 0,-25 -6,0 0,25 6,0 z m 0,-38 0,-25 -6,0 0,25 6,0 z m 0,-37 0,-25 -6,0 0,25 6,0 z m 0,-38 0,-25 -6,0 0,25 6,0 z m 0,-37 0,-25 -6,0 0,25 6,0 z m 0,-38 0,-25 -6,0 0,25 6,0 z m 0,-37 0,-25 -6,0 0,25 6,0 z m 0,-38 0,-25 -6,0 0,25 6,0 z m 0,-37 0,-25 -6,0 0,25 6,0 z m 0,-38 0,-25 -6,0 0,25 6,0 z m -15,-28 -25,0 0,7 25,0 0,-7 z m -38,0 -12,0 -1,1 -12,3 2,6 11,-4 0,-3 0,4 12,0 0,-7 z m -36,7 -25,0 0,6 25,0 0,-6 z m -38,0 -2,0 -19,6 1,3 -1,-3 -4,1 2,6 4,-1 0,0 19,-6 -1,-3 0,3 1,0 0,-6 z m -37,10 -9,2 1,3 0,-3 -16,0 0,6 17,0 9,-2 -2,-6 z m -37,5 -9,4 -14,4 2,6 14,-5 9,-3 -2,-6 z m -35,12 -12,4 1,3 -1,-3 -12,3 1,6 13,-3 0,0 12,-4 -2,-6 z m -36,10 -1,0 0,0 -18.004,7 -5,1 2,6 4,-2 19.004,-6 -1,-3 1,3 0,0 -1,-6 z m -36.004,12 -2,1 -19,6 -1,0 -2,2 3,5 3,-1 -2,-3 1,3 19,-6 2,-1 -2,-6 z m -35,16 -5,4 1,2 -1,-2 -17,5 2,6 17,-6 1,0 6,-4 -4,-5 z m -33,16 -10,7 2,2 -1,-3 -13,4 2,6 13,-4 0,0 10,-7 -3,-5 z m -34,16 -13,9 1,3 -1,-3 -8,3 2,6 8,-3 1,0 14,-10 -4,-5 z m -33,16 -18,12 -3,2 4,5 2,-2 18,-12 -3,-5 z m -31,21 -6,4 0,0 -13,13 3,2 -2,-3 -1,1 4,5 0,-1 1,0 12,-13 -2,-2 2,3 5,-4 -3,-5 z m -29,23 -8,6 -13,8 3,6 13,-9 8,-5 -3,-6 z m -31,23 -9,8 3,2 -2,-2 -11,7 3,5 11,-7 1,-1 8,-8 -4,-4 z m -30,23 -10,10 -7,7 4,5 7,-8 11,-10 -5,-4 z m -26,26 -3,3 -12,12 -3,3 5,4 2,-2 13,-13 2,-2 -4,-5 z m -27,27 -1,1 -16,16 4,5 17,-17 1,-1 -5,-4 z m -26,26 -6,6 0,1 -10,13 6,4 9,-14 -3,-2 2,2 6,-5 -4,-5 z m -23,29 -8,8 0,1 -8,11 5,4 8,-12 -3,-2 2,3 8,-8 -4,-5 z m -23,31 -10,15 2,2 -2,-2 -4,4 4,5 4,-5 1,0 10,-16 -5,-3 z m -24,29 -11,18 -2,3 5,3 2,-3 12,-18 -6,-3 z m -20,31 -4,5 0,1 -6,18 6,2 6,-18 -3,-1 2,2 4,-6 -5,-3 z m -16,33 -7,10 0,1 -4,13 6,2 4,-14 -3,-1 3,2 6,-9 -5,-4 z m -17,34 -8,13 -1,1 -3,9 6,2 3,-9 -3,-1 3,2 9,-14 -6,-3 z m -16,34 -11,17 0,1 -2,4 6,2 1,-5 -2,-1 2,2 12,-17 -6,-3 z m -17,33 -1,3 -6,19 -1,2 6,2 1,-2 6,-19 1,-3 -6,-2 z m -12,36 -1,5 0,0 -5,19 6,2 5,-19 -3,-1 3,1 1,-5 -6,-2 z m -10,36 -4,13 -3,11 5,2 4,-12 4,-12 -6,-2 z m -11,36 -5,14 0,11 6,0 0,-10 -3,0 3,1 4,-14 -5,-2 z m -6,37 -6,21 4,1 -3,-1 -1,2 6,2 0,-2 1,0 5,-22 -6,-1 z m -10,35 -2,5 0,21 6,0 0,-21 -3,0 3,1 2,-4 -6,-2 z m -2,39 0,10 3,0 -3,-1 -4,14 6,2 4,-14 0,-11 -6,0 z m -6,36 0,25 6,0 0,-25 -6,0 z m 0,38 0,25 6,0 0,-25 -6,0 z m 0,37 0,25 6,0 0,-25 -6,0 z m 0,38 0,6 6,19 6,-2 -6,-19 -3,1 3,0 0,-5 -6,0 z m 6,36 0,25 6,0 0,-25 -6,0 z m 2,38 5,13 3,-1 -4,1 3,11 6,-2 -2,-11 -1,0 -4,-13 -6,2 z m 10,36 1,2 3,-1 -3,0 0,20 1,4 6,-2 -1,-4 -3,1 3,0 0,-20 -1,-1 -6,1 z m 6,37 1,3 6,18 1,3 6,-2 -1,-2 -6,-19 -1,-3 -6,2 z m 12,36 2,4 3,-1 -4,1 5,19 6,-1 -4,-20 -1,0 -1,-4 -6,2 z m 10,36 4,12 4,11 6,-2 -4,-11 -4,-12 -6,2 z m 12,35 5,14 0,1 5,9 6,-4 -6,-8 -2,1 2,0 -4,-15 -6,2 z m 17,34 0,0 3,-2 -3,1 6,19 1,1 3,4 5,-3 -3,-5 -3,2 3,-1 -6,-19 0,-1 -6,4 z m 16,33 3,4 3,-1 -3,1 6,18 0,1 1,1 5,-4 0,0 -3,1 3,0 -6,-19 -1,-1 -2,-4 -6,3 z m 17,34 5,8 3,-2 -3,1 4,15 6,-2 -5,-15 0,0 -5,-9 -5,4 z m 22,24 22,-13 -3,-6 -22,13 3,6 z m 32,-20 22,-13 -3,-5 -22,13 3,5 z m 33,-19 21,-13 -3,-5 -22,13 4,5 z m 32,-19 21,-13 -3,-5 -21,12 3,6 z m 32,-19 21,-13 -3,-6 -21,13 3,6 z m 32,-20 22,-13 -4,-5 -21,13 3,5 z m 32,-19 22,-13 -3,-5 -22,13 3,5 z m 33,-19 21,-13 -3,-5 -22,12 4,6 z m 32,-19 21,-13 -3,-6 -22,13 4,6 z m 32,-20 21,-13 -3,-5 -21,13 3,5 z m 32,-19 22,-13 -4,-5 -21,13 3,5 z m 32,-19 22,-13 -4,-5 -21,12 3,6 z m 32,-19 22,-13 -3,-6 -22,13 3,6 z m 33,-20 21,-13 -3,-5 -22,13 4,5 z m 32.004,-19 21,-13 -3,-5 -21.004,13 3.004,5 z m 32,-19 21,-13 -3,-5 -21,12 3,6 z m 32,-20 22,-12 -4,-6 -21,13 3,5 z m 32,-19 22,-13 -3,-5 -22,13 3,5 z m 33,-19 21,-13 -3,-5 -22,13 4,5 z m 32,-19 21,-13 -3,-5 -22,12 4,6 z m 32,-20 21,-12 -3,-6 -21,13 3,5 z m 32,-19 22,-13 -4,-5 -21,13 3,5 z m 32,-19 17,-10 -4,-5 -16,10 3,5"
                                   inkscape:connector-curvature="0"
                                   id="path94"
                                   style="fill:#7f7f7f;fill-opacity:1;fill-rule:nonzero;stroke:none" /><path
                                   d="M 3825,1512 1275,1512 543.996,2787 1819,5000 3281,5000 4556,2787 3825,1512"
                                   inkscape:connector-curvature="0"
                                   id="path96"
                                   style="fill:#e1e1e1;fill-opacity:1;fill-rule:evenodd;stroke:none" /><path
                                   d="M 3825,1512 1275,1512 543.996,2787 1819,5000 3281,5000 4556,2787 3825,1512 z"
                                   inkscape:connector-curvature="0"
                                   id="path98"
                                   style="fill:none;stroke:#e1e1e1;stroke-width:1;stroke-linecap:round;stroke-linejoin:round;stroke-miterlimit:10;stroke-opacity:1;stroke-dasharray:none" /><path
                                   d="m 1275,1516 25,0 0,-7 -25,0 0,7 z m 38,0 25,0 0,-7 -25,0 0,7 z m 37,0 25,0 0,-7 -25,0 0,7 z m 38,0 25,0 0,-7 -25,0 0,7 z m 37,0 25,0 0,-7 -25,0 0,7 z m 38,0 25,0 0,-7 -25,0 0,7 z m 37,0 25,0 0,-7 -25,0 0,7 z m 38,0 25,0 0,-7 -25,0 0,7 z m 37,0 25,0 0,-7 -25,0 0,7 z m 38,0 25,0 0,-7 -25,0 0,7 z m 37,0 25,0 0,-7 -25,0 0,7 z m 38,0 25,0 0,-7 -25,0 0,7 z m 37,0 25,0 0,-7 -25,0 0,7 z m 38,0 25,0 0,-7 -25,0 0,7 z m 37,0 25,0 0,-7 -25,0 0,7 z m 38,0 25,0 0,-7 -25,0 0,7 z m 37,0 25,0 0,-7 -25,0 0,7 z m 38,0 25,0 0,-7 -25,0 0,7 z m 37,0 25,0 0,-7 -25,0 0,7 z m 38,0 25,0 0,-7 -25,0 0,7 z m 37,0 25,0 0,-7 -25,0 0,7 z m 38,0 25,0 0,-7 -25,0 0,7 z m 37,0 25,0 0,-7 -25,0 0,7 z m 38,0 25,0 0,-7 -25,0 0,7 z m 37,0 25,0 0,-7 -25,0 0,7 z m 38,0 25,0 0,-7 -25,0 0,7 z m 37,0 25,0 0,-7 -25,0 0,7 z m 38,0 25,0 0,-7 -25,0 0,7 z m 37,0 25,0 0,-7 -25,0 0,7 z m 38,0 25,0 0,-7 -25,0 0,7 z m 37,0 25,0 0,-7 -25,0 0,7 z m 38,0 25,0 0,-7 -25,0 0,7 z m 37,0 25,0 0,-7 -25,0 0,7 z m 38,0 25,0 0,-7 -25,0 0,7 z m 37,0 25,0 0,-7 -25,0 0,7 z m 38,0 25,0 0,-7 -25,0 0,7 z m 37,0 25,0 0,-7 -25,0 0,7 z m 38,0 25,0 0,-7 -25,0 0,7 z m 37,0 25,0 0,-7 -25,0 0,7 z m 38,0 25,0 0,-7 -25,0 0,7 z m 37,0 25,0 0,-7 -25,0 0,7 z m 38,0 25,0 0,-7 -25,0 0,7 z m 37,0 25,0 0,-7 -25,0 0,7 z m 38,0 25,0 0,-7 -25,0 0,7 z m 37,0 25,0 0,-7 -25,0 0,7 z m 38,0 25,0 0,-7 -25,0 0,7 z m 37,0 25,0 0,-7 -25,0 0,7 z m 38,0 25,0 0,-7 -25,0 0,7 z m 37,0 25,0 0,-7 -25,0 0,7 z m 38,0 25,0 0,-7 -25,0 0,7 z m 37,0 25,0 0,-7 -25,0 0,7 z m 38,0 25,0 0,-7 -25,0 0,7 z m 37,0 25,0 0,-7 -25,0 0,7 z m 38,0 25,0 0,-7 -25,0 0,7 z m 37,0 25,0 0,-7 -25,0 0,7 z m 38,0 25,0 0,-7 -25,0 0,7 z m 37,0 25,0 0,-7 -25,0 0,7 z m 38,0 25,0 0,-7 -25,0 0,7 z m 37,0 25,0 0,-7 -25,0 0,7 z m 38,0 25,0 0,-7 -25,0 0,7 z m 37,0 25,0 0,-7 -25,0 0,7 z m 38,0 25,0 0,-7 -25,0 0,7 z m 37,0 25,0 0,-7 -25,0 0,7 z m 38,0 25,0 0,-7 -25,0 0,7 z m 37,0 25,0 0,-7 -25,0 0,7 z m 38,0 25,0 0,-7 -25,0 0,7 z m 37,0 25,0 0,-7 -25,0 0,7 z m 38,0 25,0 0,-7 -25,0 0,7"
                                   inkscape:connector-curvature="0"
                                   id="path100"
                                   style="fill:#7f7f7f;fill-opacity:1;fill-rule:nonzero;stroke:none" /><path
                                   d="m 3284,5002 12,-22 -5,-3 -12,21 5,4 z m 19,-33 12,-22 -5,-3 -13,22 6,3 z m 18,-32 13,-22 -6,-3 -12,21 5,4 z m 19,-33 13,-22 -6,-3 -12,22 5,3 z m 19,-32 12,-22 -5,-3 -13,21 6,4 z m 19,-33 12,-22 -5,-3 -13,22 6,3 z m 18,-32 13,-22 -6,-3 -12,21 5,4 z m 19,-33 13,-22 -6,-3 -12,22 5,3 z m 19,-32 12,-22 -5,-3 -13,22 6,3 z m 18,-33 13,-22 -5,-3 -13,22 5,3 z m 19,-32 13,-22 -6,-3 -12,22 5,3 z m 19,-33 12,-22 -5,-3 -12,22 5,3 z m 19,-32 12,-22 -5,-3 -13,22 6,3 z m 18,-33 13,-21 -6,-4 -12,22 5,3 z m 19,-32 13,-22 -6,-3 -12,22 5,3 z m 19,-33 12,-21 -5,-4 -13,22 6,3 z m 19,-32 12,-22 -5,-3 -13,22 6,3 z m 18,-33 13,-21 -6,-4 -12,22 5,3 z m 19,-32 12,-22 -5,-3 -12,22 5,3 z m 19,-33 12,-21 -5,-4 -13,22 6,3 z m 18,-32 13,-22 -6,-3 -12,22 5,3 z m 19,-33 13,-21 -6,-4 -12,22 5,3 z m 19,-32 12,-22 -5,-3 -13,22 6,3 z m 19,-33 12,-21 -5,-4 -13,22 6,3 z m 18,-32 13,-22 -6,-3 -12,22 5,3 z m 19,-33 13,-21 -6,-3 -12,21 5,3 z m 19,-32 12,-22 -5,-3 -13,22 6,3 z m 18,-33 13,-21 -5,-3 -13,21 5,3 z m 19,-32 13,-22 -6,-3 -12,22 5,3 z m 19,-33 12,-21 -5,-3 -12,21 5,3 z m 19,-32 12,-22 -5,-3 -13,22 6,3 z m 18,-33 13,-21 -6,-3 -12,21 5,3 z m 19,-32 13,-22 -6,-3 -12,22 5,3 z m 19,-33 12,-21 -5,-3 -13,21 6,3 z m 19,-32 12,-22 -5,-3 -13,22 6,3 z m 18,-33 13,-21 -6,-3 -12,21 5,3 z m 19,-32 12,-22 -5,-3 -12,22 5,3 z m 19,-33 12,-21 -5,-3 -13,21 6,3 z m 18,-32 13,-22 -5,-3 -13,22 5,3 z m 19,-33 13,-21 -6,-3 -12,21 5,3 z m 19,-32 12,-22 -5,-3 -13,22 6,3 z m 19,-33 12,-21 -5,-3 -13,21 6,3 z m 18,-32 13,-22 -6,-3 -12,22 5,3 z m 19,-33 13,-21 -6,-3 -12,21 5,3 z m 19,-32 12,-22 -5,-3 -13,22 6,3 z m 19,-33 12,-21 -5,-3 -13,21 6,3 z m 18,-32 13,-22 -6,-3 -12,22 5,3 z m 19,-33 12,-21 -5,-3 -12,21 5,3 z m 19,-32 12,-22 -5,-3 -13,22 6,3 z m 18,-33 13,-21 -6,-3 -12,21 5,3 z m 19,-32 13,-22 -6,-3 -12,22 5,3 z m 19,-32 12,-22 -5,-3 -13,21 6,4 z m 19,-33 12,-22 -5,-3 -13,22 6,3 z m 18,-32 13,-22 -6,-3 -12,21 5,4 z m 19,-33 13,-22 -6,-3 -12,22 5,3 z m 19,-32 12,-22 -5,-3 -13,21 6,4 z m 18,-33 13,-22 -5,-3 -13,22 5,3 z m 19,-32 13,-22 -6,-3 -12,21 5,4 z m 19,-33 12,-22 -5,-3 -12,22 5,3 z m 19,-32 12,-22 -5,-3 -13,21 6,4 z m 18,-33 13,-22 -6,-3 -12,22 5,3 z m 19,-32 13,-22 -6,-3 -12,21 5,4 z m 19,-33 12,-22 -5,-3 -13,22 6,3 z m 19,-32 12,-22 -5,-3 -13,21 6,4 z m 18,-33 13,-22 -6,-3 -12,22 5,3 z m 19,-32 12,-22 -5,-3 -12,22 5,3 z m 19,-33 12,-22 -5,-3 -13,22 6,3 z m 18,-32 13,-22 -5,-3 -13,22 5,3 z m 19,-33 2,-3 -5,-3 -2,3 5,3"
                                   inkscape:connector-curvature="0"
                                   id="path102"
                                   style="fill:#7f7f7f;fill-opacity:1;fill-rule:nonzero;stroke:none" /><path
                                   d="m 1821,4998 -12,-21 -5,3 12,22 5,-4 z m -18,-32 -13,-22 -5,3 12,22 6,-3 z m -19,-33 -12,-21 -6,3 13,22 5,-4 z m -19,-32 -12,-22 -6,3 13,22 5,-3 z m -18,-33 -13,-21 -5,3 12,22 6,-4 z m -19,-32 -13,-22 -5,3 12,22 6,-3 z m -19,-33 -12,-21 -6,3 13,22 5,-4 z m -19,-32 -12,-22 -6,3 13,22 5,-3 z m -18,-32 -13,-22 -5,3 12,22 6,-3 z m -19,-33 -13,-22 -5,3 13,22 5,-3 z m -19,-32 -12,-22 -6,3 13,22 5,-3 z m -19,-33 -12,-22 -5,3 12,22 5,-3 z m -18,-32 -13,-22 -5,3 12,22 6,-3 z m -19,-33 -12,-22 -6,4 13,21 5,-3 z m -19,-32 -12,-22 -6,3 13,22 5,-3 z m -18,-33 -13,-22 -5,4 12,21 6,-3 z m -19,-32 -13,-22 -5,3 12,22 6,-3 z m -19,-33 -12,-22 -6,4 13,21 5,-3 z m -19,-32 -12,-22 -5,3 12,22 5,-3 z m -18,-33 -13,-22 -5,4 12,21 6,-3 z m -19,-32 -12,-22 -6,3 13,22 5,-3 z m -19,-33 -12,-22 -6,4 13,21 5,-3 z m -18,-32 -13,-22 -5,3 12,22 6,-3 z m -19,-33 -13,-22 -5,4 12,21 6,-3 z m -19,-32 -12,-22 -6,3 13,22 5,-3 z m -19,-33 -12,-21 -6,3 13,21 5,-3 z m -18,-32 -13,-22 -5,3 12,22 6,-3 z m -19,-33 -13,-21 -5,3 13,21 5,-3 z m -19,-32 -12,-22 -6,3 13,22 5,-3 z m -19,-33 -12,-21 -5,3 12,21 5,-3 z m -18,-32 -13,-22 -5,3 12,22 6,-3 z m -19,-33 -12,-21 -6,3 13,21 5,-3 z m -19,-32 -12,-22 -6,3 13,22 5,-3 z m -18,-33 -13,-21 -5,3 12,21 6,-3 z m -19,-32 -13,-22 -5,3 12,22 6,-3 z m -19,-33 -12,-21 -6,3 13,21 5,-3 z m -19,-32 -12,-22 -5,3 12,22 5,-3 z m -18,-33 -13,-21 -5,3 12,21 6,-3 z m -19,-32 -13,-22 -5,3 13,22 5,-3 z m -19,-33 -12,-21 -6,3 13,21 5,-3 z m -18,-32 -13,-22 -5,3 12,22 6,-3 z m -19,-33 -13,-21 -5,3 12,21 6,-3 z m -19,-32 -12,-22 -6,3 13,22 5,-3 z m -19,-33 -12,-21 -6.004,3 13.004,21 5,-3 z m -18.004,-32 -13,-22 -5,3 12,22 6,-3 z m -19,-33 -13,-21 -5,3 12,21 6,-3 z m -19,-32 -12,-22 -6,3 13,22 5,-3 z m -19,-33 -12,-21 -5,3 12,21 5,-3 z m -18,-32 -13,-22 -5,3 12,22 6,-3 z m -19,-33 -12,-21 -6,3 13,21 5,-3 z m -19,-32 -12,-22 -6,3 13,22 5,-3 z m -18,-33 -13,-21 -5,3 12,22 6,-4 z m -19,-32 -13,-22 -5,3 12,22 6,-3 z m -19,-33 -12,-21 -6,3 13,22 5,-4 z m -19,-32 -12,-22 -6,3 13,22 5,-3 z m -18,-33 -13,-21 -5,3 12,22 6,-4 z m -19,-32 -13,-22 -5,3 13,22 5,-3 z m -19,-33 -12,-21 -6,3 13,22 5,-4 z m -19,-32 -12,-22 -5,3 12,22 5,-3 z m -18,-33 -13,-21 -5,3 12,22 6,-4 z m -19,-32 -12,-22 -6,3 13,22 5,-3 z m -19,-33 -12,-21 -6,3 13,22 5,-4 z m -18,-32 -13,-22 -5,3 12,22 6,-3 z m -19,-33 -13,-21 -5,3 12,22 6,-4 z m -19,-32 -12,-22 -6,3 13,22 5,-3 z m -19,-32 -12,-22 -5,3 12,22 5,-3 z m -18,-33 -13,-22 -5,3 12,22 6,-3 z m -19,-32 -13,-22 -5,3 13,22 5,-3 z m -19,-33 -2,-3 -5,3 2,3 5,-3"
                                   inkscape:connector-curvature="0"
                                   id="path104"
                                   style="fill:#7f7f7f;fill-opacity:1;fill-rule:nonzero;stroke:none" /><g
                                   transform="scale(8.33333,8.33333)"
                                   id="g106"><text
                                   transform="matrix(1,0,0,-1,185.28,367.44)"
                                   id="text108"><tspan
                                   x="0 58.440006 105.72 153 195.72"
                                   y="0"
                                   id="tspan110"
                                   style="font-size:84.75px;font-variant:normal;font-weight:normal;writing-mode:lr-tb;fill:#000000;fill-opacity:1;fill-rule:nonzero;stroke:none;font-family:Helvetica;-inkscape-font-specification:Helvetica">Phase</tspan></text>
</g><path
                                   d="m 1063,3300 0,-31 -7,-13 0,-19 -6,-6 -6,-12 0,-13 -6,-6 -7,-6 -6,-13 -6,-6 -6,-13 -7,-6 -6.004,-6 -6,-6 -6,-7 -13,-6 -6,-6 -13,-6 -6,-7 -6,-6 -13,0 -12,-6 -6,-6 -19,0 -13,-7 -62,0 -13,7 -18,0 -7,6 -12,6 -13,0 -6,6 -6,7 -13,6 -6,6 -12,6 -7,7 -6,6 -6,6 -6,6 -7,13 -6,6 -6,13 -6,6 -7,6 0,13 -6,12 -6,6 0,19 -6,13 0,62 6,13 0,18 6,7 6,12 0,13 7,6 6,6 6,13 6,6 7,12 6,7 6,6 6,6 7,6 12,7 6,6 13,6 6,6 6,7 13,0 12,6 7,6 18,0 13,6 62,0 13,-6 19,0 6,-6 12,-6 13,0 6,-7 6,-6 13,-6 6,-6 13,-7 6,-6 6,-6 6.004,-6 7,-7 6,-12 6,-6 6,-13 7,-6 6,-6 0,-13 6,-12 6,-7 0,-18 7,-13 0,-31"
                                   inkscape:connector-curvature="0"
                                   id="path112"
                                   style="fill:#bfbfbf;fill-opacity:1;fill-rule:evenodd;stroke:none" /><path
                                   d="m 1069,3300 0,-31 -1,-3 -6,-13 -6,3 7,0 0,-19 -2,-4 -7,-6 -4,4 6,-3 -7,-12 -5,3 6,0 0,-13 -2,-4 -6,-6 -6,-7 -5,5 6,-3 -6,-13 -2,-1 -6,-6 -4,4 5,-3 -6,-12 -1,-2 -6,-6 -7,-6 -6.004,-7 -6,-6 -2,-1 -12,-6 -3,5 4,-4 -6,-6 -1,-2 -13,-6 -3,6 5,-5 -7,-6 -6,-6 -4,-2 -13,0 0,6 3,-5 -12,-7 -3,6 4,-4 -6,-7 -4,-2 -19,0 0,7 3,-6 -13,-6 -3,-1 -62,0 -3,1 -13,6 3,6 0,-7 -18,0 -5,2 -6,7 4,4 -3,-6 -12,7 3,5 0,-6 -13,0 -4,2 -6,6 -7,6 5,5 -3,-6 -13,6 -1,2 -6,6 4,4 -3,-5 -12,6 -2,1 -6,6 -6,7 -7,6 -6,6 -1,2 -6,12 5,3 -4,-4 -6,6 -2,1 -6,13 6,3 -5,-5 -6,7 -6,6 -2,4 0,13 6,0 -5,-3 -7,12 6,3 -4,-4 -7,6 -1,4 0,19 6,0 -6,-3 -6,13 -1,3 0,62 1,3 6,13 6,-3 -6,0 0,18 1,5 7,6 4,-4 -6,3 7,12 5,-3 -6,0 0,13 2,4 6,6 6,7 5,-5 -6,3 6,13 2,1 6,6 4,-4 -5,3 6,12 1,2 6,6 7,6 6,7 6,6 2,1 12,6 3,-5 -4,4 6,6 1,2 13,6 3,-6 -5,5 7,6 6,6 4,2 13,0 0,-6 -3,5 12,7 3,-6 -4,4 6,7 5,1 18,0 0,-6 -3,6 13,6 3,1 62,0 3,-1 13,-6 -3,-6 0,6 19,0 4,-1 6,-7 -4,-4 3,6 12,-7 -3,-5 0,6 13,0 4,-2 6,-6 7,-6 -5,-5 3,6 13,-6 1,-2 6,-6 -4,-4 3,5 12,-6 2,-1 6,-6 6.004,-7 7,-6 6,-6 1,-2 6,-12 -5,-3 4,4 6,-6 2,-1 6,-13 -6,-3 5,5 6,-7 6,-6 2,-4 0,-13 -6,0 5,3 7,-12 -6,-3 4,4 7,-6 2,-5 0,-18 -7,0 6,3 6,-13 1,-3 0,-31 z m -13,0 0,31 7,0 -6,-3 -6,13 -1,3 0,18 6,0 -4,-4 -6,6 -2,2 -6,12 0,16 6,0 -5,-5 -6,7 -6,6 -1,1 -7,13 6,3 -4,-5 -7,7 -1,1 -6,13 6,2 -5,-4 -6,6 -6.004,7 -7,6 -6,6 5,4 -3,-5 -13,6 -1,1 -7,7 5,4 -3,-6 -13,7 -1,1 -6,6 -7,6 5,5 0,-7 -13,0 -3,1 -12,6 -2,2 -6,6 5,4 0,-6 -19,0 -3,1 -13,6 3,5 0,-6 -62,0 0,6 3,-5 -13,-6 -3,-1 -18,0 0,6 4,-4 -6,-6 -2,-2 -12,-6 -3,-1 -13,0 0,7 5,-5 -7,-6 -6,-6 -1,-1 -13,-7 -3,6 5,-4 -7,-7 -1,-1 -13,-6 -2,5 4,-4 -6,-6 -7,-6 -6,-7 -6,-6 -4,4 5,-2 -6,-13 -1,-1 -7,-7 -4,5 6,-3 -7,-13 -1,-1 -6,-6 -6,-7 -5,5 7,0 0,-13 -1,-3 -6,-12 -2,-2 -6,-6 -4,4 6,0 0,-18 -1,-3 -6,-13 -5,3 6,0 0,-62 -6,0 5,3 6,-13 1,-3 0,-19 -6,0 4,5 6,-6 2,-2 6,-12 1,-3 0,-13 -7,0 5,5 6,-7 6,-6 1,-1 7,-13 -6,-3 4,5 7,-7 1,-1 6,-13 -5,-3 4,5 6,-6 6,-7 7,-6 6,-6 -4,-5 2,6 13,-6 1,-1 7,-7 -5,-4 3,6 13,-7 1,-1 6,-6 7,-6 -5,-5 0,6 16,0 12,-6 2,-2 6,-6 -4,-4 0,6 18,0 3,-1 13,-6 -3,-6 0,7 62,0 0,-7 -3,6 13,6 3,1 19,0 0,-6 -5,4 6,6 2,2 12,6 16,0 0,-6 -5,5 7,6 6,6 1,1 13,7 3,-6 -5,4 7,7 1,1 13,6 3,-6 -5,5 6,6 7,6 6.004,7 6,6 5,-5 -6,3 6,13 1,1 7,7 4,-5 -6,3 7,13 1,1 6,6 6,7 5,-5 -6,0 0,16 6,12 2,2 6,6 4,-5 -6,0 0,19 1,3 6,13 6,-3 -7,0 0,31"
                                   inkscape:connector-curvature="0"
                                   id="path114"
                                   style="fill:#7f7f7f;fill-opacity:1;fill-rule:nonzero;stroke:none" /><path
                                   d="m 2763,1512 0,-31 -7,-12 0,-19 -6,-6 -6,-13 0,-12 -6,-7 -7,-6 -6,-12 -6,-7 -6,-12 -7,-6 -6,-7 -6,-6 -6,-6 -13,-6 -6,-7 -13,-6 -6,-6 -6,-6 -13,0 -12,-7 -6,-6 -19,0 -13,-6 -62,0 -13,6 -18,0 -7,6 -12,7 -13,0 -6,6 -6,6 -13,6 -6,7 -12,6 -7,6 -6,6 -6,7 -6,6 -7,12 -6,7 -6,12 -6,6 -7,7 0,12 -6,13 -6,6 0,19 -6,12 0,63 6,12 0,19 6,6 6,13 0,12 7,6 6,7 6,12 6,6 7,13 6,6 6,6 6,7 7,6 12,6 6,6 13,7 6,6 6,6 13,0 12,6 7,7 18,0 13,6 62,0 13,-6 19,0 6,-7 12,-6 13,0 6,-6 6,-6 13,-7 6,-6 13,-6 6,-6 6,-7 6,-6 7,-6 6,-13 6,-6 6,-12 7,-7 6,-6 0,-12 6,-13 6,-6 0,-19 7,-12 0,-32"
                                   inkscape:connector-curvature="0"
                                   id="path116"
                                   style="fill:#bfbfbf;fill-opacity:1;fill-rule:evenodd;stroke:none" /><path
                                   d="m 2769,1512 0,-31 -1,-3 -6,-12 -6,3 7,0 0,-19 -2,-4 -7,-7 -4,5 6,-3 -7,-13 -5,3 6,0 0,-12 -2,-5 -6,-6 -6,-6 -5,4 6,-3 -6,-12 -2,-2 -6,-6 -4,4 5,-2 -6,-13 -1,-1 -6,-7 -7,-6 -6,-6 -6,-6 -2,-2 -12,-6 -3,6 4,-5 -6,-6 -1,-1 -13,-6 -3,5 5,-4 -7,-6 -6,-7 -4,-2 -13,0 0,7 3,-6 -12,-6 -3,5 4,-4 -6,-6 -4,-2 -19,0 0,6 3,-5 -13,-7 -68,0 -13,7 3,5 0,-6 -18,0 -5,2 -6,6 4,4 -3,-5 -12,6 3,6 0,-7 -13,0 -4,2 -6,7 -7,6 5,4 -3,-5 -13,6 -1,1 -6,6 4,5 -3,-6 -12,6 -2,2 -6,6 -6,6 -7,6 -6,7 -1,1 -6,13 5,2 -4,-4 -6,6 -2,2 -6,12 6,3 -5,-4 -6,6 -6,6 -2,5 0,12 6,0 -5,-3 -7,13 6,3 -4,-5 -7,7 -1,4 0,19 6,0 -6,-3 -6,12 -1,3 0,63 1,3 6,12 6,-3 -6,0 0,19 1,4 7,7 4,-5 -6,3 7,13 5,-3 -6,0 0,12 2,5 6,6 6,6 5,-4 -6,3 6,12 2,2 6,6 4,-5 -5,3 6,13 1,1 6,7 7,6 6,6 6,6 2,2 12,6 3,-6 -4,5 6,6 1,1 13,6 3,-5 -5,4 7,6 6,7 4,1 13,0 0,-6 -3,6 12,6 3,-6 -4,5 6,6 5,2 18,0 0,-6 -3,5 13,7 68,0 13,-7 -3,-5 0,6 19,0 4,-2 6,-6 -4,-5 3,6 12,-6 -3,-6 0,6 13,0 4,-1 6,-7 7,-6 -5,-4 3,5 13,-6 1,-1 6,-6 -4,-5 3,6 12,-6 2,-2 6,-6 6,-6 7,-6 6,-7 1,-1 6,-13 -5,-3 4,5 6,-6 2,-2 6,-12 -6,-3 5,4 6,-6 6,-6 2,-5 0,-12 -6,0 5,3 7,-13 -6,-3 4,5 7,-7 2,-4 0,-19 -7,0 6,3 6,-12 1,-3 0,-32 z m -13,0 0,32 7,0 -6,-3 -6,12 -1,3 0,19 6,0 -4,-4 -6,6 -2,1 -6,13 0,15 6,0 -5,-4 -6,6 -6,6 -1,2 -7,12 6,3 -4,-4 -7,6 -1,2 -6,12 6,3 -5,-4 -6,6 -6,6 -7,6 -6,7 5,4 -3,-6 -13,7 -1,1 -7,6 5,4 -3,-5 -13,6 -1,1 -6,7 -7,6 5,4 0,-6 -13,0 -3,1 -12,6 -2,1 -6,6 5,5 0,-7 -19,0 -3,1 -13,6 3,6 0,-6 -62,0 0,6 3,-6 -13,-6 -3,-1 -18,0 0,7 4,-5 -6,-6 -2,-1 -12,-6 -3,-1 -13,0 0,6 5,-4 -7,-6 -6,-7 -1,-1 -13,-6 -3,5 5,-4 -7,-6 -1,-1 -13,-7 -2,6 4,-4 -6,-7 -7,-6 -6,-6 -6,-6 -4,4 5,-3 -6,-12 -1,-2 -7,-6 -4,4 6,-3 -7,-12 -1,-2 -6,-6 -6,-6 -5,4 7,0 0,-12 -1,-3 -6,-13 -2,-1 -6,-6 -4,4 6,0 0,-19 -1,-3 -6,-12 -5,3 6,0 0,-63 -6,0 5,3 6,-12 1,-3 0,-19 -6,0 4,4 6,-6 2,-1 6,-13 1,-3 0,-12 -7,0 5,4 6,-6 6,-6 1,-2 7,-12 -6,-3 4,4 7,-6 1,-2 6,-12 -5,-3 4,4 6,-6 6,-6 7,-6 6,-7 -4,-4 2,6 13,-7 1,-1 7,-6 -5,-5 3,6 13,-6 1,-1 6,-7 7,-6 -5,-4 0,6 13,0 3,-1 12,-6 2,-1 6,-6 -4,-5 0,6 21,0 13,-6 -3,-6 0,6 62,0 0,-6 -3,6 13,6 22,0 0,-6 -5,5 6,6 2,1 12,6 3,1 13,0 0,-6 -5,4 7,6 6,7 1,1 13,6 3,-6 -5,5 7,6 1,1 13,7 3,-6 -5,4 6,7 7,6 6,6 6,6 5,-4 -6,3 6,12 1,2 7,6 4,-4 -6,3 7,12 1,2 6,6 6,6 5,-4 -6,0 0,15 6,13 2,1 6,6 4,-4 -6,0 0,19 1,3 6,12 6,-3 -7,0 0,31"
                                   inkscape:connector-curvature="0"
                                   id="path118"
                                   style="fill:#7f7f7f;fill-opacity:1;fill-rule:nonzero;stroke:none" /><path
                                   d="m 3825,4362 0,-31 -6,-12 0,-19 -6,-6 -7,-13 0,-12 -6,-7 -6,-6 -6,-12 -7,-7 -6,-12 -6,-6 -6,-7 -7,-6 -6,-6 -12,-6 -7,-7 -12,-6 -6,-6 -7,-6 -12,0 -13,-7 -6,-6 -19,0 -12,-6 -63,0 -12,6 -19,0 -6,6 -13,7 -12,0 -6,6 -7,6 -12,6 -6,7 -13,6 -6,6 -6,6 -7,7 -6,6 -6,12 -6,7 -7,12 -6,6 -6,7 0,12 -6,13 -7,6 0,19 -6,12 0,63 6,12 0,19 7,6 6,13 0,12 6,6 6,7 7,12 6,6 6,13 6,6 7,6 6,7 6,6 13,6 6,6 12,7 7,6 6,6 12,0 13,6 6,7 19,0 12,6 63,0 12,-6 19,0 6,-7 13,-6 12,0 7,-6 6,-6 12,-7 7,-6 12,-6 6,-6 7,-7 6,-6 6,-6 6,-13 7,-6 6,-12 6,-7 6,-6 0,-12 7,-13 6,-6 0,-19 6,-12 0,-32"
                                   inkscape:connector-curvature="0"
                                   id="path120"
                                   style="fill:#bfbfbf;fill-opacity:1;fill-rule:evenodd;stroke:none" /><path
                                   d="m 3831,4362 0,-34 -7,-12 -5,3 6,0 0,-19 -2,-4 -6,-7 -4,5 5,-3 -6,-13 -6,3 7,0 0,-12 -2,-5 -7,-6 -6,-6 -4,4 5,-3 -6,-12 -1,-2 -6,-6 -5,4 6,-2 -6,-13 -2,-1 -6,-7 -6,-6 -6,-6 -7,-6 -1,-2 -13,-6 -2,6 4,-5 -6,-6 -2,-1 -12,-6 -3,5 4,-4 -6,-6 -6,-7 -5,-2 -12,0 0,7 3,-6 -13,-6 -3,5 5,-4 -7,-6 -4,-2 -19,0 0,6 3,-5 -12,-7 -69,0 -12,7 3,5 0,-6 -19,0 -4,2 -7,6 5,4 -3,-5 -13,6 3,6 0,-7 -12,0 -5,2 -6,7 -6,6 4,4 -3,-5 -12,6 -2,1 -6,6 5,5 -3,-6 -13,6 -1,2 -7,6 -6,6 -6,6 -6,7 -2,1 -6,13 6,2 -5,-4 -6,6 -1,2 -6,12 5,3 -4,-4 -6,6 -7,6 -1,5 0,12 6,0 -6,-3 -6,13 6,3 -5,-5 -6,7 -2,4 0,19 6,0 -5,-3 -7,12 0,69 7,12 5,-3 -6,0 0,19 2,4 6,7 5,-5 -6,3 6,13 6,-3 -6,0 0,12 1,5 7,6 6,6 4,-4 -5,3 6,12 1,2 6,6 5,-5 -6,3 6,13 2,1 6,7 6,6 6,6 7,6 1,2 13,6 3,-6 -5,5 6,6 2,1 12,6 3,-5 -4,4 6,6 6,7 5,1 12,0 0,-6 -3,6 13,6 3,-6 -5,5 7,6 4,2 19,0 0,-6 -3,5 12,7 69,0 12,-7 -3,-5 0,6 19,0 4,-2 7,-6 -5,-5 3,6 13,-6 -3,-6 0,6 12,0 5,-1 6,-7 6,-6 -4,-4 3,5 12,-6 2,-1 6,-6 -4,-5 2,6 13,-6 1,-2 7,-6 6,-6 6,-6 6,-7 2,-1 6,-13 -6,-3 5,5 6,-6 1,-2 6,-12 -5,-3 4,4 6,-6 7,-6 2,-5 0,-12 -7,0 6,3 6,-13 -5,-3 4,5 6,-7 2,-4 0,-19 -6,0 5,3 7,-12 0,-35 z m -12,0 0,32 6,0 -6,-3 -6,12 0,22 6,0 -5,-4 -6,6 -1,1 -6,13 -1,3 0,12 6,0 -4,-4 -6,6 -7,6 -1,2 -6,12 6,3 -5,-4 -6,6 -1,2 -7,12 6,3 -4,-4 -7,6 -6,6 -6,6 -6,7 4,4 -3,-6 -12,7 -2,1 -6,6 4,4 -3,-5 -12,6 -2,1 -6,7 -6,6 4,4 0,-6 -12,0 -3,1 -13,6 -1,1 -6,6 4,5 0,-7 -19,0 -3,1 -12,6 3,6 0,-6 -63,0 0,6 3,-6 -12,-6 -3,-1 -19,0 0,7 4,-5 -6,-6 -1,-1 -13,-6 -3,-1 -12,0 0,6 4,-4 -6,-6 -6,-7 -2,-1 -12,-6 -3,5 4,-4 -6,-6 -2,-1 -12,-7 -3,6 4,-4 -6,-7 -6,-6 -6,-6 -7,-6 -4,4 6,-3 -7,-12 -1,-2 -6,-6 -4,4 5,-3 -6,-12 -1,-2 -7,-6 -6,-6 -4,4 6,0 0,-12 -1,-3 -6,-13 -1,-1 -6,-6 -5,4 7,0 0,-19 -1,-3 -6,-12 -6,3 6,0 0,-63 -6,0 6,3 6,-12 1,-3 0,-19 -7,0 5,4 6,-6 1,-1 6,-13 1,-3 0,-12 -6,0 4,4 6,-6 7,-6 1,-2 6,-12 -5,-3 4,4 6,-6 1,-2 7,-12 -6,-3 4,4 7,-6 6,-6 6,-6 6,-7 -4,-4 3,6 12,-7 2,-1 6,-6 -4,-5 3,6 12,-6 2,-1 6,-7 6,-6 -4,-4 0,6 12,0 3,-1 13,-6 1,-1 6,-6 -4,-5 0,6 22,0 12,-6 -3,-6 0,6 63,0 0,-6 -3,6 12,6 22,0 0,-6 -4,5 6,6 1,1 13,6 3,1 12,0 0,-6 -4,4 6,6 6,7 2,1 12,6 3,-6 -4,5 6,6 2,1 12,7 3,-6 -4,4 6,7 6,6 6,6 7,6 4,-4 -6,3 7,12 1,2 6,6 5,-4 -6,3 6,12 1,2 7,6 6,6 4,-4 -6,0 0,12 1,3 6,13 1,1 6,6 5,-4 -6,0 0,22 6,12 6,-3 -6,0 0,31"
                                   inkscape:connector-curvature="0"
                                   id="path122"
                                   style="fill:#7f7f7f;fill-opacity:1;fill-rule:nonzero;stroke:none" /><path
                                   d="m 4463,3300 0,-31 -7,-13 0,-19 -6,-6 -6,-12 0,-13 -6,-6 -7,-6 -6,-13 -6,-6 -6,-13 -7,-6 -6,-6 -6,-6 -6,-7 -13,-6 -6,-6 -13,-6 -6,-7 -6,-6 -13,0 -12,-6 -6,-6 -19,0 -13,-7 -62,0 -13,7 -18,0 -7,6 -12,6 -13,0 -6,6 -6,7 -13,6 -6,6 -12,6 -7,7 -6,6 -6,6 -6,6 -7,13 -6,6 -6,13 -6,6 -7,6 0,13 -6,12 -6,6 0,19 -6,13 0,62 6,13 0,18 6,7 6,12 0,13 7,6 6,6 6,13 6,6 7,12 6,7 6,6 6,6 7,6 12,7 6,6 13,6 6,6 6,7 13,0 12,6 7,6 18,0 13,6 62,0 13,-6 19,0 6,-6 12,-6 13,0 6,-7 6,-6 13,-6 6,-6 13,-7 6,-6 6,-6 6,-6 7,-7 6,-12 6,-6 6,-13 7,-6 6,-6 0,-13 6,-12 6,-7 0,-18 7,-13 0,-31"
                                   inkscape:connector-curvature="0"
                                   id="path124"
                                   style="fill:#bfbfbf;fill-opacity:1;fill-rule:evenodd;stroke:none" /><path
                                   d="m 4469,3300 0,-31 -1,-3 -6,-13 -6,3 7,0 0,-19 -2,-4 -7,-6 -4,4 6,-3 -7,-12 -5,3 6,0 0,-13 -2,-4 -6,-6 -6,-7 -5,5 6,-3 -6,-13 -2,-1 -6,-6 -4,4 5,-3 -6,-12 -1,-2 -6,-6 -7,-6 -6,-7 -6,-6 -2,-1 -12,-6 -3,5 4,-4 -6,-6 -1,-2 -13,-6 -3,6 5,-5 -7,-6 -6,-6 -4,-2 -13,0 0,6 3,-5 -12,-7 -3,6 4,-4 -6,-7 -4,-2 -19,0 0,7 3,-6 -13,-6 -3,-1 -62,0 -3,1 -13,6 3,6 0,-7 -18,0 -5,2 -6,7 4,4 -3,-6 -12,7 3,5 0,-6 -13,0 -4,2 -6,6 -7,6 5,5 -3,-6 -13,6 -1,2 -6,6 4,4 -3,-5 -12,6 -2,1 -6,6 -6,7 -7,6 -6,6 -1,2 -6,12 5,3 -4,-4 -6,6 -2,1 -6,13 6,3 -5,-5 -6,7 -6,6 -2,4 0,13 6,0 -5,-3 -7,12 6,3 -4,-4 -7,6 -1,4 0,19 6,0 -6,-3 -6,13 -1,3 0,62 1,3 6,13 6,-3 -6,0 0,18 1,5 7,6 4,-4 -6,3 7,12 5,-3 -6,0 0,13 2,4 6,6 6,7 5,-5 -6,3 6,13 2,1 6,6 4,-4 -5,3 6,12 1,2 6,6 7,6 6,7 6,6 2,1 12,6 3,-5 -4,4 6,6 1,2 13,6 3,-6 -5,5 7,6 6,6 4,2 13,0 0,-6 -3,5 12,7 3,-6 -4,4 6,7 5,1 18,0 0,-6 -3,6 13,6 3,1 62,0 3,-1 13,-6 -3,-6 0,6 19,0 4,-1 6,-7 -4,-4 3,6 12,-7 -3,-5 0,6 13,0 4,-2 6,-6 7,-6 -5,-5 3,6 13,-6 1,-2 6,-6 -4,-4 3,5 12,-6 2,-1 6,-6 6,-7 7,-6 6,-6 1,-2 6,-12 -5,-3 4,4 6,-6 2,-1 6,-13 -6,-3 5,5 6,-7 6,-6 2,-4 0,-13 -6,0 5,3 7,-12 -6,-3 4,4 7,-6 2,-5 0,-18 -7,0 6,3 6,-13 1,-3 0,-31 z m -13,0 0,31 7,0 -6,-3 -6,13 -1,3 0,18 6,0 -4,-4 -6,6 -2,2 -6,12 0,16 6,0 -5,-5 -6,7 -6,6 -1,1 -7,13 6,3 -4,-5 -7,7 -1,1 -6,13 6,2 -5,-4 -6,6 -6,7 -7,6 -6,6 5,4 -3,-5 -13,6 -1,1 -7,7 5,4 -3,-6 -13,7 -1,1 -6,6 -7,6 5,5 0,-7 -13,0 -3,1 -12,6 -2,2 -6,6 5,4 0,-6 -19,0 -3,1 -13,6 3,5 0,-6 -62,0 0,6 3,-5 -13,-6 -3,-1 -18,0 0,6 4,-4 -6,-6 -2,-2 -12,-6 -3,-1 -13,0 0,7 5,-5 -7,-6 -6,-6 -1,-1 -13,-7 -3,6 5,-4 -7,-7 -1,-1 -13,-6 -2,5 4,-4 -6,-6 -7,-6 -6,-7 -6,-6 -4,4 5,-2 -6,-13 -1,-1 -7,-7 -4,5 6,-3 -7,-13 -1,-1 -6,-6 -6,-7 -5,5 7,0 0,-13 -1,-3 -6,-12 -2,-2 -6,-6 -4,4 6,0 0,-18 -1,-3 -6,-13 -5,3 6,0 0,-62 -6,0 5,3 6,-13 1,-3 0,-19 -6,0 4,5 6,-6 2,-2 6,-12 1,-3 0,-13 -7,0 5,5 6,-7 6,-6 1,-1 7,-13 -6,-3 4,5 7,-7 1,-1 6,-13 -5,-3 4,5 6,-6 6,-7 7,-6 6,-6 -4,-5 2,6 13,-6 1,-1 7,-7 -5,-4 3,6 13,-7 1,-1 6,-6 7,-6 -5,-5 0,6 16,0 12,-6 2,-2 6,-6 -4,-4 0,6 18,0 3,-1 13,-6 -3,-6 0,7 62,0 0,-7 -3,6 13,6 3,1 19,0 0,-6 -5,4 6,6 2,2 12,6 16,0 0,-6 -5,5 7,6 6,6 1,1 13,7 3,-6 -5,4 7,7 1,1 13,6 3,-6 -5,5 6,6 7,6 6,7 6,6 5,-5 -6,3 6,13 1,1 7,7 4,-5 -6,3 7,13 1,1 6,6 6,7 5,-5 -6,0 0,16 6,12 2,2 6,6 4,-5 -6,0 0,19 1,3 6,13 6,-3 -7,0 0,31"
                                   inkscape:connector-curvature="0"
                                   id="path126"
                                   style="fill:#7f7f7f;fill-opacity:1;fill-rule:nonzero;stroke:none" /><path
                                   d="m 2763,5425 0,-31 -7,-13 0,-19 -6,-6 -6,-12 0,-13 -6,-6 -7,-6 -6,-13 -6,-6 -6,-13 -7,-6 -6,-6 -6,-6 -6,-7 -13,-6 -6,-6 -13,-6 -6,-7 -6,-6 -13,0 -12,-6 -6,-6 -19,0 -13,-7 -62,0 -13,7 -18,0 -7,6 -12,6 -13,0 -6,6 -6,7 -13,6 -6,6 -12,6 -7,7 -6,6 -6,6 -6,6 -7,13 -6,6 -6,13 -6,6 -7,6 0,13 -6,12 -6,6 0,19 -6,13 0,62 6,13 0,18 6,7 6,12 0,13 7,6 6,6 6,13 6,6 7,12 6,7 6,6 6,6 7,6 12,7 6,6 13,6 6,6 6,7 13,0 12,6 7,6 18,0 13,6 62,0 13,-6 19,0 6,-6 12,-6 13,0 6,-7 6,-6 13,-6 6,-6 13,-7 6,-6 6,-6 6,-6 7,-7 6,-12 6,-6 6,-13 7,-6 6,-6 0,-13 6,-12 6,-7 0,-18 7,-13 0,-31"
                                   inkscape:connector-curvature="0"
                                   id="path128"
                                   style="fill:#bfbfbf;fill-opacity:1;fill-rule:evenodd;stroke:none" /><path
                                   d="m 2769,5425 0,-31 -1,-3 -6,-13 -6,3 7,0 0,-19 -2,-4 -7,-6 -4,4 6,-3 -7,-12 -5,3 6,0 0,-13 -2,-4 -6,-6 -6,-7 -5,5 6,-3 -6,-13 -2,-1 -6,-6 -4,4 5,-3 -6,-12 -1,-2 -6,-6 -7,-6 -6,-7 -6,-6 -2,-1 -12,-6 -3,5 4,-4 -6,-6 -1,-2 -13,-6 -3,6 5,-5 -7,-6 -6,-6 -4,-2 -13,0 0,6 3,-5 -12,-7 -3,6 4,-4 -6,-7 -4,-2 -19,0 0,7 3,-6 -13,-6 -3,-1 -62,0 -3,1 -13,6 3,6 0,-7 -18,0 -5,2 -6,7 4,4 -3,-6 -12,7 3,5 0,-6 -13,0 -4,2 -6,6 -7,6 5,5 -3,-6 -13,6 -1,2 -6,6 4,4 -3,-5 -12,6 -2,1 -6,6 -6,7 -7,6 -6,6 -1,2 -6,12 5,3 -4,-4 -6,6 -2,1 -6,13 6,3 -5,-5 -6,7 -6,6 -2,4 0,13 6,0 -5,-3 -7,12 6,3 -4,-4 -7,6 -1,4 0,19 6,0 -6,-3 -6,13 -1,3 0,62 1,3 6,13 6,-3 -6,0 0,18 1,5 7,6 4,-4 -6,3 7,12 5,-3 -6,0 0,13 2,4 6,6 6,7 5,-5 -6,3 6,13 2,1 6,6 4,-4 -5,3 6,12 1,2 6,6 7,6 6,7 6,6 2,1 12,6 3,-5 -4,4 6,6 1,2 13,6 3,-6 -5,5 7,6 6,6 4,2 13,0 0,-6 -3,5 12,7 3,-6 -4,4 6,7 5,1 18,0 0,-6 -3,6 13,6 3,1 62,0 3,-1 13,-6 -3,-6 0,6 19,0 4,-1 6,-7 -4,-4 3,6 12,-7 -3,-5 0,6 13,0 4,-2 6,-6 7,-6 -5,-5 3,6 13,-6 1,-2 6,-6 -4,-4 3,5 12,-6 2,-1 6,-6 6,-7 7,-6 6,-6 1,-2 6,-12 -5,-3 4,4 6,-6 2,-1 6,-13 -6,-3 5,5 6,-7 6,-6 2,-4 0,-13 -6,0 5,3 7,-12 -6,-3 4,4 7,-6 2,-5 0,-18 -7,0 6,3 6,-13 1,-3 0,-31 z m -13,0 0,31 7,0 -6,-3 -6,13 -1,3 0,18 6,0 -4,-4 -6,6 -2,2 -6,12 0,16 6,0 -5,-5 -6,7 -6,6 -1,1 -7,13 6,3 -4,-5 -7,7 -1,1 -6,13 6,2 -5,-4 -6,6 -6,7 -7,6 -6,6 5,4 -3,-5 -13,6 -1,1 -7,7 5,4 -3,-6 -13,7 -1,1 -6,6 -7,6 5,5 0,-7 -13,0 -3,1 -12,6 -2,2 -6,6 5,4 0,-6 -19,0 -3,1 -13,6 3,5 0,-6 -62,0 0,6 3,-5 -13,-6 -3,-1 -18,0 0,6 4,-4 -6,-6 -2,-2 -12,-6 -3,-1 -13,0 0,7 5,-5 -7,-6 -6,-6 -1,-1 -13,-7 -3,6 5,-4 -7,-7 -1,-1 -13,-6 -2,5 4,-4 -6,-6 -7,-6 -6,-7 -6,-6 -4,4 5,-2 -6,-13 -1,-1 -7,-7 -4,5 6,-3 -7,-13 -1,-1 -6,-6 -6,-7 -5,5 7,0 0,-13 -1,-3 -6,-12 -2,-2 -6,-6 -4,4 6,0 0,-18 -1,-3 -6,-13 -5,3 6,0 0,-62 -6,0 5,3 6,-13 1,-3 0,-19 -6,0 4,5 6,-6 2,-2 6,-12 1,-3 0,-13 -7,0 5,5 6,-7 6,-6 1,-1 7,-13 -6,-3 4,5 7,-7 1,-1 6,-13 -5,-3 4,5 6,-6 6,-7 7,-6 6,-6 -4,-5 2,6 13,-6 1,-1 7,-7 -5,-4 3,6 13,-7 1,-1 6,-6 7,-6 -5,-5 0,6 16,0 12,-6 2,-2 6,-6 -4,-4 0,6 18,0 3,-1 13,-6 -3,-6 0,7 62,0 0,-7 -3,6 13,6 3,1 19,0 0,-6 -5,4 6,6 2,2 12,6 16,0 0,-6 -5,5 7,6 6,6 1,1 13,7 3,-6 -5,4 7,7 1,1 13,6 3,-6 -5,5 6,6 7,6 6,7 6,6 5,-5 -6,3 6,13 1,1 7,7 4,-5 -6,3 7,13 1,1 6,6 6,7 5,-5 -6,0 0,16 6,12 2,2 6,6 4,-5 -6,0 0,19 1,3 6,13 6,-3 -7,0 0,31"
                                   inkscape:connector-curvature="0"
                                   id="path130"
                                   style="fill:#7f7f7f;fill-opacity:1;fill-rule:nonzero;stroke:none" /><path
                                   d="m 1063,1600 0,-31 -7,-13 0,-19 -6,-6 -6,-12 0,-13 -6,-6 -7,-6 -6,-13 -6,-6 -6,-13 -7,-6 -6.004,-6 -6,-6 -6,-7 -13,-6 -6,-6 -13,-6 -6,-7 -6,-6 -13,0 -12,-6 -6,-6 -19,0 -13,-7 -62,0 -13,7 -18,0 -7,6 -12,6 -13,0 -6,6 -6,7 -13,6 -6,6 -12,6 -7,7 -6,6 -6,6 -6,6 -7,13 -6,6 -6,13 -6,6 -7,6 0,13 -6,12 -6,6 0,19 -6,13 0,62 6,13 0,18 6,7 6,12 0,13 7,6 6,6 6,13 6,6 7,12 6,7 6,6 6,6 7,6 12,7 6,6 13,6 6,6 6,7 13,0 12,6 7,6 18,0 13,6 62,0 13,-6 19,0 6,-6 12,-6 13,0 6,-7 6,-6 13,-6 6,-6 13,-7 6,-6 6,-6 6.004,-6 7,-7 6,-12 6,-6 6,-13 7,-6 6,-6 0,-13 6,-12 6,-7 0,-18 7,-13 0,-31"
                                   inkscape:connector-curvature="0"
                                   id="path132"
                                   style="fill:#bfbfbf;fill-opacity:1;fill-rule:evenodd;stroke:none" /><path
                                   d="m 1069,1600 0,-31 -1,-3 -6,-13 -6,3 7,0 0,-19 -2,-4 -7,-6 -4,4 6,-3 -7,-12 -5,3 6,0 0,-13 -2,-4 -6,-6 -6,-7 -5,5 6,-3 -6,-13 -2,-1 -6,-6 -4,4 5,-3 -6,-12 -1,-2 -6,-6 -7,-6 -6.004,-7 -6,-6 -2,-1 -12,-6 -3,5 4,-4 -6,-6 -1,-2 -13,-6 -3,6 5,-5 -7,-6 -6,-6 -4,-2 -13,0 0,6 3,-5 -12,-7 -3,6 4,-4 -6,-7 -4,-2 -19,0 0,7 3,-6 -13,-6 -3,-1 -62,0 -3,1 -13,6 3,6 0,-7 -18,0 -5,2 -6,7 4,4 -3,-6 -12,7 3,5 0,-6 -13,0 -4,2 -6,6 -7,6 5,5 -3,-6 -13,6 -1,2 -6,6 4,4 -3,-5 -12,6 -2,1 -6,6 -6,7 -7,6 -6,6 -1,2 -6,12 5,3 -4,-4 -6,6 -2,1 -6,13 6,3 -5,-5 -6,7 -6,6 -2,4 0,13 6,0 -5,-3 -7,12 6,3 -4,-4 -7,6 -1,4 0,19 6,0 -6,-3 -6,13 -1,3 0,62 1,3 6,13 6,-3 -6,0 0,18 1,5 7,6 4,-4 -6,3 7,12 5,-3 -6,0 0,13 2,4 6,6 6,7 5,-5 -6,3 6,13 2,1 6,6 4,-4 -5,3 6,12 1,2 6,6 7,6 6,7 6,6 2,1 12,6 3,-5 -4,4 6,6 1,2 13,6 3,-6 -5,5 7,6 6,6 4,2 13,0 0,-6 -3,5 12,7 3,-6 -4,4 6,7 5,1 18,0 0,-6 -3,6 13,6 3,1 62,0 3,-1 13,-6 -3,-6 0,6 19,0 4,-1 6,-7 -4,-4 3,6 12,-7 -3,-5 0,6 13,0 4,-2 6,-6 7,-6 -5,-5 3,6 13,-6 1,-2 6,-6 -4,-4 3,5 12,-6 2,-1 6,-6 6.004,-7 7,-6 6,-6 1,-2 6,-12 -5,-3 4,4 6,-6 2,-1 6,-13 -6,-3 5,5 6,-7 6,-6 2,-4 0,-13 -6,0 5,3 7,-12 -6,-3 4,4 7,-6 2,-5 0,-18 -7,0 6,3 6,-13 1,-3 0,-31 z m -13,0 0,31 7,0 -6,-3 -6,13 -1,3 0,18 6,0 -4,-4 -6,6 -2,2 -6,12 0,16 6,0 -5,-5 -6,7 -6,6 -1,1 -7,13 6,3 -4,-5 -7,7 -1,1 -6,13 6,2 -5,-4 -6,6 -6.004,7 -7,6 -6,6 5,4 -3,-5 -13,6 -1,1 -7,7 5,4 -3,-6 -13,7 -1,1 -6,6 -7,6 5,5 0,-7 -13,0 -3,1 -12,6 -2,2 -6,6 5,4 0,-6 -19,0 -3,1 -13,6 3,5 0,-6 -62,0 0,6 3,-5 -13,-6 -3,-1 -18,0 0,6 4,-4 -6,-6 -2,-2 -12,-6 -3,-1 -13,0 0,7 5,-5 -7,-6 -6,-6 -1,-1 -13,-7 -3,6 5,-4 -7,-7 -1,-1 -13,-6 -2,5 4,-4 -6,-6 -7,-6 -6,-7 -6,-6 -4,4 5,-2 -6,-13 -1,-1 -7,-7 -4,5 6,-3 -7,-13 -1,-1 -6,-6 -6,-7 -5,5 7,0 0,-13 -1,-3 -6,-12 -2,-2 -6,-6 -4,4 6,0 0,-18 -1,-3 -6,-13 -5,3 6,0 0,-62 -6,0 5,3 6,-13 1,-3 0,-19 -6,0 4,5 6,-6 2,-2 6,-12 1,-3 0,-13 -7,0 5,5 6,-7 6,-6 1,-1 7,-13 -6,-3 4,5 7,-7 1,-1 6,-13 -5,-3 4,5 6,-6 6,-7 7,-6 6,-6 -4,-5 2,6 13,-6 1,-1 7,-7 -5,-4 3,6 13,-7 1,-1 6,-6 7,-6 -5,-5 0,6 16,0 12,-6 2,-2 6,-6 -4,-4 0,6 18,0 3,-1 13,-6 -3,-6 0,7 62,0 0,-7 -3,6 13,6 3,1 19,0 0,-6 -5,4 6,6 2,2 12,6 16,0 0,-6 -5,5 7,6 6,6 1,1 13,7 3,-6 -5,4 7,7 1,1 13,6 3,-6 -5,5 6,6 7,6 6.004,7 6,6 5,-5 -6,3 6,13 1,1 7,7 4,-5 -6,3 7,13 1,1 6,6 6,7 5,-5 -6,0 0,16 6,12 2,2 6,6 4,-5 -6,0 0,19 1,3 6,13 6,-3 -7,0 0,31"
                                   inkscape:connector-curvature="0"
                                   id="path134"
                                   style="fill:#7f7f7f;fill-opacity:1;fill-rule:nonzero;stroke:none" /><path
                                   d="m 4422,1600 0,-31 -1,-2 -6,-7 -2,2 3,0 0,-6 -1,-1 -6,-13 -3,2 3,0 0,-8 -6,-12 -3,1 3,0 0,-6 -1,-2 -6,-7 -2,2 3,-1 -7,-12 0,-1 -7,-6 -6,-7 -6,-6 -6,-6 -7,-6 -6,-7 -1,0 -12,-7 -1,3 2,-2 -7,-6 -2,-1 -6,0 0,3 1,-3 -12,-6 -8,0 0,3 2,-3 -13,-6 -1,-1 -6,0 0,3 2,-2 -7,-6 -2,-1 -62,0 -2,1 -7,6 3,2 0,-3 -7,0 -1,1 -13,6 2,3 0,-3 -8,0 -12,6 1,3 0,-3 -6,0 -2,1 -7,6 3,2 -2,-3 -12,7 -1,0 -6,7 -7,6 -6,6 -6,6 -6,7 -7,6 0,1 -7,12 3,1 -2,-2 -6,7 -1,2 0,6 3,0 -3,-1 -6,12 0,8 3,0 -3,-2 -6,13 -1,1 0,6 4,0 -3,-2 -6,7 -1,2 0,62 1,2 6,7 3,-3 -4,0 0,7 1,1 6,13 3,-2 -3,0 0,8 6,12 3,-1 -3,0 0,6 1,2 6,7 2,-3 -3,2 7,12 0,1 7,6 6,7 6,6 6,6 7,6 6,7 1,0 12,7 2,-3 -3,2 7,6 2,1 6,0 0,-3 -1,3 12,6 8,0 0,-3 -2,3 13,6 1,1 7,0 0,-4 -3,3 7,6 2,1 62,0 2,-1 7,-6 -2,-3 0,4 6,0 1,-1 13,-6 -2,-3 0,3 8,0 12,-6 -1,-3 0,3 6,0 2,-1 7,-6 -2,-2 1,3 12,-7 1,0 6,-7 7,-6 6,-6 6,-6 6,-7 7,-6 0,-1 7,-12 -3,-2 2,3 6,-7 1,-2 0,-6 -3,0 3,1 6,-12 0,-8 -3,0 3,2 6,-13 1,-1 0,-7 -3,0 2,3 6,-7 1,-2 0,-44 -6,0 0,44 3,0 -2,-2 -7,6 -1,2 0,7 4,0 -3,-2 -7,13 0,7 3,0 -3,-1 -6,13 0,7 3,0 -2,-2 -6,6 -1,1 -6,13 3,1 -3,-2 -6,6 -6,6 -6,7 -7,6 -6,6 -6,6 2,2 -1,-2 -13,6 -1,1 -6,6 2,2 0,-3 -7,0 -13,6 2,3 0,-3 -8,0 -13,7 2,2 0,-3 -6,0 -3,1 -6,7 2,2 0,-3 -62,0 0,3 2,-2 -6,-7 -2,-1 -7,0 0,3 2,-2 -13,-7 -7,0 0,3 1,-3 -13,-6 -7,0 0,3 2,-2 -6,-6 -1,-1 -13,-6 -1,2 2,-2 -6,-6 -6,-6 -7,-6 -6,-7 -6,-6 -6,-6 -2,2 2,-1 -6,-13 -1,-1 -6,-6 -2,2 3,0 0,-7 -6,-13 -3,1 3,0 0,-7 -7,-13 -2,2 3,0 0,-7 -1,-2 -7,-6 -2,2 3,0 0,-62 -3,0 2,2 7,-6 1,-3 0,-6 -3,0 2,2 7,-13 0,-8 -3,0 3,2 6,-13 0,-7 -3,0 2,2 6,-6 1,-1 6,-13 -2,-1 2,2 6,-6 6,-6 6,-7 7,-6 6,-6 6,-6 -2,-3 1,3 13,-6 1,-1 6,-6 -2,-2 0,3 7,0 13,-6 -1,-3 0,3 7,0 13,-7 -2,-3 0,4 7,0 2,-1 6,-7 -2,-2 0,3 62,0 0,-3 -2,2 6,7 3,1 6,0 0,-4 -2,3 13,7 8,0 0,-3 -2,3 13,6 7,0 0,-3 -2,2 6,6 1,1 13,6 1,-3 -2,3 6,6 6,6 7,6 6,7 6,6 6,6 3,-2 -3,1 6,13 1,1 6,6 2,-2 -3,0 0,7 6,13 3,-2 -3,0 0,8 7,13 3,-2 -4,0 0,6 1,3 7,6 2,-2 -3,0 0,31 6,0"
                                   inkscape:connector-curvature="0"
                                   id="path136"
                                   style="fill:#2f6bfb;fill-opacity:1;fill-rule:nonzero;stroke:none" /><path
                                   d="m 4463,1600 0,-31 -7,-13 0,-19 -6,-6 -6,-12 0,-13 -6,-6 -7,-6 -6,-13 -6,-6 -6,-13 -7,-6 -6,-6 -6,-6 -6,-7 -13,-6 -6,-6 -13,-6 -6,-7 -6,-6 -13,0 -12,-6 -6,-6 -19,0 -13,-7 -62,0 -13,7 -18,0 -7,6 -12,6 -13,0 -6,6 -6,7 -13,6 -6,6 -12,6 -7,7 -6,6 -6,6 -6,6 -7,13 -6,6 -6,13 -6,6 -7,6 0,13 -6,12 -6,6 0,19 -6,13 0,62 6,13 0,18 6,7 6,12 0,13 7,6 6,6 6,13 6,6 7,12 6,7 6,6 6,6 7,6 12,7 6,6 13,6 6,6 6,7 13,0 12,6 7,6 18,0 13,6 62,0 13,-6 19,0 6,-6 12,-6 13,0 6,-7 6,-6 13,-6 6,-6 13,-7 6,-6 6,-6 6,-6 7,-7 6,-12 6,-6 6,-13 7,-6 6,-6 0,-13 6,-12 6,-7 0,-18 7,-13 0,-31"
                                   inkscape:connector-curvature="0"
                                   id="path138"
                                   style="fill:#ffffff;fill-opacity:1;fill-rule:evenodd;stroke:none" /><path
                                   d="m 4466,1600 0,-31 -1,-2 -6,-12 -3,1 3,0 0,-19 -1,-2 -6,-6 -2,2 3,-1 -6,-13 -3,2 3,0 0,-13 -1,-2 -6,-6 -7,-6 -2,2 3,-2 -6,-12 -1,-1 -6,-6 -2,2 3,-1 -7,-13 0,-1 -7,-6 -6,-6 -6,-6 -6,-7 -1,0 -13,-7 -1,3 2,-2 -6,-6 -1,-1 -12,-6 -2,3 2,-2 -6,-7 -6,-6 -2,-1 -13,0 0,3 2,-3 -13,-6 -1,3 2,-2 -6,-6 -2,-1 -19,0 0,3 1,-3 -12,-6 -2,-1 -62,0 -2,1 -12,6 1,3 0,-3 -18,0 -3,1 -6,6 2,2 -1,-3 -13,6 2,3 0,-3 -13,0 -2,1 -6,6 -6,7 2,2 -2,-3 -12,6 -1,1 -6,6 2,2 -1,-3 -13,7 -1,0 -6,7 -6,6 -6,6 -7,6 0,1 -7,13 3,1 -2,-2 -6,6 -1,1 -6,12 3,2 -2,-2 -7,6 -6,6 -1,2 0,13 3,0 -3,-2 -6,13 3,1 -2,-2 -6,6 -1,2 0,19 3,0 -3,-1 -6,12 -1,2 0,62 1,2 6,12 3,-1 -3,0 0,18 1,3 6,6 2,-2 -3,1 6,13 3,-2 -3,0 0,13 1,2 6,6 7,6 2,-2 -3,2 6,12 1,1 6,6 2,-2 -3,1 7,13 0,1 7,6 6,6 6,6 6,7 1,0 13,7 1,-3 -2,2 6,6 1,1 12,6 2,-3 -2,2 6,7 6,6 2,1 13,0 0,-3 -2,3 13,6 1,-3 -2,2 6,6 3,1 18,0 0,-3 -1,3 12,6 2,1 62,0 2,-1 12,-6 -1,-3 0,3 19,0 2,-1 6,-6 -2,-2 1,3 13,-6 -2,-3 0,3 13,0 2,-1 6,-6 6,-7 -2,-2 2,3 12,-6 1,-1 6,-6 -2,-2 1,3 13,-7 1,0 6,-7 6,-6 6,-6 7,-6 0,-1 7,-13 -3,-1 2,2 6,-6 1,-1 6,-12 -3,-2 2,2 7,-6 6,-6 1,-2 0,-13 -3,0 3,2 6,-13 -3,-1 2,2 6,-6 1,-3 0,-18 -3,0 3,1 6,-12 1,-2 0,-31 z m -7,0 0,31 4,0 -3,-1 -7,12 0,20 3,0 -2,-2 -6,7 -1,0 -6,13 0,14 3,0 -2,-2 -7,6 -6,6 -1,1 -6,12 3,2 -2,-2 -6,6 -1,1 -6,12 3,1 -3,-2 -6,7 -6,6 -6,6 -7,6 3,2 -2,-2 -12,6 -1,1 -6,6 2,2 -2,-3 -12,6 -1,1 -6,6 -6,7 2,2 0,-3 -14,0 -13,6 0,1 -7,6 3,2 0,-3 -21,0 -12,7 1,2 0,-3 -62,0 0,3 1,-2 -12,-7 -20,0 0,3 2,-2 -7,-6 0,-1 -13,-6 -14,0 0,3 2,-2 -6,-7 -6,-6 -1,-1 -12,-6 -2,3 2,-2 -6,-6 -1,-1 -12,-6 -1,2 2,-2 -7,-6 -6,-6 -6,-6 -6,-7 -2,2 2,-1 -6,-12 -1,-1 -6,-6 -2,2 3,-2 -6,-12 -1,-1 -6,-6 -7,-6 -2,2 3,0 0,-14 -6,-13 -1,0 -6,-7 -2,2 3,0 0,-20 -7,-12 -2,1 3,0 0,-62 -3,0 2,1 7,-12 0,-21 -3,0 2,3 6,-7 1,0 6,-13 0,-14 -3,0 2,2 7,-6 6,-6 1,-1 6,-12 -3,-2 2,2 6,-6 1,-1 6,-12 -2,-2 2,3 6,-7 6,-6 6,-6 7,-6 -2,-3 1,3 12,-6 1,-1 6,-6 -2,-2 2,3 12,-6 1,-1 6,-6 6,-7 -2,-2 0,3 14,0 13,-6 0,-1 7,-6 -2,-2 0,3 20,0 12,-7 -1,-3 0,4 62,0 0,-4 -1,3 12,7 21,0 0,-3 -3,2 7,6 0,1 13,6 14,0 0,-3 -2,2 6,7 6,6 1,1 12,6 2,-3 -2,2 6,6 1,1 12,6 2,-3 -3,3 7,6 6,6 6,6 6,7 3,-3 -3,2 6,12 1,1 6,6 2,-2 -3,2 6,12 1,1 6,6 7,6 2,-2 -3,0 0,14 6,13 1,0 6,7 2,-3 -3,0 0,21 7,12 3,-1 -4,0 0,31"
                                   inkscape:connector-curvature="0"
                                   id="path140"
                                   style="fill:#0b2bc5;fill-opacity:1;fill-rule:nonzero;stroke:none" /><path
                                   d="m 4356,1600 0,-25 -6,-6 0,-7 -6,-6 0,-6 -6,-6 0,-7 -7,-6 -6,-6 -6,-6 -6,-7 -7,0 -6,-6 -6,0 -6,-6 -7,0 -6,-6 -50,0 -6,6 -6,0 -7,6 -6,0 -6,6 -6,0 -7,7 -6,6 -6,6 -6,6 0,7 -7,6 0,6 -6,6 0,7 -6,6 0,50 6,6 0,6 6,7 0,6 7,6 0,6 6,7 6,6 6,6 7,6 6,0 6,7 6,0 7,6 6,0 6,6 50,0 6,-6 7,0 6,-6 6,0 6,-7 7,0 6,-6 6,-6 6,-6 7,-7 0,-6 6,-6 0,-6 6,-7 0,-6 6,-6 0,-25"
                                   inkscape:connector-curvature="0"
                                   id="path142"
                                   style="fill:#2f6bfb;fill-opacity:1;fill-rule:evenodd;stroke:none" /><path
                                   d="m 4356,1600 0,-25 -6,-6 0,-7 -6,-6 0,-6 -6,-6 0,-7 -7,-6 -6,-6 -6,-6 -6,-7 -7,0 -6,-6 -6,0 -6,-6 -7,0 -6,-6 -50,0 -6,6 -6,0 -7,6 -6,0 -6,6 -6,0 -7,7 -6,6 -6,6 -6,6 0,7 -7,6 0,6 -6,6 0,7 -6,6 0,50 6,6 0,6 6,7 0,6 7,6 0,6 6,7 6,6 6,6 7,6 6,0 6,7 6,0 7,6 6,0 6,6 50,0 6,-6 7,0 6,-6 6,0 6,-7 7,0 6,-6 6,-6 6,-6 7,-7 0,-6 6,-6 0,-6 6,-7 0,-6 6,-6 0,-25 z"
                                   inkscape:connector-curvature="0"
                                   id="path144"
                                   style="fill:none;stroke:#2f6bfb;stroke-width:1;stroke-linecap:round;stroke-linejoin:round;stroke-miterlimit:10;stroke-opacity:1;stroke-dasharray:none" /><path
                                   d="m 1700,4362 0,32 -6,12 0,19 -6,6 -7,13 0,12 -6,6 -6,7 -6,12 -7,6 -6,13 -6,6 -6,6 -7,7 -6,6 -12,6 -7,6 -12,7 -6,6 -7,6 -12,0 -13,6 -6,7 -19,0 -12,6 -63,0 -12,-6 -19,0 -6,-7 -13,-6 -12,0 -6,-6 -7,-6 -12,-7 -6,-6 -13,-6 -6,-6 -6,-7 -7,-6 -6,-6 -6,-13 -6,-6 -7,-12 -6,-7 -6,-6 0,-12 -6,-13 -7,-6 0,-19 -6,-12 0,-63 6,-12 0,-19 7,-6 6,-13 0,-12 6,-7 6,-6 7,-12 6,-7 6,-12 6,-6 7,-7 6,-6 6,-6 13,-6 6,-7 12,-6 7,-6 6,-6 12,0 13,-7 6,-6 19,0 12,-6 63,0 12,6 19,0 6,6 13,7 12,0 7,6 6,6 12,6 7,7 12,6 6,6 7,6 6,7 6,6 6,12 7,7 6,12 6,6 6,7 0,12 7,13 6,6 0,19 6,12 0,31"
                                   inkscape:connector-curvature="0"
                                   id="path146"
                                   style="fill:#ffffff;fill-opacity:1;fill-rule:evenodd;stroke:none" /><path
                                   d="m 1697,4362 0,32 3,0 -3,-2 -6,13 0,20 3,0 -2,-2 -7,6 0,1 -7,12 0,14 3,0 -2,-2 -6,6 -6,7 -1,0 -6,13 3,1 -3,-2 -6,6 -1,1 -6,13 3,1 -2,-2 -6,6 -7,6 -6,7 -6,6 2,2 -1,-3 -13,6 -1,1 -6,6 2,2 -1,-2 -13,6 0,1 -7,6 -6,6 2,2 0,-3 -14,0 -12,7 -1,0 -6,7 2,2 0,-3 -20,0 -13,6 2,3 0,-3 -63,0 0,3 2,-3 -13,-6 -20,0 0,3 2,-2 -6,-7 -1,0 -12,-7 -14,0 0,3 2,-2 -6,-6 -7,-6 0,-1 -13,-6 -1,2 2,-2 -6,-6 -1,-1 -13,-6 -1,3 2,-2 -6,-6 -6,-7 -7,-6 -6,-6 -2,2 3,-1 -6,-13 -1,-1 -6,-6 -2,2 2,-1 -6,-13 -1,0 -6,-7 -6,-6 -2,2 3,0 0,-14 -7,-12 0,-1 -7,-6 -2,2 3,0 0,-20 -6,-13 -3,2 3,0 0,-63 -3,0 3,2 6,-13 0,-20 -3,0 2,2 7,-6 0,-1 7,-12 0,-14 -3,0 2,2 6,-6 6,-7 1,0 6,-13 -2,-1 2,2 6,-6 1,-1 6,-13 -3,-1 2,2 6,-6 7,-6 6,-7 6,-6 -2,-2 1,3 13,-6 1,-1 6,-6 -2,-3 1,3 13,-6 0,-1 7,-6 6,-6 -2,-2 0,3 14,0 12,-7 1,0 6,-7 -2,-2 0,3 20,0 13,-6 -2,-3 0,3 63,0 0,-3 -2,3 13,6 20,0 0,-3 -2,2 6,7 1,0 12,7 14,0 0,-3 -2,2 6,6 7,6 0,1 13,6 1,-3 -2,3 6,6 1,1 13,6 1,-3 -2,2 6,6 6,7 7,6 6,6 2,-2 -3,1 6,13 1,1 6,6 3,-2 -3,1 6,13 1,0 6,7 6,6 2,-2 -3,0 0,14 7,12 0,1 7,6 2,-2 -3,0 0,20 6,13 3,-2 -3,0 0,31 z m 6,0 0,-32 -6,-13 -3,2 3,0 0,-19 -1,-2 -6,-6 -2,2 2,-2 -6,-12 -3,1 3,0 0,-12 -1,-2 -6,-7 -6,-6 -2,2 3,-1 -7,-13 0,0 -7,-7 -2,2 3,-1 -6,-12 -1,-1 -6,-6 -6,-7 -7,-6 -6,-6 -1,-1 -12,-6 -1,3 2,-2 -7,-7 0,0 -13,-7 -1,3 2,-2 -6,-6 -7,-6 -2,-1 -12,0 0,3 1,-3 -12,-6 -2,2 2,-2 -6,-6 -2,-1 -19,0 0,3 2,-3 -13,-6 -65,0 -13,6 2,3 0,-3 -19,0 -2,1 -6,6 2,2 -2,-2 -12,6 1,3 0,-3 -12,0 -2,1 -7,6 -6,6 2,2 -1,-3 -13,7 0,0 -7,7 3,2 -2,-3 -12,6 -1,1 -6,6 -7,6 -6,7 -6,6 -1,1 -6,12 3,1 -2,-2 -7,7 0,0 -7,13 3,1 -2,-2 -6,6 -6,7 -1,2 0,12 3,0 -3,-1 -6,12 3,2 -3,-2 -6,6 -1,2 0,19 3,0 -3,-2 -6,13 0,65 6,13 3,-2 -3,0 0,19 1,2 6,6 3,-2 -3,2 6,12 3,-1 -3,0 0,12 1,2 6,7 6,6 2,-2 -3,1 7,13 0,0 7,7 2,-3 -3,2 6,12 1,1 6,6 6,7 7,6 6,6 1,1 12,6 2,-3 -3,2 7,7 0,0 13,7 1,-3 -2,2 6,6 7,6 2,1 12,0 0,-3 -1,3 12,6 2,-3 -2,3 6,6 2,1 19,0 0,-3 -2,3 13,6 65,0 13,-6 -2,-3 0,3 19,0 2,-1 6,-6 -2,-3 2,3 12,-6 -1,-3 0,3 12,0 2,-1 7,-6 6,-6 -2,-2 1,3 13,-7 0,0 7,-7 -2,-2 1,3 12,-6 1,-1 6,-6 7,-6 6,-7 6,-6 1,-1 6,-12 -3,-2 2,3 7,-7 0,0 7,-13 -3,-1 2,2 6,-6 6,-7 1,-2 0,-12 -3,0 3,1 6,-12 -2,-2 2,2 6,-6 1,-2 0,-19 -3,0 3,2 6,-13 0,-33"
                                   inkscape:connector-curvature="0"
                                   id="path148"
                                   style="fill:#7f7f7f;fill-opacity:1;fill-rule:nonzero;stroke:none" /><path
                                   d="m 1700,4362 0,32 -6,12 0,19 -6,6 -7,13 0,12 -6,6 -6,7 -6,12 -7,6 -6,13 -6,6 -6,6 -7,7 -6,6 -12,6 -7,6 -12,7 -6,6 -7,6 -12,0 -13,6 -6,7 -19,0 -12,6 -63,0 -12,-6 -19,0 -6,-7 -13,-6 -12,0 -6,-6 -7,-6 -12,-7 -6,-6 -13,-6 -6,-6 -6,-7 -7,-6 -6,-6 -6,-13 -6,-6 -7,-12 -6,-7 -6,-6 0,-12 -6,-13 -7,-6 0,-19 -6,-12 0,-63 6,-12 0,-19 7,-6 6,-13 0,-12 6,-7 6,-6 7,-12 6,-7 6,-12 6,-6 7,-7 6,-6 6,-6 13,-6 6,-7 12,-6 7,-6 6,-6 12,0 13,-7 6,-6 19,0 12,-6 63,0 12,6 19,0 6,6 13,7 12,0 7,6 6,6 12,6 7,7 12,6 6,6 7,6 6,7 6,6 6,12 7,7 6,12 6,6 6,7 0,12 7,13 6,6 0,19 6,12 0,31"
                                   inkscape:connector-curvature="0"
                                   id="path150"
                                   style="fill:#ffffff;fill-opacity:1;fill-rule:evenodd;stroke:none" /><path
                                   d="m 1697,4362 0,32 3,0 -3,-2 -6,13 0,20 3,0 -2,-2 -7,6 0,1 -7,12 0,14 3,0 -2,-2 -6,6 -6,7 -1,0 -6,13 3,1 -3,-2 -6,6 -1,1 -6,13 3,1 -2,-2 -6,6 -7,6 -6,7 -6,6 2,2 -1,-3 -13,6 -1,1 -6,6 2,2 -1,-2 -13,6 0,1 -7,6 -6,6 2,2 0,-3 -14,0 -12,7 -1,0 -6,7 2,2 0,-3 -20,0 -13,6 2,3 0,-3 -63,0 0,3 2,-3 -13,-6 -20,0 0,3 2,-2 -6,-7 -1,0 -12,-7 -14,0 0,3 2,-2 -6,-6 -7,-6 0,-1 -13,-6 -1,2 2,-2 -6,-6 -1,-1 -13,-6 -1,3 2,-2 -6,-6 -6,-7 -7,-6 -6,-6 -2,2 3,-1 -6,-13 -1,-1 -6,-6 -2,2 2,-1 -6,-13 -1,0 -6,-7 -6,-6 -2,2 3,0 0,-14 -7,-12 0,-1 -7,-6 -2,2 3,0 0,-20 -6,-13 -3,2 3,0 0,-63 -3,0 3,2 6,-13 0,-20 -3,0 2,2 7,-6 0,-1 7,-12 0,-14 -3,0 2,2 6,-6 6,-7 1,0 6,-13 -2,-1 2,2 6,-6 1,-1 6,-13 -3,-1 2,2 6,-6 7,-6 6,-7 6,-6 -2,-2 1,3 13,-6 1,-1 6,-6 -2,-3 1,3 13,-6 0,-1 7,-6 6,-6 -2,-2 0,3 14,0 12,-7 1,0 6,-7 -2,-2 0,3 20,0 13,-6 -2,-3 0,3 63,0 0,-3 -2,3 13,6 20,0 0,-3 -2,2 6,7 1,0 12,7 14,0 0,-3 -2,2 6,6 7,6 0,1 13,6 1,-3 -2,3 6,6 1,1 13,6 1,-3 -2,2 6,6 6,7 7,6 6,6 2,-2 -3,1 6,13 1,1 6,6 3,-2 -3,1 6,13 1,0 6,7 6,6 2,-2 -3,0 0,14 7,12 0,1 7,6 2,-2 -3,0 0,20 6,13 3,-2 -3,0 0,31 z m 6,0 0,-32 -6,-13 -3,2 3,0 0,-19 -1,-2 -6,-6 -2,2 2,-2 -6,-12 -3,1 3,0 0,-12 -1,-2 -6,-7 -6,-6 -2,2 3,-1 -7,-13 0,0 -7,-7 -2,2 3,-1 -6,-12 -1,-1 -6,-6 -6,-7 -7,-6 -6,-6 -1,-1 -12,-6 -1,3 2,-2 -7,-7 0,0 -13,-7 -1,3 2,-2 -6,-6 -7,-6 -2,-1 -12,0 0,3 1,-3 -12,-6 -2,2 2,-2 -6,-6 -2,-1 -19,0 0,3 2,-3 -13,-6 -65,0 -13,6 2,3 0,-3 -19,0 -2,1 -6,6 2,2 -2,-2 -12,6 1,3 0,-3 -12,0 -2,1 -7,6 -6,6 2,2 -1,-3 -13,7 0,0 -7,7 3,2 -2,-3 -12,6 -1,1 -6,6 -7,6 -6,7 -6,6 -1,1 -6,12 3,1 -2,-2 -7,7 0,0 -7,13 3,1 -2,-2 -6,6 -6,7 -1,2 0,12 3,0 -3,-1 -6,12 3,2 -3,-2 -6,6 -1,2 0,19 3,0 -3,-2 -6,13 0,65 6,13 3,-2 -3,0 0,19 1,2 6,6 3,-2 -3,2 6,12 3,-1 -3,0 0,12 1,2 6,7 6,6 2,-2 -3,1 7,13 0,0 7,7 2,-3 -3,2 6,12 1,1 6,6 6,7 7,6 6,6 1,1 12,6 2,-3 -3,2 7,7 0,0 13,7 1,-3 -2,2 6,6 7,6 2,1 12,0 0,-3 -1,3 12,6 2,-3 -2,3 6,6 2,1 19,0 0,-3 -2,3 13,6 65,0 13,-6 -2,-3 0,3 19,0 2,-1 6,-6 -2,-3 2,3 12,-6 -1,-3 0,3 12,0 2,-1 7,-6 6,-6 -2,-2 1,3 13,-7 0,0 7,-7 -2,-2 1,3 12,-6 1,-1 6,-6 7,-6 6,-7 6,-6 1,-1 6,-12 -3,-2 2,3 7,-7 0,0 7,-13 -3,-1 2,2 6,-6 6,-7 1,-2 0,-12 -3,0 3,1 6,-12 -2,-2 2,2 6,-6 1,-2 0,-19 -3,0 3,2 6,-13 0,-33"
                                   inkscape:connector-curvature="0"
                                   id="path152"
                                   style="fill:#7f7f7f;fill-opacity:1;fill-rule:nonzero;stroke:none" /><path
                                   d="m 1653,4362 0,32 3,0 -2,-2 -6,6 -1,2 0,6 3,0 -3,-1 -6,12 0,8 3,0 -3,-1 -6,12 -1,1 0,7 4,0 -3,-2 -6,6 -1,1 -6,12 3,1 -2,-2 -6,7 -7,6 -6,6 -6,6 -6,7 -7,6 3,2 -2,-3 -12,6 -1,1 -6,6 2,2 0,-3 -6,0 -2,1 -12,6 1,3 0,-3 -8,0 -12,6 1,3 0,-3 -6,0 -2,1 -6,6 2,2 0,-3 -63,0 0,3 2,-2 -6,-6 -2,-1 -6,0 0,3 1,-3 -12,-6 -8,0 0,3 1,-3 -12,-6 -1,-1 -7,0 0,3 2,-2 -6,-6 -1,-1 -12,-6 -1,3 2,-2 -7,-6 -6,-7 -6,-6 -6,-6 -7,-6 -6,-7 -2,2 3,-1 -6,-12 -1,-1 -6,-6 -2,2 3,0 0,-7 -1,-1 -6,-12 -3,1 3,0 0,-8 -6,-12 -3,1 3,0 0,-6 -1,-2 -6,-6 -2,2 3,0 0,-63 -3,0 2,2 6,-6 1,-2 0,-6 -3,0 3,1 6,-12 0,-8 -3,0 3,1 6,-12 1,-2 0,-6 -3,0 2,2 6,-6 1,-1 6,-12 -3,-2 2,3 6,-7 7,-6 6,-6 6,-6 6,-7 7,-6 -2,-2 1,3 12,-6 1,-1 6,-6 -2,-3 0,4 7,0 1,-1 12,-6 -1,-3 0,3 8,0 12,-6 -1,-3 0,3 6,0 2,-1 6,-6 -2,-2 0,3 63,0 0,-3 -2,2 6,6 2,1 6,0 0,-3 -1,3 12,6 8,0 0,-3 -1,3 12,6 2,1 6,0 0,-4 -2,3 6,6 1,1 12,6 2,-3 -3,2 7,6 6,7 6,6 6,6 7,6 6,7 2,-3 -3,2 6,12 1,1 6,6 3,-2 -4,0 0,6 1,2 6,12 3,-1 -3,0 0,8 6,12 3,-1 -3,0 0,6 1,2 6,6 2,-2 -3,0 0,44 6,0 0,-44 -1,-2 -6,-6 -2,2 3,0 0,-8 -6,-12 -3,1 3,0 0,-7 -7,-13 -2,1 3,0 0,-6 -1,-2 -7,-6 -2,2 3,-1 -6,-13 -1,-1 -6,-6 -6,-6 -7,-6 -6,-7 -6,-6 -6,-6 -1,-1 -13,-6 -1,3 2,-2 -6,-7 -2,-1 -6,0 0,3 1,-2 -13,-7 -7,0 0,3 1,-3 -12,-6 -8,0 0,3 2,-2 -6,-6 -2,-1 -63,0 -2,1 -6,6 2,2 0,-3 -8,0 -12,6 1,3 0,-3 -7,0 -13,7 2,2 0,-3 -7,0 -2,1 -6,7 2,2 -1,-3 -13,6 -1,1 -6,6 -6,6 -6,7 -7,6 -6,6 -6,6 -1,1 -6,13 3,1 -2,-2 -7,6 -1,2 0,6 4,0 -3,-1 -7,13 0,7 3,0 -3,-1 -6,12 0,8 3,0 -2,-2 -6,6 -1,2 0,63 1,2 6,6 2,-2 -3,0 0,8 6,12 3,-1 -3,0 0,7 7,13 3,-2 -4,0 0,7 1,2 7,6 2,-2 -3,1 6,13 1,1 6,6 6,6 7,6 6,7 6,6 6,6 1,1 13,6 1,-3 -2,2 6,7 2,1 7,0 0,-4 -2,3 13,7 7,0 0,-3 -1,3 12,6 8,0 0,-3 -2,2 6,6 2,1 63,0 2,-1 6,-6 -2,-2 0,3 8,0 12,-6 -1,-3 0,3 7,0 13,-7 -1,-3 0,4 6,0 2,-1 6,-7 -2,-2 1,3 13,-6 1,-1 6,-6 6,-6 6,-7 7,-6 6,-6 6,-6 1,-1 6,-13 -3,-1 2,2 7,-6 1,-2 0,-7 -3,0 2,2 7,-13 0,-7 -3,0 3,1 6,-12 0,-8 -3,0 2,2 6,-6 1,-2 0,-32 -6,0"
                                   inkscape:connector-curvature="0"
                                   id="path154"
                                   style="fill:#dd172f;fill-opacity:1;fill-rule:nonzero;stroke:none" /><path
                                   d="m 1700,4362 0,32 -6,12 0,19 -6,6 -7,13 0,12 -6,6 -6,7 -6,12 -7,6 -6,13 -6,6 -6,6 -7,7 -6,6 -12,6 -7,6 -12,7 -6,6 -7,6 -12,0 -13,6 -6,7 -19,0 -12,6 -63,0 -12,-6 -19,0 -6,-7 -13,-6 -12,0 -6,-6 -7,-6 -12,-7 -6,-6 -13,-6 -6,-6 -6,-7 -7,-6 -6,-6 -6,-13 -6,-6 -7,-12 -6,-7 -6,-6 0,-12 -6,-13 -7,-6 0,-19 -6,-12 0,-63 6,-12 0,-19 7,-6 6,-13 0,-12 6,-7 6,-6 7,-12 6,-7 6,-12 6,-6 7,-7 6,-6 6,-6 13,-6 6,-7 12,-6 7,-6 6,-6 12,0 13,-7 6,-6 19,0 12,-6 63,0 12,6 19,0 6,6 13,7 12,0 7,6 6,6 12,6 7,7 12,6 6,6 7,6 6,7 6,6 6,12 7,7 6,12 6,6 6,7 0,12 7,13 6,6 0,19 6,12 0,31"
                                   inkscape:connector-curvature="0"
                                   id="path156"
                                   style="fill:#dd172f;fill-opacity:1;fill-rule:evenodd;stroke:none" /><path
                                   d="m 1697,4362 0,32 3,0 -3,-2 -6,13 0,20 3,0 -2,-2 -7,6 0,1 -7,12 0,14 3,0 -2,-2 -6,6 -6,7 -1,0 -6,13 3,1 -3,-2 -6,6 -1,1 -6,13 3,1 -2,-2 -6,6 -7,6 -6,7 -6,6 2,2 -1,-3 -13,6 -1,1 -6,6 2,2 -1,-2 -13,6 0,1 -7,6 -6,6 2,2 0,-3 -14,0 -12,7 -1,0 -6,7 2,2 0,-3 -20,0 -13,6 2,3 0,-3 -63,0 0,3 2,-3 -13,-6 -20,0 0,3 2,-2 -6,-7 -1,0 -12,-7 -14,0 0,3 2,-2 -6,-6 -7,-6 0,-1 -13,-6 -1,2 2,-2 -6,-6 -1,-1 -13,-6 -1,3 2,-2 -6,-6 -6,-7 -7,-6 -6,-6 -2,2 3,-1 -6,-13 -1,-1 -6,-6 -2,2 2,-1 -6,-13 -1,0 -6,-7 -6,-6 -2,2 3,0 0,-14 -7,-12 0,-1 -7,-6 -2,2 3,0 0,-20 -6,-13 -3,2 3,0 0,-63 -3,0 3,2 6,-13 0,-20 -3,0 2,2 7,-6 0,-1 7,-12 0,-14 -3,0 2,2 6,-6 6,-7 1,0 6,-13 -2,-1 2,2 6,-6 1,-1 6,-13 -3,-1 2,2 6,-6 7,-6 6,-7 6,-6 -2,-2 1,3 13,-6 1,-1 6,-6 -2,-3 1,3 13,-6 0,-1 7,-6 6,-6 -2,-2 0,3 14,0 12,-7 1,0 6,-7 -2,-2 0,3 20,0 13,-6 -2,-3 0,3 63,0 0,-3 -2,3 13,6 20,0 0,-3 -2,2 6,7 1,0 12,7 14,0 0,-3 -2,2 6,6 7,6 0,1 13,6 1,-3 -2,3 6,6 1,1 13,6 1,-3 -2,2 6,6 6,7 7,6 6,6 2,-2 -3,1 6,13 1,1 6,6 3,-2 -3,1 6,13 1,0 6,7 6,6 2,-2 -3,0 0,14 7,12 0,1 7,6 2,-2 -3,0 0,20 6,13 3,-2 -3,0 0,31 z m 6,0 0,-32 -6,-13 -3,2 3,0 0,-19 -1,-2 -6,-6 -2,2 2,-2 -6,-12 -3,1 3,0 0,-12 -1,-2 -6,-7 -6,-6 -2,2 3,-1 -7,-13 0,0 -7,-7 -2,2 3,-1 -6,-12 -1,-1 -6,-6 -6,-7 -7,-6 -6,-6 -1,-1 -12,-6 -1,3 2,-2 -7,-7 0,0 -13,-7 -1,3 2,-2 -6,-6 -7,-6 -2,-1 -12,0 0,3 1,-3 -12,-6 -2,2 2,-2 -6,-6 -2,-1 -19,0 0,3 2,-3 -13,-6 -65,0 -13,6 2,3 0,-3 -19,0 -2,1 -6,6 2,2 -2,-2 -12,6 1,3 0,-3 -12,0 -2,1 -7,6 -6,6 2,2 -1,-3 -13,7 0,0 -7,7 3,2 -2,-3 -12,6 -1,1 -6,6 -7,6 -6,7 -6,6 -1,1 -6,12 3,1 -2,-2 -7,7 0,0 -7,13 3,1 -2,-2 -6,6 -6,7 -1,2 0,12 3,0 -3,-1 -6,12 3,2 -3,-2 -6,6 -1,2 0,19 3,0 -3,-2 -6,13 0,65 6,13 3,-2 -3,0 0,19 1,2 6,6 3,-2 -3,2 6,12 3,-1 -3,0 0,12 1,2 6,7 6,6 2,-2 -3,1 7,13 0,0 7,7 2,-3 -3,2 6,12 1,1 6,6 6,7 7,6 6,6 1,1 12,6 2,-3 -3,2 7,7 0,0 13,7 1,-3 -2,2 6,6 7,6 2,1 12,0 0,-3 -1,3 12,6 2,-3 -2,3 6,6 2,1 19,0 0,-3 -2,3 13,6 65,0 13,-6 -2,-3 0,3 19,0 2,-1 6,-6 -2,-3 2,3 12,-6 -1,-3 0,3 12,0 2,-1 7,-6 6,-6 -2,-2 1,3 13,-7 0,0 7,-7 -2,-2 1,3 12,-6 1,-1 6,-6 7,-6 6,-7 6,-6 1,-1 6,-12 -3,-2 2,3 7,-7 0,0 7,-13 -3,-1 2,2 6,-6 6,-7 1,-2 0,-12 -3,0 3,1 6,-12 -2,-2 2,2 6,-6 1,-2 0,-19 -3,0 3,2 6,-13 0,-33"
                                   inkscape:connector-curvature="0"
                                   id="path158"
                                   style="fill:#aa0000;fill-opacity:1;fill-rule:nonzero;stroke:none" /><g
                                   transform="scale(8.33333,8.33333)"
                                   id="g160"><text
                                   transform="matrix(1,0,0,-1,167.28,509.28)"
                                   id="text162"><tspan
                                   x="0"
                                   y="0"
                                   id="tspan164"
                                   style="font-size:42px;font-variant:normal;font-weight:bold;writing-mode:lr-tb;fill:#ffffff;fill-opacity:1;fill-rule:nonzero;stroke:none;font-family:Helvetica;-inkscape-font-specification:Helvetica-Bold">2</tspan></text>
</g><path
                                   d="m 1700,4362 0,32 -6,12 0,19 -6,6 -7,13 0,12 -6,6 -6,7 -6,12 -7,6 -6,13 -6,6 -6,6 -7,7 -6,6 -12,6 -7,6 -12,7 -6,6 -7,6 -12,0 -13,6 -6,7 -19,0 -12,6 -63,0 -12,-6 -19,0 -6,-7 -13,-6 -12,0 -6,-6 -7,-6 -12,-7 -6,-6 -13,-6 -6,-6 -6,-7 -7,-6 -6,-6 -6,-13 -6,-6 -7,-12 -6,-7 -6,-6 0,-12 -6,-13 -7,-6 0,-19 -6,-12 0,-63 6,-12 0,-19 7,-6 6,-13 0,-12 6,-7 6,-6 7,-12 6,-7 6,-12 6,-6 7,-7 6,-6 6,-6 13,-6 6,-7 12,-6 7,-6 6,-6 12,0 13,-7 6,-6 19,0 12,-6 63,0 12,6 19,0 6,6 13,7 12,0 7,6 6,6 12,6 7,7 12,6 6,6 7,6 6,7 6,6 6,12 7,7 6,12 6,6 6,7 0,12 7,13 6,6 0,19 6,12 0,31"
                                   inkscape:connector-curvature="0"
                                   id="path166"
                                   style="fill:#ffffff;fill-opacity:1;fill-rule:evenodd;stroke:none" /><path
                                   d="m 1697,4362 0,32 3,0 -3,-2 -6,13 0,20 3,0 -2,-2 -7,6 0,1 -7,12 0,14 3,0 -2,-2 -6,6 -6,7 -1,0 -6,13 3,1 -3,-2 -6,6 -1,1 -6,13 3,1 -2,-2 -6,6 -7,6 -6,7 -6,6 2,2 -1,-3 -13,6 -1,1 -6,6 2,2 -1,-2 -13,6 0,1 -7,6 -6,6 2,2 0,-3 -14,0 -12,7 -1,0 -6,7 2,2 0,-3 -20,0 -13,6 2,3 0,-3 -63,0 0,3 2,-3 -13,-6 -20,0 0,3 2,-2 -6,-7 -1,0 -12,-7 -14,0 0,3 2,-2 -6,-6 -7,-6 0,-1 -13,-6 -1,2 2,-2 -6,-6 -1,-1 -13,-6 -1,3 2,-2 -6,-6 -6,-7 -7,-6 -6,-6 -2,2 3,-1 -6,-13 -1,-1 -6,-6 -2,2 2,-1 -6,-13 -1,0 -6,-7 -6,-6 -2,2 3,0 0,-14 -7,-12 0,-1 -7,-6 -2,2 3,0 0,-20 -6,-13 -3,2 3,0 0,-63 -3,0 3,2 6,-13 0,-20 -3,0 2,2 7,-6 0,-1 7,-12 0,-14 -3,0 2,2 6,-6 6,-7 1,0 6,-13 -2,-1 2,2 6,-6 1,-1 6,-13 -3,-1 2,2 6,-6 7,-6 6,-7 6,-6 -2,-2 1,3 13,-6 1,-1 6,-6 -2,-3 1,3 13,-6 0,-1 7,-6 6,-6 -2,-2 0,3 14,0 12,-7 1,0 6,-7 -2,-2 0,3 20,0 13,-6 -2,-3 0,3 63,0 0,-3 -2,3 13,6 20,0 0,-3 -2,2 6,7 1,0 12,7 14,0 0,-3 -2,2 6,6 7,6 0,1 13,6 1,-3 -2,3 6,6 1,1 13,6 1,-3 -2,2 6,6 6,7 7,6 6,6 2,-2 -3,1 6,13 1,1 6,6 3,-2 -3,1 6,13 1,0 6,7 6,6 2,-2 -3,0 0,14 7,12 0,1 7,6 2,-2 -3,0 0,20 6,13 3,-2 -3,0 0,31 z m 6,0 0,-32 -6,-13 -3,2 3,0 0,-19 -1,-2 -6,-6 -2,2 2,-2 -6,-12 -3,1 3,0 0,-12 -1,-2 -6,-7 -6,-6 -2,2 3,-1 -7,-13 0,0 -7,-7 -2,2 3,-1 -6,-12 -1,-1 -6,-6 -6,-7 -7,-6 -6,-6 -1,-1 -12,-6 -1,3 2,-2 -7,-7 0,0 -13,-7 -1,3 2,-2 -6,-6 -7,-6 -2,-1 -12,0 0,3 1,-3 -12,-6 -2,2 2,-2 -6,-6 -2,-1 -19,0 0,3 2,-3 -13,-6 -65,0 -13,6 2,3 0,-3 -19,0 -2,1 -6,6 2,2 -2,-2 -12,6 1,3 0,-3 -12,0 -2,1 -7,6 -6,6 2,2 -1,-3 -13,7 0,0 -7,7 3,2 -2,-3 -12,6 -1,1 -6,6 -7,6 -6,7 -6,6 -1,1 -6,12 3,1 -2,-2 -7,7 0,0 -7,13 3,1 -2,-2 -6,6 -6,7 -1,2 0,12 3,0 -3,-1 -6,12 3,2 -3,-2 -6,6 -1,2 0,19 3,0 -3,-2 -6,13 0,65 6,13 3,-2 -3,0 0,19 1,2 6,6 3,-2 -3,2 6,12 3,-1 -3,0 0,12 1,2 6,7 6,6 2,-2 -3,1 7,13 0,0 7,7 2,-3 -3,2 6,12 1,1 6,6 6,7 7,6 6,6 1,1 12,6 2,-3 -3,2 7,7 0,0 13,7 1,-3 -2,2 6,6 7,6 2,1 12,0 0,-3 -1,3 12,6 2,-3 -2,3 6,6 2,1 19,0 0,-3 -2,3 13,6 65,0 13,-6 -2,-3 0,3 19,0 2,-1 6,-6 -2,-3 2,3 12,-6 -1,-3 0,3 12,0 2,-1 7,-6 6,-6 -2,-2 1,3 13,-7 0,0 7,-7 -2,-2 1,3 12,-6 1,-1 6,-6 7,-6 6,-7 6,-6 1,-1 6,-12 -3,-2 2,3 7,-7 0,0 7,-13 -3,-1 2,2 6,-6 6,-7 1,-2 0,-12 -3,0 3,1 6,-12 -2,-2 2,2 6,-6 1,-2 0,-19 -3,0 3,2 6,-13 0,-33"
                                   inkscape:connector-curvature="0"
                                   id="path168"
                                   style="fill:#7f7f7f;fill-opacity:1;fill-rule:nonzero;stroke:none" /><path
                                   d="m 1700,4362 0,32 -6,12 0,19 -6,6 -7,13 0,12 -6,6 -6,7 -6,12 -7,6 -6,13 -6,6 -6,6 -7,7 -6,6 -12,6 -7,6 -12,7 -6,6 -7,6 -12,0 -13,6 -6,7 -19,0 -12,6 -63,0 -12,-6 -19,0 -6,-7 -13,-6 -12,0 -6,-6 -7,-6 -12,-7 -6,-6 -13,-6 -6,-6 -6,-7 -7,-6 -6,-6 -6,-13 -6,-6 -7,-12 -6,-7 -6,-6 0,-12 -6,-13 -7,-6 0,-19 -6,-12 0,-63 6,-12 0,-19 7,-6 6,-13 0,-12 6,-7 6,-6 7,-12 6,-7 6,-12 6,-6 7,-7 6,-6 6,-6 13,-6 6,-7 12,-6 7,-6 6,-6 12,0 13,-7 6,-6 19,0 12,-6 63,0 12,6 19,0 6,6 13,7 12,0 7,6 6,6 12,6 7,7 12,6 6,6 7,6 6,7 6,6 6,12 7,7 6,12 6,6 6,7 0,12 7,13 6,6 0,19 6,12 0,31"
                                   inkscape:connector-curvature="0"
                                   id="path170"
                                   style="fill:#ffffff;fill-opacity:1;fill-rule:evenodd;stroke:none" /><path
                                   d="m 1697,4362 0,32 3,0 -3,-2 -6,13 0,20 3,0 -2,-2 -7,6 0,1 -7,12 0,14 3,0 -2,-2 -6,6 -6,7 -1,0 -6,13 3,1 -3,-2 -6,6 -1,1 -6,13 3,1 -2,-2 -6,6 -7,6 -6,7 -6,6 2,2 -1,-3 -13,6 -1,1 -6,6 2,2 -1,-2 -13,6 0,1 -7,6 -6,6 2,2 0,-3 -14,0 -12,7 -1,0 -6,7 2,2 0,-3 -20,0 -13,6 2,3 0,-3 -63,0 0,3 2,-3 -13,-6 -20,0 0,3 2,-2 -6,-7 -1,0 -12,-7 -14,0 0,3 2,-2 -6,-6 -7,-6 0,-1 -13,-6 -1,2 2,-2 -6,-6 -1,-1 -13,-6 -1,3 2,-2 -6,-6 -6,-7 -7,-6 -6,-6 -2,2 3,-1 -6,-13 -1,-1 -6,-6 -2,2 2,-1 -6,-13 -1,0 -6,-7 -6,-6 -2,2 3,0 0,-14 -7,-12 0,-1 -7,-6 -2,2 3,0 0,-20 -6,-13 -3,2 3,0 0,-63 -3,0 3,2 6,-13 0,-20 -3,0 2,2 7,-6 0,-1 7,-12 0,-14 -3,0 2,2 6,-6 6,-7 1,0 6,-13 -2,-1 2,2 6,-6 1,-1 6,-13 -3,-1 2,2 6,-6 7,-6 6,-7 6,-6 -2,-2 1,3 13,-6 1,-1 6,-6 -2,-3 1,3 13,-6 0,-1 7,-6 6,-6 -2,-2 0,3 14,0 12,-7 1,0 6,-7 -2,-2 0,3 20,0 13,-6 -2,-3 0,3 63,0 0,-3 -2,3 13,6 20,0 0,-3 -2,2 6,7 1,0 12,7 14,0 0,-3 -2,2 6,6 7,6 0,1 13,6 1,-3 -2,3 6,6 1,1 13,6 1,-3 -2,2 6,6 6,7 7,6 6,6 2,-2 -3,1 6,13 1,1 6,6 3,-2 -3,1 6,13 1,0 6,7 6,6 2,-2 -3,0 0,14 7,12 0,1 7,6 2,-2 -3,0 0,20 6,13 3,-2 -3,0 0,31 z m 6,0 0,-32 -6,-13 -3,2 3,0 0,-19 -1,-2 -6,-6 -2,2 2,-2 -6,-12 -3,1 3,0 0,-12 -1,-2 -6,-7 -6,-6 -2,2 3,-1 -7,-13 0,0 -7,-7 -2,2 3,-1 -6,-12 -1,-1 -6,-6 -6,-7 -7,-6 -6,-6 -1,-1 -12,-6 -1,3 2,-2 -7,-7 0,0 -13,-7 -1,3 2,-2 -6,-6 -7,-6 -2,-1 -12,0 0,3 1,-3 -12,-6 -2,2 2,-2 -6,-6 -2,-1 -19,0 0,3 2,-3 -13,-6 -65,0 -13,6 2,3 0,-3 -19,0 -2,1 -6,6 2,2 -2,-2 -12,6 1,3 0,-3 -12,0 -2,1 -7,6 -6,6 2,2 -1,-3 -13,7 0,0 -7,7 3,2 -2,-3 -12,6 -1,1 -6,6 -7,6 -6,7 -6,6 -1,1 -6,12 3,1 -2,-2 -7,7 0,0 -7,13 3,1 -2,-2 -6,6 -6,7 -1,2 0,12 3,0 -3,-1 -6,12 3,2 -3,-2 -6,6 -1,2 0,19 3,0 -3,-2 -6,13 0,65 6,13 3,-2 -3,0 0,19 1,2 6,6 3,-2 -3,2 6,12 3,-1 -3,0 0,12 1,2 6,7 6,6 2,-2 -3,1 7,13 0,0 7,7 2,-3 -3,2 6,12 1,1 6,6 6,7 7,6 6,6 1,1 12,6 2,-3 -3,2 7,7 0,0 13,7 1,-3 -2,2 6,6 7,6 2,1 12,0 0,-3 -1,3 12,6 2,-3 -2,3 6,6 2,1 19,0 0,-3 -2,3 13,6 65,0 13,-6 -2,-3 0,3 19,0 2,-1 6,-6 -2,-3 2,3 12,-6 -1,-3 0,3 12,0 2,-1 7,-6 6,-6 -2,-2 1,3 13,-7 0,0 7,-7 -2,-2 1,3 12,-6 1,-1 6,-6 7,-6 6,-7 6,-6 1,-1 6,-12 -3,-2 2,3 7,-7 0,0 7,-13 -3,-1 2,2 6,-6 6,-7 1,-2 0,-12 -3,0 3,1 6,-12 -2,-2 2,2 6,-6 1,-2 0,-19 -3,0 3,2 6,-13 0,-33"
                                   inkscape:connector-curvature="0"
                                   id="path172"
                                   style="fill:#7f7f7f;fill-opacity:1;fill-rule:nonzero;stroke:none" /><path
                                   d="m 1653,4362 0,32 3,0 -2,-2 -6,6 -1,2 0,6 3,0 -3,-1 -6,12 0,8 3,0 -3,-1 -6,12 -1,1 0,7 4,0 -3,-2 -6,6 -1,1 -6,12 3,1 -2,-2 -6,7 -7,6 -6,6 -6,6 -6,7 -7,6 3,2 -2,-3 -12,6 -1,1 -6,6 2,2 0,-3 -6,0 -2,1 -12,6 1,3 0,-3 -8,0 -12,6 1,3 0,-3 -6,0 -2,1 -6,6 2,2 0,-3 -63,0 0,3 2,-2 -6,-6 -2,-1 -6,0 0,3 1,-3 -12,-6 -8,0 0,3 1,-3 -12,-6 -1,-1 -7,0 0,3 2,-2 -6,-6 -1,-1 -12,-6 -1,3 2,-2 -7,-6 -6,-7 -6,-6 -6,-6 -7,-6 -6,-7 -2,2 3,-1 -6,-12 -1,-1 -6,-6 -2,2 3,0 0,-7 -1,-1 -6,-12 -3,1 3,0 0,-8 -6,-12 -3,1 3,0 0,-6 -1,-2 -6,-6 -2,2 3,0 0,-63 -3,0 2,2 6,-6 1,-2 0,-6 -3,0 3,1 6,-12 0,-8 -3,0 3,1 6,-12 1,-2 0,-6 -3,0 2,2 6,-6 1,-1 6,-12 -3,-2 2,3 6,-7 7,-6 6,-6 6,-6 6,-7 7,-6 -2,-2 1,3 12,-6 1,-1 6,-6 -2,-3 0,4 7,0 1,-1 12,-6 -1,-3 0,3 8,0 12,-6 -1,-3 0,3 6,0 2,-1 6,-6 -2,-2 0,3 63,0 0,-3 -2,2 6,6 2,1 6,0 0,-3 -1,3 12,6 8,0 0,-3 -1,3 12,6 2,1 6,0 0,-4 -2,3 6,6 1,1 12,6 2,-3 -3,2 7,6 6,7 6,6 6,6 7,6 6,7 2,-3 -3,2 6,12 1,1 6,6 3,-2 -4,0 0,6 1,2 6,12 3,-1 -3,0 0,8 6,12 3,-1 -3,0 0,6 1,2 6,6 2,-2 -3,0 0,44 6,0 0,-44 -1,-2 -6,-6 -2,2 3,0 0,-8 -6,-12 -3,1 3,0 0,-7 -7,-13 -2,1 3,0 0,-6 -1,-2 -7,-6 -2,2 3,-1 -6,-13 -1,-1 -6,-6 -6,-6 -7,-6 -6,-7 -6,-6 -6,-6 -1,-1 -13,-6 -1,3 2,-2 -6,-7 -2,-1 -6,0 0,3 1,-2 -13,-7 -7,0 0,3 1,-3 -12,-6 -8,0 0,3 2,-2 -6,-6 -2,-1 -63,0 -2,1 -6,6 2,2 0,-3 -8,0 -12,6 1,3 0,-3 -7,0 -13,7 2,2 0,-3 -7,0 -2,1 -6,7 2,2 -1,-3 -13,6 -1,1 -6,6 -6,6 -6,7 -7,6 -6,6 -6,6 -1,1 -6,13 3,1 -2,-2 -7,6 -1,2 0,6 4,0 -3,-1 -7,13 0,7 3,0 -3,-1 -6,12 0,8 3,0 -2,-2 -6,6 -1,2 0,63 1,2 6,6 2,-2 -3,0 0,8 6,12 3,-1 -3,0 0,7 7,13 3,-2 -4,0 0,7 1,2 7,6 2,-2 -3,1 6,13 1,1 6,6 6,6 7,6 6,7 6,6 6,6 1,1 13,6 1,-3 -2,2 6,7 2,1 7,0 0,-4 -2,3 13,7 7,0 0,-3 -1,3 12,6 8,0 0,-3 -2,2 6,6 2,1 63,0 2,-1 6,-6 -2,-2 0,3 8,0 12,-6 -1,-3 0,3 7,0 13,-7 -1,-3 0,4 6,0 2,-1 6,-7 -2,-2 1,3 13,-6 1,-1 6,-6 6,-6 6,-7 7,-6 6,-6 6,-6 1,-1 6,-13 -3,-1 2,2 7,-6 1,-2 0,-7 -3,0 2,2 7,-13 0,-7 -3,0 3,1 6,-12 0,-8 -3,0 2,2 6,-6 1,-2 0,-32 -6,0"
                                   inkscape:connector-curvature="0"
                                   id="path174"
                                   style="fill:#dd172f;fill-opacity:1;fill-rule:nonzero;stroke:none" /><path
                                   d="m 1700,4362 0,32 -6,12 0,19 -6,6 -7,13 0,12 -6,6 -6,7 -6,12 -7,6 -6,13 -6,6 -6,6 -7,7 -6,6 -12,6 -7,6 -12,7 -6,6 -7,6 -12,0 -13,6 -6,7 -19,0 -12,6 -63,0 -12,-6 -19,0 -6,-7 -13,-6 -12,0 -6,-6 -7,-6 -12,-7 -6,-6 -13,-6 -6,-6 -6,-7 -7,-6 -6,-6 -6,-13 -6,-6 -7,-12 -6,-7 -6,-6 0,-12 -6,-13 -7,-6 0,-19 -6,-12 0,-63 6,-12 0,-19 7,-6 6,-13 0,-12 6,-7 6,-6 7,-12 6,-7 6,-12 6,-6 7,-7 6,-6 6,-6 13,-6 6,-7 12,-6 7,-6 6,-6 12,0 13,-7 6,-6 19,0 12,-6 63,0 12,6 19,0 6,6 13,7 12,0 7,6 6,6 12,6 7,7 12,6 6,6 7,6 6,7 6,6 6,12 7,7 6,12 6,6 6,7 0,12 7,13 6,6 0,19 6,12 0,31"
                                   inkscape:connector-curvature="0"
                                   id="path176"
                                   style="fill:#dd172f;fill-opacity:1;fill-rule:evenodd;stroke:none" /><path
                                   d="m 1697,4362 0,32 3,0 -3,-2 -6,13 0,20 3,0 -2,-2 -7,6 0,1 -7,12 0,14 3,0 -2,-2 -6,6 -6,7 -1,0 -6,13 3,1 -3,-2 -6,6 -1,1 -6,13 3,1 -2,-2 -6,6 -7,6 -6,7 -6,6 2,2 -1,-3 -13,6 -1,1 -6,6 2,2 -1,-2 -13,6 0,1 -7,6 -6,6 2,2 0,-3 -14,0 -12,7 -1,0 -6,7 2,2 0,-3 -20,0 -13,6 2,3 0,-3 -63,0 0,3 2,-3 -13,-6 -20,0 0,3 2,-2 -6,-7 -1,0 -12,-7 -14,0 0,3 2,-2 -6,-6 -7,-6 0,-1 -13,-6 -1,2 2,-2 -6,-6 -1,-1 -13,-6 -1,3 2,-2 -6,-6 -6,-7 -7,-6 -6,-6 -2,2 3,-1 -6,-13 -1,-1 -6,-6 -2,2 2,-1 -6,-13 -1,0 -6,-7 -6,-6 -2,2 3,0 0,-14 -7,-12 0,-1 -7,-6 -2,2 3,0 0,-20 -6,-13 -3,2 3,0 0,-63 -3,0 3,2 6,-13 0,-20 -3,0 2,2 7,-6 0,-1 7,-12 0,-14 -3,0 2,2 6,-6 6,-7 1,0 6,-13 -2,-1 2,2 6,-6 1,-1 6,-13 -3,-1 2,2 6,-6 7,-6 6,-7 6,-6 -2,-2 1,3 13,-6 1,-1 6,-6 -2,-3 1,3 13,-6 0,-1 7,-6 6,-6 -2,-2 0,3 14,0 12,-7 1,0 6,-7 -2,-2 0,3 20,0 13,-6 -2,-3 0,3 63,0 0,-3 -2,3 13,6 20,0 0,-3 -2,2 6,7 1,0 12,7 14,0 0,-3 -2,2 6,6 7,6 0,1 13,6 1,-3 -2,3 6,6 1,1 13,6 1,-3 -2,2 6,6 6,7 7,6 6,6 2,-2 -3,1 6,13 1,1 6,6 3,-2 -3,1 6,13 1,0 6,7 6,6 2,-2 -3,0 0,14 7,12 0,1 7,6 2,-2 -3,0 0,20 6,13 3,-2 -3,0 0,31 z m 6,0 0,-32 -6,-13 -3,2 3,0 0,-19 -1,-2 -6,-6 -2,2 2,-2 -6,-12 -3,1 3,0 0,-12 -1,-2 -6,-7 -6,-6 -2,2 3,-1 -7,-13 0,0 -7,-7 -2,2 3,-1 -6,-12 -1,-1 -6,-6 -6,-7 -7,-6 -6,-6 -1,-1 -12,-6 -1,3 2,-2 -7,-7 0,0 -13,-7 -1,3 2,-2 -6,-6 -7,-6 -2,-1 -12,0 0,3 1,-3 -12,-6 -2,2 2,-2 -6,-6 -2,-1 -19,0 0,3 2,-3 -13,-6 -65,0 -13,6 2,3 0,-3 -19,0 -2,1 -6,6 2,2 -2,-2 -12,6 1,3 0,-3 -12,0 -2,1 -7,6 -6,6 2,2 -1,-3 -13,7 0,0 -7,7 3,2 -2,-3 -12,6 -1,1 -6,6 -7,6 -6,7 -6,6 -1,1 -6,12 3,1 -2,-2 -7,7 0,0 -7,13 3,1 -2,-2 -6,6 -6,7 -1,2 0,12 3,0 -3,-1 -6,12 3,2 -3,-2 -6,6 -1,2 0,19 3,0 -3,-2 -6,13 0,65 6,13 3,-2 -3,0 0,19 1,2 6,6 3,-2 -3,2 6,12 3,-1 -3,0 0,12 1,2 6,7 6,6 2,-2 -3,1 7,13 0,0 7,7 2,-3 -3,2 6,12 1,1 6,6 6,7 7,6 6,6 1,1 12,6 2,-3 -3,2 7,7 0,0 13,7 1,-3 -2,2 6,6 7,6 2,1 12,0 0,-3 -1,3 12,6 2,-3 -2,3 6,6 2,1 19,0 0,-3 -2,3 13,6 65,0 13,-6 -2,-3 0,3 19,0 2,-1 6,-6 -2,-3 2,3 12,-6 -1,-3 0,3 12,0 2,-1 7,-6 6,-6 -2,-2 1,3 13,-7 0,0 7,-7 -2,-2 1,3 12,-6 1,-1 6,-6 7,-6 6,-7 6,-6 1,-1 6,-12 -3,-2 2,3 7,-7 0,0 7,-13 -3,-1 2,2 6,-6 6,-7 1,-2 0,-12 -3,0 3,1 6,-12 -2,-2 2,2 6,-6 1,-2 0,-19 -3,0 3,2 6,-13 0,-33"
                                   inkscape:connector-curvature="0"
                                   id="path178"
                                   style="fill:#aa0000;fill-opacity:1;fill-rule:nonzero;stroke:none" /><g
                                   transform="scale(8.33333,8.33333)"
                                   id="g180"><text
                                   transform="matrix(1,0,0,-1,167.28,509.28)"
                                   id="text182"><tspan
                                   x="0"
                                   y="0"
                                   id="tspan184"
                                   style="font-size:42px;font-variant:normal;font-weight:bold;writing-mode:lr-tb;fill:#ffffff;fill-opacity:1;fill-rule:nonzero;stroke:none;font-family:Helvetica;-inkscape-font-specification:Helvetica-Bold">2</tspan></text>
</g></g></g></g></g></g></g></g></g></g></g></g></g></g></g></g></g></g></g></g></g></g></g></g></svg>