<?xml version="1.0" encoding="UTF-8" standalone="no"?>
<!-- Created with Inkscape (http://www.inkscape.org/) -->

<svg
   xmlns:dc="http://purl.org/dc/elements/1.1/"
   xmlns:cc="http://creativecommons.org/ns#"
   xmlns:rdf="http://www.w3.org/1999/02/22-rdf-syntax-ns#"
   xmlns:svg="http://www.w3.org/2000/svg"
   xmlns="http://www.w3.org/2000/svg"
   xmlns:inkscape="http://www.inkscape.org/namespaces/inkscape"
   version="1.1"
   width="355"
   height="343.75"
   id="svg2"
   xml:space="preserve"><metadata
     id="metadata8"><rdf:RDF><cc:Work
         rdf:about=""><dc:format>image/svg+xml</dc:format><dc:type
           rdf:resource="http://purl.org/dc/dcmitype/StillImage" /></cc:Work></rdf:RDF></metadata><defs
     id="defs6"><clipPath
       id="clipPath18"><path
         d="M 0,0 284,0 284,275 0,275 0,0 z"
         inkscape:connector-curvature="0"
         id="path20" /></clipPath><clipPath
       id="clipPath28"><path
         d="M 0,0 284,0 284,275 0,275 0,0 z"
         inkscape:connector-curvature="0"
         id="path30" /></clipPath><clipPath
       id="clipPath38"><path
         d="M 0,0 612,0 612,792 0,792 0,0 z"
         inkscape:connector-curvature="0"
         id="path40" /></clipPath></defs><g
     transform="matrix(1.25,0,0,-1.25,0,343.75)"
     id="g10"><g
       id="g12"><g
         id="g14"><g
           clip-path="url(#clipPath18)"
           id="g16"><g
             id="g22"><g
               id="g24"><g
                 clip-path="url(#clipPath28)"
                 id="g26"><g
                   transform="translate(-163,-263)"
                   id="g32"><g
                     id="g34"><g
                       clip-path="url(#clipPath38)"
                       id="g36"><g
                         transform="scale(0.12,0.12)"
                         id="g42"><path
                           d="m 2550,3444 -81,43 0,7 6,6 6,6 0,6 7,0 6,7 6,6 6,0 7,6 12,0 6,6 38,0 6,-6 13,0 6,-6 6,0 6,-6 7,-7 6,0 0,-6 6,-6 6,-6 -81,-50"
                           inkscape:connector-curvature="0"
                           id="path44"
                           style="fill:#e1e1e1;fill-opacity:1;fill-rule:evenodd;stroke:none" /><path
                           d="m 2549,3441 -22,12 2,5 22,-11 -2,-6 z m -33,18 -23,12 3,5 22,-12 -2,-5 z m -34,18 -15,8 -1,2 0,7 1,2 1,1 4,-4 -1,-1 -2,2 3,0 0,-7 -3,0 1,3 15,-8 -3,-5 z m -6,29 3,2 2,-2 -3,0 0,6 3,4 7,0 0,-4 -3,3 7,6 4,-4 -6,-7 -2,-1 -7,0 0,3 3,0 0,-6 -1,-2 -2,-3 -5,5 z m 28,22 2,0 0,-3 -2,2 6,6 3,1 12,0 0,-3 -2,2 1,1 4,-4 -1,-1 -2,-1 -12,0 0,3 2,-2 -7,-6 -2,-1 -2,0 0,6 z m 32,13 25,0 0,-7 -25,0 0,7 z m 38,-5 3,-3 -2,-2 0,3 13,0 2,-1 6,-5 -5,-5 -6,6 3,2 0,-3 -13,0 -2,1 -3,3 4,4 z m 32,-13 2,-2 7,-6 -2,-3 0,4 6,0 3,-4 0,-6 -3,0 2,2 0,0 -4,-4 0,0 -1,2 0,6 3,0 0,-3 -6,0 -3,1 -6,7 -2,2 4,4 z m 24,-24 3,-3 0,-5 -17,-11 -4,6 18,10 1,-2 -2,-2 -3,3 4,4 z m -25,-25 -21,-13 -4,5 22,13 3,-5 z m -32,-20 -21,-13 -4,5 22,14 3,-6"
                           inkscape:connector-curvature="0"
                           id="path46"
                           style="fill:#7f7f7f;fill-opacity:1;fill-rule:nonzero;stroke:none" /><path
                           d="m 2694,3194 81,50 0,-7 6,-6 0,-12 7,-7 0,-37 -7,-6 0,-13 -6,-6 0,-6 -6,-7 -6,-6 0,-6 -7,0 -6,-6 -6,-7 -6,0 -7,-6 -12,0 -6,-6 -19,0 0,94"
                           inkscape:connector-curvature="0"
                           id="path48"
                           style="fill:#e1e1e1;fill-opacity:1;fill-rule:evenodd;stroke:none" /><path
                           d="m 2692,3196 21,14 4,-6 -22,-13 -3,5 z m 32,20 21,13 4,-5 -22,-13 -3,5 z m 32,20 17,10 5,-2 0,-5 -6,0 0,5 3,0 2,-3 -18,-11 -3,6 z m 28,-7 0,-10 -3,0 2,2 7,-6 1,-3 0,-5 -7,0 0,5 4,0 -3,-2 -6,7 -1,2 0,10 6,0 z m 7,-35 0,-19 -1,-2 -4,-4 -5,4 4,4 3,-2 -4,0 0,19 7,0 z m -7,-35 0,-3 -1,-2 -6,-6 -2,2 3,0 0,-6 -1,-2 -5,-5 -4,4 5,5 2,-2 -3,0 0,6 1,2 6,6 2,-2 -3,0 0,3 6,0 z m -18,-29 0,-5 -3,-3 -7,0 0,3 2,-2 -6,-6 -3,-4 -5,4 4,4 6,6 2,1 7,0 0,-3 -4,0 0,5 7,0 z m -28,-22 -5,-4 -2,-1 -12,0 0,3 2,-2 -4,-4 -5,4 5,4 2,1 12,0 0,-3 -2,2 4,5 5,-5 z m -35,-11 -9,0 -3,3 0,16 6,0 0,-16 -3,0 0,3 9,0 0,-6 z m -12,32 0,25 6,0 0,-25 -6,0 z m 0,37 0,25 6,0 0,-25 -6,0"
                           inkscape:connector-curvature="0"
                           id="path50"
                           style="fill:#7f7f7f;fill-opacity:1;fill-rule:nonzero;stroke:none" /><path
                           d="m 2406,3194 0,-94 -18,0 -7,6 -12,0 -6,6 -7,0 -6,7 -6,6 -6,0 0,6 -7,6 -6,7 0,6 -6,6 0,13 -6,6 0,37 6,7 0,12 6,6 81,-43"
                           inkscape:connector-curvature="0"
                           id="path52"
                           style="fill:#e1e1e1;fill-opacity:1;fill-rule:evenodd;stroke:none" /><path
                           d="m 2409,3194 0,-25 -6,0 0,25 6,0 z m 0,-38 0,-25 -6,0 0,25 6,0 z m 0,-37 0,-19 -3,-3 -6,0 0,6 6,0 0,-3 -3,0 0,19 6,0 z m -24,-21 -6,6 2,2 0,-3 -12,0 -2,1 -3,3 4,4 3,-3 -2,-2 0,3 12,0 2,-1 7,-6 -5,-4 z m -32,13 -5,6 -6,6 2,2 0,-3 -6,0 -4,3 0,2 7,0 0,-2 -3,0 0,3 6,0 2,-1 6,-6 6,-6 -5,-4 z m -24,24 0,0 -6,7 -1,2 0,6 3,0 -2,-2 -6,6 -1,2 0,1 6,0 0,-1 -3,0 2,2 6,-6 1,-2 0,-6 -3,0 2,2 6,-6 1,-1 -5,-4 z m -13,32 -6,6 -1,2 0,17 7,0 0,-17 -3,0 2,2 6,-6 -5,-4 z m -7,37 0,8 1,3 7,6 2,-2 -3,0 0,8 6,0 0,-8 -1,-2 -6,-7 -2,2 3,0 0,-8 -7,0 z m 13,35 1,1 3,0 22,-11 -3,-6 -21,12 1,2 2,-2 0,0 -5,4 z m 37,-16 22,-12 -3,-5 -22,11 3,6 z m 33,-18 16,-8 -3,-6 -16,9 3,5"
                           inkscape:connector-curvature="0"
                           id="path54"
                           style="fill:#7f7f7f;fill-opacity:1;fill-rule:nonzero;stroke:none" /><path
                           d="m 2694,3100 -288,0 -81,144 144,243 162,0 144,-243 -81,-144"
                           inkscape:connector-curvature="0"
                           id="path56"
                           style="fill:#e1e1e1;fill-opacity:1;fill-rule:evenodd;stroke:none" /><path
                           d="m 2694,3100 -288,0 -81,144 144,243 162,0 144,-243 -81,-144 z"
                           inkscape:connector-curvature="0"
                           id="path58"
                           style="fill:none;stroke:#e1e1e1;stroke-width:1;stroke-linecap:round;stroke-linejoin:round;stroke-miterlimit:10;stroke-opacity:1;stroke-dasharray:none" /><path
                           d="m 2406,3103 25,0 0,-6 -25,0 0,6 z m 38,0 25,0 0,-6 -25,0 0,6 z m 37,0 25,0 0,-6 -25,0 0,6 z m 38,0 25,0 0,-6 -25,0 0,6 z m 37,0 25,0 0,-6 -25,0 0,6 z m 38,0 25,0 0,-6 -25,0 0,6 z m 37,0 25,0 0,-6 -25,0 0,6 z m 38,0 25,0 0,-6 -25,0 0,6"
                           inkscape:connector-curvature="0"
                           id="path60"
                           style="fill:#7f7f7f;fill-opacity:1;fill-rule:nonzero;stroke:none" /><path
                           d="m 2634,3489 13,-21 -6,-4 -12,22 5,3 z m 19,-32 13,-22 -6,-3 -12,22 5,3 z m 19,-33 13,-21 -6,-3 -12,21 5,3 z m 19,-32 13,-21 -6,-4 -12,22 5,3 z m 19,-32 13,-22 -6,-3 -12,22 5,3 z m 19,-32 13,-22 -5,-3 -13,21 5,4 z m 19,-33 13,-21 -5,-3 -13,21 5,3 z m 19,-32 11,-18 -6,-3 -10,18 5,3"
                           inkscape:connector-curvature="0"
                           id="path62"
                           style="fill:#7f7f7f;fill-opacity:1;fill-rule:nonzero;stroke:none" /><path
                           d="m 2471,3486 -12,-22 -6,4 13,21 5,-3 z m -19,-32 -12,-22 -6,3 13,22 5,-3 z m -19,-33 -12,-21 -6,3 13,21 5,-3 z m -19,-32 -12,-22 -6,4 13,21 5,-3 z m -19,-32 -12,-22 -6,3 13,22 5,-3 z m -19,-33 -13,-21 -5,3 13,22 5,-4 z m -19,-32 -13,-21 -5,3 13,21 5,-3 z m -19,-32 -10,-18 -6,3 11,18 5,-3"
                           inkscape:connector-curvature="0"
                           id="path64"
                           style="fill:#7f7f7f;fill-opacity:1;fill-rule:nonzero;stroke:none" /><g
                           transform="scale(8.33333,8.33333)"
                           id="g66"><text
                             transform="matrix(1,0,0,-1,288.72,392.64)"
                             id="text68"><tspan
                               x="0 2.2800114 7.5600171 12.840023 18.000029 26.280018 31.560022"
                               y="0"
                               id="tspan70"
                               style="font-size:9px;font-variant:normal;font-weight:normal;writing-mode:lr-tb;fill:#000000;fill-opacity:1;fill-rule:nonzero;stroke:none;font-family:Helvetica;-inkscape-font-specification:Helvetica">ionomer</tspan><tspan
                               x="59.279999 63 68.280006 70.56002 75.840019 84.000008"
                               y="34.200001"
                               id="tspan72"
                               style="font-size:9px;font-variant:normal;font-weight:normal;writing-mode:lr-tb;fill:#000000;fill-opacity:1;fill-rule:nonzero;stroke:none;font-family:Helvetica;-inkscape-font-specification:Helvetica">volume</tspan></text>
</g><path
                           d="m 2881,2681 0,194 94,94 194,0 0,-194 -94,-94 -194,0"
                           inkscape:connector-curvature="0"
                           id="path74"
                           style="fill:#e1e1e1;fill-opacity:1;fill-rule:evenodd;stroke:none" /><path
                           d="m 2878,2681 0,25 6,0 0,-25 -6,0 z m 0,38 0,25 6,0 0,-25 -6,0 z m 0,37 0,25 6,0 0,-25 -6,0 z m 0,38 0,25 6,0 0,-25 -6,0 z m 0,37 0,25 6,0 0,-25 -6,0 z m 0,38 0,6 1,2 13,13 5,-4 -14,-13 -2,2 3,0 0,-6 -6,0 z m 23,30 18,18 4,-4 -17,-18 -5,4 z m 27,27 17,18 5,-5 -18,-18 -4,5 z m 26,26 18,18 4,-4 -17,-18 -5,4 z m 32,20 25,0 0,-6 -25,0 0,6 z m 38,0 25,0 0,-6 -25,0 0,6 z m 37,0 25,0 0,-6 -25,0 0,6 z m 38,0 25,0 0,-6 -25,0 0,6 z m 37,0 25,0 0,-6 -25,0 0,6 z m 36,-8 0,-25 -6,0 0,25 6,0 z m 0,-38 0,-25 -6,0 0,25 6,0 z m 0,-37 0,-25 -6,0 0,25 6,0 z m 0,-38 0,-25 -6,0 0,25 6,0 z m 0,-37 0,-25 -6,0 0,25 6,0 z m 0,-38 0,-1 -1,-2 -17,-17 -4,4 17,17 2,-2 -3,0 0,1 6,0 z m -27,-29 -17,-17 -5,4 18,18 4,-5 z m -26,-26 -18,-18 -4,4 17,18 5,-4 z m -27,-27 -15,-15 -2,-1 -4,0 0,6 4,0 0,-3 -2,2 15,16 4,-5 z m -33,-16 -25,0 0,6 25,0 0,-6 z m -38,0 -25,0 0,6 25,0 0,-6 z m -37,0 -25,0 0,6 25,0 0,-6 z m -38,0 -25,0 0,6 25,0 0,-6 z m -37,0 -25,0 0,6 25,0 0,-6"
                           inkscape:connector-curvature="0"
                           id="path76"
                           style="fill:#000000;fill-opacity:1;fill-rule:nonzero;stroke:none" /><path
                           d="m 3006,2900 25,12 25,0 19,7 13,0 12,-7 13,-6 6,-12 0,-50 -6,-19 -7,-19 -6,-12 -6,-19 -13,-13 -12,-12 -13,-6 -12,-7 -13,-6 -18,-6 -44,0 -13,6 -6,6 -12,7 -13,6 -6,6 -6,13 -7,12 -6,13 0,12 6,13 0,12 13,13 12,12 13,13 19,12 18,6 25,13"
                           inkscape:connector-curvature="0"
                           id="path78"
                           style="fill:#ffffff;fill-opacity:1;fill-rule:evenodd;stroke:none" /><path
                           d="m 3005,2903 25,12 1,1 25,0 0,-4 -1,3 19,7 15,0 12,-7 13,-6 1,-1 7,-13 0,-52 -7,-19 -6,-19 0,0 -6,-13 -3,2 3,-1 -6,-19 -1,-1 -13,-13 -12,-12 -1,-1 -12,-6 -13,-6 -12,-7 -1,0 -19,-6 -46,0 -12,6 -1,1 -6,6 2,2 -1,-2 -13,6 -12,6 -1,1 -6,6 -1,1 -6,12 -7,13 -6,12 0,16 6,12 3,-1 -3,0 0,12 1,2 13,13 12,12 13,13 0,0 19,13 1,0 18,6 1,-3 -1,3 25,13 z m 3,-6 -25,-12 -1,0 -19,-7 0,3 1,-2 -19,-13 -1,3 2,-2 -13,-13 -12,-12 -13,-13 -2,2 3,0 0,-14 -6,-12 -3,1 3,0 0,-12 -3,0 3,1 6,-12 6,-13 7,-12 -3,-2 2,2 6,-6 -2,-2 1,3 13,-6 12,-7 1,0 6,-7 -2,-2 2,3 12,-6 -1,-3 0,3 44,0 0,-3 -1,3 18,6 1,-3 -1,3 12,6 13,7 12,6 2,-3 -2,2 12,13 13,12 2,-2 -3,1 6,19 0,0 6,13 3,-2 -3,1 7,19 6,19 3,-1 -3,0 0,50 3,0 -3,-2 -6,13 3,1 -2,-3 -12,7 -13,6 2,3 0,-3 -13,0 0,3 1,-3 -19,-6 -1,-1 -25,0 0,3 2,-2 -25,-13"
                           inkscape:connector-curvature="0"
                           id="path80"
                           style="fill:#bfbfbf;fill-opacity:1;fill-rule:nonzero;stroke:none" /><path
                           d="m 3069,2800 0,-13 -6,0 0,-12 -13,0 0,-6 -6,0 -6,-7 -7,0 -6,-6 -50,0 -6,6 -6,0 -7,7 -6,0 0,6 -12,0 0,12 -7,0 0,25 7,0 0,7 6,6 6,0 0,6 6,0 7,6 6,0 6,7 50,0 6,-7 7,0 6,-6 6,0 0,-6 6,0 7,-6 0,-7 6,0 0,-12"
                           inkscape:connector-curvature="0"
                           id="path82"
                           style="fill:#55aaff;fill-opacity:1;fill-rule:evenodd;stroke:none" /><path
                           d="m 3069,2800 0,-13 -6,0 0,-12 -13,0 0,-6 -6,0 -6,-7 -7,0 -6,-6 -50,0 -6,6 -6,0 -7,7 -6,0 0,6 -12,0 0,12 -7,0 0,25 7,0 0,7 6,6 6,0 0,6 6,0 7,6 6,0 6,7 50,0 6,-7 7,0 6,-6 6,0 0,-6 6,0 7,-6 0,-7 6,0 0,-12 z"
                           inkscape:connector-curvature="0"
                           id="path84"
                           style="fill:none;stroke:#55aaff;stroke-width:1;stroke-linecap:round;stroke-linejoin:round;stroke-miterlimit:10;stroke-opacity:1;stroke-dasharray:none" /><path
                           d="m 3069,2800 0,-13 -6,0 0,-12 -13,0 0,-6 -6,0 -6,-7 -7,0 -6,-6 -50,0 -6,6 -6,0 -7,7 -6,0 0,6 -12,0 0,12 -7,0 0,25 7,0 0,7 6,6 6,0 0,6 6,0 7,6 6,0 6,7 50,0 6,-7 7,0 6,-6 6,0 0,-6 6,0 7,-6 0,-7 6,0 0,-12"
                           inkscape:connector-curvature="0"
                           id="path86"
                           style="fill:#69b4ff;fill-opacity:1;fill-rule:evenodd;stroke:none" /><path
                           d="m 3069,2800 0,-13 -6,0 0,-12 -13,0 0,-6 -6,0 -6,-7 -7,0 -6,-6 -50,0 -6,6 -6,0 -7,7 -6,0 0,6 -12,0 0,12 -7,0 0,25 7,0 0,7 6,6 6,0 0,6 6,0 7,6 6,0 6,7 50,0 6,-7 7,0 6,-6 6,0 0,-6 6,0 7,-6 0,-7 6,0 0,-12 z"
                           inkscape:connector-curvature="0"
                           id="path88"
                           style="fill:none;stroke:#69b4ff;stroke-width:1;stroke-linecap:round;stroke-linejoin:round;stroke-miterlimit:10;stroke-opacity:1;stroke-dasharray:none" /><path
                           d="m 3069,2800 0,-13 -6,0 0,-12 -13,0 0,-6 -6,0 -6,-7 -7,0 -6,-6 -50,0 -6,6 -6,0 -7,7 -6,0 0,6 -12,0 0,12 -7,0 0,25 7,0 0,7 6,6 6,0 0,6 6,0 7,6 6,0 6,7 50,0 6,-7 7,0 6,-6 6,0 0,-6 6,0 7,-6 0,-7 6,0 0,-12"
                           inkscape:connector-curvature="0"
                           id="path90"
                           style="fill:#7cbefe;fill-opacity:1;fill-rule:evenodd;stroke:none" /><path
                           d="m 3069,2800 0,-13 -6,0 0,-12 -13,0 0,-6 -6,0 -6,-7 -7,0 -6,-6 -50,0 -6,6 -6,0 -7,7 -6,0 0,6 -12,0 0,12 -7,0 0,25 7,0 0,7 6,6 6,0 0,6 6,0 7,6 6,0 6,7 50,0 6,-7 7,0 6,-6 6,0 0,-6 6,0 7,-6 0,-7 6,0 0,-12 z"
                           inkscape:connector-curvature="0"
                           id="path92"
                           style="fill:none;stroke:#7cbefe;stroke-width:1;stroke-linecap:round;stroke-linejoin:round;stroke-miterlimit:10;stroke-opacity:1;stroke-dasharray:none" /><path
                           d="m 3069,2800 0,-13 -6,0 0,-12 -13,0 0,-6 -6,0 -6,-7 -7,0 -6,-6 -50,0 -6,6 -6,0 -7,7 -6,0 0,6 -12,0 0,12 -7,0 0,25 7,0 0,7 6,6 6,0 0,6 6,0 7,6 6,0 6,7 50,0 6,-7 7,0 6,-6 6,0 0,-6 6,0 7,-6 0,-7 6,0 0,-12"
                           inkscape:connector-curvature="0"
                           id="path94"
                           style="fill:#91c8ff;fill-opacity:1;fill-rule:evenodd;stroke:none" /><path
                           d="m 3069,2800 0,-13 -6,0 0,-12 -13,0 0,-6 -6,0 -6,-7 -7,0 -6,-6 -50,0 -6,6 -6,0 -7,7 -6,0 0,6 -12,0 0,12 -7,0 0,25 7,0 0,7 6,6 6,0 0,6 6,0 7,6 6,0 6,7 50,0 6,-7 7,0 6,-6 6,0 0,-6 6,0 7,-6 0,-7 6,0 0,-12 z"
                           inkscape:connector-curvature="0"
                           id="path96"
                           style="fill:none;stroke:#91c8ff;stroke-width:1;stroke-linecap:round;stroke-linejoin:round;stroke-miterlimit:10;stroke-opacity:1;stroke-dasharray:none" /><path
                           d="m 3063,2800 0,-13 -7,0 0,-6 -6,0 0,-6 -6,0 -6,-6 -13,0 -6,-7 -38,0 -6,7 -12,0 -7,6 -6,0 0,6 -6,0 0,6 -6,0 0,25 6,0 0,7 6,0 0,6 6,0 7,6 12,0 6,6 38,0 6,-6 13,0 6,-6 6,0 0,-6 6,0 0,-7 7,0 0,-12"
                           inkscape:connector-curvature="0"
                           id="path98"
                           style="fill:#a4d1ff;fill-opacity:1;fill-rule:evenodd;stroke:none" /><path
                           d="m 3063,2800 0,-13 -7,0 0,-6 -6,0 0,-6 -6,0 -6,-6 -13,0 -6,-7 -38,0 -6,7 -12,0 -7,6 -6,0 0,6 -6,0 0,6 -6,0 0,25 6,0 0,7 6,0 0,6 6,0 7,6 12,0 6,6 38,0 6,-6 13,0 6,-6 6,0 0,-6 6,0 0,-7 7,0 0,-12 z"
                           inkscape:connector-curvature="0"
                           id="path100"
                           style="fill:none;stroke:#a4d1ff;stroke-width:1;stroke-linecap:round;stroke-linejoin:round;stroke-miterlimit:10;stroke-opacity:1;stroke-dasharray:none" /><path
                           d="m 3063,2800 0,-13 -7,0 0,-6 -6,0 0,-6 -6,0 -6,-6 -7,0 -6,-7 -50,0 -6,7 -6,0 -7,6 -6,0 0,6 -6,0 0,6 -6,0 0,25 6,0 0,7 6,0 0,6 6,0 7,6 6,0 6,6 50,0 6,-6 7,0 6,-6 6,0 0,-6 6,0 0,-7 7,0 0,-12"
                           inkscape:connector-curvature="0"
                           id="path102"
                           style="fill:#b5daff;fill-opacity:1;fill-rule:evenodd;stroke:none" /><path
                           d="m 3063,2800 0,-13 -7,0 0,-6 -6,0 0,-6 -6,0 -6,-6 -7,0 -6,-7 -50,0 -6,7 -6,0 -7,6 -6,0 0,6 -6,0 0,6 -6,0 0,25 6,0 0,7 6,0 0,6 6,0 7,6 6,0 6,6 50,0 6,-6 7,0 6,-6 6,0 0,-6 6,0 0,-7 7,0 0,-12 z"
                           inkscape:connector-curvature="0"
                           id="path104"
                           style="fill:none;stroke:#b5daff;stroke-width:1;stroke-linecap:round;stroke-linejoin:round;stroke-miterlimit:10;stroke-opacity:1;stroke-dasharray:none" /><path
                           d="m 3056,2800 0,-13 -6,0 0,-6 -6,0 0,-6 -6,0 0,-6 -13,0 -6,-7 -38,0 -6,7 -12,0 0,6 -7,0 0,6 -6,0 0,6 -6,0 0,25 6,0 0,7 6,0 0,6 7,0 0,6 12,0 6,6 38,0 6,-6 13,0 0,-6 6,0 0,-6 6,0 0,-7 6,0 0,-12"
                           inkscape:connector-curvature="0"
                           id="path106"
                           style="fill:#c5e2ff;fill-opacity:1;fill-rule:evenodd;stroke:none" /><path
                           d="m 3056,2800 0,-13 -6,0 0,-6 -6,0 0,-6 -6,0 0,-6 -13,0 -6,-7 -38,0 -6,7 -12,0 0,6 -7,0 0,6 -6,0 0,6 -6,0 0,25 6,0 0,7 6,0 0,6 7,0 0,6 12,0 6,6 38,0 6,-6 13,0 0,-6 6,0 0,-6 6,0 0,-7 6,0 0,-12 z"
                           inkscape:connector-curvature="0"
                           id="path108"
                           style="fill:none;stroke:#c5e2ff;stroke-width:1;stroke-linecap:round;stroke-linejoin:round;stroke-miterlimit:10;stroke-opacity:1;stroke-dasharray:none" /><path
                           d="m 3050,2800 0,-6 -6,-7 0,-6 -6,0 0,-6 -13,0 -6,-6 -38,0 -6,6 -12,0 0,6 -7,0 0,6 -6,7 0,12 6,6 0,7 7,0 0,6 12,0 6,6 38,0 6,-6 13,0 0,-6 6,0 0,-7 6,-6 0,-6"
                           inkscape:connector-curvature="0"
                           id="path110"
                           style="fill:#d4e9ff;fill-opacity:1;fill-rule:evenodd;stroke:none" /><path
                           d="m 3050,2800 0,-6 -6,-7 0,-6 -6,0 0,-6 -13,0 -6,-6 -38,0 -6,6 -12,0 0,6 -7,0 0,6 -6,7 0,12 6,6 0,7 7,0 0,6 12,0 6,6 38,0 6,-6 13,0 0,-6 6,0 0,-7 6,-6 0,-6 z"
                           inkscape:connector-curvature="0"
                           id="path112"
                           style="fill:none;stroke:#d4e9ff;stroke-width:1;stroke-linecap:round;stroke-linejoin:round;stroke-miterlimit:10;stroke-opacity:1;stroke-dasharray:none" /><path
                           d="m 3044,2800 0,-6 -6,-7 -7,0 0,-6 -6,0 -6,-6 -38,0 -6,6 -6,0 0,6 -6,0 -7,7 0,12 7,6 6,0 0,7 6,0 6,6 38,0 6,-6 6,0 0,-7 7,0 6,-6 0,-6"
                           inkscape:connector-curvature="0"
                           id="path114"
                           style="fill:#e0efff;fill-opacity:1;fill-rule:evenodd;stroke:none" /><path
                           d="m 3044,2800 0,-6 -6,-7 -7,0 0,-6 -6,0 -6,-6 -38,0 -6,6 -6,0 0,6 -6,0 -7,7 0,12 7,6 6,0 0,7 6,0 6,6 38,0 6,-6 6,0 0,-7 7,0 6,-6 0,-6 z"
                           inkscape:connector-curvature="0"
                           id="path116"
                           style="fill:none;stroke:#e0efff;stroke-width:1;stroke-linecap:round;stroke-linejoin:round;stroke-miterlimit:10;stroke-opacity:1;stroke-dasharray:none" /><path
                           d="m 3038,2800 0,-6 -7,-7 -6,-6 -6,0 0,-6 -38,0 0,6 -6,0 -6,6 -6,7 0,12 6,6 6,7 6,0 0,6 38,0 0,-6 6,0 6,-7 7,-6 0,-6"
                           inkscape:connector-curvature="0"
                           id="path118"
                           style="fill:#ebf5ff;fill-opacity:1;fill-rule:evenodd;stroke:none" /><path
                           d="m 3038,2800 0,-6 -7,-7 -6,-6 -6,0 0,-6 -38,0 0,6 -6,0 -6,6 -6,7 0,12 6,6 6,7 6,0 0,6 38,0 0,-6 6,0 6,-7 7,-6 0,-6 z"
                           inkscape:connector-curvature="0"
                           id="path120"
                           style="fill:none;stroke:#ebf5ff;stroke-width:1;stroke-linecap:round;stroke-linejoin:round;stroke-miterlimit:10;stroke-opacity:1;stroke-dasharray:none" /><path
                           d="m 3031,2800 0,-6 -6,-7 -6,0 0,-6 -31,0 -7,6 -6,0 -6,7 0,12 6,0 0,6 6,0 7,7 31,0 0,-7 6,0 0,-6 6,0 0,-6"
                           inkscape:connector-curvature="0"
                           id="path122"
                           style="fill:#f3f9ff;fill-opacity:1;fill-rule:evenodd;stroke:none" /><path
                           d="m 3031,2800 0,-6 -6,-7 -6,0 0,-6 -31,0 -7,6 -6,0 -6,7 0,12 6,0 0,6 6,0 7,7 31,0 0,-7 6,0 0,-6 6,0 0,-6 z"
                           inkscape:connector-curvature="0"
                           id="path124"
                           style="fill:none;stroke:#f3f9ff;stroke-width:1;stroke-linecap:round;stroke-linejoin:round;stroke-miterlimit:10;stroke-opacity:1;stroke-dasharray:none" /><path
                           d="m 3019,2800 0,-6 -6,0 0,-7 -25,0 0,7 -7,0 0,12 7,0 0,6 25,0 0,-6 6,0 0,-6"
                           inkscape:connector-curvature="0"
                           id="path126"
                           style="fill:#fafcff;fill-opacity:1;fill-rule:evenodd;stroke:none" /><path
                           d="m 3019,2800 0,-6 -6,0 0,-7 -25,0 0,7 -7,0 0,12 7,0 0,6 25,0 0,-6 6,0 0,-6 z"
                           inkscape:connector-curvature="0"
                           id="path128"
                           style="fill:none;stroke:#fafcff;stroke-width:1;stroke-linecap:round;stroke-linejoin:round;stroke-miterlimit:10;stroke-opacity:1;stroke-dasharray:none" /><path
                           d="m 3013,2800 0,-6 -25,0 0,12 25,0 0,-6"
                           inkscape:connector-curvature="0"
                           id="path130"
                           style="fill:#fdfeff;fill-opacity:1;fill-rule:evenodd;stroke:none" /><path
                           d="m 3013,2800 0,-6 -25,0 0,12 25,0 0,-6 z"
                           inkscape:connector-curvature="0"
                           id="path132"
                           style="fill:none;stroke:#fdfeff;stroke-width:1;stroke-linecap:round;stroke-linejoin:round;stroke-miterlimit:10;stroke-opacity:1;stroke-dasharray:none" /><path
                           d="m 3000,2794 6,0 0,6 -6,0 0,-6 z"
                           inkscape:connector-curvature="0"
                           id="path134"
                           style="fill:#ffffff;fill-opacity:1;fill-rule:evenodd;stroke:none" /><path
                           d="m 3000,2794 6,0 0,6 -6,0 0,-6 z"
                           inkscape:connector-curvature="0"
                           id="path136"
                           style="fill:none;stroke:#ffffff;stroke-width:1;stroke-linecap:round;stroke-linejoin:round;stroke-miterlimit:10;stroke-opacity:1;stroke-dasharray:none" /><path
                           d="m 3072,2800 0,-13 -3,-3 -6,0 0,3 3,0 0,-12 -3,-3 -13,0 0,3 3,0 0,-6 -3,-3 -6,0 0,3 2,-2 -6,-7 -2,-1 -7,0 0,3 2,-2 -6,-6 -2,-1 -50,0 -2,1 -6,6 2,2 0,-3 -6,0 -3,1 -6,7 2,2 0,-3 -6,0 -3,3 0,6 3,0 0,-3 -12,0 -4,3 0,12 4,0 0,-3 -7,0 -3,3 0,25 3,4 7,0 0,-4 -4,0 0,7 1,2 7,6 2,1 6,0 0,-3 -3,0 0,6 3,3 6,0 0,-3 -2,2 6,7 3,1 6,0 0,-4 -2,3 6,6 2,1 50,0 2,-1 6,-6 -2,-3 0,4 7,0 2,-1 6,-7 -2,-2 0,3 6,0 3,-3 0,-6 -3,0 0,3 6,0 2,-1 7,-6 1,-2 0,-7 -3,0 0,4 6,0 3,-4 0,-18 -6,0 0,18 3,0 0,-3 -6,0 -4,3 0,7 4,0 -3,-2 -6,6 2,2 0,-3 -6,0 -3,3 0,6 3,0 0,-3 -6,0 -2,1 -7,6 3,2 0,-3 -7,0 -2,1 -6,7 2,2 0,-3 -50,0 0,3 2,-2 -6,-7 -2,-1 -6,0 0,3 2,-2 -7,-6 -2,-1 -6,0 0,3 3,0 0,-6 -3,-3 -6,0 0,3 2,-2 -6,-6 -2,2 3,0 0,-7 -3,-3 -7,0 0,3 3,0 0,-25 -3,0 0,4 7,0 3,-4 0,-12 -3,0 0,3 12,0 3,-3 0,-6 -3,0 0,3 6,0 2,-1 7,-6 -2,-3 0,4 6,0 2,-1 6,-7 -2,-2 0,3 50,0 0,-3 -2,2 6,7 2,1 7,0 0,-4 -3,3 7,6 2,1 6,0 0,-3 -3,0 0,6 3,3 13,0 0,-3 -4,0 0,12 4,4 6,0 0,-4 -3,0 0,13 6,0"
                           inkscape:connector-curvature="0"
                           id="path138"
                           style="fill:#e1e1e1;fill-opacity:1;fill-rule:nonzero;stroke:none" /><path
                           d="m 2881,2878 25,0 0,-6 -25,0 0,6 z m 38,0 25,0 0,-6 -25,0 0,6 z m 37,0 25,0 0,-6 -25,0 0,6 z m 38,0 25,0 0,-6 -25,0 0,6 z m 37,0 25,0 0,-6 -25,0 0,6 z m 38,0 6,0 3,-3 0,-19 -6,0 0,19 3,0 0,-3 -6,0 0,6 z m 9,-34 0,-25 -6,0 0,25 6,0 z m 0,-38 0,-25 -6,0 0,25 6,0 z m 0,-37 0,-25 -6,0 0,25 6,0 z m 0,-38 0,-25 -6,0 0,25 6,0 z m 0,-37 0,-13 -6,0 0,13 6,0"
                           inkscape:connector-curvature="0"
                           id="path140"
                           style="fill:#000000;fill-opacity:1;fill-rule:nonzero;stroke:none" /><path
                           d="m 3171,2967 -18,-18 -4,4 18,18 4,-4 z m -27,-27 -17,-18 -5,5 18,17 4,-4 z m -26,-26 -18,-18 -4,4 18,18 4,-4 z m -27,-27 -14,-14 -4,4 14,14 4,-4"
                           inkscape:connector-curvature="0"
                           id="path142"
                           style="fill:#000000;fill-opacity:1;fill-rule:nonzero;stroke:none" /><path
                           d="m 2531,2356 38,0 0,744 -38,0 0,-744 z"
                           inkscape:connector-curvature="0"
                           id="path144"
                           style="fill:#ffffff;fill-opacity:1;fill-rule:nonzero;stroke:none" /><path
                           d="m 2544,2356 12,0 0,744 -12,0 0,-744 z"
                           inkscape:connector-curvature="0"
                           id="path146"
                           style="fill:#7f7f7f;fill-opacity:1;fill-rule:nonzero;stroke:none" /><path
                           d="m 2531,3537 38,0 0,707 -38,0 0,-707 z"
                           inkscape:connector-curvature="0"
                           id="path148"
                           style="fill:#ffffff;fill-opacity:1;fill-rule:nonzero;stroke:none" /><path
                           d="m 2544,3537 12,0 0,707 -12,0 0,-707 z"
                           inkscape:connector-curvature="0"
                           id="path150"
                           style="fill:#7f7f7f;fill-opacity:1;fill-rule:nonzero;stroke:none" /><path
                           d="m 2655,3432 357,356 26,-26 -356,-357 -27,27"
                           inkscape:connector-curvature="0"
                           id="path152"
                           style="fill:#ffffff;fill-opacity:1;fill-rule:nonzero;stroke:none" /><path
                           d="m 2664,3423 357,356 8,-8 -356,-357 -9,9"
                           inkscape:connector-curvature="0"
                           id="path154"
                           style="fill:#7f7f7f;fill-opacity:1;fill-rule:nonzero;stroke:none" /><path
                           d="m 2376,3099 -288,-287 -26,26 287,288 27,-27"
                           inkscape:connector-curvature="0"
                           id="path156"
                           style="fill:#ffffff;fill-opacity:1;fill-rule:nonzero;stroke:none" /><path
                           d="m 2367,3108 -288,-287 -8,8 287,288 9,-9"
                           inkscape:connector-curvature="0"
                           id="path158"
                           style="fill:#7f7f7f;fill-opacity:1;fill-rule:nonzero;stroke:none" /><path
                           d="m 1606,3281 757,0 0,38 -757,0 0,-38 z"
                           inkscape:connector-curvature="0"
                           id="path160"
                           style="fill:#ffffff;fill-opacity:1;fill-rule:nonzero;stroke:none" /><path
                           d="m 1606,3294 757,0 0,12 -757,0 0,-12 z"
                           inkscape:connector-curvature="0"
                           id="path162"
                           style="fill:#7f7f7f;fill-opacity:1;fill-rule:nonzero;stroke:none" /><path
                           d="m 2738,3281 756,0 0,38 -756,0 0,-38 z"
                           inkscape:connector-curvature="0"
                           id="path164"
                           style="fill:#ffffff;fill-opacity:1;fill-rule:nonzero;stroke:none" /><path
                           d="m 2738,3294 756,0 0,12 -756,0 0,-12 z"
                           inkscape:connector-curvature="0"
                           id="path166"
                           style="fill:#7f7f7f;fill-opacity:1;fill-rule:nonzero;stroke:none" /><path
                           d="m 3163,2797 93,0 0,-16 -15,0 0,331 15,0 0,-15 -518,0 0,31 518,0 16,-16 0,-331 -16,-15 -93,0 0,31"
                           inkscape:connector-curvature="0"
                           id="path168"
                           style="fill:#ffffff;fill-opacity:1;fill-rule:nonzero;stroke:none" /><path
                           d="m 3163,2784 93,0 0,-3 -3,0 0,331 3,0 0,-3 -518,0 0,7 518,0 3,-4 0,-331 -3,-3 -93,0 0,6"
                           inkscape:connector-curvature="0"
                           id="path170"
                           style="fill:#2f6bfb;fill-opacity:1;fill-rule:nonzero;stroke:none" /><path
                           d="m 2388,3300 0,-13 -7,0 0,-6 -6,0 0,-6 -25,0 0,6 -6,0 0,6 -6,0 0,25 6,0 0,7 6,0 0,6 25,0 0,-6 6,0 0,-7 7,0 0,-12"
                           inkscape:connector-curvature="0"
                           id="path172"
                           style="fill:#bfbfbf;fill-opacity:1;fill-rule:evenodd;stroke:none" /><path
                           d="m 2394,3300 0,-13 -6,-6 -7,0 0,6 7,0 0,-6 -7,-6 -6,0 0,6 6,0 0,-6 -6,-6 -25,0 -6,6 0,6 6,0 0,-6 -6,0 -6,6 0,6 6,0 0,-6 -6,0 -7,6 0,25 7,7 6,0 0,-7 -6,0 0,7 6,6 6,0 0,-6 -6,0 0,6 6,6 25,0 6,-6 0,-6 -6,0 0,6 6,0 7,-6 0,-7 -7,0 0,7 7,0 6,-7 0,-12 z m -13,0 0,12 7,0 0,-6 -7,0 -6,6 0,7 6,0 0,-7 -6,0 -6,7 0,6 6,0 0,-6 -25,0 0,6 6,0 0,-6 -6,-7 -6,0 0,7 6,0 0,-7 -6,-6 -6,0 0,6 6,0 0,-25 -6,0 0,7 6,0 6,-7 0,-6 -6,0 0,6 6,0 6,-6 0,-6 -6,0 0,6 25,0 0,-6 -6,0 0,6 6,6 6,0 0,-6 -6,0 0,6 6,7 7,0 0,-7 -7,0 0,13"
                           inkscape:connector-curvature="0"
                           id="path174"
                           style="fill:#7f7f7f;fill-opacity:1;fill-rule:nonzero;stroke:none" /><path
                           d="m 2575,3100 0,-13 -6,0 0,-6 -6,0 0,-6 -25,0 0,6 -7,0 0,6 -6,0 0,25 6,0 0,7 7,0 0,6 25,0 0,-6 6,0 0,-7 6,0 0,-12"
                           inkscape:connector-curvature="0"
                           id="path176"
                           style="fill:#bfbfbf;fill-opacity:1;fill-rule:evenodd;stroke:none" /><path
                           d="m 2581,3100 0,-13 -6,-6 -6,0 0,6 6,0 0,-6 -6,-6 -6,0 0,6 6,0 0,-6 -6,-6 -25,0 -7,6 0,6 7,0 0,-6 -7,0 -6,6 0,6 6,0 0,-6 -6,0 -6,6 0,25 6,7 6,0 0,-7 -6,0 0,7 6,6 7,0 0,-6 -7,0 0,6 7,6 25,0 6,-6 0,-6 -6,0 0,6 6,0 6,-6 0,-7 -6,0 0,7 6,0 6,-7 0,-12 z m -12,0 0,12 6,0 0,-6 -6,0 -6,6 0,7 6,0 0,-7 -6,0 -7,7 0,6 7,0 0,-6 -25,0 0,6 6,0 0,-6 -6,-7 -7,0 0,7 7,0 0,-7 -7,-6 -6,0 0,6 6,0 0,-25 -6,0 0,7 6,0 7,-7 0,-6 -7,0 0,6 7,0 6,-6 0,-6 -6,0 0,6 25,0 0,-6 -7,0 0,6 7,6 6,0 0,-6 -6,0 0,6 6,7 6,0 0,-7 -6,0 0,13"
                           inkscape:connector-curvature="0"
                           id="path178"
                           style="fill:#7f7f7f;fill-opacity:1;fill-rule:nonzero;stroke:none" /><path
                           d="m 2694,3419 0,-13 -6,0 0,-6 -7,0 0,-6 -25,0 0,6 -6,0 0,6 -6,0 0,25 6,0 0,6 6,0 0,7 25,0 0,-7 7,0 0,-6 6,0 0,-12"
                           inkscape:connector-curvature="0"
                           id="path180"
                           style="fill:#bfbfbf;fill-opacity:1;fill-rule:evenodd;stroke:none" /><path
                           d="m 2700,3419 0,-13 -6,-6 -6,0 0,6 6,0 0,-6 -6,-6 -7,0 0,6 7,0 0,-6 -7,-7 -25,0 -6,7 0,6 6,0 0,-6 -6,0 -6,6 0,6 6,0 0,-6 -6,0 -6,6 0,25 6,6 6,0 0,-6 -6,0 0,6 6,7 6,0 0,-7 -6,0 0,7 6,6 25,0 7,-6 0,-7 -7,0 0,7 7,0 6,-7 0,-6 -6,0 0,6 6,0 6,-6 0,-12 z m -12,0 0,12 6,0 0,-6 -6,0 -7,6 0,6 7,0 0,-6 -7,0 -6,6 0,7 6,0 0,-7 -25,0 0,7 7,0 0,-7 -7,-6 -6,0 0,6 6,0 0,-6 -6,-6 -6,0 0,6 6,0 0,-25 -6,0 0,6 6,0 6,-6 0,-6 -6,0 0,6 6,0 7,-6 0,-6 -7,0 0,6 25,0 0,-6 -6,0 0,6 6,6 7,0 0,-6 -7,0 0,6 7,6 6,0 0,-6 -6,0 0,13"
                           inkscape:connector-curvature="0"
                           id="path182"
                           style="fill:#7f7f7f;fill-opacity:1;fill-rule:nonzero;stroke:none" /><path
                           d="m 2763,3300 0,-13 -7,0 0,-6 -6,0 0,-6 -25,0 0,6 -6,0 0,6 -6,0 0,25 6,0 0,7 6,0 0,6 25,0 0,-6 6,0 0,-7 7,0 0,-12"
                           inkscape:connector-curvature="0"
                           id="path184"
                           style="fill:#bfbfbf;fill-opacity:1;fill-rule:evenodd;stroke:none" /><path
                           d="m 2769,3300 0,-13 -6,-6 -7,0 0,6 7,0 0,-6 -7,-6 -6,0 0,6 6,0 0,-6 -6,-6 -25,0 -6,6 0,6 6,0 0,-6 -6,0 -6,6 0,6 6,0 0,-6 -6,0 -7,6 0,25 7,7 6,0 0,-7 -6,0 0,7 6,6 6,0 0,-6 -6,0 0,6 6,6 25,0 6,-6 0,-6 -6,0 0,6 6,0 7,-6 0,-7 -7,0 0,7 7,0 6,-7 0,-12 z m -13,0 0,12 7,0 0,-6 -7,0 -6,6 0,7 6,0 0,-7 -6,0 -6,7 0,6 6,0 0,-6 -25,0 0,6 6,0 0,-6 -6,-7 -6,0 0,7 6,0 0,-7 -6,-6 -6,0 0,6 6,0 0,-25 -6,0 0,7 6,0 6,-7 0,-6 -6,0 0,6 6,0 6,-6 0,-6 -6,0 0,6 25,0 0,-6 -6,0 0,6 6,6 6,0 0,-6 -6,0 0,6 6,7 7,0 0,-7 -7,0 0,13"
                           inkscape:connector-curvature="0"
                           id="path186"
                           style="fill:#7f7f7f;fill-opacity:1;fill-rule:nonzero;stroke:none" /><path
                           d="m 2575,3537 0,-12 -6,0 0,-6 -6,0 0,-7 -25,0 0,7 -7,0 0,6 -6,0 0,25 6,0 0,6 7,0 0,6 25,0 0,-6 6,0 0,-6 6,0 0,-13"
                           inkscape:connector-curvature="0"
                           id="path188"
                           style="fill:#bfbfbf;fill-opacity:1;fill-rule:evenodd;stroke:none" /><path
                           d="m 2581,3537 0,-12 -6,-6 -6,0 0,6 6,0 0,-6 -6,-7 -6,0 0,7 6,0 0,-7 -6,-6 -25,0 -7,6 0,7 7,0 0,-7 -7,0 -6,7 0,6 6,0 0,-6 -6,0 -6,6 0,25 6,6 6,0 0,-6 -6,0 0,6 6,6 7,0 0,-6 -7,0 0,6 7,7 25,0 6,-7 0,-6 -6,0 0,6 6,0 6,-6 0,-6 -6,0 0,6 6,0 6,-6 0,-13 z m -12,0 0,13 6,0 0,-6 -6,0 -6,6 0,6 6,0 0,-6 -6,0 -7,6 0,6 7,0 0,-6 -25,0 0,6 6,0 0,-6 -6,-6 -7,0 0,6 7,0 0,-6 -7,-6 -6,0 0,6 6,0 0,-25 -6,0 0,6 6,0 7,-6 0,-6 -7,0 0,6 7,0 6,-6 0,-7 -6,0 0,7 25,0 0,-7 -7,0 0,7 7,6 6,0 0,-6 -6,0 0,6 6,6 6,0 0,-6 -6,0 0,12"
                           inkscape:connector-curvature="0"
                           id="path190"
                           style="fill:#7f7f7f;fill-opacity:1;fill-rule:nonzero;stroke:none" /><path
                           d="m 2388,3112 0,-12 -7,0 0,-6 -6,0 0,-7 -25,0 0,7 -6,0 0,6 -6,0 0,25 6,0 0,6 6,0 0,6 25,0 0,-6 6,0 0,-6 7,0 0,-13"
                           inkscape:connector-curvature="0"
                           id="path192"
                           style="fill:#bfbfbf;fill-opacity:1;fill-rule:evenodd;stroke:none" /><path
                           d="m 2394,3112 0,-12 -6,-6 -7,0 0,6 7,0 0,-6 -7,-7 -6,0 0,7 6,0 0,-7 -6,-6 -25,0 -6,6 0,7 6,0 0,-7 -6,0 -6,7 0,6 6,0 0,-6 -6,0 -7,6 0,25 7,6 6,0 0,-6 -6,0 0,6 6,6 6,0 0,-6 -6,0 0,6 6,7 25,0 6,-7 0,-6 -6,0 0,6 6,0 7,-6 0,-6 -7,0 0,6 7,0 6,-6 0,-13 z m -13,0 0,13 7,0 0,-6 -7,0 -6,6 0,6 6,0 0,-6 -6,0 -6,6 0,6 6,0 0,-6 -25,0 0,6 6,0 0,-6 -6,-6 -6,0 0,6 6,0 0,-6 -6,-6 -6,0 0,6 6,0 0,-25 -6,0 0,6 6,0 6,-6 0,-6 -6,0 0,6 6,0 6,-6 0,-7 -6,0 0,7 25,0 0,-7 -6,0 0,7 6,6 6,0 0,-6 -6,0 0,6 6,6 7,0 0,-6 -7,0 0,12"
                           inkscape:connector-curvature="0"
                           id="path194"
                           style="fill:#7f7f7f;fill-opacity:1;fill-rule:nonzero;stroke:none" /><path
                           d="m 2759,3112 0,-6 -1,-2 -6,-6 -6,-6 -2,-1 -13,0 -2,1 -6,6 -6,6 -1,2 0,13 1,2 6,6 6,6 2,1 13,0 2,-1 6,-6 6,-6 1,-2 0,-7 z m -6,0 0,7 3,0 -2,-2 -6,6 -6,6 2,2 0,-3 -13,0 0,3 2,-2 -6,-6 -6,-6 -2,2 3,0 0,-13 -3,0 2,2 6,-6 6,-6 -2,-2 0,3 13,0 0,-3 -2,2 6,6 6,6 2,-2 -3,0 0,6"
                           inkscape:connector-curvature="0"
                           id="path196"
                           style="fill:#2f6bfb;fill-opacity:1;fill-rule:nonzero;stroke:none" /><path
                           d="m 2763,3112 0,-12 -7,0 0,-6 -6,0 0,-7 -25,0 0,7 -6,0 0,6 -6,0 0,25 6,0 0,6 6,0 0,6 25,0 0,-6 6,0 0,-6 7,0 0,-13"
                           inkscape:connector-curvature="0"
                           id="path198"
                           style="fill:#ffffff;fill-opacity:1;fill-rule:evenodd;stroke:none" /><path
                           d="m 2766,3112 0,-12 -3,-3 -7,0 0,3 3,0 0,-6 -3,-3 -6,0 0,3 3,0 0,-7 -3,-3 -25,0 -3,3 0,7 3,0 0,-3 -6,0 -3,3 0,6 3,0 0,-3 -6,0 -4,3 0,25 4,3 6,0 0,-3 -3,0 0,6 3,3 6,0 0,-3 -3,0 0,6 3,4 25,0 3,-4 0,-6 -3,0 0,3 6,0 3,-3 0,-6 -3,0 0,3 7,0 3,-3 0,-13 z m -7,0 0,13 4,0 0,-3 -7,0 -3,3 0,6 3,0 0,-3 -6,0 -3,3 0,6 3,0 0,-3 -25,0 0,3 3,0 0,-6 -3,-3 -6,0 0,3 3,0 0,-6 -3,-3 -6,0 0,3 3,0 0,-25 -3,0 0,3 6,0 3,-3 0,-6 -3,0 0,3 6,0 3,-3 0,-7 -3,0 0,4 25,0 0,-4 -3,0 0,7 3,3 6,0 0,-3 -3,0 0,6 3,3 7,0 0,-3 -4,0 0,12"
                           inkscape:connector-curvature="0"
                           id="path200"
                           style="fill:#0b2bc5;fill-opacity:1;fill-rule:nonzero;stroke:none" /><path
                           d="m 2750,3112 0,-6 -6,0 0,-6 -13,0 0,6 -6,0 0,13 6,0 0,6 13,0 0,-6 6,0 0,-7"
                           inkscape:connector-curvature="0"
                           id="path202"
                           style="fill:#2f6bfb;fill-opacity:1;fill-rule:evenodd;stroke:none" /><path
                           d="m 2750,3112 0,-6 -6,0 0,-6 -13,0 0,6 -6,0 0,13 6,0 0,6 13,0 0,-6 6,0 0,-7 z"
                           inkscape:connector-curvature="0"
                           id="path204"
                           style="fill:none;stroke:#2f6bfb;stroke-width:1;stroke-linecap:round;stroke-linejoin:round;stroke-miterlimit:10;stroke-opacity:1;stroke-dasharray:none" /><path
                           d="m 2456,3419 0,12 -6,0 0,6 -6,0 0,7 -25,0 0,-7 -6,0 0,-6 -7,0 0,-25 7,0 0,-6 6,0 0,-6 25,0 0,6 6,0 0,6 6,0 0,13"
                           inkscape:connector-curvature="0"
                           id="path206"
                           style="fill:#ffffff;fill-opacity:1;fill-rule:evenodd;stroke:none" /><path
                           d="m 2453,3419 0,12 3,0 0,-3 -6,0 -3,3 0,6 3,0 0,-3 -6,0 -3,3 0,7 3,0 0,-3 -25,0 0,3 3,0 0,-7 -3,-3 -6,0 0,3 3,0 0,-6 -3,-3 -7,0 0,3 3,0 0,-25 -3,0 0,3 7,0 3,-3 0,-6 -3,0 0,3 6,0 3,-3 0,-6 -3,0 0,3 25,0 0,-3 -3,0 0,6 3,3 6,0 0,-3 -3,0 0,6 3,3 6,0 0,-3 -3,0 0,13 z m 6,0 0,-13 -3,-3 -6,0 0,3 3,0 0,-6 -3,-3 -6,0 0,3 3,0 0,-6 -3,-3 -25,0 -3,3 0,6 3,0 0,-3 -6,0 -4,3 0,6 4,0 0,-3 -7,0 -3,3 0,25 3,3 7,0 0,-3 -4,0 0,6 4,4 6,0 0,-4 -3,0 0,7 3,3 25,0 3,-3 0,-7 -3,0 0,4 6,0 3,-4 0,-6 -3,0 0,3 6,0 3,-3 0,-12"
                           inkscape:connector-curvature="0"
                           id="path208"
                           style="fill:#7f7f7f;fill-opacity:1;fill-rule:nonzero;stroke:none" /><path
                           d="m 2456,3419 0,12 -6,0 0,6 -6,0 0,7 -25,0 0,-7 -6,0 0,-6 -7,0 0,-25 7,0 0,-6 6,0 0,-6 25,0 0,6 6,0 0,6 6,0 0,13"
                           inkscape:connector-curvature="0"
                           id="path210"
                           style="fill:#ffffff;fill-opacity:1;fill-rule:evenodd;stroke:none" /><path
                           d="m 2453,3419 0,12 3,0 0,-3 -6,0 -3,3 0,6 3,0 0,-3 -6,0 -3,3 0,7 3,0 0,-3 -25,0 0,3 3,0 0,-7 -3,-3 -6,0 0,3 3,0 0,-6 -3,-3 -7,0 0,3 3,0 0,-25 -3,0 0,3 7,0 3,-3 0,-6 -3,0 0,3 6,0 3,-3 0,-6 -3,0 0,3 25,0 0,-3 -3,0 0,6 3,3 6,0 0,-3 -3,0 0,6 3,3 6,0 0,-3 -3,0 0,13 z m 6,0 0,-13 -3,-3 -6,0 0,3 3,0 0,-6 -3,-3 -6,0 0,3 3,0 0,-6 -3,-3 -25,0 -3,3 0,6 3,0 0,-3 -6,0 -4,3 0,6 4,0 0,-3 -7,0 -3,3 0,25 3,3 7,0 0,-3 -4,0 0,6 4,4 6,0 0,-4 -3,0 0,7 3,3 25,0 3,-3 0,-7 -3,0 0,4 6,0 3,-4 0,-6 -3,0 0,3 6,0 3,-3 0,-12"
                           inkscape:connector-curvature="0"
                           id="path212"
                           style="fill:#7f7f7f;fill-opacity:1;fill-rule:nonzero;stroke:none" /><path
                           d="m 2447,3419 0,6 3,0 -2,-2 -6,6 -7,6 3,2 0,-3 -13,0 0,3 2,-2 -6,-6 -6,-6 -2,2 3,0 0,-13 -3,0 2,3 6,-7 6,-6 -2,-2 0,3 13,0 0,-3 -3,2 7,6 6,7 2,-3 -3,0 0,7 z m 6,0 0,-7 -1,-2 -6,-6 -6,-6 -2,-1 -13,0 -2,1 -6,6 -7,6 -1,2 0,13 1,2 7,6 6,7 2,1 13,0 2,-1 6,-7 6,-6 1,-2 0,-6"
                           inkscape:connector-curvature="0"
                           id="path214"
                           style="fill:#dd172f;fill-opacity:1;fill-rule:nonzero;stroke:none" /><path
                           d="m 2456,3419 0,12 -6,0 0,6 -6,0 0,7 -25,0 0,-7 -6,0 0,-6 -7,0 0,-25 7,0 0,-6 6,0 0,-6 25,0 0,6 6,0 0,6 6,0 0,13"
                           inkscape:connector-curvature="0"
                           id="path216"
                           style="fill:#dd172f;fill-opacity:1;fill-rule:evenodd;stroke:none" /><path
                           d="m 2453,3419 0,12 3,0 0,-3 -6,0 -3,3 0,6 3,0 0,-3 -6,0 -3,3 0,7 3,0 0,-3 -25,0 0,3 3,0 0,-7 -3,-3 -6,0 0,3 3,0 0,-6 -3,-3 -7,0 0,3 3,0 0,-25 -3,0 0,3 7,0 3,-3 0,-6 -3,0 0,3 6,0 3,-3 0,-6 -3,0 0,3 25,0 0,-3 -3,0 0,6 3,3 6,0 0,-3 -3,0 0,6 3,3 6,0 0,-3 -3,0 0,13 z m 6,0 0,-13 -3,-3 -6,0 0,3 3,0 0,-6 -3,-3 -6,0 0,3 3,0 0,-6 -3,-3 -25,0 -3,3 0,6 3,0 0,-3 -6,0 -4,3 0,6 4,0 0,-3 -7,0 -3,3 0,25 3,3 7,0 0,-3 -4,0 0,6 4,4 6,0 0,-4 -3,0 0,7 3,3 25,0 3,-3 0,-7 -3,0 0,4 6,0 3,-4 0,-6 -3,0 0,3 6,0 3,-3 0,-12"
                           inkscape:connector-curvature="0"
                           id="path218"
                           style="fill:#aa0000;fill-opacity:1;fill-rule:nonzero;stroke:none" /><g
                           transform="scale(8.33333,8.33333)"
                           id="g220"><text
                             transform="matrix(1,0,0,-1,290.28,408.72)"
                             id="text222"><tspan
                               x="0"
                               y="0"
                               id="tspan224"
                               style="font-size:5.25px;font-variant:normal;font-weight:bold;writing-mode:lr-tb;fill:#ffffff;fill-opacity:1;fill-rule:nonzero;stroke:none;font-family:Helvetica;-inkscape-font-specification:Helvetica-Bold">2</tspan></text>
</g><path
                           d="m 2456,3419 0,12 -6,0 0,6 -6,0 0,7 -25,0 0,-7 -6,0 0,-6 -7,0 0,-25 7,0 0,-6 6,0 0,-6 25,0 0,6 6,0 0,6 6,0 0,13"
                           inkscape:connector-curvature="0"
                           id="path226"
                           style="fill:#ffffff;fill-opacity:1;fill-rule:evenodd;stroke:none" /><path
                           d="m 2453,3419 0,12 3,0 0,-3 -6,0 -3,3 0,6 3,0 0,-3 -6,0 -3,3 0,7 3,0 0,-3 -25,0 0,3 3,0 0,-7 -3,-3 -6,0 0,3 3,0 0,-6 -3,-3 -7,0 0,3 3,0 0,-25 -3,0 0,3 7,0 3,-3 0,-6 -3,0 0,3 6,0 3,-3 0,-6 -3,0 0,3 25,0 0,-3 -3,0 0,6 3,3 6,0 0,-3 -3,0 0,6 3,3 6,0 0,-3 -3,0 0,13 z m 6,0 0,-13 -3,-3 -6,0 0,3 3,0 0,-6 -3,-3 -6,0 0,3 3,0 0,-6 -3,-3 -25,0 -3,3 0,6 3,0 0,-3 -6,0 -4,3 0,6 4,0 0,-3 -7,0 -3,3 0,25 3,3 7,0 0,-3 -4,0 0,6 4,4 6,0 0,-4 -3,0 0,7 3,3 25,0 3,-3 0,-7 -3,0 0,4 6,0 3,-4 0,-6 -3,0 0,3 6,0 3,-3 0,-12"
                           inkscape:connector-curvature="0"
                           id="path228"
                           style="fill:#7f7f7f;fill-opacity:1;fill-rule:nonzero;stroke:none" /><path
                           d="m 2456,3419 0,12 -6,0 0,6 -6,0 0,7 -25,0 0,-7 -6,0 0,-6 -7,0 0,-25 7,0 0,-6 6,0 0,-6 25,0 0,6 6,0 0,6 6,0 0,13"
                           inkscape:connector-curvature="0"
                           id="path230"
                           style="fill:#ffffff;fill-opacity:1;fill-rule:evenodd;stroke:none" /><path
                           d="m 2453,3419 0,12 3,0 0,-3 -6,0 -3,3 0,6 3,0 0,-3 -6,0 -3,3 0,7 3,0 0,-3 -25,0 0,3 3,0 0,-7 -3,-3 -6,0 0,3 3,0 0,-6 -3,-3 -7,0 0,3 3,0 0,-25 -3,0 0,3 7,0 3,-3 0,-6 -3,0 0,3 6,0 3,-3 0,-6 -3,0 0,3 25,0 0,-3 -3,0 0,6 3,3 6,0 0,-3 -3,0 0,6 3,3 6,0 0,-3 -3,0 0,13 z m 6,0 0,-13 -3,-3 -6,0 0,3 3,0 0,-6 -3,-3 -6,0 0,3 3,0 0,-6 -3,-3 -25,0 -3,3 0,6 3,0 0,-3 -6,0 -4,3 0,6 4,0 0,-3 -7,0 -3,3 0,25 3,3 7,0 0,-3 -4,0 0,6 4,4 6,0 0,-4 -3,0 0,7 3,3 25,0 3,-3 0,-7 -3,0 0,4 6,0 3,-4 0,-6 -3,0 0,3 6,0 3,-3 0,-12"
                           inkscape:connector-curvature="0"
                           id="path232"
                           style="fill:#7f7f7f;fill-opacity:1;fill-rule:nonzero;stroke:none" /><path
                           d="m 2447,3419 0,6 3,0 -2,-2 -6,6 -7,6 3,2 0,-3 -13,0 0,3 2,-2 -6,-6 -6,-6 -2,2 3,0 0,-13 -3,0 2,3 6,-7 6,-6 -2,-2 0,3 13,0 0,-3 -3,2 7,6 6,7 2,-3 -3,0 0,7 z m 6,0 0,-7 -1,-2 -6,-6 -6,-6 -2,-1 -13,0 -2,1 -6,6 -7,6 -1,2 0,13 1,2 7,6 6,7 2,1 13,0 2,-1 6,-7 6,-6 1,-2 0,-6"
                           inkscape:connector-curvature="0"
                           id="path234"
                           style="fill:#dd172f;fill-opacity:1;fill-rule:nonzero;stroke:none" /><path
                           d="m 2456,3419 0,12 -6,0 0,6 -6,0 0,7 -25,0 0,-7 -6,0 0,-6 -7,0 0,-25 7,0 0,-6 6,0 0,-6 25,0 0,6 6,0 0,6 6,0 0,13"
                           inkscape:connector-curvature="0"
                           id="path236"
                           style="fill:#dd172f;fill-opacity:1;fill-rule:evenodd;stroke:none" /><path
                           d="m 2453,3419 0,12 3,0 0,-3 -6,0 -3,3 0,6 3,0 0,-3 -6,0 -3,3 0,7 3,0 0,-3 -25,0 0,3 3,0 0,-7 -3,-3 -6,0 0,3 3,0 0,-6 -3,-3 -7,0 0,3 3,0 0,-25 -3,0 0,3 7,0 3,-3 0,-6 -3,0 0,3 6,0 3,-3 0,-6 -3,0 0,3 25,0 0,-3 -3,0 0,6 3,3 6,0 0,-3 -3,0 0,6 3,3 6,0 0,-3 -3,0 0,13 z m 6,0 0,-13 -3,-3 -6,0 0,3 3,0 0,-6 -3,-3 -6,0 0,3 3,0 0,-6 -3,-3 -25,0 -3,3 0,6 3,0 0,-3 -6,0 -4,3 0,6 4,0 0,-3 -7,0 -3,3 0,25 3,3 7,0 0,-3 -4,0 0,6 4,4 6,0 0,-4 -3,0 0,7 3,3 25,0 3,-3 0,-7 -3,0 0,4 6,0 3,-4 0,-6 -3,0 0,3 6,0 3,-3 0,-12"
                           inkscape:connector-curvature="0"
                           id="path238"
                           style="fill:#aa0000;fill-opacity:1;fill-rule:nonzero;stroke:none" /><g
                           transform="scale(8.33333,8.33333)"
                           id="g240"><text
                             transform="matrix(1,0,0,-1,290.28,408.72)"
                             id="text242"><tspan
                               x="0"
                               y="0"
                               id="tspan244"
                               style="font-size:5.25px;font-variant:normal;font-weight:bold;writing-mode:lr-tb;fill:#ffffff;fill-opacity:1;fill-rule:nonzero;stroke:none;font-family:Helvetica;-inkscape-font-specification:Helvetica-Bold">2</tspan></text>
</g><g
                           transform="scale(8.33333,8.33333)"
                           id="g246"><text
                             transform="matrix(1,0,0,-1,173.28,407.52)"
                             id="text248"><tspan
                               x="0 3.7199998 10.439997 15.720002 21.000008 26.280014 28.440014 30.720011 34.44001"
                               y="0"
                               id="tspan250"
                               style="font-size:9px;font-variant:normal;font-weight:normal;writing-mode:lr-tb;fill:#000000;fill-opacity:1;fill-rule:nonzero;stroke:none;font-family:Helvetica;-inkscape-font-specification:Helvetica">xNegative</tspan></text>
</g><path
                           d="m 1675,3300 0,-19 -6,-6 0,-13 -6,0 -7,-6 0,-6 -6,0 -6,-6 0,-7 -13,0 -6,-6 -37,0 -7,6 -6,0 -6,7 -6,6 -7,0 0,6 -6,6 -6,0 0,13 -6,6 0,38 6,6 0,6 6,6 6,7 0,6 7,0 6,6 6,6 6,0 7,7 37,0 6,-7 13,0 0,-6 6,-6 6,0 0,-6 7,-7 6,-6 0,-6 6,-6 0,-19"
                           inkscape:connector-curvature="0"
                           id="path252"
                           style="fill:#bfbfbf;fill-opacity:1;fill-rule:evenodd;stroke:none" /><path
                           d="m 1681,3300 0,-19 -2,-4 -6,-6 -4,4 6,0 0,-13 -6,-6 -6,0 0,6 4,-4 -6,-6 -5,4 7,0 0,-6 -7,-6 -6,0 0,6 4,-4 -6,-7 -4,5 6,0 0,-7 -6,-6 -13,0 0,6 5,-4 -7,-6 -4,-2 -37,0 -5,2 -6,6 4,4 0,-6 -6,0 -4,2 -7,6 -6,7 5,4 0,-6 -7,0 -6,6 0,6 6,0 -4,-4 -6,6 4,4 0,-6 -6,0 -6,6 0,13 6,0 -5,-4 -6,6 -2,4 0,38 2,4 6,6 5,-4 -6,0 0,6 1,5 7,6 6,6 4,-4 -6,0 0,6 6,6 7,0 0,-6 -5,4 6,7 7,6 4,2 6,0 0,-7 -4,5 6,6 5,2 37,0 4,-2 7,-6 -5,-5 0,7 13,0 6,-7 0,-6 -6,0 4,5 6,-7 -4,-4 0,6 6,0 7,-6 0,-6 -7,0 5,4 6,-6 6,-6 2,-5 0,-6 -6,0 4,4 6,-6 2,-4 0,-19 z m -12,0 0,19 6,0 -4,-5 -7,7 -1,4 0,6 6,0 -5,-4 -6,6 -6,6 -2,5 0,6 6,0 0,-6 -6,0 -4,2 -7,6 -1,4 0,6 6,0 0,-6 -13,0 -4,2 -6,6 4,5 0,-7 -37,0 0,7 4,-5 -6,-6 -5,-2 -6,0 0,6 4,-4 -6,-6 -6,-6 -4,-2 -7,0 0,6 7,0 0,-6 -2,-5 -7,-6 -6,-6 -4,4 6,0 0,-6 -2,-4 -6,-7 -4,5 6,0 0,-38 -6,0 4,5 6,-7 2,-4 0,-13 -6,0 0,7 6,0 4,-2 7,-6 2,-5 0,-6 -7,0 0,6 7,0 4,-2 6,-6 6,-6 -4,-5 0,7 6,0 5,-2 6,-6 -4,-5 0,6 37,0 0,-6 -4,5 6,6 4,2 13,0 0,-7 -6,0 0,7 1,4 7,6 4,2 6,0 0,-6 -6,0 0,6 2,5 6,6 5,2 6,0 0,-7 -6,0 0,13 1,4 7,7 4,-5 -6,0 0,19"
                           inkscape:connector-curvature="0"
                           id="path254"
                           style="fill:#7f7f7f;fill-opacity:1;fill-rule:nonzero;stroke:none" /><g
                           transform="scale(8.33333,8.33333)"
                           id="g256"><text
                             transform="matrix(1,0,0,-1,286.56,294.24)"
                             id="text258"><tspan
                               x="0 3.7199998 10.440012 15.720017 21.000023 26.160028 28.440018 30.720028 34.440029"
                               y="0"
                               id="tspan260"
                               style="font-size:9px;font-variant:normal;font-weight:normal;writing-mode:lr-tb;fill:#000000;fill-opacity:1;fill-rule:nonzero;stroke:none;font-family:Helvetica;-inkscape-font-specification:Helvetica">yNegative</tspan></text>
</g><path
                           d="m 2619,2356 0,-19 -6,-6 0,-12 -7,0 -6,-7 0,-6 -6,0 -6,-6 0,-6 -13,0 -6,-7 -38,0 -6,7 -6,0 -6,6 -7,6 -6,0 0,6 -6,7 -6,0 0,12 -7,6 0,38 7,6 0,6 6,7 6,6 0,6 6,0 7,6 6,7 6,0 6,6 38,0 6,-6 13,0 0,-7 6,-6 6,0 0,-6 6,-6 7,-7 0,-6 6,-6 0,-19"
                           inkscape:connector-curvature="0"
                           id="path262"
                           style="fill:#bfbfbf;fill-opacity:1;fill-rule:evenodd;stroke:none" /><path
                           d="m 2625,2356 0,-19 -2,-4 -6,-6 -4,4 6,0 0,-12 -6,-7 -7,0 0,7 5,-5 -7,-6 -4,4 6,0 0,-6 -6,-6 -6,0 0,6 4,-4 -6,-6 -4,4 6,0 0,-6 -6,-7 -13,0 0,7 4,-5 -6,-6 -4,-2 -38,0 -4,2 -6,6 4,5 0,-7 -6,0 -5,2 -6,7 -6,6 4,4 0,-6 -6,0 -6,6 0,6 6,0 -4,-4 -7,6 5,5 0,-7 -6,0 -7,7 0,12 7,0 -5,-4 -6,6 -2,4 0,38 2,4 6,7 5,-5 -7,0 0,6 2,5 6,6 7,6 4,-4 -6,0 0,6 6,6 6,0 0,-6 -4,5 6,6 6,6 5,2 6,0 0,-6 -4,4 6,6 4,2 38,0 4,-2 6,-6 -4,-4 0,6 13,0 6,-6 0,-7 -6,0 4,5 6,-6 -4,-5 0,6 6,0 6,-6 0,-6 -6,0 4,4 7,-6 6,-6 2,-5 0,-6 -6,0 4,5 6,-7 2,-4 0,-19 z m -12,0 0,19 6,0 -5,-4 -6,6 -2,4 0,6 7,0 -5,-4 -6,6 -6,7 -2,4 0,6 6,0 0,-6 -6,0 -5,2 -6,6 -2,4 0,7 7,0 0,-7 -13,0 -4,2 -7,7 5,4 0,-6 -38,0 0,6 5,-4 -7,-7 -4,-2 -6,0 0,7 4,-5 -6,-6 -6,-6 -5,-2 -6,0 0,6 6,0 0,-6 -2,-4 -6,-7 -6,-6 -4,4 6,0 0,-6 -2,-4 -6,-6 -5,4 7,0 0,-38 -7,0 5,5 6,-6 2,-5 0,-12 -6,0 0,6 6,0 4,-2 6,-6 2,-5 0,-6 -6,0 0,6 6,0 5,-1 6,-7 6,-6 -4,-4 0,6 6,0 4,-2 7,-6 -5,-5 0,7 38,0 0,-7 -5,5 7,6 4,2 13,0 0,-6 -7,0 0,6 2,4 6,7 5,1 6,0 0,-6 -6,0 0,6 2,5 6,6 4,2 7,0 0,-6 -7,0 0,12 2,5 6,6 5,-5 -6,0 0,19"
                           inkscape:connector-curvature="0"
                           id="path264"
                           style="fill:#7f7f7f;fill-opacity:1;fill-rule:nonzero;stroke:none" /><g
                           transform="scale(8.33333,8.33333)"
                           id="g266"><text
                             transform="matrix(1,0,0,-1,343.56,464.52)"
                             id="text268"><tspan
                               x="0 3.7199998 10.440012 15.720017 21.000023 26.160028 28.440018 30.720028 34.440029"
                               y="0"
                               id="tspan270"
                               style="font-size:9px;font-variant:normal;font-weight:normal;writing-mode:lr-tb;fill:#000000;fill-opacity:1;fill-rule:nonzero;stroke:none;font-family:Helvetica;-inkscape-font-specification:Helvetica">zNegative</tspan></text>
</g><path
                           d="m 3094,3775 0,-19 -6,-6 0,-13 -7,0 -6,-6 0,-6 -6,0 -6,-6 0,-7 -13,0 -6,-6 -38,0 -6,6 -6,0 -6,7 -7,6 -6,0 0,6 -6,6 -6,0 0,13 -7,6 0,38 7,6 0,6 6,6 6,7 0,6 6,0 7,6 6,6 6,0 6,7 38,0 6,-7 13,0 0,-6 6,-6 6,0 0,-6 6,-7 7,-6 0,-6 6,-6 0,-19"
                           inkscape:connector-curvature="0"
                           id="path272"
                           style="fill:#bfbfbf;fill-opacity:1;fill-rule:evenodd;stroke:none" /><path
                           d="m 3100,3775 0,-19 -2,-4 -6,-6 -4,4 6,0 0,-13 -6,-6 -7,0 0,6 5,-4 -7,-6 -4,4 6,0 0,-6 -6,-6 -6,0 0,6 4,-4 -6,-7 -4,5 6,0 0,-7 -6,-6 -13,0 0,6 4,-4 -6,-6 -4,-2 -38,0 -4,2 -6,6 4,4 0,-6 -6,0 -5,2 -6,6 -6,7 4,4 0,-6 -6,0 -6,6 0,6 6,0 -4,-4 -7,6 5,4 0,-6 -6,0 -7,6 0,13 7,0 -5,-4 -6,6 -2,4 0,38 2,4 6,6 5,-4 -7,0 0,6 2,5 6,6 7,6 4,-4 -6,0 0,6 6,6 6,0 0,-6 -4,4 6,7 6,6 5,2 6,0 0,-7 -4,5 6,6 4,2 38,0 4,-2 6,-6 -4,-5 0,7 13,0 6,-7 0,-6 -6,0 4,5 6,-7 -4,-4 0,6 6,0 6,-6 0,-6 -6,0 4,4 7,-6 6,-6 2,-5 0,-6 -6,0 4,4 6,-6 2,-4 0,-19 z m -12,0 0,19 6,0 -5,-5 -6,7 -2,4 0,6 7,0 -5,-4 -6,6 -6,6 -2,5 0,6 6,0 0,-6 -6,0 -5,2 -6,6 -2,4 0,6 7,0 0,-6 -13,0 -4,2 -7,6 5,5 0,-7 -38,0 0,7 5,-5 -7,-6 -4,-2 -6,0 0,6 4,-4 -6,-6 -6,-6 -5,-2 -6,0 0,6 6,0 0,-6 -2,-5 -6,-6 -6,-6 -4,4 6,0 0,-6 -2,-4 -6,-7 -5,5 7,0 0,-38 -7,0 5,5 6,-7 2,-4 0,-13 -6,0 0,7 6,0 4,-2 6,-6 2,-5 0,-6 -6,0 0,6 6,0 5,-2 6,-6 6,-6 -4,-5 0,7 6,0 4,-2 7,-6 -5,-5 0,6 38,0 0,-6 -5,5 7,6 4,2 13,0 0,-7 -7,0 0,7 2,4 6,6 5,2 6,0 0,-6 -6,0 0,6 2,5 6,6 4,2 7,0 0,-7 -7,0 0,13 2,4 6,7 5,-5 -6,0 0,19"
                           inkscape:connector-curvature="0"
                           id="path274"
                           style="fill:#7f7f7f;fill-opacity:1;fill-rule:nonzero;stroke:none" /><g
                           transform="scale(8.33333,8.33333)"
                           id="g276"><text
                             transform="matrix(1,0,0,-1,401.28,407.52)"
                             id="text278"><tspan
                               x="0 3.7199998 9.7200117 15.000017 20.280018 22.440029 24.720016 27.000029 30.720028"
                               y="0"
                               id="tspan280"
                               style="font-size:9px;font-variant:normal;font-weight:normal;writing-mode:lr-tb;fill:#000000;fill-opacity:1;fill-rule:nonzero;stroke:none;font-family:Helvetica;-inkscape-font-specification:Helvetica">xPositive</tspan></text>
</g><path
                           d="m 3563,3300 0,-19 -7,-6 0,-13 -6,0 -6,-6 0,-6 -6,0 -7,-6 0,-7 -12,0 -6,-6 -38,0 -6,6 -6,0 -7,7 -6,6 -6,0 0,6 -6,6 -7,0 0,13 -6,6 0,38 6,6 0,6 7,6 6,7 0,6 6,0 6,6 7,6 6,0 6,7 38,0 6,-7 12,0 0,-6 7,-6 6,0 0,-6 6,-7 6,-6 0,-6 7,-6 0,-19"
                           inkscape:connector-curvature="0"
                           id="path282"
                           style="fill:#bfbfbf;fill-opacity:1;fill-rule:evenodd;stroke:none" /><path
                           d="m 3569,3300 0,-19 -2,-4 -6,-6 -5,4 7,0 0,-13 -7,-6 -6,0 0,6 4,-4 -6,-6 -4,4 6,0 0,-6 -6,-6 -6,0 0,6 4,-4 -6,-7 -5,5 7,0 0,-7 -7,-6 -12,0 0,6 4,-4 -6,-6 -4,-2 -38,0 -4,2 -7,6 5,4 0,-6 -6,0 -5,2 -6,6 -6,7 4,4 0,-6 -6,0 -6,6 0,6 6,0 -5,-4 -6,6 5,4 0,-6 -7,0 -6,6 0,13 6,0 -4,-4 -6,6 -2,4 0,38 2,4 6,6 4,-4 -6,0 0,6 2,5 6,6 6,6 5,-4 -6,0 0,6 6,6 6,0 0,-6 -4,4 6,7 6,6 5,2 6,0 0,-7 -5,5 7,6 4,2 38,0 4,-2 6,-6 -4,-5 0,7 12,0 7,-7 0,-6 -7,0 5,5 6,-7 -4,-4 0,6 6,0 6,-6 0,-6 -6,0 4,4 6,-6 7,-6 2,-5 0,-6 -7,0 5,4 6,-6 2,-4 0,-19 z m -13,0 0,19 7,0 -5,-5 -6,7 -2,4 0,6 6,0 -4,-4 -6,6 -7,6 -1,5 0,6 6,0 0,-6 -6,0 -5,2 -6,6 -2,4 0,6 6,0 0,-6 -12,0 -5,2 -6,6 5,5 0,-7 -38,0 0,7 4,-5 -6,-6 -4,-2 -6,0 0,6 4,-4 -6,-6 -7,-6 -4,-2 -6,0 0,6 6,0 0,-6 -2,-5 -6,-6 -6,-6 -5,4 7,0 0,-6 -2,-4 -7,-7 -4,5 6,0 0,-38 -6,0 4,5 7,-7 2,-4 0,-13 -7,0 0,7 7,0 4,-2 6,-6 2,-5 0,-6 -6,0 0,6 6,0 4,-2 7,-6 6,-6 -4,-5 0,7 6,0 4,-2 6,-6 -4,-5 0,6 38,0 0,-6 -5,5 6,6 5,2 12,0 0,-7 -6,0 0,7 2,4 6,6 5,2 6,0 0,-6 -6,0 0,6 1,5 7,6 4,2 6,0 0,-7 -6,0 0,13 2,4 6,7 5,-5 -7,0 0,19"
                           inkscape:connector-curvature="0"
                           id="path284"
                           style="fill:#7f7f7f;fill-opacity:1;fill-rule:nonzero;stroke:none" /><g
                           transform="scale(8.33333,8.33333)"
                           id="g286"><text
                             transform="matrix(1,0,0,-1,288,520.8)"
                             id="text288"><tspan
                               x="0 3.7199998 9.7200117 15.000017 20.280018 22.560028 24.720016 27.000029 30.720028"
                               y="0"
                               id="tspan290"
                               style="font-size:9px;font-variant:normal;font-weight:normal;writing-mode:lr-tb;fill:#000000;fill-opacity:1;fill-rule:nonzero;stroke:none;font-family:Helvetica;-inkscape-font-specification:Helvetica">yPositive</tspan></text>
</g><path
                           d="m 2619,4244 0,-19 -6,-6 0,-13 -7,0 -6,-6 0,-6 -6,0 -6,-7 0,-6 -13,0 -6,-6 -38,0 -6,6 -6,0 -6,6 -7,7 -6,0 0,6 -6,6 -6,0 0,13 -7,6 0,37 7,7 0,6 6,6 6,6 0,7 6,0 7,6 6,6 6,0 6,6 38,0 6,-6 13,0 0,-6 6,-6 6,0 0,-7 6,-6 7,-6 0,-6 6,-7 0,-18"
                           inkscape:connector-curvature="0"
                           id="path292"
                           style="fill:#bfbfbf;fill-opacity:1;fill-rule:evenodd;stroke:none" /><path
                           d="m 2625,4244 0,-19 -2,-4 -6,-7 -4,5 6,0 0,-13 -6,-6 -7,0 0,6 5,-4 -7,-6 -4,4 6,0 0,-6 -6,-7 -6,0 0,7 4,-5 -6,-6 -4,4 6,0 0,-6 -6,-6 -13,0 0,6 4,-4 -6,-6 -4,-2 -38,0 -4,2 -6,6 4,4 0,-6 -6,0 -5,2 -6,6 -6,6 4,5 0,-7 -6,0 -6,7 0,6 6,0 -4,-4 -7,6 5,4 0,-6 -6,0 -7,6 0,13 7,0 -5,-5 -6,7 -2,4 0,37 2,5 6,6 5,-4 -7,0 0,6 2,4 6,7 7,6 4,-5 -6,0 0,7 6,6 6,0 0,-6 -4,4 6,6 6,7 5,1 6,0 0,-6 -4,5 6,6 4,2 38,0 4,-2 6,-6 -4,-5 0,6 13,0 6,-6 0,-6 -6,0 4,4 6,-6 -4,-4 0,6 6,0 6,-6 0,-7 -6,0 4,5 7,-6 6,-7 2,-4 0,-6 -6,0 4,4 6,-6 2,-5 0,-18 z m -12,0 0,18 6,0 -5,-4 -6,6 -2,5 0,6 7,0 -5,-4 -6,6 -6,6 -2,4 0,7 6,0 0,-7 -6,0 -5,2 -6,7 -2,4 0,6 7,0 0,-6 -13,0 -4,2 -7,6 5,4 0,-6 -38,0 0,6 5,-4 -7,-6 -4,-2 -6,0 0,6 4,-4 -6,-6 -6,-7 -5,-2 -6,0 0,7 6,0 0,-7 -2,-4 -6,-6 -6,-6 -4,4 6,0 0,-6 -2,-5 -6,-6 -5,4 7,0 0,-37 -7,0 5,4 6,-6 2,-4 0,-13 -6,0 0,6 6,0 4,-1 6,-7 2,-4 0,-6 -6,0 0,6 6,0 5,-2 6,-6 6,-6 -4,-5 0,6 6,0 4,-1 7,-7 -5,-4 0,6 38,0 0,-6 -5,4 7,7 4,1 13,0 0,-6 -7,0 0,6 2,5 6,6 5,2 6,0 0,-6 -6,0 0,6 2,4 6,7 4,1 7,0 0,-6 -7,0 0,13 2,4 6,6 5,-4 -6,0 0,19"
                           inkscape:connector-curvature="0"
                           id="path294"
                           style="fill:#7f7f7f;fill-opacity:1;fill-rule:nonzero;stroke:none" /><g
                           transform="scale(8.33333,8.33333)"
                           id="g296"><text
                             transform="matrix(1,0,0,-1,231,350.52)"
                             id="text298"><tspan
                               x="0 3.7199998 9.7199965 15.000003 20.280003 22.560015 24.720003 27.000013 30.720013"
                               y="0"
                               id="tspan300"
                               style="font-size:9px;font-variant:normal;font-weight:normal;writing-mode:lr-tb;fill:#000000;fill-opacity:1;fill-rule:nonzero;stroke:none;font-family:Helvetica;-inkscape-font-specification:Helvetica">zPositive</tspan></text>
</g><path
                           d="m 2144,2825 0,-19 -6,-6 0,-13 -7,0 -6,-6 0,-6 -6,0 -6,-6 0,-7 -13,0 -6,-6 -38,0 -6,6 -6,0 -6,7 -7,6 -6,0 0,6 -6,6 -6,0 0,13 -7,6 0,38 7,6 0,6 6,6 6,7 0,6 6,0 7,6 6,6 6,0 6,7 38,0 6,-7 13,0 0,-6 6,-6 6,0 0,-6 6,-7 7,-6 0,-6 6,-6 0,-19"
                           inkscape:connector-curvature="0"
                           id="path302"
                           style="fill:#bfbfbf;fill-opacity:1;fill-rule:evenodd;stroke:none" /><path
                           d="m 2150,2825 0,-19 -2,-4 -6,-6 -4,4 6,0 0,-13 -6,-6 -7,0 0,6 5,-4 -7,-6 -4,4 6,0 0,-6 -6,-6 -6,0 0,6 4,-4 -6,-7 -4,5 6,0 0,-7 -6,-6 -13,0 0,6 4,-4 -6,-6 -4,-2 -38,0 -4,2 -6,6 4,4 0,-6 -6,0 -5,2 -6,6 -6,7 4,4 0,-6 -6,0 -6,6 0,6 6,0 -4,-4 -7,6 5,4 0,-6 -6,0 -7,6 0,13 7,0 -5,-4 -6,6 -2,4 0,38 2,4 6,6 5,-4 -7,0 0,6 2,5 6,6 7,6 4,-4 -6,0 0,6 6,6 6,0 0,-6 -4,4 6,7 6,6 5,2 6,0 0,-7 -4,5 6,6 4,2 38,0 4,-2 6,-6 -4,-5 0,7 13,0 6,-7 0,-6 -6,0 4,5 6,-7 -4,-4 0,6 6,0 6,-6 0,-6 -6,0 4,4 7,-6 6,-6 2,-5 0,-6 -6,0 4,4 6,-6 2,-4 0,-19 z m -12,0 0,19 6,0 -5,-5 -6,7 -2,4 0,6 7,0 -5,-4 -6,6 -6,6 -2,5 0,6 6,0 0,-6 -6,0 -5,2 -6,6 -2,4 0,6 7,0 0,-6 -13,0 -4,2 -7,6 5,5 0,-7 -38,0 0,7 5,-5 -7,-6 -4,-2 -6,0 0,6 4,-4 -6,-6 -6,-6 -5,-2 -6,0 0,6 6,0 0,-6 -2,-5 -6,-6 -6,-6 -4,4 6,0 0,-6 -2,-4 -6,-7 -5,5 7,0 0,-38 -7,0 5,5 6,-7 2,-4 0,-13 -6,0 0,7 6,0 4,-2 6,-6 2,-5 0,-6 -6,0 0,6 6,0 5,-2 6,-6 6,-6 -4,-5 0,7 6,0 4,-2 7,-6 -5,-5 0,6 38,0 0,-6 -5,5 7,6 4,2 13,0 0,-7 -7,0 0,7 2,4 6,6 5,2 6,0 0,-6 -6,0 0,6 2,5 6,6 4,2 7,0 0,-7 -7,0 0,13 2,4 6,7 5,-5 -6,0 0,19"
                           inkscape:connector-curvature="0"
                           id="path304"
                           style="fill:#7f7f7f;fill-opacity:1;fill-rule:nonzero;stroke:none" /><path
                           d="m 3191,2775 0,-6 -1,-2 -7,-7 -6,-6 -2,-1 -12,0 -3,1 -6,6 -6,7 -1,2 0,12 1,2 6,7 6,6 3,1 12,0 2,-1 6,-6 7,-7 1,-2 0,-6 z m -7,0 0,6 4,0 -3,-2 -6,6 -6,7 2,2 0,-3 -12,0 0,3 2,-2 -7,-7 -6,-6 -2,2 3,0 0,-12 -3,0 2,2 6,-6 7,-7 -2,-2 0,3 12,0 0,-3 -2,2 6,7 6,6 3,-2 -4,0 0,6"
                           inkscape:connector-curvature="0"
                           id="path306"
                           style="fill:#2f6bfb;fill-opacity:1;fill-rule:nonzero;stroke:none" /><path
                           d="m 3194,2775 0,-13 -6,0 0,-6 -7,0 0,-6 -25,0 0,6 -6,0 0,6 -6,0 0,25 6,0 0,7 6,0 0,6 25,0 0,-6 7,0 0,-7 6,0 0,-12"
                           inkscape:connector-curvature="0"
                           id="path308"
                           style="fill:#ffffff;fill-opacity:1;fill-rule:evenodd;stroke:none" /><path
                           d="m 3197,2775 0,-13 -3,-3 -6,0 0,3 3,0 0,-6 -3,-3 -7,0 0,3 3,0 0,-6 -3,-3 -25,0 -3,3 0,6 3,0 0,-3 -6,0 -3,3 0,6 3,0 0,-3 -6,0 -3,3 0,25 3,4 6,0 0,-4 -3,0 0,7 3,3 6,0 0,-3 -3,0 0,6 3,3 25,0 3,-3 0,-6 -3,0 0,3 7,0 3,-3 0,-7 -3,0 0,4 6,0 3,-4 0,-12 z m -6,0 0,12 3,0 0,-3 -6,0 -4,3 0,7 4,0 0,-3 -7,0 -3,3 0,6 3,0 0,-3 -25,0 0,3 3,0 0,-6 -3,-3 -6,0 0,3 3,0 0,-7 -3,-3 -6,0 0,3 3,0 0,-25 -3,0 0,4 6,0 3,-4 0,-6 -3,0 0,3 6,0 3,-3 0,-6 -3,0 0,3 25,0 0,-3 -3,0 0,6 3,3 7,0 0,-3 -4,0 0,6 4,4 6,0 0,-4 -3,0 0,13"
                           inkscape:connector-curvature="0"
                           id="path310"
                           style="fill:#0b2bc5;fill-opacity:1;fill-rule:nonzero;stroke:none" /><path
                           d="m 3181,2775 0,-6 -6,0 0,-7 -12,0 0,7 -7,0 0,12 7,0 0,6 12,0 0,-6 6,0 0,-6"
                           inkscape:connector-curvature="0"
                           id="path312"
                           style="fill:#2f6bfb;fill-opacity:1;fill-rule:evenodd;stroke:none" /><path
                           d="m 3181,2775 0,-6 -6,0 0,-7 -12,0 0,7 -7,0 0,12 7,0 0,6 12,0 0,-6 6,0 0,-6 z"
                           inkscape:connector-curvature="0"
                           id="path314"
                           style="fill:none;stroke:#2f6bfb;stroke-width:1;stroke-linecap:round;stroke-linejoin:round;stroke-miterlimit:10;stroke-opacity:1;stroke-dasharray:none" /></g></g></g></g></g></g></g></g></g></g></g></svg>