<?xml version="1.0" encoding="UTF-8" standalone="no"?>
<!-- Created with Inkscape (http://www.inkscape.org/) -->

<svg
   xmlns:dc="http://purl.org/dc/elements/1.1/"
   xmlns:cc="http://creativecommons.org/ns#"
   xmlns:rdf="http://www.w3.org/1999/02/22-rdf-syntax-ns#"
   xmlns:svg="http://www.w3.org/2000/svg"
   xmlns="http://www.w3.org/2000/svg"
   xmlns:inkscape="http://www.inkscape.org/namespaces/inkscape"
   version="1.1"
   width="376.25"
   height="341.25"
   id="svg2"
   xml:space="preserve"><metadata
     id="metadata8"><rdf:RDF><cc:Work
         rdf:about=""><dc:format>image/svg+xml</dc:format><dc:type
           rdf:resource="http://purl.org/dc/dcmitype/StillImage" /></cc:Work></rdf:RDF></metadata><defs
     id="defs6"><clipPath
       id="clipPath18"><path
         d="M 0,0 301,0 301,273 0,273 0,0 z"
         inkscape:connector-curvature="0"
         id="path20" /></clipPath><clipPath
       id="clipPath28"><path
         d="M 0,0 301,0 301,273 0,273 0,0 z"
         inkscape:connector-curvature="0"
         id="path30" /></clipPath><clipPath
       id="clipPath38"><path
         d="M 0,0 301,0 301,273 0,273 0,0 z"
         inkscape:connector-curvature="0"
         id="path40" /></clipPath><clipPath
       id="clipPath48"><path
         d="M 0,0 301,0 301,273 0,273 0,0 z"
         inkscape:connector-curvature="0"
         id="path50" /></clipPath><clipPath
       id="clipPath58"><path
         d="M 0,0 301,0 301,273 0,273 0,0 z"
         inkscape:connector-curvature="0"
         id="path60" /></clipPath><clipPath
       id="clipPath68"><path
         d="M 0,0 301,0 301,273 0,273 0,0 z"
         inkscape:connector-curvature="0"
         id="path70" /></clipPath><clipPath
       id="clipPath78"><path
         d="M 0,0 301,0 301,273 0,273 0,0 z"
         inkscape:connector-curvature="0"
         id="path80" /></clipPath><clipPath
       id="clipPath88"><path
         d="M 0,0 301,0 301,273 0,273 0,0 z"
         inkscape:connector-curvature="0"
         id="path90" /></clipPath><clipPath
       id="clipPath98"><path
         d="M 0,0 301,0 301,273 0,273 0,0 z"
         inkscape:connector-curvature="0"
         id="path100" /></clipPath><clipPath
       id="clipPath108"><path
         d="M 0,0 301,0 301,273 0,273 0,0 z"
         inkscape:connector-curvature="0"
         id="path110" /></clipPath><clipPath
       id="clipPath118"><path
         d="M 0,0 301,0 301,273 0,273 0,0 z"
         inkscape:connector-curvature="0"
         id="path120" /></clipPath><clipPath
       id="clipPath128"><path
         d="M 0,0 301,0 301,273 0,273 0,0 z"
         inkscape:connector-curvature="0"
         id="path130" /></clipPath><clipPath
       id="clipPath138"><path
         d="M 0,0 301,0 301,273 0,273 0,0 z"
         inkscape:connector-curvature="0"
         id="path140" /></clipPath><clipPath
       id="clipPath148"><path
         d="M 0,0 301,0 301,273 0,273 0,0 z"
         inkscape:connector-curvature="0"
         id="path150" /></clipPath><clipPath
       id="clipPath158"><path
         d="M 0,0 291,0 291,263 0,263 0,0 z"
         inkscape:connector-curvature="0"
         id="path160" /></clipPath><clipPath
       id="clipPath168"><path
         d="M 0,0 291,0 291,263 0,263 0,0 z"
         inkscape:connector-curvature="0"
         id="path170" /></clipPath><clipPath
       id="clipPath178"><path
         d="M 0,0 291,0 291,263 0,263 0,0 z"
         inkscape:connector-curvature="0"
         id="path180" /></clipPath><clipPath
       id="clipPath188"><path
         d="M 0,0 291,0 291,263 0,263 0,0 z"
         inkscape:connector-curvature="0"
         id="path190" /></clipPath><clipPath
       id="clipPath198"><path
         d="M 0,0 291,0 291,263 0,263 0,0 z"
         inkscape:connector-curvature="0"
         id="path200" /></clipPath><clipPath
       id="clipPath208"><path
         d="M 0,0 291,0 291,263 0,263 0,0 z"
         inkscape:connector-curvature="0"
         id="path210" /></clipPath><clipPath
       id="clipPath218"><path
         d="M 0,0 291,0 291,263 0,263 0,0 z"
         inkscape:connector-curvature="0"
         id="path220" /></clipPath></defs><g
     transform="matrix(1.25,0,0,-1.25,0,341.25)"
     id="g10"><g
       id="g12"><g
         id="g14"><g
           clip-path="url(#clipPath18)"
           id="g16"><g
             id="g22"><g
               id="g24"><g
                 clip-path="url(#clipPath28)"
                 id="g26"><g
                   id="g32"><g
                     id="g34"><g
                       clip-path="url(#clipPath38)"
                       id="g36"><g
                         id="g42"><g
                           id="g44"><g
                             clip-path="url(#clipPath48)"
                             id="g46"><g
                               id="g52"><g
                                 id="g54"><g
                                   clip-path="url(#clipPath58)"
                                   id="g56"><g
                                   id="g62"><g
                                   id="g64"><g
                                   clip-path="url(#clipPath68)"
                                   id="g66"><g
                                   id="g72"><g
                                   id="g74"><g
                                   clip-path="url(#clipPath78)"
                                   id="g76"><g
                                   id="g82"><g
                                   id="g84"><g
                                   clip-path="url(#clipPath88)"
                                   id="g86"><g
                                   id="g92"><g
                                   id="g94"><g
                                   clip-path="url(#clipPath98)"
                                   id="g96"><g
                                   id="g102"><g
                                   id="g104"><g
                                   clip-path="url(#clipPath108)"
                                   id="g106"><g
                                   id="g112"><g
                                   id="g114"><g
                                   clip-path="url(#clipPath118)"
                                   id="g116"><g
                                   id="g122"><g
                                   id="g124"><g
                                   clip-path="url(#clipPath128)"
                                   id="g126"><g
                                   id="g132"><g
                                   id="g134"><g
                                   clip-path="url(#clipPath138)"
                                   id="g136"><g
                                   id="g142"><g
                                   id="g144"><g
                                   clip-path="url(#clipPath148)"
                                   id="g146"><g
                                   transform="translate(5,5)"
                                   id="g152"><g
                                   id="g154"><g
                                   clip-path="url(#clipPath158)"
                                   id="g156"><g
                                   id="g162"><g
                                   id="g164"><g
                                   clip-path="url(#clipPath168)"
                                   id="g166"><g
                                   id="g172"><g
                                   id="g174"><g
                                   clip-path="url(#clipPath178)"
                                   id="g176"><g
                                   id="g182"><g
                                   id="g184"><g
                                   clip-path="url(#clipPath188)"
                                   id="g186"><g
                                   id="g192"><g
                                   id="g194"><g
                                   clip-path="url(#clipPath198)"
                                   id="g196"><g
                                   id="g202"><g
                                   id="g204"><g
                                   clip-path="url(#clipPath208)"
                                   id="g206"><g
                                   id="g212"><g
                                   id="g214"><g
                                   clip-path="url(#clipPath218)"
                                   id="g216"><g
                                   id="g222" /></g></g></g></g></g></g></g></g></g></g></g></g></g></g></g></g></g></g></g></g></g></g></g></g></g></g></g></g></g></g></g></g></g></g></g></g></g></g></g></g></g></g></g></g></g></g></g></g></g></g></g></g></g></g></g></g></g></g></g></g></g></g></g></g></svg>