<?xml version="1.0" encoding="UTF-8" standalone="no"?>
<!-- Created with Inkscape (http://www.inkscape.org/) -->
<svg
   xmlns:svg="http://www.w3.org/2000/svg"
   xmlns="http://www.w3.org/2000/svg"
   version="1.0"
   width="1062.9"
   height="460.5"
   id="svg2440"
   xml:space="preserve"><defs
     id="defs2443" /><g
     transform="matrix(1.25,0,0,-1.25,0,460.5)"
     id="g2449"><text
       transform="matrix(1,0,0,-1,58.8,276.24)"
       id="text2451"><tspan
         x="0 23.826"
         y="0"
         id="tspan2453"
         style="font-size:33px;font-variant:normal;font-weight:normal;writing-mode:lr-tb;fill:#000000;fill-opacity:1;fill-rule:nonzero;stroke:none;font-family:Arial;-inkscape-font-specification:Arial">CF</tspan></text>
<text
       transform="matrix(1,0,0,-1,103.44,271.68)"
       id="text2455"><tspan
         x="0"
         y="0"
         id="tspan2457"
         style="font-size:22px;font-variant:normal;font-weight:normal;writing-mode:lr-tb;fill:#000000;fill-opacity:1;fill-rule:nonzero;stroke:none;font-family:Arial;-inkscape-font-specification:Arial">2</tspan></text>
<text
       transform="matrix(1,0,0,-1,133.68,313.44)"
       id="text2459"><tspan
         x="0 23.826"
         y="0"
         id="tspan2461"
         style="font-size:33px;font-variant:normal;font-weight:normal;writing-mode:lr-tb;fill:#000000;fill-opacity:1;fill-rule:nonzero;stroke:none;font-family:Arial;-inkscape-font-specification:Arial">CF</tspan></text>
<text
       transform="matrix(1,0,0,-1,178.32,308.88)"
       id="text2463"><tspan
         x="0"
         y="0"
         id="tspan2465"
         style="font-size:22px;font-variant:normal;font-weight:normal;writing-mode:lr-tb;fill:#000000;fill-opacity:1;fill-rule:nonzero;stroke:none;font-family:Arial;-inkscape-font-specification:Arial">2</tspan></text>
<text
       transform="matrix(1,0,0,-1,220.56,273.36)"
       id="text2467"><tspan
         x="0 23.826"
         y="0"
         id="tspan2469"
         style="font-size:33px;font-variant:normal;font-weight:normal;writing-mode:lr-tb;fill:#000000;fill-opacity:1;fill-rule:nonzero;stroke:none;font-family:Arial;-inkscape-font-specification:Arial">CF</tspan></text>
<text
       transform="matrix(1,0,0,-1,281.04,311.52)"
       id="text2471"><tspan
         x="0 23.826"
         y="0"
         id="tspan2473"
         style="font-size:33px;font-variant:normal;font-weight:normal;writing-mode:lr-tb;fill:#000000;fill-opacity:1;fill-rule:nonzero;stroke:none;font-family:Arial;-inkscape-font-specification:Arial">CF</tspan></text>
<text
       transform="matrix(1,0,0,-1,325.68,306.96)"
       id="text2475"><tspan
         x="0"
         y="0"
         id="tspan2477"
         style="font-size:22px;font-variant:normal;font-weight:normal;writing-mode:lr-tb;fill:#000000;fill-opacity:1;fill-rule:nonzero;stroke:none;font-family:Arial;-inkscape-font-specification:Arial">2</tspan></text>
<text
       transform="matrix(1,0,0,-1,205.92,203.52)"
       id="text2479"><tspan
         x="0"
         y="0"
         id="tspan2481"
         style="font-size:33px;font-variant:normal;font-weight:normal;writing-mode:lr-tb;fill:#000000;fill-opacity:1;fill-rule:nonzero;stroke:none;font-family:Arial;-inkscape-font-specification:Arial">O</tspan></text>
<text
       transform="matrix(1,0,0,-1,234.96,141.36)"
       id="text2483"><tspan
         x="0 23.826"
         y="0"
         id="tspan2485"
         style="font-size:33px;font-variant:normal;font-weight:normal;writing-mode:lr-tb;fill:#000000;fill-opacity:1;fill-rule:nonzero;stroke:none;font-family:Arial;-inkscape-font-specification:Arial">CF</tspan></text>
<text
       transform="matrix(1,0,0,-1,279.6,136.8)"
       id="text2487"><tspan
         x="0"
         y="0"
         id="tspan2489"
         style="font-size:22px;font-variant:normal;font-weight:normal;writing-mode:lr-tb;fill:#000000;fill-opacity:1;fill-rule:nonzero;stroke:none;font-family:Arial;-inkscape-font-specification:Arial">2</tspan></text>
<text
       transform="matrix(1,0,0,-1,305.28,97.2)"
       id="text2491"><tspan
         x="0 20.163"
         y="0"
         id="tspan2493"
         style="font-size:33px;font-variant:normal;font-weight:normal;writing-mode:lr-tb;fill:#000000;fill-opacity:1;fill-rule:nonzero;stroke:none;font-family:Arial;-inkscape-font-specification:Arial">FC</tspan></text>
<text
       transform="matrix(1,0,0,-1,412.08,133.44)"
       id="text2495"><tspan
         x="0"
         y="0"
         id="tspan2497"
         style="font-size:33px;font-variant:normal;font-weight:normal;writing-mode:lr-tb;fill:#000000;fill-opacity:1;fill-rule:nonzero;stroke:none;font-family:Arial;-inkscape-font-specification:Arial">O</tspan></text>
<text
       transform="matrix(1,0,0,-1,327.6,16.08)"
       id="text2499"><tspan
         x="0 23.826"
         y="0"
         id="tspan2501"
         style="font-size:33px;font-variant:normal;font-weight:normal;writing-mode:lr-tb;fill:#000000;fill-opacity:1;fill-rule:nonzero;stroke:none;font-family:Arial;-inkscape-font-specification:Arial">CF</tspan></text>
<text
       transform="matrix(1,0,0,-1,372.24,11.52)"
       id="text2503"><tspan
         x="0"
         y="0"
         id="tspan2505"
         style="font-size:22px;font-variant:normal;font-weight:normal;writing-mode:lr-tb;fill:#000000;fill-opacity:1;fill-rule:nonzero;stroke:none;font-family:Arial;-inkscape-font-specification:Arial">3</tspan></text>
<text
       transform="matrix(1,0,0,-1,484.08,94.56)"
       id="text2507"><tspan
         x="0 23.826"
         y="0"
         id="tspan2509"
         style="font-size:33px;font-variant:normal;font-weight:normal;writing-mode:lr-tb;fill:#000000;fill-opacity:1;fill-rule:nonzero;stroke:none;font-family:Arial;-inkscape-font-specification:Arial">CF</tspan></text>
<text
       transform="matrix(1,0,0,-1,528.72,90)"
       id="text2511"><tspan
         x="0"
         y="0"
         id="tspan2513"
         style="font-size:22px;font-variant:normal;font-weight:normal;writing-mode:lr-tb;fill:#000000;fill-opacity:1;fill-rule:nonzero;stroke:none;font-family:Arial;-inkscape-font-specification:Arial">2</tspan></text>
<text
       transform="matrix(1,0,0,-1,553.44,136.56)"
       id="text2515"><tspan
         x="0 23.826"
         y="0"
         id="tspan2517"
         style="font-size:33px;font-variant:normal;font-weight:normal;writing-mode:lr-tb;fill:#000000;fill-opacity:1;fill-rule:nonzero;stroke:none;font-family:Arial;-inkscape-font-specification:Arial">CF</tspan></text>
<text
       transform="matrix(1,0,0,-1,598.08,132)"
       id="text2519"><tspan
         x="0"
         y="0"
         id="tspan2521"
         style="font-size:22px;font-variant:normal;font-weight:normal;writing-mode:lr-tb;fill:#000000;fill-opacity:1;fill-rule:nonzero;stroke:none;font-family:Arial;-inkscape-font-specification:Arial">2</tspan></text>
<text
       x="627.03998"
       y="-99.279999"
       transform="scale(1,-1)"
       id="text2523"><tspan
         x="627.03998"
         y="-99.279999"
         id="tspan2525"
         style="font-size:33px;font-variant:normal;font-weight:normal;writing-mode:lr-tb;fill:#000000;fill-opacity:1;fill-rule:nonzero;stroke:none;font-family:Arial;-inkscape-font-specification:Arial">S</tspan></text>
<text
       x="664"
       y="-170.32001"
       transform="scale(1,-1)"
       id="text2527"><tspan
         x="664"
         y="-170.32001"
         id="tspan2529"
         style="font-size:33px;font-variant:normal;font-weight:normal;writing-mode:lr-tb;fill:#000000;fill-opacity:1;fill-rule:nonzero;stroke:none;font-family:Arial;-inkscape-font-specification:Arial">O</tspan></text>
<text
       transform="matrix(1,0,0,-1,584.4,26.64)"
       id="text2531"><tspan
         x="0"
         y="0"
         id="tspan2533"
         style="font-size:33px;font-variant:normal;font-weight:normal;writing-mode:lr-tb;fill:#000000;fill-opacity:1;fill-rule:nonzero;stroke:none;font-family:Arial;-inkscape-font-specification:Arial">O</tspan></text>
<text
       transform="matrix(1,0,0,-1,560.4,26.64)"
       id="text2535"><tspan
         x="0"
         y="0"
         id="tspan2537"
         style="font-size:33px;font-variant:normal;font-weight:normal;writing-mode:lr-tb;fill:#000000;fill-opacity:1;fill-rule:nonzero;stroke:none;font-family:Arial;-inkscape-font-specification:Arial">H</tspan></text>
<text
       transform="matrix(1,0,0,-1,694.56,58.8)"
       id="text2539"><tspan
         x="0"
         y="0"
         id="tspan2541"
         style="font-size:33px;font-variant:normal;font-weight:normal;writing-mode:lr-tb;fill:#000000;fill-opacity:1;fill-rule:nonzero;stroke:none;font-family:Arial;-inkscape-font-specification:Arial">O</tspan></text>
<path
       d="M 1.44,335.76 L 55.2,300"
       id="path2543"
       style="fill:none;stroke:#000000;stroke-width:2.4000001;stroke-linecap:round;stroke-linejoin:miter;stroke-miterlimit:10;stroke-dasharray:none;stroke-opacity:1" /><path
       d="M 105.6,306.72 L 130.08,318.96"
       id="path2545"
       style="fill:none;stroke:#000000;stroke-width:2.4000001;stroke-linecap:round;stroke-linejoin:miter;stroke-miterlimit:10;stroke-dasharray:none;stroke-opacity:1" /><path
       d="M 189.12,306.72 L 216.96,293.76"
       id="path2547"
       style="fill:none;stroke:#000000;stroke-width:2.4000001;stroke-linecap:round;stroke-linejoin:miter;stroke-miterlimit:10;stroke-dasharray:none;stroke-opacity:1" /><path
       d="M 259.92,303.84 L 277.44,314.88"
       id="path2549"
       style="fill:none;stroke:#000000;stroke-width:2.4000001;stroke-linecap:round;stroke-linejoin:miter;stroke-miterlimit:10;stroke-dasharray:none;stroke-opacity:1" /><path
       d="M 330.24,304.8 L 376.56,280.08"
       id="path2551"
       style="fill:none;stroke:#000000;stroke-width:2.4000001;stroke-linecap:round;stroke-linejoin:miter;stroke-miterlimit:10;stroke-dasharray:none;stroke-opacity:1" /><path
       d="M 229.2,269.76 L 222.24,234"
       id="path2553"
       style="fill:none;stroke:#000000;stroke-width:2.4000001;stroke-linecap:round;stroke-linejoin:miter;stroke-miterlimit:10;stroke-dasharray:none;stroke-opacity:1" /><path
       d="M 226.56,199.92 L 239.28,171.84"
       id="path2555"
       style="fill:none;stroke:#000000;stroke-width:2.4000001;stroke-linecap:round;stroke-linejoin:miter;stroke-miterlimit:10;stroke-dasharray:none;stroke-opacity:1" /><path
       d="M 288.24,134.64 L 302.64,127.68"
       id="path2557"
       style="fill:none;stroke:#000000;stroke-width:2.4000001;stroke-linecap:round;stroke-linejoin:miter;stroke-miterlimit:10;stroke-dasharray:none;stroke-opacity:1" /><path
       d="M 353.28,116.88 L 408.48,139.92"
       id="path2559"
       style="fill:none;stroke:#000000;stroke-width:2.4000001;stroke-linecap:round;stroke-linejoin:miter;stroke-miterlimit:10;stroke-dasharray:none;stroke-opacity:1" /><path
       d="M 338.16,93.6 L 339.12,46.56"
       id="path2561"
       style="fill:none;stroke:#000000;stroke-width:2.4000001;stroke-linecap:round;stroke-linejoin:miter;stroke-miterlimit:10;stroke-dasharray:none;stroke-opacity:1" /><path
       d="M 441.6,137.76 L 480.48,116.4"
       id="path2563"
       style="fill:none;stroke:#000000;stroke-width:2.4000001;stroke-linecap:round;stroke-linejoin:miter;stroke-miterlimit:10;stroke-dasharray:none;stroke-opacity:1" /><path
       d="M 524.4,125.04 L 549.84,140.4"
       id="path2565"
       style="fill:none;stroke:#000000;stroke-width:2.4000001;stroke-linecap:round;stroke-linejoin:miter;stroke-miterlimit:10;stroke-dasharray:none;stroke-opacity:1" /><path
       d="M 602.16,129.84 L 621.84,119.04"
       id="path2567"
       style="fill:none;stroke:#000000;stroke-width:2.4000001;stroke-linecap:round;stroke-linejoin:miter;stroke-miterlimit:10;stroke-dasharray:none;stroke-opacity:1" /><path
       d="M 650.64,128.16 L 670.8,165.12"
       id="path2569"
       style="fill:none;stroke:#000000;stroke-width:2.4000001;stroke-linecap:round;stroke-linejoin:miter;stroke-miterlimit:10;stroke-dasharray:none;stroke-opacity:1" /><path
       d="M 644.24,131.36 L 664.4,168.32"
       id="path2571"
       style="fill:none;stroke:#000000;stroke-width:2.4000001;stroke-linecap:round;stroke-linejoin:miter;stroke-miterlimit:10;stroke-dasharray:none;stroke-opacity:1" /><path
       d="M 627.36,94.08 L 606.96,57.12"
       id="path2573"
       style="fill:none;stroke:#000000;stroke-width:2.4000001;stroke-linecap:round;stroke-linejoin:miter;stroke-miterlimit:10;stroke-dasharray:none;stroke-opacity:1" /><path
       d="M 651.36,98.16 L 690.96,76.56"
       id="path2575"
       style="fill:none;stroke:#000000;stroke-width:2.4000001;stroke-linecap:round;stroke-linejoin:miter;stroke-miterlimit:10;stroke-dasharray:none;stroke-opacity:1" /><path
       d="M 656.01235,106.19691 L 695.61235,84.596912"
       id="path2577"
       style="fill:none;stroke:#000000;stroke-width:2.4000001;stroke-linecap:round;stroke-linejoin:miter;stroke-miterlimit:10;stroke-dasharray:none;stroke-opacity:1" /><path
       d="M 195.84,250.8 L 203.76,250.8 L 203.76,250.08 L 198,250.08 L 198,72.72 L 203.76,72.72 L 203.76,72 L 195.84,72 L 195.84,250.8 z"
       id="path2579"
       style="fill:#000000;fill-opacity:1;fill-rule:evenodd;stroke:#000000;stroke-width:0.23999999;stroke-linecap:round;stroke-linejoin:miter;stroke-miterlimit:10;stroke-dasharray:none;stroke-opacity:1" /><path
       d="M 377.04,250.8 L 369.12,250.8 L 369.12,250.08 L 374.88,250.08 L 374.88,72.72 L 369.12,72.72 L 369.12,72 L 377.04,72 L 377.04,250.8 z"
       id="path2581"
       style="fill:#000000;fill-opacity:1;fill-rule:evenodd;stroke:#000000;stroke-width:0.23999999;stroke-linecap:round;stroke-linejoin:miter;stroke-miterlimit:10;stroke-dasharray:none;stroke-opacity:1" /><text
       transform="matrix(1,0,0,-1,202.08,275.04)"
       id="text2583"><tspan
         x="0"
         y="0"
         id="tspan2585"
         style="font-size:20px;font-variant:normal;font-weight:normal;writing-mode:lr-tb;fill:#000000;fill-opacity:1;fill-rule:nonzero;stroke:none;font-family:Arial;-inkscape-font-specification:Arial">x</tspan></text>
<text
       transform="matrix(1,0,0,-1,348.96,273.12)"
       id="text2587"><tspan
         x="0"
         y="0"
         id="tspan2589"
         style="font-size:20px;font-variant:normal;font-weight:normal;writing-mode:lr-tb;fill:#000000;fill-opacity:1;fill-rule:nonzero;stroke:none;font-family:Arial;-inkscape-font-specification:Arial">y</tspan></text>
<text
       transform="matrix(1,0,0,-1,382.32,69.6)"
       id="text2591"><tspan
         x="0"
         y="0"
         id="tspan2593"
         style="font-size:20px;font-variant:normal;font-weight:normal;writing-mode:lr-tb;fill:#000000;fill-opacity:1;fill-rule:nonzero;stroke:none;font-family:Arial;-inkscape-font-specification:Arial">z</tspan></text>
<path
       d="M 10.08,360.48 L 17.76,360.48 L 17.76,359.76 L 12.24,359.76 L 12.24,272.88 L 17.76,272.88 L 17.76,272.16 L 10.08,272.16 L 10.08,360.48 z"
       id="path2595"
       style="fill:#000000;fill-opacity:1;fill-rule:evenodd;stroke:#000000;stroke-width:0.23999999;stroke-linecap:round;stroke-linejoin:miter;stroke-miterlimit:10;stroke-dasharray:none;stroke-opacity:1" /><path
       d="M 347.04,360.48 L 339.36,360.48 L 339.36,359.76 L 344.88,359.76 L 344.88,272.88 L 339.36,272.88 L 339.36,272.16 L 347.04,272.16 L 347.04,360.48 z"
       id="path2597"
       style="fill:#000000;fill-opacity:1;fill-rule:evenodd;stroke:#000000;stroke-width:0.23999999;stroke-linecap:round;stroke-linejoin:miter;stroke-miterlimit:10;stroke-dasharray:none;stroke-opacity:1" /><path
       d="M 38.88,353.28 L 38.16,352.8 L 37.44,351.6 L 36.48,350.16 L 35.76,348.48 L 35.04,346.8 L 34.32,343.92 L 33.36,341.04 L 32.88,337.92 L 32.16,333.84 L 31.68,329.28 L 31.2,324.72 L 30.96,318.96 L 30.96,313.2 L 31.2,307.44 L 31.68,302.64 L 32.16,298.32 L 32.88,294 L 33.36,290.88 L 34.32,288 L 35.04,285.36 L 35.76,283.44 L 36.48,281.76 L 37.44,280.56 L 38.16,279.12 L 38.64,278.88 L 38.88,278.64 L 38.4,279.12 L 37.92,279.6 L 37.44,280.8 L 36.72,282.24 L 36,284.4 L 35.52,287.04 L 34.8,290.88 L 34.32,294.96 L 33.84,300.24 L 33.36,306.96 L 33.12,313.92 L 33.12,321.12 L 33.6,327.84 L 33.84,333.6 L 34.56,338.64 L 35.04,342.72 L 35.76,346.08 L 36.48,348.72 L 36.96,350.16 L 37.44,351.6 L 38.16,352.56 L 38.64,353.04 L 38.88,353.28 z"
       id="path2599"
       style="fill:#000000;fill-opacity:1;fill-rule:evenodd;stroke:#000000;stroke-width:0.23999999;stroke-linecap:round;stroke-linejoin:miter;stroke-miterlimit:10;stroke-dasharray:none;stroke-opacity:1" /><path
       d="M 195.84,353.28 L 196.32,352.8 L 197.28,351.6 L 198,350.16 L 198.72,348.48 L 199.44,346.8 L 200.4,343.92 L 201.12,341.04 L 201.84,337.92 L 202.56,333.84 L 203.04,329.28 L 203.28,324.72 L 203.52,318.96 L 203.52,313.2 L 203.28,307.44 L 203.04,302.64 L 202.56,298.32 L 201.84,294 L 201.12,290.88 L 200.4,288 L 199.44,285.36 L 198.72,283.44 L 198,281.76 L 197.28,280.56 L 196.32,279.12 L 196.08,278.88 L 195.84,278.64 L 196.32,279.12 L 196.56,279.6 L 197.28,280.8 L 197.76,282.24 L 198.48,284.4 L 199.2,287.04 L 199.68,290.88 L 200.4,294.96 L 200.88,300.24 L 201.36,306.96 L 201.36,313.92 L 201.36,321.12 L 201.12,327.84 L 200.64,333.6 L 200.16,338.64 L 199.44,342.72 L 198.72,346.08 L 198.24,348.72 L 197.52,350.16 L 197.04,351.6 L 196.32,352.56 L 196.08,353.04 L 195.84,353.28 z"
       id="path2601"
       style="fill:#000000;fill-opacity:1;fill-rule:evenodd;stroke:#000000;stroke-width:0.23999999;stroke-linecap:round;stroke-linejoin:miter;stroke-miterlimit:10;stroke-dasharray:none;stroke-opacity:1" /><text
       transform="matrix(1,0,0,-1,756.24,100.56)"
       id="text2603"><tspan
         x="0 17 26.452"
         y="0"
         id="tspan2605"
         style="font-size:34px;font-variant:normal;font-weight:normal;writing-mode:lr-tb;fill:#000000;fill-opacity:1;fill-rule:nonzero;stroke:none;font-family:Arial;-inkscape-font-specification:Arial">x H</tspan></text>
<text
       transform="matrix(1,0,0,-1,807.36,96)"
       id="text2607"><tspan
         x="0"
         y="0"
         id="tspan2609"
         style="font-size:22px;font-variant:normal;font-weight:normal;writing-mode:lr-tb;fill:#000000;fill-opacity:1;fill-rule:nonzero;stroke:none;font-family:Arial;-inkscape-font-specification:Arial">2</tspan></text>
<text
       transform="matrix(1,0,0,-1,820.32,100.56)"
       id="text2611"><tspan
         x="0"
         y="0"
         id="tspan2613"
         style="font-size:34px;font-variant:normal;font-weight:normal;writing-mode:lr-tb;fill:#000000;fill-opacity:1;fill-rule:nonzero;stroke:none;font-family:Arial;-inkscape-font-specification:Arial">O</tspan></text>
</g></svg>