<?xml version="1.0" encoding="iso-8859-1"?>
<!DOCTYPE svg PUBLIC "-//W3C//DTD SVG 1.0//EN" "http://www.w3.org/TR/2001/REC-SVG-20010904/DTD/svg10.dtd">
<!-- Creator: CorelDRAW -->
<svg xmlns="http://www.w3.org/2000/svg" xmlns:odm="http://product.corel.com/CGS/11/cddns/" xml:space="preserve" width="600px" height="541px" style="shape-rendering:geometricPrecision; text-rendering:geometricPrecision; image-rendering:optimizeQuality; fill-rule:evenodd"
     viewBox="0 0 600 542">
 <defs>
  <style type="text/css">
   <![CDATA[
    .str1 {stroke:#000000;stroke-width:2}
    .str0 {stroke:#000000;stroke-width:2;stroke-linejoin:round}
    .fil3 {fill:none}
    .fil2 {fill:#BB00BB}
    .fil1 {fill:#C400C4}
    .fil0 {fill:#D100D1}
   ]]>
  </style>
 </defs>
 <g id="Layer 1">
  <path class="fil0 str0" d="M32 135l284 102 19 294 -218 -149 -85 -247z"/>
  <path class="fil1 str0" d="M564 47l-238 -27 -294 115 284 102 248 -190z"/>
  <path class="fil2 str0" d="M335 531l188 -249 41 -235 -248 191 19 293z"/>
  <path class="fil3 str1" d="M78 117l280 88 7 287"/>
  <path class="fil3 str1" d="M118 102l277 75 -4 280"/>
  <path class="fil3 str1" d="M168 82l269 63 -16 272"/>
  <path class="fil3 str1" d="M234 56l256 48 -29 259"/>
  <path class="fil3 str1" d="M291 34l246 34 -38 245"/>
  <path class="fil3 str1" d="M49 128l283 97 14 292"/>
  <path class="fil3 str1" d="M531 234l-200 233 -232 -137"/>
  <path class="fil3 str1" d="M538 193l-210 236 -242 -137"/>
  <path class="fil3 str1" d="M542 170l-216 232 -247 -132"/>
  <path class="fil3 str1" d="M550 130l-227 218 -260 -124"/>
  <path class="fil3 str1" d="M483 38l-272 161 51 282"/>
  <path class="fil3 str1" d="M440 33l-282 147 64 273"/>
  <path class="fil3 str1" d="M416 31l-283 140 65 266"/>
  <path class="fil3 str1" d="M381 27l-291 129 77 260"/>
 </g>
</svg>
