<?xml version="1.0" encoding="UTF-8" standalone="no"?>
<!-- Created with Inkscape (http://www.inkscape.org/) -->

<svg
   xmlns:dc="http://purl.org/dc/elements/1.1/"
   xmlns:cc="http://creativecommons.org/ns#"
   xmlns:rdf="http://www.w3.org/1999/02/22-rdf-syntax-ns#"
   xmlns:svg="http://www.w3.org/2000/svg"
   xmlns="http://www.w3.org/2000/svg"
   xmlns:sodipodi="http://sodipodi.sourceforge.net/DTD/sodipodi-0.dtd"
   xmlns:inkscape="http://www.inkscape.org/namespaces/inkscape"
   version="1.2"
   width="97.438408"
   height="98.116257"
   id="svg2"
   inkscape:version="0.48.3.1 r9886"
   sodipodi:docname="3-Exchange4Hub.svg">
  <sodipodi:namedview
     pagecolor="#ffffff"
     bordercolor="#666666"
     borderopacity="1"
     objecttolerance="10"
     gridtolerance="10"
     guidetolerance="10"
     inkscape:pageopacity="0"
     inkscape:pageshadow="2"
     inkscape:window-width="1487"
     inkscape:window-height="945"
     id="namedview88"
     showgrid="true"
     inkscape:zoom="6.0707397"
     inkscape:cx="33.380074"
     inkscape:cy="51.139113"
     inkscape:window-x="0"
     inkscape:window-y="24"
     inkscape:window-maximized="0"
     inkscape:current-layer="layer1"
     inkscape:snap-grids="false"
     fit-margin-left="5"
     fit-margin-top="5"
     fit-margin-bottom="5"
     fit-margin-right="5"
     inkscape:snap-to-guides="false"
     inkscape:snap-object-midpoints="true">
    <inkscape:grid
       type="xygrid"
       id="grid3135"
       empspacing="5"
       visible="true"
       enabled="true"
       snapvisiblegridlinesonly="true"
       originx="-11.434354px"
       originy="-6.0934903px"
       spacingx="10px"
       spacingy="10px" />
  </sodipodi:namedview>
  <defs
     id="defs4">
    <marker
       refX="0"
       refY="0"
       orient="auto"
       id="Arrow1Lstart"
       style="overflow:visible">
      <path
         d="M 0,0 5,-5 -12.5,0 5,5 0,0 z"
         transform="matrix(0.8,0,0,0.8,10,0)"
         id="path5896"
         style="fill-rule:evenodd;stroke:#000000;stroke-width:1pt;marker-start:none"
         inkscape:connector-curvature="0" />
    </marker>
    <marker
       refX="0"
       refY="0"
       orient="auto"
       id="Arrow1Lend"
       style="overflow:visible">
      <path
         d="M 0,0 5,-5 -12.5,0 5,5 0,0 z"
         transform="matrix(-0.8,0,0,-0.8,-10,0)"
         id="path5899"
         style="fill-rule:evenodd;stroke:#000000;stroke-width:1pt;marker-start:none"
         inkscape:connector-curvature="0" />
    </marker>
  </defs>
  <metadata
     id="metadata7">
    <rdf:RDF>
      <cc:Work
         rdf:about="">
        <dc:format>image/svg+xml</dc:format>
        <dc:type
           rdf:resource="http://purl.org/dc/dcmitype/StillImage" />
        <dc:title />
      </cc:Work>
    </rdf:RDF>
  </metadata>
  <g
     transform="translate(29.610158,-629.60198)"
     id="layer1">
    <g
       id="g5974"
       transform="matrix(0.82760584,0,0,0.83199984,-2.062571,66.964373)" />
    <flowRoot
       style="font-size:12px;font-style:normal;font-variant:normal;font-weight:normal;font-stretch:normal;text-align:center;line-height:100%;letter-spacing:0px;word-spacing:0px;writing-mode:lr-tb;text-anchor:middle;fill:#000000;fill-opacity:1;stroke:none;font-family:FreeSans;-inkscape-font-specification:FreeSans"
       xml:space="preserve"
       id="flowRoot5829"
       transform="matrix(0.8,0,0,0.8,-14.219802,432.16163)"><flowRegion
         id="flowRegion5831"><rect
           id="rect5833"
           y="-15.714287"
           x="-30.714285"
           height="47.142857"
           width="85.714287" /></flowRegion><flowPara
         id="flowPara5835" /></flowRoot>    <path
       d="m -16.831958,718.71063 a 3.7641026,3.7641026 0 0 1 -7.528194,0 3.7641026,3.7641026 0 1 1 7.528194,0 z"
       id="path7586-2"
       style="fill:#000000;fill-opacity:1;stroke:#000000;stroke-width:0.5;stroke-linecap:round;stroke-miterlimit:4;stroke-opacity:1;stroke-dasharray:none;stroke-dashoffset:0"
       inkscape:connector-curvature="0" />
    <path
       d="m 62.578249,718.70856 a 3.7641026,3.7641026 0 0 1 -7.5282,0 3.7641026,3.7641026 0 1 1 7.5282,0 z"
       id="path7586-1"
       style="fill:#000000;fill-opacity:1;stroke:#000000;stroke-width:0.5;stroke-linecap:round;stroke-miterlimit:4;stroke-opacity:1;stroke-dasharray:none;stroke-dashoffset:0"
       inkscape:connector-curvature="0" />
    <path
       d="m -16.831958,638.62258 a 3.7641026,3.7641026 0 0 1 -7.528194,0 3.7641026,3.7641026 0 1 1 7.528194,0 z"
       id="path7586-2-2"
       style="fill:#000000;fill-opacity:1;stroke:#000000;stroke-width:0.5;stroke-linecap:round;stroke-miterlimit:4;stroke-opacity:1;stroke-dasharray:none;stroke-dashoffset:0"
       inkscape:connector-curvature="0" />
    <path
       d="m 62.57825,638.62006 a 3.7641026,3.7641026 0 0 1 -7.528201,0 3.7641026,3.7641026 0 1 1 7.528201,0 z"
       id="path7586-1-0"
       style="fill:#000000;fill-opacity:1;stroke:#000000;stroke-width:0.5;stroke-linecap:round;stroke-miterlimit:4;stroke-opacity:1;stroke-dasharray:none;stroke-dashoffset:0"
       inkscape:connector-curvature="0" />
    <path
       sodipodi:nodetypes="cccccccc"
       d="m -20.596055,718.70414 14.1929789,-14.37448 -1.408733,-4.24814 8.48529001,2.82844 -2.82844101,-8.48528 8.485296,2.82841 -1.414228,-4.24263 14.1929391,-14.3745"
       id="path3081"
       style="fill:none;stroke:#000000;stroke-width:1px;stroke-linecap:butt;stroke-linejoin:miter;stroke-opacity:1"
       inkscape:connector-curvature="0" />
    <path
       inkscape:connector-curvature="0"
       style="fill:none;stroke:#000000;stroke-width:1px;stroke-linecap:butt;stroke-linejoin:miter;stroke-opacity:1"
       id="path3014"
       d="m 19.290586,678.47857 -14.3744805,-14.19298 -4.24814006,1.40874 2.82844006,-8.48529 -8.48528,2.82844 2.82841,-8.4853 -4.24263,1.41423 -14.3744995,-14.19294"
       sodipodi:nodetypes="cccccccc" />
    <path
       sodipodi:nodetypes="cccccccc"
       d="m 19.109046,678.63596 -14.19298,14.37448 1.40874,4.24814 -8.48529,-2.82844 2.82844,8.48528 -8.4853,-2.82841 1.41423,4.24263 -14.19294,14.3745"
       id="path3016"
       style="fill:none;stroke:#000000;stroke-width:1px;stroke-linecap:butt;stroke-linejoin:miter;stroke-opacity:1"
       inkscape:connector-curvature="0" />
    <path
       inkscape:connector-curvature="0"
       style="fill:none;stroke:#000000;stroke-width:1px;stroke-linecap:butt;stroke-linejoin:miter;stroke-opacity:1"
       id="path3018"
       d="m 18.927512,678.8175 14.37448,14.19298 4.24814,-1.40874 -2.82844,8.48529 8.48528,-2.82844 -2.82841,8.4853 4.24263,-1.41423 14.3745,14.19294"
       sodipodi:nodetypes="cccccccc" />
    <path
       sodipodi:nodetypes="cccccccc"
       d="m 58.814151,638.59193 -14.19298,14.37448 1.40874,4.24814 -8.48529,-2.82844 2.82844,8.48528 -8.4853,-2.82841 1.41423,4.24263 -14.19294,14.3745"
       id="path3020"
       style="fill:none;stroke:#000000;stroke-width:1px;stroke-linecap:butt;stroke-linejoin:miter;stroke-opacity:1"
       inkscape:connector-curvature="0" />
    <path
       d="m 22.873147,678.64038 a 3.7641026,3.7641026 0 0 1 -7.5282,0 3.7641026,3.7641026 0 1 1 7.5282,0 z"
       id="path7586"
       style="fill:#ffffff;fill-opacity:1;stroke:#000000;stroke-width:0.5;stroke-linecap:round;stroke-miterlimit:4;stroke-opacity:1;stroke-dasharray:none;stroke-dashoffset:0"
       inkscape:connector-curvature="0" />
  </g>
</svg>
