<?xml version="1.0" encoding="UTF-8" standalone="no"?>
<!-- Created with Inkscape (http://www.inkscape.org/) -->

<svg
   xmlns:dc="http://purl.org/dc/elements/1.1/"
   xmlns:cc="http://creativecommons.org/ns#"
   xmlns:rdf="http://www.w3.org/1999/02/22-rdf-syntax-ns#"
   xmlns:svg="http://www.w3.org/2000/svg"
   xmlns="http://www.w3.org/2000/svg"
   xmlns:sodipodi="http://sodipodi.sourceforge.net/DTD/sodipodi-0.dtd"
   xmlns:inkscape="http://www.inkscape.org/namespaces/inkscape"
   version="1.2"
   width="120"
   height="110"
   id="svg2"
   inkscape:version="0.48.3.1 r9886"
   sodipodi:docname="3-Exchange3Hub.svg">
  <sodipodi:namedview
     pagecolor="#ffffff"
     bordercolor="#666666"
     borderopacity="1"
     objecttolerance="10"
     gridtolerance="10"
     guidetolerance="10"
     inkscape:pageopacity="0"
     inkscape:pageshadow="2"
     inkscape:window-width="1487"
     inkscape:window-height="945"
     id="namedview88"
     showgrid="true"
     inkscape:zoom="8.5853224"
     inkscape:cx="75.232561"
     inkscape:cy="60.591726"
     inkscape:window-x="0"
     inkscape:window-y="24"
     inkscape:window-maximized="0"
     inkscape:current-layer="g7796"
     inkscape:snap-grids="false"
     fit-margin-left="5"
     fit-margin-top="5"
     fit-margin-bottom="5"
     fit-margin-right="5"
     inkscape:snap-to-guides="false">
    <inkscape:grid
       type="xygrid"
       id="grid3135"
       empspacing="5"
       visible="true"
       enabled="true"
       snapvisiblegridlinesonly="true"
       originx="0px"
       originy="0px"
       spacingx="10px"
       spacingy="10px" />
  </sodipodi:namedview>
  <defs
     id="defs4">
    <marker
       refX="0"
       refY="0"
       orient="auto"
       id="Arrow1Lstart"
       style="overflow:visible">
      <path
         d="M 0,0 5,-5 -12.5,0 5,5 0,0 z"
         transform="matrix(0.8,0,0,0.8,10,0)"
         id="path5896"
         style="fill-rule:evenodd;stroke:#000000;stroke-width:1pt;marker-start:none"
         inkscape:connector-curvature="0" />
    </marker>
    <marker
       refX="0"
       refY="0"
       orient="auto"
       id="Arrow1Lend"
       style="overflow:visible">
      <path
         d="M 0,0 5,-5 -12.5,0 5,5 0,0 z"
         transform="matrix(-0.8,0,0,-0.8,-10,0)"
         id="path5899"
         style="fill-rule:evenodd;stroke:#000000;stroke-width:1pt;marker-start:none"
         inkscape:connector-curvature="0" />
    </marker>
  </defs>
  <metadata
     id="metadata7">
    <rdf:RDF>
      <cc:Work
         rdf:about="">
        <dc:format>image/svg+xml</dc:format>
        <dc:type
           rdf:resource="http://purl.org/dc/dcmitype/StillImage" />
        <dc:title />
      </cc:Work>
    </rdf:RDF>
  </metadata>
  <g
     transform="translate(41.044512,-623.81173)"
     id="layer1">
    <g
       transform="translate(-22.410252,-74.999987)"
       id="g7796">
      <g
         transform="matrix(0.82760584,0,0,0.83199984,20.347681,141.96436)"
         id="g5974" />
      <flowRoot
         transform="matrix(0.8,0,0,0.8,8.1904501,507.16162)"
         id="flowRoot5829"
         xml:space="preserve"
         style="font-size:12px;font-style:normal;font-variant:normal;font-weight:normal;font-stretch:normal;text-align:center;line-height:100%;letter-spacing:0px;word-spacing:0px;writing-mode:lr-tb;text-anchor:middle;fill:#000000;fill-opacity:1;stroke:none;font-family:FreeSans;-inkscape-font-specification:FreeSans"><flowRegion
           id="flowRegion5831"><rect
             width="85.714287"
             height="47.142857"
             x="-30.714285"
             y="-15.714287"
             id="rect5833" /></flowRegion><flowPara
           id="flowPara5835" /></flowRoot>      <path
         inkscape:connector-curvature="0"
         style="fill:#000000;fill-opacity:1;stroke:#000000;stroke-width:0.5;stroke-linecap:round;stroke-miterlimit:4;stroke-opacity:1;stroke-dasharray:none;stroke-dashoffset:0"
         id="path7586-2"
         d="m 5.5782938,777.63792 a 3.7641026,3.7641026 0 0 1 -7.5281942,0 3.7641026,3.7641026 0 1 1 7.5281942,0 z" />
      <path
         inkscape:connector-curvature="0"
         style="fill:#000000;fill-opacity:1;stroke:#000000;stroke-width:0.5;stroke-linecap:round;stroke-miterlimit:4;stroke-opacity:1;stroke-dasharray:none;stroke-dashoffset:0"
         id="path7586-1"
         d="m 84.988501,777.63591 a 3.7641026,3.7641026 0 0 1 -7.5282,0 3.7641026,3.7641026 0 1 1 7.5282,0 z" />
      <path
         inkscape:connector-curvature="0"
         style="fill:#000000;fill-opacity:1;stroke:#000000;stroke-width:0.5;stroke-linecap:round;stroke-miterlimit:4;stroke-opacity:1;stroke-dasharray:none;stroke-dashoffset:0"
         id="path7586-6"
         d="m 45.283405,708.04038 a 3.7641026,3.7641026 0 0 1 -7.5282,0 3.7641026,3.7641026 0 1 1 7.5282,0 z" />
      <path
         inkscape:connector-curvature="0"
         style="fill:none;stroke:#000000;stroke-width:1px;stroke-linecap:butt;stroke-linejoin:miter;stroke-opacity:1"
         id="path3098"
         d="m 78.564656,775.55999 -10.26124,-5.92436 -3.738779,2.46023 0.535909,-8.92821 -7.464099,4.92821 0.535879,-8.92821 -3.73203,2.46411 -10.261262,-5.92431"
         sodipodi:nodetypes="cccccccc" />
      <path
         sodipodi:nodetypes="cccccccc"
         d="m 38.859554,755.70744 -10.261266,5.92432 0.261232,4.46799 -7.464102,-4.92821 0.535906,8.9282 -7.464117,-4.92819 0.267966,4.46409 L 4.4739404,775.56"
         id="path3142"
         style="fill:none;stroke:#000000;stroke-width:1px;stroke-linecap:butt;stroke-linejoin:miter;stroke-opacity:1"
         inkscape:connector-curvature="0" />
      <path
         inkscape:connector-curvature="0"
         style="fill:none;stroke:#000000;stroke-width:1px;stroke-linecap:butt;stroke-linejoin:miter;stroke-opacity:1"
         id="path3144"
         d="m 41.519321,710.9834 -2.2e-5,11.84868 4.000009,2.00776 -8.000006,4 8.000001,3.99999 -7.999996,4.00002 3.999998,1.99998 3e-5,11.84867"
         sodipodi:nodetypes="cccccccc" />
      <path
         inkscape:connector-curvature="0"
         style="fill:#ffffff;fill-opacity:1;stroke:#000000;stroke-width:0.50000000000000000;stroke-linecap:round;stroke-miterlimit:4;stroke-opacity:1;stroke-dasharray:none;stroke-dashoffset:0"
         id="path7586"
         d="m 45.283397,753.64037 a 3.7641026,3.7641026 0 0 1 -7.5282,0 3.7641026,3.7641026 0 1 1 7.5282,0 z" />
    </g>
  </g>
</svg>
